<?xml version="1.0" encoding="UTF-8"?>
<svg id="Layer_1" xmlns="http://www.w3.org/2000/svg" version="1.1" viewBox="0 0 654.13 362.9">
  <!-- Generator: Adobe Illustrator 30.6.0, SVG Export Plug-In . SVG Version: 2.1.4 Build 109)  -->
  <defs>
    <style>
      .st0 {
        fill: #80cdc1;
      }

      .st1 {
        fill: #231f20;
      }

      .st2 {
        stroke: #cacecd;
      }

      .st2, .st3 {
        fill: #020202;
        stroke-miterlimit: 10;
        stroke-width: .25px;
      }

      .st4 {
        font-size: 12px;
      }

      .st4, .st5 {
        fill: #818181;
        font-family: MyriadPro-Regular, 'Myriad Pro';
      }

      .st5 {
        font-size: 11px;
      }

      .st6 {
        fill: #4e4e4e;
      }

      .st7 {
        fill: #ede6e8;
      }

      .st3 {
        stroke: #000;
      }

      .st8 {
        fill: #cacecd;
      }

      .st9 {
        fill: #dbd9da;
      }
    </style>
  </defs>
  <rect class="st8" x="164.84" y="150.11" width="261.34" height="47.01"/>
  <rect class="st8" x="426.17" y="150.11" width="30.5" height="47.01"/>
  <rect class="st8" x="456.65" y="150.11" width="39.22" height="47.01"/>
  <rect class="st0" x="495.86" y="150.11" width="104.55" height="47.01"/>
  <g>
    <path class="st8" d="M246.51,236.42h1.09v3.57h3.97v-3.57h1.09v8.53h-1.09v-4.01h-3.97v4.01h-1.09v-8.53Z"/>
    <path class="st8" d="M254.5,243.31c0-1.38,1.19-2.06,3.88-2.36,0-.81-.27-1.6-1.3-1.6-.73,0-1.39.35-1.88.68l-.42-.73c.58-.38,1.47-.83,2.48-.83,1.54,0,2.19,1.03,2.19,2.6v3.88h-.88l-.09-.76h-.04c-.6.5-1.31.91-2.09.91-1.06,0-1.85-.66-1.85-1.8ZM258.38,243.41v-1.75c-2.12.25-2.83.77-2.83,1.58,0,.72.49,1.01,1.11,1.01s1.11-.3,1.73-.84Z"/>
    <path class="st8" d="M261.44,238.63h.88l.09,1.15h.04c.44-.8,1.09-1.31,1.8-1.31.28,0,.48.04.67.13l-.2.94c-.22-.07-.36-.1-.61-.1-.53,0-1.17.38-1.6,1.45v4.06h-1.07v-6.32Z"/>
    <path class="st8" d="M265.95,238.63h.88l.09.92h.04c.55-.6,1.21-1.07,1.97-1.07.97,0,1.48.46,1.75,1.2.66-.71,1.31-1.2,2.08-1.2,1.3,0,1.92.86,1.92,2.47v4h-1.07v-3.87c0-1.18-.37-1.68-1.18-1.68-.49,0-1,.32-1.58.97v4.58h-1.07v-3.87c0-1.18-.37-1.68-1.18-1.68-.47,0-1,.32-1.58.97v4.58h-1.07v-6.32Z"/>
    <path class="st8" d="M279.51,243v-3.49h-.94v-.81l.99-.06.13-1.77h.89v1.77h1.71v.87h-1.71v3.51c0,.77.25,1.22.98,1.22.22,0,.51-.08.72-.17l.21.81c-.35.12-.78.23-1.17.23-1.34,0-1.8-.85-1.8-2.11Z"/>
    <path class="st8" d="M283.07,241.8c0-2.11,1.38-3.32,2.93-3.32s2.93,1.22,2.93,3.32-1.38,3.31-2.93,3.31-2.93-1.22-2.93-3.31ZM287.82,241.8c0-1.45-.74-2.43-1.82-2.43s-1.82.99-1.82,2.43.74,2.42,1.82,2.42,1.82-.97,1.82-2.42Z"/>
    <path class="st8" d="M289.78,238.63h1.09l.94,3.65c.14.6.25,1.17.38,1.76h.05c.14-.59.27-1.17.43-1.76l.98-3.65h1.04l.99,3.65c.16.6.29,1.17.44,1.76h.05c.14-.59.25-1.16.39-1.76l.92-3.65h1.02l-1.7,6.32h-1.3l-.91-3.4c-.15-.6-.27-1.18-.43-1.82h-.05c-.14.64-.26,1.24-.43,1.84l-.89,3.38h-1.25l-1.76-6.32Z"/>
    <path class="st8" d="M299.34,243.31c0-1.38,1.19-2.06,3.88-2.36,0-.81-.27-1.6-1.3-1.6-.73,0-1.39.35-1.88.68l-.42-.73c.58-.38,1.47-.83,2.48-.83,1.54,0,2.19,1.03,2.19,2.6v3.88h-.88l-.09-.76h-.04c-.6.5-1.31.91-2.09.91-1.06,0-1.85-.66-1.85-1.8ZM303.23,243.41v-1.75c-2.12.25-2.83.77-2.83,1.58,0,.72.49,1.01,1.11,1.01s1.11-.3,1.73-.84Z"/>
    <path class="st8" d="M306.29,238.63h.88l.09,1.15h.04c.44-.8,1.09-1.31,1.8-1.31.28,0,.48.04.67.13l-.2.94c-.22-.07-.36-.1-.61-.1-.53,0-1.17.38-1.6,1.45v4.06h-1.07v-6.32Z"/>
    <path class="st8" d="M310.22,241.8c0-2.05,1.29-3.32,2.73-3.32.73,0,1.22.28,1.77.73l-.04-1.08v-2.43h1.07v9.26h-.88l-.09-.75h-.04c-.49.49-1.16.9-1.92.9-1.58,0-2.6-1.2-2.6-3.31ZM314.68,243.35v-3.31c-.54-.48-1.03-.66-1.54-.66-1.01,0-1.81.97-1.81,2.41,0,1.52.63,2.42,1.73,2.42.58,0,1.09-.29,1.62-.86Z"/>
    <path class="st8" d="M320.03,241.8c0-2.05,1.29-3.32,2.73-3.32.73,0,1.22.28,1.77.73l-.04-1.08v-2.43h1.07v9.26h-.88l-.09-.75h-.04c-.49.49-1.16.9-1.92.9-1.58,0-2.6-1.2-2.6-3.31ZM324.49,243.35v-3.31c-.54-.48-1.03-.66-1.54-.66-1.01,0-1.81.97-1.81,2.41,0,1.52.63,2.42,1.73,2.42.58,0,1.09-.29,1.62-.86Z"/>
    <path class="st8" d="M327.23,241.8c0-2.11,1.38-3.32,2.93-3.32s2.93,1.22,2.93,3.32-1.38,3.31-2.93,3.31-2.93-1.22-2.93-3.31ZM331.98,241.8c0-1.45-.74-2.43-1.82-2.43s-1.82.99-1.82,2.43.74,2.42,1.82,2.42,1.82-.97,1.82-2.42Z"/>
    <path class="st8" d="M334.26,246.17c0-.54.34-1.05.93-1.43v-.05c-.32-.2-.57-.54-.57-1.04,0-.52.37-.94.7-1.17v-.05c-.42-.33-.82-.94-.82-1.7,0-1.38,1.09-2.25,2.37-2.25.35,0,.66.07.89.16h2.2v.82h-1.3c.3.29.51.76.51,1.3,0,1.35-1.02,2.19-2.31,2.19-.31,0-.66-.08-.94-.21-.23.19-.4.4-.4.75,0,.4.26.69,1.11.69h1.23c1.47,0,2.21.46,2.21,1.51,0,1.17-1.24,2.19-3.2,2.19-1.55,0-2.62-.61-2.62-1.69ZM339.03,245.84c0-.58-.44-.78-1.27-.78h-1.09c-.24,0-.54-.03-.82-.09-.45.32-.65.7-.65,1.06,0,.68.68,1.11,1.83,1.11,1.21,0,2-.63,2-1.29ZM338.22,240.73c0-.92-.6-1.48-1.34-1.48s-1.34.55-1.34,1.48.62,1.5,1.34,1.5,1.34-.58,1.34-1.5Z"/>
    <path class="st8" d="M340.59,244.23l.53-.7c.55.44,1.11.75,1.87.75.83,0,1.24-.44,1.24-.98,0-.65-.75-.94-1.45-1.2-.88-.32-1.88-.76-1.88-1.83s.81-1.79,2.18-1.79c.79,0,1.47.32,1.96.71l-.51.69c-.44-.32-.88-.56-1.44-.56-.8,0-1.16.42-1.16.91,0,.6.69.83,1.4,1.1.91.34,1.93.71,1.93,1.92,0,1.02-.81,1.88-2.3,1.88-.9,0-1.76-.38-2.36-.88Z"/>
  </g>
  <g>
    <path class="st8" d="M384.53,236.42h1.09v3.57h3.97v-3.57h1.09v8.53h-1.09v-4.01h-3.97v4.01h-1.09v-8.53Z"/>
    <path class="st8" d="M392.51,243.31c0-1.38,1.19-2.06,3.88-2.36,0-.81-.27-1.6-1.3-1.6-.73,0-1.39.35-1.88.68l-.42-.73c.58-.38,1.47-.83,2.48-.83,1.54,0,2.19,1.03,2.19,2.6v3.88h-.88l-.09-.76h-.04c-.6.5-1.31.91-2.09.91-1.06,0-1.85-.66-1.85-1.8ZM396.39,243.41v-1.75c-2.12.25-2.83.77-2.83,1.58,0,.72.49,1.01,1.11,1.01s1.11-.3,1.73-.84Z"/>
    <path class="st8" d="M399.45,238.63h.88l.09,1.15h.04c.44-.8,1.09-1.31,1.8-1.31.28,0,.48.04.67.13l-.2.94c-.22-.07-.36-.1-.61-.1-.53,0-1.17.38-1.6,1.45v4.06h-1.07v-6.32Z"/>
    <path class="st8" d="M403.97,238.63h.88l.09.92h.04c.55-.6,1.21-1.07,1.97-1.07.97,0,1.48.46,1.75,1.2.66-.71,1.31-1.2,2.08-1.2,1.3,0,1.92.86,1.92,2.47v4h-1.07v-3.87c0-1.18-.37-1.68-1.18-1.68-.49,0-1,.32-1.58.97v4.58h-1.07v-3.87c0-1.18-.37-1.68-1.18-1.68-.47,0-1,.32-1.58.97v4.58h-1.07v-6.32Z"/>
    <path class="st8" d="M416.87,241.8c0-2.11,1.42-3.32,3.04-3.32.83,0,1.4.34,1.85.74l-.55.71c-.37-.33-.76-.56-1.25-.56-1.14,0-1.98.99-1.98,2.43s.79,2.42,1.95,2.42c.58,0,1.09-.28,1.48-.63l.46.72c-.57.51-1.28.8-2.04.8-1.68,0-2.96-1.22-2.96-3.31Z"/>
    <path class="st8" d="M422.75,243.31c0-1.38,1.19-2.06,3.88-2.36,0-.81-.27-1.6-1.3-1.6-.73,0-1.39.35-1.88.68l-.42-.73c.58-.38,1.47-.83,2.48-.83,1.54,0,2.19,1.03,2.19,2.6v3.88h-.88l-.09-.76h-.04c-.6.5-1.31.91-2.09.91-1.06,0-1.85-.66-1.85-1.8ZM426.63,243.41v-1.75c-2.12.25-2.83.77-2.83,1.58,0,.72.49,1.01,1.11,1.01s1.11-.3,1.73-.84Z"/>
    <path class="st8" d="M429.61,242.64v-4h1.07v3.87c0,1.18.36,1.68,1.19,1.68.65,0,1.09-.32,1.69-1.06v-4.48h1.07v6.32h-.88l-.09-.99h-.04c-.59.69-1.22,1.15-2.08,1.15-1.33,0-1.93-.86-1.93-2.47Z"/>
    <path class="st8" d="M436.06,244.23l.53-.7c.55.44,1.11.75,1.87.75.83,0,1.24-.44,1.24-.98,0-.65-.75-.94-1.44-1.2-.89-.32-1.88-.76-1.88-1.83s.81-1.79,2.18-1.79c.79,0,1.47.32,1.96.71l-.51.69c-.44-.32-.88-.56-1.44-.56-.8,0-1.16.42-1.16.91,0,.6.69.83,1.4,1.1.91.34,1.93.71,1.93,1.92,0,1.02-.81,1.88-2.3,1.88-.9,0-1.76-.38-2.36-.88Z"/>
    <path class="st8" d="M441.74,241.8c0-2.06,1.39-3.32,2.84-3.32,1.61,0,2.52,1.16,2.52,2.97,0,.23-.02.45-.05.61h-4.25c.08,1.34.89,2.21,2.1,2.21.61,0,1.1-.2,1.57-.51l.38.7c-.55.36-1.23.66-2.09.66-1.68,0-3.03-1.23-3.03-3.31ZM446.16,241.28c0-1.27-.57-1.96-1.56-1.96-.89,0-1.68.71-1.81,1.96h3.37Z"/>
    <path class="st8" d="M448.21,241.8c0-2.05,1.29-3.32,2.73-3.32.73,0,1.22.28,1.77.73l-.04-1.08v-2.43h1.07v9.26h-.88l-.09-.75h-.04c-.49.49-1.16.9-1.92.9-1.58,0-2.6-1.2-2.6-3.31ZM452.67,243.35v-3.31c-.54-.48-1.03-.66-1.54-.66-1.01,0-1.81.97-1.81,2.41,0,1.52.63,2.42,1.73,2.42.58,0,1.09-.29,1.62-.86Z"/>
    <path class="st8" d="M459.46,244.3h-.04l-.1.65h-.85v-9.26h1.07v2.53l-.04,1.13c.58-.5,1.28-.88,1.99-.88,1.63,0,2.51,1.27,2.51,3.22,0,2.16-1.29,3.42-2.74,3.42-.59,0-1.24-.3-1.8-.81ZM462.9,241.71c0-1.39-.48-2.33-1.67-2.33-.54,0-1.09.29-1.69.86v3.31c.56.48,1.12.66,1.54.66,1.05,0,1.82-.94,1.82-2.5Z"/>
    <path class="st8" d="M464.98,247.55l.21-.85c.12.04.32.09.48.09.71,0,1.16-.57,1.42-1.36l.14-.47-2.54-6.33h1.1l1.29,3.5c.2.55.41,1.2.62,1.78h.05c.18-.57.36-1.22.53-1.78l1.13-3.5h1.05l-2.38,6.84c-.45,1.25-1.1,2.2-2.37,2.2-.29,0-.54-.05-.74-.13Z"/>
    <path class="st8" d="M473.83,241.8c0-2.05,1.29-3.32,2.73-3.32.73,0,1.22.28,1.77.73l-.04-1.08v-2.43h1.07v9.26h-.88l-.09-.75h-.04c-.49.49-1.16.9-1.92.9-1.58,0-2.6-1.2-2.6-3.31ZM478.29,243.35v-3.31c-.54-.48-1.03-.66-1.54-.66-1.01,0-1.81.97-1.81,2.41,0,1.52.63,2.42,1.73,2.42.58,0,1.09-.29,1.62-.86Z"/>
    <path class="st8" d="M481.03,241.8c0-2.11,1.38-3.32,2.93-3.32s2.93,1.22,2.93,3.32-1.38,3.31-2.93,3.31-2.93-1.22-2.93-3.31ZM485.78,241.8c0-1.45-.74-2.43-1.82-2.43s-1.82.99-1.82,2.43.74,2.42,1.82,2.42,1.82-.97,1.82-2.42Z"/>
    <path class="st8" d="M488.06,246.17c0-.54.34-1.05.93-1.43v-.05c-.32-.2-.57-.54-.57-1.04,0-.52.37-.94.7-1.17v-.05c-.42-.33-.82-.94-.82-1.7,0-1.38,1.09-2.25,2.37-2.25.35,0,.66.07.89.16h2.2v.82h-1.3c.3.29.51.76.51,1.3,0,1.35-1.02,2.19-2.31,2.19-.31,0-.66-.08-.94-.21-.23.19-.4.4-.4.75,0,.4.26.69,1.11.69h1.23c1.47,0,2.21.46,2.21,1.51,0,1.17-1.24,2.19-3.2,2.19-1.55,0-2.62-.61-2.62-1.69ZM492.83,245.84c0-.58-.44-.78-1.27-.78h-1.09c-.24,0-.54-.03-.82-.09-.45.32-.65.7-.65,1.06,0,.68.68,1.11,1.83,1.11,1.21,0,2-.63,2-1.29ZM492.02,240.73c0-.92-.6-1.48-1.34-1.48s-1.34.55-1.34,1.48.62,1.5,1.34,1.5,1.34-.58,1.34-1.5Z"/>
    <path class="st8" d="M494.39,244.23l.53-.7c.55.44,1.11.75,1.87.75.83,0,1.24-.44,1.24-.98,0-.65-.75-.94-1.44-1.2-.89-.32-1.88-.76-1.88-1.83s.81-1.79,2.18-1.79c.79,0,1.47.32,1.96.71l-.51.69c-.44-.32-.88-.56-1.44-.56-.8,0-1.16.42-1.16.91,0,.6.69.83,1.4,1.1.91.34,1.93.71,1.93,1.92,0,1.02-.81,1.88-2.3,1.88-.9,0-1.76-.38-2.36-.88Z"/>
  </g>
  <g>
    <path class="st8" d="M463.55,69.46h1.09v3.57h3.97v-3.57h1.09v8.53h-1.09v-4.01h-3.97v4.01h-1.09v-8.53Z"/>
    <path class="st8" d="M471.54,76.35c0-1.38,1.19-2.06,3.88-2.36,0-.81-.27-1.6-1.3-1.6-.73,0-1.39.35-1.88.68l-.42-.73c.58-.38,1.47-.83,2.48-.83,1.54,0,2.19,1.03,2.19,2.6v3.88h-.88l-.09-.76h-.04c-.6.5-1.31.91-2.09.91-1.06,0-1.85-.66-1.85-1.8ZM475.42,76.45v-1.75c-2.12.25-2.83.77-2.83,1.58,0,.72.49,1.01,1.11,1.01s1.11-.3,1.73-.84Z"/>
    <path class="st8" d="M478.48,71.67h.88l.09,1.15h.04c.44-.8,1.09-1.31,1.8-1.31.28,0,.48.04.67.13l-.2.94c-.22-.07-.36-.1-.61-.1-.53,0-1.17.38-1.6,1.45v4.06h-1.07v-6.32Z"/>
    <path class="st8" d="M482.99,71.67h.88l.09.92h.04c.55-.6,1.21-1.07,1.97-1.07.97,0,1.48.46,1.75,1.2.66-.71,1.31-1.2,2.08-1.2,1.3,0,1.92.86,1.92,2.47v4h-1.07v-3.87c0-1.18-.37-1.68-1.18-1.68-.49,0-1,.32-1.58.97v4.58h-1.07v-3.87c0-1.18-.37-1.68-1.18-1.68-.47,0-1,.32-1.58.97v4.58h-1.07v-6.32Z"/>
    <path class="st8" d="M456.8,91.64v-3.49h-.94v-.81l.99-.06.13-1.77h.89v1.77h1.71v.87h-1.71v3.51c0,.77.25,1.22.98,1.22.22,0,.51-.08.72-.17l.21.81c-.35.12-.78.23-1.17.23-1.34,0-1.8-.85-1.8-2.11Z"/>
    <path class="st8" d="M460.35,90.44c0-2.11,1.38-3.32,2.93-3.32s2.93,1.22,2.93,3.32-1.38,3.31-2.93,3.31-2.93-1.21-2.93-3.31ZM465.1,90.44c0-1.45-.74-2.43-1.82-2.43s-1.82.99-1.82,2.43.74,2.42,1.82,2.42,1.82-.97,1.82-2.42Z"/>
    <path class="st8" d="M467.06,87.27h1.09l.94,3.65c.14.6.25,1.17.38,1.76h.05c.14-.59.27-1.17.43-1.76l.98-3.65h1.04l.99,3.65c.16.6.29,1.17.44,1.76h.05c.14-.59.25-1.16.39-1.76l.92-3.65h1.02l-1.7,6.32h-1.3l-.91-3.4c-.15-.6-.27-1.18-.43-1.82h-.05c-.14.64-.26,1.24-.43,1.84l-.89,3.38h-1.25l-1.76-6.32Z"/>
    <path class="st8" d="M476.63,91.95c0-1.38,1.19-2.06,3.88-2.36,0-.81-.27-1.6-1.3-1.6-.73,0-1.39.35-1.88.68l-.42-.73c.58-.38,1.47-.83,2.48-.83,1.54,0,2.19,1.03,2.19,2.6v3.88h-.88l-.09-.76h-.04c-.6.5-1.31.91-2.09.91-1.06,0-1.85-.66-1.85-1.8ZM480.51,92.05v-1.75c-2.12.25-2.83.77-2.83,1.58,0,.72.49,1.01,1.11,1.01s1.11-.3,1.73-.84Z"/>
    <path class="st8" d="M483.57,87.27h.88l.09,1.15h.04c.44-.8,1.09-1.31,1.8-1.31.28,0,.48.04.67.13l-.2.94c-.22-.07-.36-.1-.61-.1-.53,0-1.17.38-1.6,1.45v4.06h-1.07v-6.32Z"/>
    <path class="st8" d="M487.5,90.44c0-2.05,1.29-3.32,2.73-3.32.73,0,1.22.28,1.77.73l-.04-1.08v-2.44h1.07v9.26h-.88l-.09-.75h-.04c-.49.49-1.16.9-1.92.9-1.58,0-2.6-1.2-2.6-3.31ZM491.96,91.98v-3.31c-.54-.48-1.03-.66-1.54-.66-1.01,0-1.81.97-1.81,2.41,0,1.52.63,2.42,1.73,2.42.58,0,1.09-.29,1.62-.86Z"/>
    <path class="st8" d="M494.46,92.87l.53-.7c.55.44,1.11.75,1.87.75.83,0,1.24-.44,1.24-.98,0-.65-.75-.94-1.44-1.2-.89-.32-1.88-.76-1.88-1.83s.81-1.79,2.18-1.79c.79,0,1.47.32,1.96.71l-.51.69c-.44-.32-.88-.56-1.44-.56-.8,0-1.16.42-1.16.91,0,.6.69.83,1.4,1.1.91.34,1.93.71,1.93,1.92,0,1.02-.81,1.88-2.3,1.88-.9,0-1.76-.38-2.36-.88Z"/>
    <path class="st8" d="M457.86,102.93l.91-.06h2.36v.87h-3.27v-.81ZM458.72,101.87c0-1.28.58-2.1,1.85-2.1.38,0,.76.1,1.05.22l-.23.82c-.24-.11-.49-.16-.72-.16-.6,0-.89.42-.89,1.23v7.31h-1.07v-7.32Z"/>
    <path class="st8" d="M461.74,106.04c0-2.06,1.39-3.32,2.84-3.32,1.61,0,2.52,1.16,2.52,2.97,0,.23-.02.45-.05.61h-4.25c.08,1.34.89,2.21,2.1,2.21.61,0,1.1-.2,1.57-.51l.38.7c-.55.36-1.23.66-2.09.66-1.68,0-3.03-1.23-3.03-3.31ZM466.16,105.52c0-1.27-.57-1.96-1.56-1.96-.89,0-1.68.71-1.81,1.96h3.37Z"/>
    <path class="st8" d="M468.19,106.04c0-2.06,1.39-3.32,2.84-3.32,1.61,0,2.52,1.16,2.52,2.97,0,.23-.02.45-.05.61h-4.25c.08,1.34.89,2.21,2.1,2.21.61,0,1.1-.2,1.57-.51l.38.7c-.55.36-1.23.66-2.09.66-1.68,0-3.03-1.23-3.03-3.31ZM472.61,105.52c0-1.27-.57-1.96-1.56-1.96-.89,0-1.68.71-1.81,1.96h3.37Z"/>
    <path class="st8" d="M474.66,106.04c0-2.05,1.29-3.32,2.73-3.32.73,0,1.22.28,1.77.73l-.04-1.08v-2.43h1.07v9.26h-.88l-.09-.75h-.04c-.49.49-1.16.9-1.92.9-1.58,0-2.6-1.2-2.6-3.31ZM479.12,107.58v-3.31c-.54-.48-1.03-.66-1.54-.66-1.01,0-1.81.97-1.81,2.41,0,1.52.63,2.42,1.73,2.42.58,0,1.09-.29,1.62-.86Z"/>
    <path class="st8" d="M481.85,106.04c0-2.06,1.39-3.32,2.84-3.32,1.61,0,2.52,1.16,2.52,2.97,0,.23-.02.45-.05.61h-4.25c.08,1.34.89,2.21,2.1,2.21.61,0,1.1-.2,1.57-.51l.38.7c-.55.36-1.23.66-2.09.66-1.68,0-3.03-1.23-3.03-3.31ZM486.27,105.52c0-1.27-.57-1.96-1.56-1.96-.89,0-1.68.71-1.81,1.96h3.37Z"/>
    <path class="st8" d="M488.77,102.87h.88l.09,1.15h.04c.44-.8,1.09-1.31,1.8-1.31.28,0,.48.04.67.13l-.2.94c-.22-.07-.36-.1-.61-.1-.53,0-1.17.38-1.6,1.45v4.06h-1.07v-6.32Z"/>
    <path class="st8" d="M492.53,108.47l.53-.7c.55.44,1.11.75,1.87.75.83,0,1.24-.44,1.24-.98,0-.65-.75-.94-1.44-1.2-.89-.32-1.88-.76-1.88-1.83s.81-1.79,2.18-1.79c.79,0,1.47.32,1.96.71l-.51.69c-.44-.32-.88-.56-1.44-.56-.8,0-1.16.42-1.16.91,0,.6.69.83,1.4,1.1.91.34,1.93.71,1.93,1.92,0,1.02-.81,1.88-2.3,1.88-.9,0-1.76-.38-2.36-.88Z"/>
  </g>
  <g>
    <path class="st1" d="M516.06,84.71h1.09v3.57h3.97v-3.57h1.09v8.53h-1.09v-4.01h-3.97v4.01h-1.09v-8.53Z"/>
    <path class="st1" d="M524.05,91.61c0-1.38,1.19-2.06,3.88-2.36,0-.81-.27-1.6-1.3-1.6-.73,0-1.39.35-1.88.68l-.42-.73c.58-.38,1.47-.83,2.48-.83,1.54,0,2.19,1.03,2.19,2.6v3.88h-.88l-.09-.76h-.04c-.6.5-1.31.91-2.09.91-1.06,0-1.85-.66-1.85-1.8ZM527.93,91.7v-1.75c-2.12.25-2.83.77-2.83,1.58,0,.72.49,1.01,1.11,1.01s1.11-.3,1.73-.84Z"/>
    <path class="st1" d="M530.99,86.93h.88l.09,1.15h.04c.44-.8,1.09-1.31,1.8-1.31.28,0,.48.04.67.13l-.2.94c-.22-.07-.36-.1-.61-.1-.53,0-1.17.38-1.6,1.45v4.06h-1.07v-6.32Z"/>
    <path class="st1" d="M535.5,86.93h.88l.09.92h.04c.55-.6,1.21-1.07,1.97-1.07.97,0,1.48.46,1.75,1.2.66-.71,1.31-1.2,2.08-1.2,1.3,0,1.92.86,1.92,2.47v4h-1.07v-3.87c0-1.18-.37-1.68-1.18-1.68-.49,0-1,.32-1.58.97v4.58h-1.07v-3.87c0-1.18-.37-1.68-1.18-1.68-.47,0-1,.32-1.58.97v4.58h-1.07v-6.32Z"/>
    <path class="st1" d="M549.07,91.29v-3.49h-.94v-.81l.99-.06.13-1.77h.89v1.77h1.71v.87h-1.71v3.51c0,.77.25,1.22.98,1.22.22,0,.51-.08.72-.17l.21.81c-.35.12-.78.23-1.17.23-1.34,0-1.8-.85-1.8-2.11Z"/>
    <path class="st1" d="M552.62,90.1c0-2.11,1.38-3.32,2.93-3.32s2.93,1.22,2.93,3.32-1.38,3.31-2.93,3.31-2.93-1.22-2.93-3.31ZM557.37,90.1c0-1.45-.74-2.43-1.82-2.43s-1.82.99-1.82,2.43.74,2.42,1.82,2.42,1.82-.97,1.82-2.42Z"/>
    <path class="st1" d="M559.33,86.93h1.09l.94,3.65c.14.6.25,1.17.38,1.76h.05c.14-.59.27-1.17.43-1.76l.98-3.65h1.04l.99,3.65c.16.6.29,1.17.44,1.76h.05c.14-.59.25-1.16.39-1.76l.92-3.65h1.02l-1.7,6.32h-1.3l-.91-3.4c-.15-.6-.27-1.18-.43-1.82h-.05c-.14.64-.26,1.24-.43,1.84l-.89,3.38h-1.25l-1.76-6.32Z"/>
    <path class="st1" d="M568.9,91.61c0-1.38,1.19-2.06,3.88-2.36,0-.81-.27-1.6-1.3-1.6-.73,0-1.39.35-1.88.68l-.42-.73c.58-.38,1.47-.83,2.48-.83,1.54,0,2.19,1.03,2.19,2.6v3.88h-.88l-.09-.76h-.04c-.6.5-1.31.91-2.09.91-1.06,0-1.85-.66-1.85-1.8ZM572.78,91.7v-1.75c-2.12.25-2.83.77-2.83,1.58,0,.72.49,1.01,1.11,1.01s1.11-.3,1.73-.84Z"/>
    <path class="st1" d="M575.84,86.93h.88l.09,1.15h.04c.44-.8,1.09-1.31,1.8-1.31.28,0,.48.04.67.13l-.2.94c-.22-.07-.36-.1-.61-.1-.53,0-1.17.38-1.6,1.45v4.06h-1.07v-6.32Z"/>
    <path class="st1" d="M579.77,90.1c0-2.05,1.29-3.32,2.73-3.32.73,0,1.22.28,1.77.73l-.04-1.08v-2.43h1.07v9.26h-.88l-.09-.75h-.04c-.49.49-1.16.9-1.92.9-1.58,0-2.6-1.2-2.6-3.31ZM584.23,91.64v-3.31c-.54-.48-1.03-.66-1.54-.66-1.01,0-1.81.97-1.81,2.41,0,1.52.63,2.42,1.73,2.42.58,0,1.09-.29,1.62-.86Z"/>
    <path class="st1" d="M586.74,92.53l.53-.7c.55.44,1.11.75,1.87.75.83,0,1.24-.44,1.24-.98,0-.65-.75-.94-1.45-1.2-.88-.32-1.88-.76-1.88-1.83s.81-1.79,2.18-1.79c.79,0,1.47.32,1.96.71l-.51.69c-.44-.32-.88-.56-1.44-.56-.8,0-1.16.42-1.16.91,0,.6.69.83,1.4,1.1.91.34,1.93.71,1.93,1.92,0,1.02-.81,1.88-2.3,1.88-.9,0-1.76-.38-2.36-.88Z"/>
    <path class="st1" d="M514.22,105.7c0-2.05,1.29-3.32,2.73-3.32.73,0,1.22.28,1.77.73l-.04-1.08v-2.44h1.07v9.26h-.88l-.09-.75h-.04c-.49.49-1.16.9-1.92.9-1.58,0-2.6-1.2-2.6-3.31ZM518.68,107.24v-3.31c-.54-.48-1.03-.66-1.54-.66-1.01,0-1.81.97-1.81,2.41,0,1.52.63,2.42,1.73,2.42.58,0,1.09-.29,1.62-.86Z"/>
    <path class="st1" d="M521.42,105.7c0-2.11,1.38-3.32,2.93-3.32s2.93,1.22,2.93,3.32-1.38,3.31-2.93,3.31-2.93-1.21-2.93-3.31ZM526.17,105.7c0-1.45-.74-2.43-1.82-2.43s-1.82.99-1.82,2.43.74,2.42,1.82,2.42,1.82-.97,1.82-2.42Z"/>
    <path class="st1" d="M528.45,110.06c0-.54.34-1.05.93-1.43v-.05c-.32-.2-.57-.54-.57-1.04,0-.52.37-.94.7-1.17v-.05c-.42-.33-.82-.94-.82-1.7,0-1.38,1.09-2.25,2.37-2.25.35,0,.66.07.89.16h2.2v.82h-1.3c.3.29.51.76.51,1.3,0,1.35-1.02,2.19-2.31,2.19-.31,0-.66-.08-.94-.21-.23.19-.4.4-.4.75,0,.4.26.69,1.11.69h1.23c1.47,0,2.21.46,2.21,1.51,0,1.17-1.24,2.19-3.2,2.19-1.55,0-2.62-.61-2.62-1.69ZM533.22,109.73c0-.58-.44-.78-1.27-.78h-1.09c-.24,0-.54-.03-.82-.09-.45.32-.65.7-.65,1.06,0,.68.68,1.11,1.83,1.11,1.21,0,2-.63,2-1.29ZM532.41,104.62c0-.92-.6-1.48-1.34-1.48s-1.34.55-1.34,1.48.62,1.5,1.34,1.5,1.34-.58,1.34-1.5Z"/>
    <path class="st1" d="M534.78,108.13l.53-.7c.55.44,1.11.75,1.87.75.83,0,1.24-.44,1.24-.98,0-.65-.75-.94-1.44-1.2-.89-.32-1.88-.76-1.88-1.83s.81-1.79,2.18-1.79c.79,0,1.47.32,1.96.71l-.51.69c-.44-.32-.88-.56-1.44-.56-.8,0-1.16.42-1.16.91,0,.6.69.83,1.4,1.1.91.34,1.93.71,1.93,1.92,0,1.02-.81,1.88-2.3,1.88-.9,0-1.76-.38-2.36-.88Z"/>
    <path class="st1" d="M542.88,106.64c0-2.53,3.9-2.94,3.9-4.78,0-.5-.23-.94-.81-.94-.64,0-1.05.53-1.05,1.24,0,1.59,1.75,3.72,3.39,4.93.67.51,1.33.86,1.88,1.01l-.29.89c-.68-.19-1.45-.58-2.23-1.19-1.87-1.45-3.67-3.82-3.67-5.63,0-1.14.79-2.02,1.97-2.02,1.06,0,1.68.7,1.68,1.69,0,2.19-3.73,2.85-3.73,4.73,0,.95.75,1.57,1.68,1.57.71,0,1.39-.41,1.95-1,.7-.76,1.21-1.74,1.53-2.9h.99c-.37,1.27-.95,2.45-1.78,3.41-.72.79-1.62,1.34-2.82,1.34-1.54,0-2.6-.99-2.6-2.36Z"/>
    <path class="st1" d="M553.37,102.59l.91-.06h2.36v.87h-3.27v-.81ZM554.22,101.53c0-1.28.58-2.1,1.85-2.1.38,0,.76.1,1.05.22l-.23.82c-.24-.11-.49-.16-.72-.16-.6,0-.89.42-.89,1.23v7.31h-1.07v-7.32Z"/>
    <path class="st1" d="M557.24,105.7c0-2.06,1.39-3.32,2.84-3.32,1.61,0,2.52,1.16,2.52,2.97,0,.23-.02.45-.05.61h-4.25c.08,1.34.89,2.21,2.1,2.21.61,0,1.1-.2,1.57-.51l.38.7c-.55.36-1.23.66-2.09.66-1.68,0-3.03-1.23-3.03-3.31ZM561.66,105.18c0-1.27-.57-1.96-1.56-1.96-.89,0-1.68.71-1.81,1.96h3.37Z"/>
    <path class="st1" d="M563.69,105.7c0-2.06,1.39-3.32,2.84-3.32,1.61,0,2.52,1.16,2.52,2.97,0,.23-.02.45-.05.61h-4.25c.08,1.34.89,2.21,2.1,2.21.61,0,1.1-.2,1.57-.51l.38.7c-.55.36-1.23.66-2.09.66-1.68,0-3.03-1.23-3.03-3.31ZM568.11,105.18c0-1.27-.57-1.96-1.56-1.96-.89,0-1.68.71-1.81,1.96h3.37Z"/>
    <path class="st1" d="M570.16,105.7c0-2.05,1.29-3.32,2.73-3.32.73,0,1.22.28,1.77.73l-.04-1.08v-2.44h1.07v9.26h-.88l-.09-.75h-.04c-.49.49-1.16.9-1.92.9-1.58,0-2.6-1.2-2.6-3.31ZM574.62,107.24v-3.31c-.54-.48-1.03-.66-1.54-.66-1.01,0-1.81.97-1.81,2.41,0,1.52.63,2.42,1.73,2.42.58,0,1.09-.29,1.62-.86Z"/>
    <path class="st1" d="M577.36,105.7c0-2.06,1.39-3.32,2.84-3.32,1.61,0,2.52,1.16,2.52,2.97,0,.23-.02.45-.05.61h-4.25c.08,1.34.89,2.21,2.1,2.21.61,0,1.1-.2,1.57-.51l.38.7c-.55.36-1.23.66-2.09.66-1.68,0-3.03-1.23-3.03-3.31ZM581.77,105.18c0-1.27-.57-1.96-1.56-1.96-.89,0-1.68.71-1.81,1.96h3.37Z"/>
    <path class="st1" d="M584.27,102.53h.88l.09,1.15h.04c.44-.8,1.09-1.31,1.8-1.31.28,0,.48.04.67.13l-.2.94c-.22-.07-.36-.1-.61-.1-.53,0-1.17.38-1.6,1.45v4.06h-1.07v-6.32Z"/>
    <path class="st1" d="M588.03,108.13l.53-.7c.55.44,1.11.75,1.87.75.83,0,1.24-.44,1.24-.98,0-.65-.75-.94-1.44-1.2-.89-.32-1.88-.76-1.88-1.83s.81-1.79,2.18-1.79c.79,0,1.47.32,1.96.71l-.51.69c-.44-.32-.88-.56-1.44-.56-.8,0-1.16.42-1.16.91,0,.6.69.83,1.4,1.1.91.34,1.93.71,1.93,1.92,0,1.02-.81,1.88-2.3,1.88-.9,0-1.76-.38-2.36-.88Z"/>
  </g>
  <line class="st2" x1="295.51" y1="197.11" x2="295.51" y2="231.3"/>
  <line class="st2" x1="442.29" y1="197.11" x2="442.29" y2="231.3"/>
  <line class="st2" x1="477.54" y1="115.92" x2="477.54" y2="150.11"/>
  <line class="st3" x1="553.36" y1="115.92" x2="553.36" y2="150.11"/>
  <g>
    <path class="st1" d="M4.74,24.97l-2.07-9.2c-.18-.84-.35-1.56-.49-2.16-.15-.6-.28-1.12-.4-1.56-.12-.44-.25-.86-.37-1.24H.39c-.09-.25-.14-.46-.14-.64,0-.17.05-.3.14-.4.09-.1.25-.15.46-.15h3.98c.09.25.14.46.14.64,0,.37-.2.55-.6.55h-.64c.12.75.28,1.63.47,2.62s.4,2.05.63,3.16c.23,1.11.47,2.21.71,3.29.25,1.08.48,2.09.71,3.02.21-.77.44-1.61.69-2.53.25-.92.49-1.87.75-2.86.25-.99.5-1.97.72-2.93.23-.97.44-1.87.62-2.73s.34-1.6.46-2.24h1.59c.41,0,.72.08.92.23s.34.46.44.92c.17.78.38,1.67.62,2.67.25,1,.51,2.04.78,3.14.28,1.1.56,2.19.85,3.28.29,1.09.57,2.11.83,3.06.25-.94.49-1.95.74-3.04.25-1.09.48-2.19.7-3.29.22-1.1.43-2.15.62-3.15.19-1,.36-1.87.49-2.62h-1.13c-.08-.25-.12-.46-.12-.64,0-.37.2-.55.6-.55h3.66c.09.25.14.46.14.64,0,.17-.05.3-.14.4s-.25.15-.46.15h-.69c-.12.46-.25.95-.38,1.47-.13.52-.26,1.07-.38,1.64-.12.57-.25,1.18-.39,1.83l-1.84,8.17c-.09.4-.23.67-.4.83-.18.15-.45.23-.82.23h-1.68l-3.31-13.04-3.08,11.98c-.09.41-.21.69-.37.84-.15.15-.43.22-.83.22h-1.72Z"/>
    <path class="st1" d="M22.84,23.78h.6c.03-.55.05-1.16.06-1.82,0-.66.01-1.3.01-1.91v-8.65c0-.49-.07-.81-.2-.95-.13-.15-.37-.22-.72-.22h-.25c-.05-.14-.08-.26-.1-.38-.02-.11-.03-.23-.03-.33,0-.37.21-.55.64-.55h2.6c0,.57-.01,1.26-.03,2.07-.02.81-.04,1.59-.04,2.32v1.77c.45-.41.95-.73,1.51-.94.56-.21,1.15-.32,1.76-.32,1.09,0,1.92.29,2.5.86.58.58.86,1.51.86,2.82v5.06c0,.34.02.59.07.76.05.17.12.28.23.33s.26.08.46.08h.39c.03.11.06.21.08.32.02.11.04.21.04.32,0,.37-.21.55-.62.55h-2.58c0-.38,0-.83.01-1.35,0-.51.02-1.05.03-1.6.01-.55.02-1.07.02-1.54v-1.73c0-.83-.08-1.49-.23-1.99-.15-.5-.4-.86-.75-1.08-.35-.22-.8-.33-1.37-.33-.81,0-1.42.24-1.82.71-.4.48-.6,1.2-.6,2.16v3.6c0,.67.02,1.31.05,1.94h1.08c.05.11.08.21.1.32.02.11.04.21.04.32,0,.37-.21.55-.62.55h-3.68c-.05-.12-.08-.23-.1-.33-.02-.1-.03-.2-.03-.31,0-.37.21-.55.64-.55Z"/>
    <path class="st1" d="M43.45,24.74l-1.72.23c-.11-.15-.2-.34-.29-.56-.08-.22-.14-.43-.17-.61-.4.49-.86.85-1.39,1.07s-1.14.33-1.83.33c-.95,0-1.74-.27-2.36-.81-.62-.54-.93-1.33-.93-2.39s.37-1.88,1.12-2.46c.74-.58,1.92-.87,3.53-.87h1.63v-.64c0-.77-.08-1.35-.25-1.76-.17-.41-.46-.69-.89-.85-.42-.16-1.02-.24-1.78-.24h-.67l-.34,1.24c-.14.06-.3.12-.5.16-.19.05-.38.07-.56.07-.17,0-.33-.06-.49-.2-.16-.13-.29-.3-.39-.51-.1-.21-.15-.42-.15-.63,0-.18.06-.34.2-.47.13-.13.36-.26.68-.4.4-.15.9-.29,1.51-.4.61-.11,1.25-.17,1.94-.17,1.26,0,2.17.26,2.73.78.56.52.84,1.45.84,2.78v5.22c0,.38.05.63.16.75.11.12.3.17.58.17h.44c.03.09.06.18.08.28.02.09.03.19.03.3,0,.18-.05.32-.16.41-.11.09-.3.15-.58.18ZM41.03,21.29v-1.29h-1.91c-.92,0-1.55.16-1.9.49-.34.33-.52.77-.52,1.32,0,.61.16,1.08.48,1.41s.79.49,1.4.49c.83,0,1.44-.22,1.84-.66.4-.44.6-1.03.6-1.78Z"/>
    <path class="st1" d="M46.71,21.8v-6.35h-1.61c-.05-.12-.08-.24-.12-.36-.03-.12-.05-.24-.05-.38,0-.41.22-.62.67-.62h1.1l.58-2.51.51.05c.31.02.51.09.62.22.11.13.16.39.16.77v1.47h3.38c.05.12.08.24.1.36.02.11.04.24.04.38,0,.41-.21.62-.64.62h-2.88v5.93c0,.86.11,1.46.32,1.81.21.35.57.52,1.06.52.29,0,.55-.06.78-.18.23-.12.44-.28.62-.48.2.05.38.15.53.31.15.16.23.35.23.56,0,.31-.23.6-.7.87s-1.08.41-1.83.41c-1,0-1.72-.28-2.18-.85-.46-.57-.69-1.42-.69-2.55Z"/>
    <path class="st1" d="M68.08,24.97h-2.02c-.06-.15-.11-.34-.16-.55-.05-.21-.08-.41-.09-.6-.34.41-.77.75-1.31,1-.54.25-1.15.38-1.84.38-1.32,0-2.36-.43-3.12-1.3-.76-.87-1.14-2.18-1.14-3.94,0-1.44.21-2.61.64-3.51.43-.9,1.01-1.55,1.75-1.97.74-.41,1.57-.62,2.51-.62.51,0,.95.03,1.32.1.38.07.69.16.96.26v-2.83c0-.49-.06-.81-.18-.95-.12-.15-.37-.22-.74-.22h-.55c-.03-.14-.06-.26-.08-.38-.02-.11-.03-.23-.03-.33,0-.37.21-.55.62-.55h2.9c0,.37,0,.81-.01,1.33s-.02,1.05-.03,1.59c-.02.54-.02,1.03-.02,1.47v9.41c0,.43.05.71.16.83s.31.18.6.18h.39c.05.11.08.21.1.32.02.11.03.21.03.32,0,.37-.21.55-.64.55ZM65.57,20.83v-5.04c-.26-.15-.59-.28-1-.39s-.86-.16-1.37-.16c-.84,0-1.52.31-2.04.93-.51.62-.77,1.7-.77,3.23,0,1.13.12,2.02.37,2.65.25.63.58,1.07,1.01,1.31.43.25.92.37,1.47.37.78,0,1.36-.26,1.75-.77.38-.51.58-1.22.58-2.13Z"/>
    <path class="st1" d="M70.68,23.78h.6c.03-.63.05-1.28.06-1.94s.01-1.27.01-1.81v-3.5c0-.49-.06-.81-.18-.95-.12-.15-.37-.22-.74-.22h-.25c-.05-.14-.08-.26-.1-.38-.02-.11-.03-.23-.03-.33,0-.37.21-.55.64-.55h2.6c0,.57-.01,1.23-.03,2-.02.77-.03,1.52-.03,2.25v1.68c0,.54,0,1.14.01,1.81,0,.67.02,1.31.03,1.94h1.1c.03.11.06.21.08.32.02.11.03.21.03.32,0,.37-.21.55-.62.55h-3.68c-.05-.12-.08-.23-.1-.33-.02-.1-.03-.2-.03-.31,0-.37.21-.55.64-.55ZM72.08,11.86c-.54,0-.91-.1-1.1-.29-.2-.19-.3-.49-.3-.89,0-.37.11-.66.33-.86.22-.21.58-.31,1.07-.31.52,0,.89.1,1.09.29.21.19.31.49.31.89,0,.37-.11.66-.33.86-.22.21-.58.31-1.07.31Z"/>
    <path class="st1" d="M85.67,24.97h-2.02c-.06-.15-.11-.34-.16-.55-.05-.21-.08-.41-.09-.6-.34.41-.77.75-1.31,1-.54.25-1.15.38-1.84.38-1.32,0-2.36-.43-3.12-1.3-.76-.87-1.14-2.18-1.14-3.94,0-1.44.21-2.61.64-3.51.43-.9,1.01-1.55,1.75-1.97.74-.41,1.57-.62,2.51-.62.51,0,.95.03,1.32.1.38.07.69.16.96.26v-2.83c0-.49-.06-.81-.18-.95-.12-.15-.37-.22-.74-.22h-.55c-.03-.14-.06-.26-.08-.38-.02-.11-.03-.23-.03-.33,0-.37.21-.55.62-.55h2.9c0,.37,0,.81-.01,1.33s-.02,1.05-.03,1.59c-.02.54-.02,1.03-.02,1.47v9.41c0,.43.05.71.16.83s.31.18.6.18h.39c.05.11.08.21.1.32.02.11.03.21.03.32,0,.37-.21.55-.64.55ZM83.17,20.83v-5.04c-.26-.15-.59-.28-1-.39s-.86-.16-1.37-.16c-.84,0-1.52.31-2.04.93-.51.62-.77,1.7-.77,3.23,0,1.13.12,2.02.37,2.65.25.63.58,1.07,1.01,1.31.43.25.92.37,1.47.37.78,0,1.36-.26,1.75-.77.38-.51.58-1.22.58-2.13Z"/>
    <path class="st1" d="M100.88,21.8c0,.98-.37,1.79-1.1,2.44-.74.64-1.79.97-3.15.97-.86,0-1.6-.11-2.23-.33-.63-.22-1.11-.49-1.45-.81-.34-.31-.51-.62-.51-.93,0-.26.09-.48.29-.67.19-.18.42-.32.68-.41.35.46.79.87,1.3,1.23s1.18.54,1.99.54c.77,0,1.35-.14,1.74-.43.39-.28.59-.67.59-1.16s-.2-.89-.6-1.16c-.4-.27-.96-.5-1.68-.7l-.99-.28c-1.01-.28-1.76-.66-2.25-1.15-.49-.49-.74-1.13-.74-1.91,0-.63.16-1.18.48-1.66s.78-.85,1.37-1.12c.59-.27,1.3-.4,2.13-.4.78,0,1.45.1,1.99.31s.96.46,1.25.76c.29.3.44.59.44.89,0,.25-.09.45-.26.61-.18.16-.4.27-.68.33l-.28.07-.14-.21c-.29-.4-.65-.73-1.08-.99-.43-.26-.95-.39-1.56-.39-.55,0-.99.13-1.32.39-.33.26-.5.61-.5,1.06s.15.78.45,1.05c.3.27.79.49,1.46.66l.97.28c1.21.31,2.08.71,2.61,1.21.53.5.79,1.14.79,1.92Z"/>
    <path class="st1" d="M103.38,21.8v-6.35h-1.61c-.05-.12-.08-.24-.12-.36-.03-.12-.05-.24-.05-.38,0-.41.22-.62.67-.62h1.1l.58-2.51.51.05c.31.02.51.09.62.22.11.13.16.39.16.77v1.47h3.38c.05.12.08.24.1.36.02.11.04.24.04.38,0,.41-.21.62-.64.62h-2.88v5.93c0,.86.11,1.46.32,1.81.21.35.57.52,1.06.52.29,0,.55-.06.78-.18.23-.12.44-.28.62-.48.2.05.38.15.53.31.15.16.23.35.23.56,0,.31-.23.6-.7.87s-1.08.41-1.83.41c-1,0-1.72-.28-2.18-.85-.46-.57-.69-1.42-.69-2.55Z"/>
    <path class="st1" d="M110.49,23.78h.6c.03-.63.05-1.28.06-1.94s.01-1.27.01-1.81v-3.5c0-.49-.06-.81-.18-.95-.12-.15-.37-.22-.74-.22h-.25c-.05-.14-.08-.26-.1-.38-.02-.11-.03-.23-.03-.33,0-.37.21-.55.64-.55h2.21c.03.15.05.36.07.62.01.26.02.54.02.83.58-.6,1.19-1.03,1.83-1.29.64-.26,1.24-.39,1.81-.39.29,0,.5.06.63.17.13.12.2.31.2.59,0,.32-.05.61-.16.86-.11.25-.22.42-.32.49-.15.11-.36.18-.61.22-.25.04-.5.06-.75.06l-.32-.87c-.72.26-1.25.63-1.58,1.1s-.49,1.19-.49,2.14v1.4c0,.54,0,1.14.01,1.81,0,.67.02,1.31.03,1.94h1.4c.03.11.06.21.08.32.02.11.03.21.03.32,0,.37-.21.55-.62.55h-3.98c-.05-.12-.08-.23-.1-.33-.02-.1-.03-.2-.03-.31,0-.37.21-.55.64-.55Z"/>
    <path class="st1" d="M127.26,24.74l-1.72.23c-.11-.15-.2-.34-.29-.56-.08-.22-.14-.43-.17-.61-.4.49-.86.85-1.39,1.07s-1.14.33-1.83.33c-.95,0-1.74-.27-2.36-.81-.62-.54-.93-1.33-.93-2.39s.37-1.88,1.12-2.46c.74-.58,1.92-.87,3.53-.87h1.63v-.64c0-.77-.08-1.35-.25-1.76-.17-.41-.46-.69-.89-.85-.42-.16-1.02-.24-1.78-.24h-.67l-.34,1.24c-.14.06-.3.12-.5.16-.19.05-.38.07-.56.07-.17,0-.33-.06-.49-.2-.16-.13-.29-.3-.39-.51-.1-.21-.15-.42-.15-.63,0-.18.06-.34.2-.47.13-.13.36-.26.68-.4.4-.15.9-.29,1.51-.4.61-.11,1.25-.17,1.94-.17,1.26,0,2.17.26,2.73.78.56.52.84,1.45.84,2.78v5.22c0,.38.05.63.16.75.11.12.3.17.58.17h.44c.03.09.06.18.08.28.02.09.03.19.03.3,0,.18-.05.32-.16.41-.11.09-.3.15-.58.18ZM124.84,21.29v-1.29h-1.91c-.92,0-1.55.16-1.9.49-.34.33-.52.77-.52,1.32,0,.61.16,1.08.48,1.41s.79.49,1.4.49c.83,0,1.44-.22,1.84-.66.4-.44.6-1.03.6-1.78Z"/>
    <path class="st1" d="M131.54,28.61c.26-.09.51-.31.74-.67.23-.35.45-.79.67-1.3.21-.51.42-1.05.62-1.62v-.03s0-.02-.02-.03c-.23-.03-.41-.08-.55-.15s-.26-.21-.38-.44-.26-.57-.43-1.05l-2.07-6.76c-.15-.48-.31-.79-.47-.95s-.43-.24-.79-.24h-.25c-.05-.14-.08-.26-.09-.38-.02-.11-.02-.23-.02-.33,0-.17.05-.3.14-.4.09-.1.25-.15.48-.15h2.46l.32,1.54c.06.37.18.86.34,1.48s.36,1.3.59,2.05c.22.74.46,1.48.7,2.2s.47,1.36.67,1.91c.6-1.79,1.1-3.36,1.5-4.69s.67-2.41.83-3.22h-.9c-.05-.12-.08-.24-.1-.35-.02-.11-.04-.22-.04-.35,0-.23.07-.38.22-.46.15-.08.38-.11.7-.11h3.08c.05.12.08.24.1.34.02.11.04.22.04.35,0,.18-.05.33-.14.43-.09.1-.26.15-.51.15h-.58c-.52,1.55-1.04,3.1-1.55,4.65-.51,1.55-1.02,3.1-1.53,4.65-.35,1-.67,1.83-.97,2.51-.29.67-.58,1.22-.87,1.64-.29.42-.61.74-.97.94s-.77.33-1.24.38h-.43c-.15,0-.28,0-.4-.02-.49-.03-.87-.13-1.14-.31-.27-.18-.4-.4-.4-.66,0-.2.07-.4.22-.59.15-.19.31-.33.49-.43.17.12.37.23.6.33.23.1.46.16.69.2.11.02.21.02.32,0,.11-.02.21-.03.32-.05Z"/>
    <path class="st1" d="M155.43,24.97h-2.02c-.06-.15-.11-.34-.16-.55-.05-.21-.08-.41-.09-.6-.34.41-.77.75-1.31,1-.54.25-1.15.38-1.84.38-1.32,0-2.36-.43-3.12-1.3-.76-.87-1.14-2.18-1.14-3.94,0-1.44.21-2.61.64-3.51.43-.9,1.01-1.55,1.75-1.97.74-.41,1.57-.62,2.51-.62.51,0,.95.03,1.32.1.38.07.69.16.96.26v-2.83c0-.49-.06-.81-.18-.95-.12-.15-.37-.22-.74-.22h-.55c-.03-.14-.06-.26-.08-.38-.02-.11-.03-.23-.03-.33,0-.37.21-.55.62-.55h2.9c0,.37,0,.81-.01,1.33s-.02,1.05-.03,1.59c-.02.54-.02,1.03-.02,1.47v9.41c0,.43.05.71.16.83s.31.18.6.18h.39c.05.11.08.21.1.32.02.11.03.21.03.32,0,.37-.21.55-.64.55ZM152.93,20.83v-5.04c-.26-.15-.59-.28-1-.39s-.86-.16-1.37-.16c-.84,0-1.52.31-2.04.93-.51.62-.77,1.7-.77,3.23,0,1.13.12,2.02.37,2.65.25.63.58,1.07,1.01,1.31.43.25.92.37,1.47.37.78,0,1.36-.26,1.75-.77.38-.51.58-1.22.58-2.13Z"/>
    <path class="st1" d="M157.55,19.8c0-1.35.21-2.46.64-3.33.43-.87,1.02-1.53,1.77-1.96.75-.43,1.6-.64,2.55-.64,1.55,0,2.71.45,3.48,1.36s1.16,2.25,1.16,4.05c0,1.35-.21,2.46-.64,3.33-.43.87-1.02,1.53-1.76,1.96-.74.43-1.6.64-2.56.64-1.55,0-2.71-.45-3.48-1.36s-1.16-2.25-1.16-4.05ZM159.55,19.27c0,1.67.24,2.85.71,3.53.47.68,1.2,1.02,2.16,1.02.49,0,.94-.12,1.36-.37.41-.25.75-.66,1-1.25s.38-1.39.38-2.4c0-1.67-.24-2.85-.71-3.53-.48-.68-1.2-1.02-2.16-1.02-.49,0-.94.12-1.36.37s-.75.66-1,1.24c-.25.58-.38,1.39-.38,2.42Z"/>
    <path class="st1" d="M178.48,26.08c0,.64-.17,1.21-.51,1.71-.34.5-.8.92-1.38,1.28-.58.35-1.24.62-1.97.8s-1.48.28-2.24.28c-.94,0-1.69-.13-2.25-.39-.57-.26-.98-.6-1.23-1.01s-.38-.86-.38-1.33.14-.92.43-1.33c.28-.41.72-.77,1.32-1.08l.21-.11c-.31-.15-.55-.38-.74-.68-.18-.3-.28-.66-.28-1.09s.11-.83.32-1.16.54-.59.99-.77c-.51-.25-.94-.64-1.3-1.18-.36-.54-.54-1.25-.54-2.13s.18-1.56.55-2.16.87-1.05,1.51-1.37c.64-.31,1.35-.47,2.15-.47.29,0,.58.02.85.06.28.04.54.1.78.17h3.79c.05.12.08.24.12.36.03.11.05.24.05.38,0,.41-.22.62-.67.62h-1.47c.46.6.69,1.35.69,2.25,0,1.17-.4,2.1-1.21,2.82-.8.71-1.95,1.07-3.44,1.07-.54,0-.92.09-1.16.26-.24.18-.36.41-.36.7,0,.34.1.58.31.72.21.15.52.22.93.22h2.88c1.06,0,1.86.21,2.42.64.55.43.83,1.07.83,1.93ZM176.59,26.49c0-.43-.13-.75-.4-.97-.27-.21-.76-.32-1.48-.32h-2.94c-.45.2-.79.46-1.05.77-.25.31-.38.67-.38,1.07,0,.54.19.97.56,1.29.38.32.99.48,1.85.48.77,0,1.44-.1,2.01-.3.58-.2,1.02-.47,1.35-.82.32-.35.48-.75.48-1.21ZM175.37,17.82c0-.81-.19-1.45-.56-1.92-.38-.47-.98-.7-1.81-.7-.71,0-1.24.21-1.61.63-.37.42-.55,1.02-.55,1.81s.19,1.45.56,1.92c.38.47.98.7,1.81.7.71,0,1.24-.21,1.61-.63.37-.42.55-1.02.55-1.81Z"/>
    <path class="st1" d="M180.55,18.3h5.47c.09.28.14.57.14.87,0,.23-.05.41-.15.55-.1.14-.29.21-.56.21h-5.47c-.09-.28-.14-.57-.14-.87,0-.23.05-.41.15-.55.1-.14.29-.21.56-.21Z"/>
    <path class="st1" d="M188.3,23.78h.6c.03-.63.05-1.28.06-1.94s.01-1.27.01-1.81v-3.5c0-.49-.06-.81-.18-.95-.12-.15-.37-.22-.74-.22h-.25c-.05-.14-.08-.26-.1-.38-.02-.11-.03-.23-.03-.33,0-.37.21-.55.64-.55h2.21c.03.15.05.36.07.62.01.26.02.54.02.83.58-.6,1.19-1.03,1.83-1.29.64-.26,1.24-.39,1.81-.39.29,0,.5.06.63.17.13.12.2.31.2.59,0,.32-.05.61-.16.86-.11.25-.22.42-.32.49-.15.11-.36.18-.61.22-.25.04-.5.06-.75.06l-.32-.87c-.72.26-1.25.63-1.58,1.1s-.49,1.19-.49,2.14v1.4c0,.54,0,1.14.01,1.81,0,.67.02,1.31.03,1.94h1.4c.03.11.06.21.08.32.02.11.03.21.03.32,0,.37-.21.55-.62.55h-3.98c-.05-.12-.08-.23-.1-.33-.02-.1-.03-.2-.03-.31,0-.37.21-.55.64-.55Z"/>
    <path class="st1" d="M203.82,19.82h-5.77c.05.95.2,1.71.47,2.29.27.57.64.99,1.1,1.25s1.02.39,1.64.39c.67,0,1.23-.13,1.68-.39.44-.26.85-.63,1.22-1.1.26.09.47.21.64.37.17.15.25.36.25.62,0,.31-.18.61-.54.91-.36.3-.84.55-1.45.75-.61.2-1.28.3-2.04.3-1.69,0-2.94-.47-3.75-1.4-.81-.94-1.22-2.27-1.22-4,0-2.02.45-3.52,1.34-4.49.9-.97,2.07-1.45,3.51-1.45,1,0,1.8.2,2.42.59s1.07.93,1.36,1.61c.29.68.44,1.47.44,2.36,0,.38-.04.68-.13.87-.08.2-.22.34-.41.41-.19.08-.45.12-.77.12ZM198.07,18.49h5.13v-.28c0-.89-.2-1.61-.6-2.15-.4-.54-1-.82-1.82-.82s-1.41.25-1.88.75c-.47.5-.75,1.33-.84,2.5Z"/>
    <path class="st1" d="M207.41,23.78h.6c.03-.55.05-1.16.06-1.82,0-.66.01-1.3.01-1.91v-8.65c0-.49-.07-.81-.2-.95-.13-.15-.37-.22-.72-.22h-.25c-.05-.14-.08-.26-.1-.38-.02-.11-.03-.23-.03-.33,0-.37.21-.55.64-.55h2.6c0,.57-.01,1.26-.04,2.07-.02.81-.03,1.59-.03,2.32v6.67c0,.54,0,1.14.01,1.81s.02,1.31.03,1.94h1.1c.03.11.06.21.08.32.02.11.03.21.03.32,0,.37-.21.55-.62.55h-3.68c-.05-.12-.08-.23-.1-.33-.02-.1-.03-.2-.03-.31,0-.37.21-.55.64-.55Z"/>
    <path class="st1" d="M221.39,24.74l-1.72.23c-.11-.15-.2-.34-.29-.56-.08-.22-.14-.43-.17-.61-.4.49-.86.85-1.39,1.07s-1.14.33-1.83.33c-.95,0-1.74-.27-2.36-.81-.62-.54-.93-1.33-.93-2.39s.37-1.88,1.12-2.46c.74-.58,1.92-.87,3.53-.87h1.63v-.64c0-.77-.08-1.35-.25-1.76-.17-.41-.46-.69-.89-.85-.42-.16-1.02-.24-1.78-.24h-.67l-.34,1.24c-.14.06-.3.12-.5.16-.19.05-.38.07-.56.07-.17,0-.33-.06-.49-.2-.16-.13-.29-.3-.39-.51-.1-.21-.15-.42-.15-.63,0-.18.06-.34.2-.47.13-.13.36-.26.68-.4.4-.15.9-.29,1.51-.4.61-.11,1.25-.17,1.94-.17,1.26,0,2.17.26,2.73.78.56.52.84,1.45.84,2.78v5.22c0,.38.05.63.16.75.11.12.3.17.58.17h.44c.03.09.06.18.08.28.02.09.03.19.03.3,0,.18-.05.32-.16.41-.11.09-.3.15-.58.18ZM218.98,21.29v-1.29h-1.91c-.92,0-1.55.16-1.9.49-.34.33-.52.77-.52,1.32,0,.61.16,1.08.48,1.41s.79.49,1.4.49c.83,0,1.44-.22,1.84-.66.4-.44.6-1.03.6-1.78Z"/>
    <path class="st1" d="M224.66,21.8v-6.35h-1.61c-.05-.12-.08-.24-.12-.36-.03-.12-.05-.24-.05-.38,0-.41.22-.62.67-.62h1.1l.58-2.51.51.05c.31.02.51.09.62.22.11.13.16.39.16.77v1.47h3.38c.05.12.08.24.1.36.02.11.04.24.04.38,0,.41-.21.62-.64.62h-2.88v5.93c0,.86.11,1.46.32,1.81.21.35.57.52,1.06.52.29,0,.55-.06.78-.18.23-.12.44-.28.62-.48.2.05.38.15.53.31.15.16.23.35.23.56,0,.31-.23.6-.7.87s-1.08.41-1.83.41c-1,0-1.72-.28-2.18-.85-.46-.57-.69-1.42-.69-2.55Z"/>
    <path class="st1" d="M239.04,19.82h-5.77c.05.95.2,1.71.47,2.29.27.57.64.99,1.1,1.25s1.02.39,1.64.39c.67,0,1.23-.13,1.68-.39.44-.26.85-.63,1.22-1.1.26.09.47.21.64.37.17.15.25.36.25.62,0,.31-.18.61-.54.91-.36.3-.84.55-1.45.75-.61.2-1.28.3-2.04.3-1.69,0-2.94-.47-3.75-1.4-.81-.94-1.22-2.27-1.22-4,0-2.02.45-3.52,1.34-4.49.9-.97,2.07-1.45,3.51-1.45,1,0,1.8.2,2.42.59s1.07.93,1.36,1.61c.29.68.44,1.47.44,2.36,0,.38-.04.68-.13.87-.08.2-.22.34-.41.41-.19.08-.45.12-.77.12ZM233.29,18.49h5.13v-.28c0-.89-.2-1.61-.6-2.15-.4-.54-1-.82-1.82-.82s-1.41.25-1.88.75c-.47.5-.75,1.33-.84,2.5Z"/>
    <path class="st1" d="M251.94,24.97h-2.02c-.06-.15-.11-.34-.16-.55-.05-.21-.08-.41-.09-.6-.34.41-.77.75-1.31,1-.54.25-1.15.38-1.84.38-1.32,0-2.36-.43-3.12-1.3-.76-.87-1.14-2.18-1.14-3.94,0-1.44.21-2.61.64-3.51.43-.9,1.01-1.55,1.75-1.97.74-.41,1.57-.62,2.51-.62.51,0,.95.03,1.32.1.38.07.69.16.96.26v-2.83c0-.49-.06-.81-.18-.95-.12-.15-.37-.22-.74-.22h-.55c-.03-.14-.06-.26-.08-.38-.02-.11-.03-.23-.03-.33,0-.37.21-.55.62-.55h2.9c0,.37,0,.81-.01,1.33s-.02,1.05-.03,1.59c-.02.54-.02,1.03-.02,1.47v9.41c0,.43.05.71.16.83s.31.18.6.18h.39c.05.11.08.21.1.32.02.11.03.21.03.32,0,.37-.21.55-.64.55ZM249.43,20.83v-5.04c-.26-.15-.59-.28-1-.39s-.86-.16-1.37-.16c-.84,0-1.52.31-2.04.93-.51.62-.77,1.7-.77,3.23,0,1.13.12,2.02.37,2.65.25.63.58,1.07,1.01,1.31.43.25.92.37,1.47.37.78,0,1.36-.26,1.75-.77.38-.51.58-1.22.58-2.13Z"/>
    <path class="st1" d="M266.45,16.97l-.18-.25c-.29-.43-.62-.77-.98-1.04s-.84-.39-1.44-.39c-.51,0-.97.13-1.38.38-.41.25-.74.66-.99,1.23-.25.57-.37,1.34-.37,2.32,0,1.09.13,1.96.39,2.62s.62,1.13,1.09,1.43c.47.29,1.01.44,1.62.44s1.08-.12,1.51-.36c.42-.24.81-.59,1.16-1.07.25.06.45.17.62.33s.25.36.25.61c0,.31-.16.61-.48.91-.32.3-.76.55-1.32.76s-1.19.31-1.9.31c-1.61,0-2.84-.46-3.68-1.37-.84-.91-1.26-2.27-1.26-4.08,0-1.33.22-2.44.66-3.31.44-.87,1.03-1.52,1.78-1.94.75-.42,1.6-.63,2.55-.63.8,0,1.47.11,2.01.32.54.21.96.48,1.24.81.28.32.43.64.43.94,0,.44-.34.76-1.01.94l-.32.09Z"/>
    <path class="st1" d="M269.37,19.8c0-1.35.21-2.46.64-3.33.43-.87,1.02-1.53,1.77-1.96.75-.43,1.6-.64,2.55-.64,1.55,0,2.71.45,3.48,1.36s1.16,2.25,1.16,4.05c0,1.35-.21,2.46-.64,3.33-.43.87-1.02,1.53-1.76,1.96-.74.43-1.6.64-2.56.64-1.55,0-2.71-.45-3.48-1.36s-1.16-2.25-1.16-4.05ZM271.37,19.27c0,1.67.24,2.85.71,3.53.47.68,1.2,1.02,2.16,1.02.49,0,.94-.12,1.36-.37.41-.25.75-.66,1-1.25s.38-1.39.38-2.4c0-1.67-.24-2.85-.71-3.53-.48-.68-1.2-1.02-2.16-1.02-.49,0-.94.12-1.36.37s-.75.66-1,1.24c-.25.58-.38,1.39-.38,2.42Z"/>
    <path class="st1" d="M281.26,23.78h.6c.03-.63.05-1.28.06-1.94s.01-1.27.01-1.81v-3.5c0-.49-.06-.81-.18-.95-.12-.15-.37-.22-.74-.22h-.25c-.05-.14-.08-.26-.1-.38-.02-.11-.03-.23-.03-.33,0-.37.21-.55.64-.55h2.21c.03.15.05.34.07.57.01.23.02.45.02.64.51-.48,1.05-.84,1.63-1.08.58-.25,1.2-.37,1.86-.37s1.27.13,1.74.39.82.65,1.05,1.17c.51-.54,1.05-.93,1.62-1.18.58-.25,1.22-.38,1.92-.38,1.07,0,1.88.29,2.4.86.53.58.79,1.51.79,2.82v5.06c0,.34.02.59.07.76.05.17.12.28.23.33s.26.08.46.08h.39c.06.11.1.21.12.32.02.11.02.21.02.32,0,.37-.21.55-.64.55h-2.58c.02-.38.03-.83.04-1.35,0-.51.01-1.05.02-1.6,0-.55.01-1.07.01-1.54v-1.73c0-1.24-.17-2.12-.49-2.63-.33-.51-.89-.77-1.67-.77s-1.39.25-1.78.75c-.39.5-.59,1.25-.59,2.24v1.68c0,.54,0,1.14.01,1.81s.03,1.31.06,1.94h.97c.05.11.08.21.1.32.02.11.03.21.03.32,0,.37-.21.55-.64.55h-3.4c-.05-.12-.08-.23-.1-.33-.02-.1-.03-.2-.03-.31,0-.37.21-.55.64-.55h.44c.03-.61.05-1.25.06-1.9s.01-1.24.01-1.76v-1.33c0-1.24-.17-2.12-.5-2.65-.33-.52-.88-.78-1.64-.78-.81,0-1.41.25-1.81.75-.39.5-.59,1.25-.59,2.24v1.68c0,.54,0,1.14.01,1.81,0,.67.02,1.31.03,1.94h.92c.03.11.06.21.08.32.02.11.04.21.04.32,0,.37-.21.55-.62.55h-3.5c-.05-.12-.08-.23-.1-.33-.02-.1-.03-.2-.03-.31,0-.37.21-.55.64-.55Z"/>
    <path class="st1" d="M299.78,28.72h.6c.03-.58.05-1.19.06-1.83,0-.64.01-1.2.01-1.69v-8.67c0-.49-.06-.81-.18-.95-.12-.15-.37-.22-.74-.22h-.25c-.05-.14-.08-.26-.1-.38-.02-.11-.03-.23-.03-.33,0-.37.21-.55.64-.55h2.19c.05.15.07.34.08.56s.02.43.04.61c.37-.43.82-.77,1.34-1.02.53-.25,1.13-.38,1.81-.38.87,0,1.63.19,2.27.56.64.38,1.13.95,1.47,1.71.35.77.52,1.74.52,2.92,0,1.43-.21,2.59-.64,3.5-.43.9-1.01,1.57-1.75,2s-1.56.64-2.48.64c-.52,0-.97-.05-1.33-.15-.37-.1-.69-.22-.97-.36v2.24c0,.62.02,1.22.05,1.78h1.4c.03.11.06.21.08.32.02.11.04.21.04.32,0,.37-.21.55-.62.55h-3.98c-.05-.12-.08-.23-.1-.33-.02-.1-.03-.2-.03-.31,0-.37.21-.55.64-.55ZM302.31,18.37v4.81c.26.18.59.34.99.46.4.12.86.18,1.38.18s1.02-.13,1.44-.39.75-.69,1-1.3c.25-.61.37-1.44.37-2.5,0-1.13-.12-2.02-.37-2.65-.25-.63-.58-1.07-1-1.32-.42-.25-.92-.38-1.48-.38-.8,0-1.38.27-1.76.82-.38.54-.56,1.3-.56,2.27Z"/>
    <path class="st1" d="M311.62,23.78h.6c.03-.55.05-1.16.06-1.82,0-.66.01-1.3.01-1.91v-8.65c0-.49-.07-.81-.2-.95-.13-.15-.37-.22-.72-.22h-.25c-.05-.14-.08-.26-.1-.38-.02-.11-.03-.23-.03-.33,0-.37.21-.55.64-.55h2.6c0,.57-.01,1.26-.04,2.07-.02.81-.03,1.59-.03,2.32v6.67c0,.54,0,1.14.01,1.81s.02,1.31.03,1.94h1.1c.03.11.06.21.08.32.02.11.03.21.03.32,0,.37-.21.55-.62.55h-3.68c-.05-.12-.08-.23-.1-.33-.02-.1-.03-.2-.03-.31,0-.37.21-.55.64-.55Z"/>
    <path class="st1" d="M325.6,24.74l-1.72.23c-.11-.15-.2-.34-.29-.56-.08-.22-.14-.43-.17-.61-.4.49-.86.85-1.39,1.07s-1.14.33-1.83.33c-.95,0-1.74-.27-2.36-.81-.62-.54-.93-1.33-.93-2.39s.37-1.88,1.12-2.46c.74-.58,1.92-.87,3.53-.87h1.63v-.64c0-.77-.08-1.35-.25-1.76-.17-.41-.46-.69-.89-.85-.42-.16-1.02-.24-1.78-.24h-.67l-.34,1.24c-.14.06-.3.12-.5.16-.19.05-.38.07-.56.07-.17,0-.33-.06-.49-.2-.16-.13-.29-.3-.39-.51-.1-.21-.15-.42-.15-.63,0-.18.06-.34.2-.47.13-.13.36-.26.68-.4.4-.15.9-.29,1.51-.4.61-.11,1.25-.17,1.94-.17,1.26,0,2.17.26,2.73.78.56.52.84,1.45.84,2.78v5.22c0,.38.05.63.16.75.11.12.3.17.58.17h.44c.03.09.06.18.08.28.02.09.03.19.03.3,0,.18-.05.32-.16.41-.11.09-.3.15-.58.18ZM323.19,21.29v-1.29h-1.91c-.92,0-1.55.16-1.9.49-.34.33-.52.77-.52,1.32,0,.61.16,1.08.48,1.41s.79.49,1.4.49c.83,0,1.44-.22,1.84-.66.4-.44.6-1.03.6-1.78Z"/>
    <path class="st1" d="M328.27,23.78h.6c.03-.63.05-1.28.06-1.94s.01-1.27.01-1.81v-3.5c0-.49-.06-.81-.18-.95-.12-.15-.37-.22-.74-.22h-.25c-.05-.14-.08-.26-.1-.38-.02-.11-.03-.23-.03-.33,0-.37.21-.55.64-.55h2.6c0,.57-.01,1.23-.03,2-.02.77-.03,1.52-.03,2.25v1.68c0,.54,0,1.14.01,1.81,0,.67.02,1.31.03,1.94h1.1c.03.11.06.21.08.32.02.11.03.21.03.32,0,.37-.21.55-.62.55h-3.68c-.05-.12-.08-.23-.1-.33-.02-.1-.03-.2-.03-.31,0-.37.21-.55.64-.55ZM329.68,11.86c-.54,0-.91-.1-1.1-.29-.2-.19-.3-.49-.3-.89,0-.37.11-.66.33-.86.22-.21.58-.31,1.07-.31.52,0,.89.1,1.09.29.21.19.31.49.31.89,0,.37-.11.66-.33.86-.22.21-.58.31-1.07.31Z"/>
    <path class="st1" d="M334.07,23.78h.6c.03-.63.05-1.28.06-1.94s.01-1.27.01-1.81v-3.5c0-.49-.06-.81-.18-.95-.12-.15-.37-.22-.74-.22h-.25c-.05-.14-.08-.26-.1-.38-.02-.11-.03-.23-.03-.33,0-.37.21-.55.64-.55h2.21c.03.15.05.34.07.57.01.23.02.45.02.64.51-.48,1.05-.84,1.63-1.08.58-.25,1.2-.37,1.86-.37,1.09,0,1.92.29,2.5.86.57.58.86,1.51.86,2.82v5.06c0,.34.02.59.07.76.05.17.12.28.23.33s.26.08.46.08h.39c.05.11.08.21.09.32.01.11.02.21.02.32,0,.37-.21.55-.62.55h-2.58c0-.38,0-.83.02-1.35.01-.51.03-1.05.03-1.6,0-.55.01-1.07.01-1.54v-1.73c0-.83-.08-1.49-.23-1.99-.15-.5-.4-.86-.75-1.08s-.8-.33-1.37-.33c-.83,0-1.44.25-1.83.75-.39.5-.59,1.25-.59,2.24v1.68c0,.54,0,1.14.01,1.81,0,.67.02,1.31.03,1.94h1.1c.03.11.06.21.08.32.02.11.03.21.03.32,0,.37-.21.55-.62.55h-3.68c-.05-.12-.08-.23-.1-.33-.02-.1-.03-.2-.03-.31,0-.37.21-.55.64-.55Z"/>
    <path class="st1" d="M347.06,21.8v-6.35h-1.61c-.05-.12-.08-.24-.12-.36-.03-.12-.05-.24-.05-.38,0-.41.22-.62.67-.62h1.1l.58-2.51.51.05c.31.02.51.09.62.22.11.13.16.39.16.77v1.47h3.38c.05.12.08.24.1.36.02.11.04.24.04.38,0,.41-.21.62-.64.62h-2.88v5.93c0,.86.11,1.46.32,1.81.21.35.57.52,1.06.52.29,0,.55-.06.78-.18.23-.12.44-.28.62-.48.2.05.38.15.53.31.15.16.23.35.23.56,0,.31-.23.6-.7.87s-1.08.41-1.83.41c-1,0-1.72-.28-2.18-.85-.46-.57-.69-1.42-.69-2.55Z"/>
    <path class="st1" d="M361.71,21.8c0,.98-.37,1.79-1.1,2.44-.74.64-1.79.97-3.15.97-.86,0-1.6-.11-2.23-.33-.63-.22-1.11-.49-1.45-.81-.34-.31-.51-.62-.51-.93,0-.26.09-.48.29-.67.19-.18.42-.32.68-.41.35.46.79.87,1.3,1.23s1.18.54,1.99.54c.77,0,1.35-.14,1.74-.43.39-.28.59-.67.59-1.16s-.2-.89-.6-1.16c-.4-.27-.96-.5-1.68-.7l-.99-.28c-1.01-.28-1.76-.66-2.25-1.15-.49-.49-.74-1.13-.74-1.91,0-.63.16-1.18.48-1.66s.78-.85,1.37-1.12c.59-.27,1.3-.4,2.13-.4.78,0,1.45.1,1.99.31s.96.46,1.25.76c.29.3.44.59.44.89,0,.25-.09.45-.26.61-.18.16-.4.27-.68.33l-.28.07-.14-.21c-.29-.4-.65-.73-1.08-.99-.43-.26-.95-.39-1.56-.39-.55,0-.99.13-1.32.39-.33.26-.5.61-.5,1.06s.15.78.45,1.05c.3.27.79.49,1.46.66l.97.28c1.21.31,2.08.71,2.61,1.21.53.5.79,1.14.79,1.92Z"/>
    <path class="st1" d="M376.89,24.74l-1.72.23c-.11-.15-.2-.34-.29-.56-.08-.22-.14-.43-.17-.61-.4.49-.86.85-1.39,1.07s-1.14.33-1.83.33c-.95,0-1.74-.27-2.36-.81-.62-.54-.93-1.33-.93-2.39s.37-1.88,1.12-2.46c.74-.58,1.92-.87,3.53-.87h1.63v-.64c0-.77-.08-1.35-.25-1.76-.17-.41-.46-.69-.89-.85-.42-.16-1.02-.24-1.78-.24h-.67l-.34,1.24c-.14.06-.3.12-.5.16-.19.05-.38.07-.56.07-.17,0-.33-.06-.49-.2-.16-.13-.29-.3-.39-.51-.1-.21-.15-.42-.15-.63,0-.18.06-.34.2-.47.13-.13.36-.26.68-.4.4-.15.9-.29,1.51-.4.61-.11,1.25-.17,1.94-.17,1.26,0,2.17.26,2.73.78.56.52.84,1.45.84,2.78v5.22c0,.38.05.63.16.75.11.12.3.17.58.17h.44c.03.09.06.18.08.28.02.09.03.19.03.3,0,.18-.05.32-.16.41-.11.09-.3.15-.58.18ZM374.48,21.29v-1.29h-1.91c-.92,0-1.55.16-1.9.49-.34.33-.52.77-.52,1.32,0,.61.16,1.08.48,1.41s.79.49,1.4.49c.83,0,1.44-.22,1.84-.66.4-.44.6-1.03.6-1.78Z"/>
    <path class="st1" d="M379.45,23.78h.6c.03-.55.05-1.16.06-1.82,0-.66.01-1.3.01-1.91v-8.65c0-.49-.07-.81-.2-.95-.13-.15-.37-.22-.72-.22h-.25c-.05-.14-.08-.26-.1-.38-.02-.11-.03-.23-.03-.33,0-.37.21-.55.64-.55h2.6c0,.57-.01,1.26-.04,2.07-.02.81-.03,1.59-.03,2.32v6.67c0,.54,0,1.14.01,1.81s.02,1.31.03,1.94h1.1c.03.11.06.21.08.32.02.11.03.21.03.32,0,.37-.21.55-.62.55h-3.68c-.05-.12-.08-.23-.1-.33-.02-.1-.03-.2-.03-.31,0-.37.21-.55.64-.55Z"/>
    <path class="st1" d="M385.1,23.78h.6c.03-.55.05-1.16.06-1.82,0-.66.01-1.3.01-1.91v-8.65c0-.49-.07-.81-.2-.95-.13-.15-.37-.22-.72-.22h-.25c-.05-.14-.08-.26-.1-.38-.02-.11-.03-.23-.03-.33,0-.37.21-.55.64-.55h2.6c0,.57-.01,1.26-.04,2.07-.02.81-.03,1.59-.03,2.32v6.67c0,.54,0,1.14.01,1.81s.02,1.31.03,1.94h1.1c.03.11.06.21.08.32.02.11.03.21.03.32,0,.37-.21.55-.62.55h-3.68c-.05-.12-.08-.23-.1-.33-.02-.1-.03-.2-.03-.31,0-.37.21-.55.64-.55Z"/>
    <path class="st1" d="M398.15,19.82h-5.77c.05.95.2,1.71.47,2.29.27.57.64.99,1.1,1.25s1.02.39,1.64.39c.67,0,1.23-.13,1.68-.39.44-.26.85-.63,1.22-1.1.26.09.47.21.64.37.17.15.25.36.25.62,0,.31-.18.61-.54.91-.36.3-.84.55-1.45.75-.61.2-1.28.3-2.04.3-1.69,0-2.94-.47-3.75-1.4-.81-.94-1.22-2.27-1.22-4,0-2.02.45-3.52,1.34-4.49.9-.97,2.07-1.45,3.51-1.45,1,0,1.8.2,2.42.59s1.07.93,1.36,1.61c.29.68.44,1.47.44,2.36,0,.38-.04.68-.13.87-.08.2-.22.34-.41.41-.19.08-.45.12-.77.12ZM392.4,18.49h5.13v-.28c0-.89-.2-1.61-.6-2.15-.4-.54-1-.82-1.82-.82s-1.41.25-1.88.75c-.47.5-.75,1.33-.84,2.5Z"/>
    <path class="st1" d="M410.89,26.08c0,.64-.17,1.21-.51,1.71-.34.5-.8.92-1.38,1.28-.58.35-1.24.62-1.97.8s-1.48.28-2.24.28c-.94,0-1.69-.13-2.25-.39-.57-.26-.98-.6-1.23-1.01s-.38-.86-.38-1.33.14-.92.43-1.33c.28-.41.72-.77,1.32-1.08l.21-.11c-.31-.15-.55-.38-.74-.68-.18-.3-.28-.66-.28-1.09s.11-.83.32-1.16.54-.59.99-.77c-.51-.25-.94-.64-1.3-1.18-.36-.54-.54-1.25-.54-2.13s.18-1.56.55-2.16.87-1.05,1.51-1.37c.64-.31,1.35-.47,2.15-.47.29,0,.58.02.85.06.28.04.54.1.78.17h3.79c.05.12.08.24.12.36.03.11.05.24.05.38,0,.41-.22.62-.67.62h-1.47c.46.6.69,1.35.69,2.25,0,1.17-.4,2.1-1.21,2.82-.8.71-1.95,1.07-3.44,1.07-.54,0-.92.09-1.16.26-.24.18-.36.41-.36.7,0,.34.1.58.31.72.21.15.52.22.93.22h2.88c1.06,0,1.86.21,2.42.64.55.43.83,1.07.83,1.93ZM409,26.49c0-.43-.13-.75-.4-.97-.27-.21-.76-.32-1.48-.32h-2.94c-.45.2-.79.46-1.05.77-.25.31-.38.67-.38,1.07,0,.54.19.97.56,1.29.38.32.99.48,1.85.48.77,0,1.44-.1,2.01-.3.58-.2,1.02-.47,1.35-.82.32-.35.48-.75.48-1.21ZM407.78,17.82c0-.81-.19-1.45-.56-1.92-.38-.47-.98-.7-1.81-.7-.71,0-1.24.21-1.61.63-.37.42-.55,1.02-.55,1.81s.19,1.45.56,1.92c.38.47.98.7,1.81.7.71,0,1.24-.21,1.61-.63.37-.42.55-1.02.55-1.81Z"/>
    <path class="st1" d="M419.99,19.82h-5.77c.05.95.2,1.71.47,2.29.27.57.64.99,1.1,1.25s1.02.39,1.64.39c.67,0,1.23-.13,1.68-.39.44-.26.85-.63,1.22-1.1.26.09.47.21.64.37.17.15.25.36.25.62,0,.31-.18.61-.54.91-.36.3-.84.55-1.45.75-.61.2-1.28.3-2.04.3-1.69,0-2.94-.47-3.75-1.4-.81-.94-1.22-2.27-1.22-4,0-2.02.45-3.52,1.34-4.49.9-.97,2.07-1.45,3.51-1.45,1,0,1.8.2,2.42.59s1.07.93,1.36,1.61c.29.68.44,1.47.44,2.36,0,.38-.04.68-.13.87-.08.2-.22.34-.41.41-.19.08-.45.12-.77.12ZM414.24,18.49h5.13v-.28c0-.89-.2-1.61-.6-2.15-.4-.54-1-.82-1.82-.82s-1.41.25-1.88.75c-.47.5-.75,1.33-.84,2.5Z"/>
    <path class="st1" d="M424.82,20.67l-.12-.55c-.15-.71-.13-1.31.07-1.82.2-.51.64-.99,1.31-1.45l1.29-.85c.58-.4,1.02-.81,1.3-1.23.28-.42.42-.96.42-1.62,0-.77-.24-1.34-.71-1.73-.47-.38-1.23-.58-2.28-.58h-1.4l-.3,1.22c-.14.06-.32.13-.54.21-.22.08-.44.11-.66.11-.15,0-.31-.08-.46-.25-.15-.17-.28-.37-.39-.6-.11-.23-.16-.44-.16-.62s.07-.34.22-.48c.15-.14.41-.28.79-.44.48-.18,1.02-.33,1.63-.45.61-.12,1.27-.17,1.96-.17,1.04,0,1.89.15,2.54.45.65.3,1.13.72,1.44,1.27s.46,1.18.46,1.9-.1,1.31-.31,1.81c-.21.5-.5.93-.87,1.3-.38.37-.83.73-1.37,1.08l-1.27.83c-.34.23-.6.46-.78.7-.18.24-.31.51-.38.82-.07.31-.1.69-.1,1.15h-1.33ZM425.67,25.2c-.57,0-.96-.11-1.17-.32-.21-.21-.32-.54-.32-.97s.12-.74.36-.97c.24-.23.62-.35,1.14-.35.57,0,.96.1,1.17.31s.32.53.32.98c0,.4-.12.72-.34.95-.23.24-.61.36-1.15.36Z"/>
  </g>
  <text class="st4" transform="translate(.59 45.9)"><tspan x="0" y="0">Complaints submitted to the Animal Welfare Board of India, grouped by the type of conflict described.</tspan></text>
  <text class="st5" transform="translate(0 304.34)"><tspan x="0" y="0">Source: Animal Welfare Board of India; author&apos;s analysis.</tspan><tspan x="0" y="13.2">Note: Includes complaints submitted between March 2023 and December 2025.</tspan></text>
  <g>
    <path class="st6" d="M30.3,176.42l.95-1.12c.66.62,1.54,1.05,2.39,1.05,1.03,0,1.6-.47,1.6-1.18,0-.75-.59-.99-1.42-1.35l-1.25-.54c-.9-.38-1.85-1.09-1.85-2.43,0-1.46,1.29-2.58,3.08-2.58,1.07,0,2.11.44,2.82,1.17l-.83,1.03c-.58-.5-1.2-.79-1.99-.79-.87,0-1.43.41-1.43,1.08,0,.72.7.99,1.46,1.3l1.24.52c1.09.45,1.85,1.14,1.85,2.47,0,1.48-1.23,2.72-3.29,2.72-1.24,0-2.43-.49-3.3-1.34Z"/>
    <path class="st6" d="M38.42,167.7h1.61v2.56l-.07,1.33c.58-.54,1.26-1.04,2.2-1.04,1.47,0,2.12,1,2.12,2.73v4.31h-1.61v-4.11c0-1.13-.32-1.56-1.07-1.56-.61,0-1,.3-1.57.86v4.81h-1.61v-9.9Z"/>
    <path class="st6" d="M45.86,175.74c0-1.47,1.22-2.24,4.04-2.54-.02-.74-.32-1.36-1.25-1.36-.68,0-1.33.31-1.93.68l-.59-1.08c.76-.48,1.73-.9,2.82-.9,1.72,0,2.57,1.06,2.57,2.98v4.07h-1.32l-.12-.76h-.04c-.62.53-1.32.93-2.13.93-1.2,0-2.03-.82-2.03-2.02ZM49.9,175.75v-1.55c-1.87.24-2.49.72-2.49,1.42,0,.61.41.87.99.87s.99-.27,1.5-.75Z"/>
    <path class="st6" d="M53.45,170.71h1.32l.12,1.23h.04c.49-.9,1.22-1.4,1.96-1.4.35,0,.57.04.78.14l-.28,1.4c-.24-.07-.42-.11-.71-.11-.55,0-1.21.38-1.62,1.42v4.2h-1.61v-6.88Z"/>
    <path class="st6" d="M58.08,174.16c0-2.24,1.55-3.61,3.17-3.61,1.86,0,2.84,1.34,2.84,3.27,0,.31-.03.62-.07.78h-4.37c.13,1.22.92,1.92,2.03,1.92.59,0,1.09-.18,1.6-.5l.55,1c-.66.44-1.48.75-2.36.75-1.9,0-3.39-1.33-3.39-3.6ZM62.7,173.5c0-1.06-.47-1.7-1.41-1.7-.8,0-1.51.6-1.65,1.7h3.06Z"/>
    <path class="st6" d="M67.98,174.16c0-2.29,1.56-3.61,3.27-3.61s3.27,1.32,3.27,3.61-1.56,3.6-3.27,3.6-3.27-1.32-3.27-3.6ZM72.86,174.16c0-1.38-.61-2.3-1.61-2.3s-1.61.92-1.61,2.3.61,2.29,1.61,2.29,1.61-.91,1.61-2.29Z"/>
    <path class="st6" d="M75.41,170.79l1.01-.07h2.87v1.28h-3.88v-1.21ZM76.34,170c0-1.43.66-2.47,2.28-2.47.5,0,.95.12,1.26.24l-.31,1.2c-.25-.11-.51-.16-.75-.16-.57,0-.87.36-.87,1.16v7.62h-1.61v-7.59Z"/>
    <path class="st6" d="M82.96,173.04c0-3,1.88-4.78,4.2-4.78,1.15,0,2.06.55,2.64,1.16l-.87,1.05c-.47-.47-1.02-.8-1.74-.8-1.49,0-2.56,1.26-2.56,3.32s.99,3.36,2.52,3.36c.81,0,1.44-.38,1.96-.94l.87,1.02c-.74.86-1.7,1.33-2.89,1.33-2.3,0-4.13-1.69-4.13-4.72Z"/>
    <path class="st6" d="M90.91,174.16c0-2.29,1.56-3.61,3.27-3.61s3.27,1.32,3.27,3.61-1.56,3.6-3.27,3.6-3.27-1.32-3.27-3.6ZM95.8,174.16c0-1.38-.61-2.3-1.61-2.3s-1.61.92-1.61,2.3.61,2.29,1.61,2.29,1.61-.91,1.61-2.29Z"/>
    <path class="st6" d="M99.05,170.71h1.32l.12.94h.04c.58-.61,1.25-1.11,2.11-1.11,1.01,0,1.58.46,1.9,1.23.66-.7,1.34-1.23,2.21-1.23,1.45,0,2.12,1,2.12,2.73v4.31h-1.61v-4.11c0-1.13-.34-1.56-1.06-1.56-.44,0-.91.28-1.44.86v4.81h-1.61v-4.11c0-1.13-.34-1.56-1.06-1.56-.43,0-.91.28-1.44.86v4.81h-1.61v-6.88Z"/>
    <path class="st6" d="M110.85,170.71h1.32l.12.73h.04c.58-.5,1.32-.9,2.07-.9,1.72,0,2.71,1.38,2.71,3.5,0,2.35-1.41,3.71-2.94,3.71-.61,0-1.21-.27-1.77-.76l.05,1.14v2.17h-1.61v-9.6ZM115.46,174.06c0-1.37-.45-2.19-1.5-2.19-.5,0-.97.25-1.5.77v3.21c.49.42.98.57,1.38.57.92,0,1.62-.81,1.62-2.36Z"/>
    <path class="st6" d="M118.66,175.82v-8.12h1.61v8.21c0,.4.18.54.35.54.07,0,.13,0,.25-.03l.2,1.2c-.2.08-.47.14-.85.14-1.14,0-1.56-.74-1.56-1.94Z"/>
    <path class="st6" d="M122.09,175.74c0-1.47,1.22-2.24,4.04-2.54-.02-.74-.32-1.36-1.25-1.36-.68,0-1.33.31-1.93.68l-.59-1.08c.76-.48,1.73-.9,2.82-.9,1.72,0,2.57,1.06,2.57,2.98v4.07h-1.32l-.12-.76h-.04c-.62.53-1.32.93-2.13.93-1.21,0-2.03-.82-2.03-2.02ZM126.13,175.75v-1.55c-1.87.24-2.49.72-2.49,1.42,0,.61.42.87.99.87s.99-.27,1.5-.75Z"/>
    <path class="st6" d="M129.5,168.6c0-.54.43-.91,1-.91s1,.37,1,.91-.43.91-1,.91-1-.38-1-.91ZM129.68,170.71h1.61v6.88h-1.61v-6.88Z"/>
    <path class="st6" d="M133.35,170.71h1.32l.12.93h.04c.62-.6,1.32-1.1,2.26-1.1,1.47,0,2.12,1,2.12,2.73v4.31h-1.61v-4.11c0-1.13-.32-1.56-1.07-1.56-.61,0-1,.3-1.57.86v4.81h-1.61v-6.88Z"/>
    <path class="st6" d="M141.43,175.27v-3.28h-.98v-1.21l1.06-.07.19-1.88h1.34v1.88h1.75v1.28h-1.75v3.28c0,.81.31,1.21.97,1.21.24,0,.52-.08.72-.16l.27,1.19c-.38.12-.85.25-1.41.25-1.58,0-2.17-1-2.17-2.49Z"/>
    <path class="st6" d="M145.42,176.8l.75-1.03c.61.48,1.2.77,1.9.77.75,0,1.1-.35,1.1-.82,0-.58-.75-.83-1.48-1.11-.9-.34-1.93-.86-1.93-2.01s.96-2.06,2.5-2.06c.96,0,1.73.39,2.29.82l-.74.99c-.48-.35-.97-.6-1.51-.6-.69,0-1.02.33-1.02.76,0,.54.69.75,1.44,1.03.93.35,1.97.8,1.97,2.08,0,1.18-.94,2.13-2.67,2.13-.94,0-1.93-.4-2.61-.96Z"/>
  </g>
  <g>
    <path class="st9" d="M285.44,174.13c0-2.61,1.36-3.79,2.82-3.79.92,0,1.6.39,2.04.84l-.85.97c-.24-.27-.68-.5-1.08-.5-.81,0-1.45.62-1.45,2.48,0,1.73.54,2.25,1.13,2.25.48,0,.88-.34.88-1.13,0-.74-.39-1.02-.92-1.02-.37,0-.77.2-1.09.75l-.07-1.06c.36-.53,1.01-.84,1.47-.84,1.2,0,2.08.68,2.08,2.16s-1.06,2.34-2.32,2.34c-1.35,0-2.64-1.01-2.64-3.46Z"/>
    <path class="st9" d="M291.2,173.94c0-2.38,1-3.59,2.5-3.59s2.5,1.23,2.5,3.59-1,3.66-2.5,3.66-2.5-1.28-2.5-3.66ZM294.67,173.94c0-1.91-.42-2.34-.97-2.34s-.97.44-.97,2.34.42,2.41.97,2.41.97-.5.97-2.41Z"/>
    <path class="st9" d="M296.89,172.43c0-1.43.75-2.27,1.79-2.27s1.79.83,1.79,2.27-.75,2.29-1.79,2.29-1.79-.85-1.79-2.29ZM299.34,172.43c0-1.02-.3-1.36-.66-1.36s-.66.35-.66,1.36.3,1.39.66,1.39.66-.37.66-1.39ZM302.8,170.16h.93l-3.87,7.43h-.93l3.87-7.43ZM302.18,175.31c0-1.43.75-2.27,1.79-2.27s1.79.83,1.79,2.27-.75,2.29-1.79,2.29-1.79-.85-1.79-2.29ZM304.63,175.31c0-1.02-.3-1.36-.66-1.36s-.66.35-.66,1.36.3,1.39.66,1.39.66-.37.66-1.39Z"/>
  </g>
  <g>
    <path class="st9" d="M438.28,171.83h-3.13v-1.36h4.86v1c-1.62,1.95-1.84,3.27-1.97,5.99h-1.62c.13-2.32.54-3.8,1.87-5.63Z"/>
    <path class="st9" d="M440.76,172.43c0-1.43.75-2.27,1.79-2.27s1.79.83,1.79,2.27-.75,2.29-1.79,2.29-1.79-.85-1.79-2.29ZM443.21,172.43c0-1.02-.3-1.36-.66-1.36s-.66.35-.66,1.36.3,1.39.66,1.39.66-.37.66-1.39ZM446.67,170.16h.93l-3.87,7.43h-.93l3.87-7.43ZM446.05,175.31c0-1.43.75-2.27,1.79-2.27s1.79.83,1.79,2.27-.75,2.29-1.79,2.29-1.79-.85-1.79-2.29ZM448.5,175.31c0-1.02-.3-1.36-.66-1.36s-.66.35-.66,1.36.3,1.39.66,1.39.66-.37.66-1.39Z"/>
  </g>
  <g>
    <path class="st9" d="M470.4,176.75l.85-.97c.24.27.68.5,1.08.5.82,0,1.45-.62,1.45-2.48,0-1.73-.54-2.25-1.13-2.25-.48,0-.88.34-.88,1.13,0,.74.39,1.02.92,1.02.37,0,.77-.2,1.09-.75l.07,1.06c-.36.53-1.01.84-1.47.84-1.2,0-2.08-.68-2.08-2.16s1.06-2.34,2.32-2.34c1.35,0,2.64,1.01,2.64,3.46,0,2.61-1.36,3.79-2.82,3.79-.92,0-1.6-.39-2.04-.84Z"/>
    <path class="st9" d="M476.02,172.43c0-1.43.75-2.27,1.79-2.27s1.79.83,1.79,2.27-.75,2.29-1.79,2.29-1.79-.85-1.79-2.29ZM478.47,172.43c0-1.02-.3-1.36-.66-1.36s-.66.35-.66,1.36.3,1.39.66,1.39.66-.37.66-1.39ZM481.92,170.16h.93l-3.87,7.43h-.93l3.87-7.43ZM481.31,175.31c0-1.43.75-2.27,1.79-2.27s1.79.83,1.79,2.27-.75,2.29-1.79,2.29-1.79-.85-1.79-2.29ZM483.76,175.31c0-1.02-.3-1.36-.66-1.36s-.66.35-.66,1.36.3,1.39.66,1.39.66-.37.66-1.39Z"/>
  </g>
  <g>
    <path class="st7" d="M543.25,176.53c1.78-1.68,3.03-2.87,3.03-3.87,0-.68-.38-1.05-.99-1.05-.5,0-.89.34-1.24.71l-.88-.87c.69-.73,1.34-1.11,2.34-1.11,1.38,0,2.32.88,2.32,2.23,0,1.18-1.1,2.43-2.24,3.61.36-.04.85-.08,1.17-.08h1.41v1.36h-4.91v-.93Z"/>
    <path class="st7" d="M551.88,173.42c0-.44.04-1.12.06-1.56h-.04c-.18.39-.37.78-.57,1.18l-.92,1.53h3.79v1.23h-5.34v-1.12l2.55-4.2h1.98v6.99h-1.51v-4.04Z"/>
    <path class="st7" d="M554.73,172.43c0-1.43.75-2.27,1.79-2.27s1.79.83,1.79,2.27-.75,2.29-1.79,2.29-1.79-.85-1.79-2.29ZM557.19,172.43c0-1.02-.3-1.36-.66-1.36s-.66.35-.66,1.36.3,1.39.66,1.39.66-.37.66-1.39ZM560.64,170.16h.93l-3.87,7.43h-.93l3.87-7.43ZM560.02,175.31c0-1.43.75-2.27,1.79-2.27s1.79.83,1.79,2.27-.75,2.29-1.79,2.29-1.79-.85-1.79-2.29ZM562.48,175.31c0-1.02-.3-1.36-.66-1.36s-.66.35-.66,1.36.3,1.39.66,1.39.66-.37.66-1.39Z"/>
  </g>
</svg>