<?xml version="1.0" encoding="UTF-8"?>
<svg id="exportSvg" xmlns="http://www.w3.org/2000/svg" version="1.1" viewBox="0 0 625.04 312.76">
  <!-- Generator: Adobe Illustrator 30.6.0, SVG Export Plug-In . SVG Version: 2.1.4 Build 109)  -->
  <defs>
    <style>
      .st0, .st1, .st2, .st3 {
        isolation: isolate;
      }

      .st0, .st2, .st3 {
        font-family: ArialMT, Arial;
      }

      .st0, .st2, .st4 {
        font-size: 12px;
      }

      .st0, .st4 {
        fill: #fff;
      }

      .st5 {
        fill: #8c5322;
      }

      .st6 {
        fill: #bf812b;
      }

      .st7 {
        fill: #231f20;
      }

      .st8 {
        fill: #35978f;
      }

      .st9 {
        fill: #ddd;
      }

      .st2, .st3 {
        fill: #818181;
      }

      .st3 {
        font-size: 11px;
      }

      .st4 {
        font-family: MyriadPro-Regular, 'Myriad Pro';
      }

      .st10 {
        fill: #6c7a89;
      }

      .st11 {
        fill: #80cdc1;
      }

      .st12 {
        fill: #181818;
      }
    </style>
  </defs>
  <g class="st1">
    <path class="st12" d="M99.48,69.11h1.09v8.53h-1.09v-8.53Z"/>
    <path class="st12" d="M102.8,71.32h.88l.09.91h.04c.6-.59,1.25-1.07,2.12-1.07,1.33,0,1.93.86,1.93,2.47v4h-1.07v-3.87c0-1.18-.36-1.68-1.19-1.68-.65,0-1.09.33-1.73.97v4.58h-1.07v-6.32h0Z"/>
    <path class="st12" d="M109.46,74.49c0-2.05,1.29-3.32,2.73-3.32.73,0,1.22.28,1.77.73l-.04-1.08v-2.43h1.07v9.26h-.88l-.09-.75h-.04c-.49.49-1.16.9-1.92.9-1.58,0-2.6-1.2-2.6-3.31ZM113.92,76.04v-3.31c-.54-.48-1.03-.66-1.54-.66-1.01,0-1.81.97-1.81,2.41,0,1.52.63,2.42,1.73,2.42.58,0,1.09-.28,1.62-.86Z"/>
    <path class="st12" d="M116.93,69.33c0-.42.32-.69.74-.69s.74.27.74.69-.32.69-.74.69-.74-.29-.74-.69ZM117.13,71.32h1.07v6.32h-1.07v-6.32Z"/>
    <path class="st12" d="M119.42,71.32h1.1l1.19,3.59c.19.62.39,1.26.58,1.86h.05c.19-.6.39-1.25.58-1.86l1.19-3.59h1.05l-2.23,6.32h-1.24l-2.28-6.32h0Z"/>
    <path class="st12" d="M126.2,69.33c0-.42.32-.69.74-.69s.74.27.74.69-.32.69-.74.69-.74-.29-.74-.69ZM126.4,71.32h1.07v6.32h-1.07v-6.32Z"/>
    <path class="st12" d="M129.14,74.49c0-2.05,1.29-3.32,2.73-3.32.73,0,1.22.28,1.77.73l-.04-1.08v-2.43h1.07v9.26h-.88l-.09-.75h-.04c-.49.49-1.16.9-1.92.9-1.58,0-2.6-1.2-2.6-3.31h0ZM133.6,76.04v-3.31c-.54-.48-1.03-.66-1.54-.66-1.01,0-1.81.97-1.81,2.41,0,1.52.63,2.42,1.73,2.42.58,0,1.09-.28,1.62-.86Z"/>
    <path class="st12" d="M136.72,75.33v-4h1.07v3.87c0,1.18.36,1.68,1.19,1.68.65,0,1.09-.32,1.69-1.07v-4.48h1.07v6.32h-.88l-.09-.99h-.04c-.59.69-1.22,1.15-2.08,1.15-1.33,0-1.93-.86-1.93-2.47h0Z"/>
    <path class="st12" d="M143.49,76c0-1.38,1.19-2.07,3.88-2.36,0-.81-.27-1.6-1.3-1.6-.73,0-1.39.35-1.88.68l-.42-.73c.58-.38,1.47-.83,2.48-.83,1.54,0,2.19,1.03,2.19,2.6v3.88h-.88l-.09-.76h-.04c-.6.5-1.31.91-2.09.91-1.06,0-1.85-.66-1.85-1.8h0ZM147.37,76.1v-1.75c-2.12.25-2.83.77-2.83,1.58,0,.72.49,1.01,1.11,1.01s1.11-.3,1.73-.84h0Z"/>
    <path class="st12" d="M150.43,76.37v-7.99h1.07v8.07c0,.33.14.46.3.46.06,0,.11,0,.23-.03l.15.82c-.15.05-.34.1-.62.1-.8,0-1.13-.51-1.13-1.43Z"/>
  </g>
  <rect class="st5" x="162.67" y="62.29" width="430.33" height="25.65"/>
  <g class="st1">
    <g class="st1">
      <g class="st1">
        <text class="st0" transform="translate(246.89 135.65)"><tspan x="0" y="0">8</tspan></text>
      </g>
    </g>
  </g>
  <g class="st1">
    <g class="st1">
      <g class="st1">
        <text class="st0" transform="translate(246.89 159.65)"><tspan x="0" y="0">5</tspan></text>
      </g>
    </g>
  </g>
  <g class="st1">
    <g class="st1">
      <g class="st1">
        <text class="st0" transform="translate(246.89 183.65)"><tspan x="0" y="0">4</tspan></text>
      </g>
    </g>
  </g>
  <rect class="st6" x="162.67" y="92.39" width="317.62" height="25.65"/>
  <rect class="st8" x="162.67" y="122.96" width="81.97" height="25.65"/>
  <rect class="st11" x="162.67" y="153.54" width="51.23" height="25.65"/>
  <rect class="st10" x="162.67" y="186.99" width="40.98" height="25.65"/>
  <rect class="st9" x="162.67" y="220.45" width="102.47" height="25.65"/>
  <g class="st1">
    <path class="st12" d="M44.82,99.21h2.67c1.74,0,2.99.62,2.99,2.4s-1.25,2.52-2.99,2.52h-1.59v3.61h-1.09v-8.53h.01ZM47.33,103.25c1.33,0,2.06-.54,2.06-1.64s-.73-1.52-2.06-1.52h-1.43v3.16s1.43,0,1.43,0ZM47.27,103.83l.85-.56,2.6,4.47h-1.23l-2.22-3.9h0Z"/>
    <path class="st12" d="M51.51,104.59c0-2.06,1.39-3.32,2.84-3.32,1.61,0,2.52,1.16,2.52,2.97,0,.23-.02.45-.05.61h-4.26c.08,1.34.9,2.21,2.1,2.21.61,0,1.1-.2,1.57-.5l.38.7c-.55.36-1.23.66-2.09.66-1.68,0-3.03-1.23-3.03-3.31,0,0,.02-.02.02-.02ZM55.93,104.07c0-1.27-.57-1.95-1.56-1.95-.89,0-1.68.71-1.81,1.95h3.37Z"/>
    <path class="st12" d="M57.73,107.02l.53-.71c.55.44,1.11.75,1.87.75.83,0,1.24-.44,1.24-.98,0-.65-.75-.94-1.45-1.2-.89-.32-1.88-.76-1.88-1.83,0-1.01.81-1.79,2.18-1.79.79,0,1.48.32,1.96.71l-.51.69c-.44-.32-.88-.56-1.44-.56-.8,0-1.16.42-1.16.91,0,.6.69.83,1.4,1.1.91.34,1.93.71,1.93,1.92,0,1.02-.81,1.88-2.31,1.88-.9,0-1.76-.38-2.36-.88h0Z"/>
    <path class="st12" d="M63.68,99.43c0-.42.32-.69.74-.69s.74.27.74.69-.32.69-.74.69-.74-.29-.74-.69ZM63.88,101.42h1.07v6.32h-1.07s0-6.32,0-6.32Z"/>
    <path class="st12" d="M66.62,104.59c0-2.05,1.29-3.32,2.73-3.32.73,0,1.22.28,1.77.73l-.04-1.08v-2.43h1.07v9.26h-.88l-.09-.75h-.04c-.49.49-1.16.9-1.92.9-1.58,0-2.6-1.2-2.6-3.31ZM71.09,106.13v-3.31c-.54-.48-1.03-.66-1.54-.66-1.01,0-1.81.97-1.81,2.41,0,1.52.63,2.42,1.73,2.42.58,0,1.09-.28,1.62-.86Z"/>
    <path class="st12" d="M73.82,104.59c0-2.06,1.39-3.32,2.84-3.32,1.61,0,2.52,1.16,2.52,2.97,0,.23-.02.45-.05.61h-4.26c.08,1.34.9,2.21,2.1,2.21.61,0,1.1-.2,1.57-.5l.38.7c-.55.36-1.23.66-2.09.66-1.68,0-3.03-1.23-3.03-3.31l.02-.02h0ZM78.24,104.07c0-1.27-.57-1.95-1.56-1.95-.89,0-1.68.71-1.81,1.95,0,0,3.37,0,3.37,0Z"/>
    <path class="st12" d="M80.74,101.42h.88l.09.91h.04c.6-.59,1.25-1.07,2.12-1.07,1.33,0,1.93.86,1.93,2.47v4h-1.07v-3.87c0-1.18-.36-1.68-1.19-1.68-.65,0-1.09.33-1.73.97v4.58h-1.07v-6.32h0Z"/>
    <path class="st12" d="M88.04,105.78v-3.49h-.94v-.81l.99-.06.13-1.77h.89v1.77h1.71v.87h-1.71v3.51c0,.77.25,1.22.98,1.22.22,0,.51-.08.72-.17l.21.81c-.35.12-.78.23-1.17.23-1.35,0-1.8-.85-1.8-2.11h0Z"/>
    <path class="st12" d="M94.36,108.95c0-.54.34-1.05.93-1.43v-.05c-.32-.2-.56-.54-.56-1.04s.37-.94.69-1.17v-.05c-.42-.33-.82-.94-.82-1.7,0-1.38,1.09-2.25,2.37-2.25.35,0,.66.07.89.16h2.2v.82h-1.3c.3.29.52.76.52,1.3,0,1.35-1.02,2.19-2.31,2.19-.31,0-.66-.08-.94-.21-.23.19-.4.4-.4.75,0,.4.26.69,1.11.69h1.23c1.47,0,2.21.46,2.21,1.51,0,1.17-1.24,2.19-3.2,2.19-1.55,0-2.61-.61-2.61-1.69v-.02h-.01ZM99.13,108.62c0-.58-.44-.78-1.27-.78h-1.09c-.24,0-.54-.03-.82-.09-.45.32-.64.7-.64,1.06,0,.68.68,1.11,1.83,1.11s2-.63,2-1.29h-.01ZM98.32,103.51c0-.92-.6-1.48-1.34-1.48s-1.34.55-1.34,1.48.61,1.5,1.34,1.5,1.34-.58,1.34-1.5Z"/>
    <path class="st12" d="M101.4,101.42h.88l.09,1.15h.04c.44-.8,1.09-1.31,1.8-1.31.28,0,.48.04.67.13l-.2.94c-.22-.07-.36-.1-.61-.1-.53,0-1.17.38-1.6,1.45v4.06h-1.07v-6.32Z"/>
    <path class="st12" d="M105.31,104.59c0-2.11,1.38-3.32,2.93-3.32s2.93,1.21,2.93,3.32-1.38,3.31-2.93,3.31-2.93-1.22-2.93-3.31ZM110.06,104.59c0-1.45-.74-2.43-1.82-2.43s-1.82.99-1.82,2.43.74,2.42,1.82,2.42,1.82-.97,1.82-2.42Z"/>
    <path class="st12" d="M112.74,105.42v-4h1.07v3.87c0,1.18.36,1.68,1.19,1.68.65,0,1.09-.32,1.69-1.07v-4.48h1.07v6.32h-.88l-.09-.99h-.04c-.59.69-1.22,1.15-2.08,1.15-1.33,0-1.93-.86-1.93-2.47h0Z"/>
    <path class="st12" d="M119.89,101.42h.88l.09.73h.04c.57-.47,1.28-.89,2.01-.89,1.63,0,2.51,1.27,2.51,3.22,0,2.15-1.29,3.41-2.74,3.41-.58,0-1.17-.27-1.75-.73l.03,1.1v2.14h-1.07v-8.99h0ZM124.32,104.49c0-1.39-.48-2.33-1.67-2.33-.54,0-1.07.29-1.69.86v3.31c.57.48,1.12.66,1.54.66,1.05,0,1.82-.94,1.82-2.5Z"/>
    <path class="st12" d="M129.65,98.51h.77l-3.47,11.31h-.77l3.47-11.31Z"/>
    <path class="st12" d="M131.76,99.21h2.67c1.74,0,2.99.62,2.99,2.4s-1.25,2.52-2.99,2.52h-1.59v3.61h-1.09v-8.53h0ZM134.27,103.25c1.33,0,2.06-.54,2.06-1.64s-.73-1.52-2.06-1.52h-1.43v3.16s1.43,0,1.43,0ZM134.22,103.83l.85-.56,2.6,4.47h-1.23l-2.22-3.9h0Z"/>
    <path class="st12" d="M138.36,99.21h1.12l.9,4.64c.17.92.33,1.83.5,2.75h.05c.19-.92.39-1.84.6-2.75l1.18-4.64h.98l1.18,4.64c.21.9.41,1.83.62,2.75h.05c.17-.92.32-1.84.48-2.75l.9-4.64h1.05l-1.77,8.53h-1.31l-1.29-5.13c-.15-.67-.28-1.29-.41-1.94h-.05c-.13.66-.28,1.28-.43,1.94l-1.27,5.13h-1.29l-1.81-8.53h.02Z"/>
    <path class="st12" d="M151.21,99.21h1.23l2.89,8.53h-1.15l-1.49-4.77c-.31-.95-.58-1.89-.85-2.88h-.05c-.26.99-.54,1.92-.84,2.88l-1.5,4.77h-1.1l2.89-8.53h-.03,0ZM149.84,104.27h3.93v.87h-3.93v-.87Z"/>
  </g>
  <g class="st1">
    <path class="st12" d="M58.69,137.09c0-2.75,1.65-4.43,3.92-4.43,1.18,0,1.96.54,2.46,1.05l-.59.71c-.43-.45-.98-.81-1.84-.81-1.72,0-2.82,1.32-2.82,3.45s1.01,3.49,2.83,3.49c.61,0,1.2-.18,1.54-.5v-2.22h-1.81v-.9h2.8v3.59c-.55.57-1.48.99-2.63.99-2.25,0-3.85-1.64-3.85-4.42h-.01Z"/>
    <path class="st12" d="M66.64,138.2c0-2.11,1.38-3.32,2.93-3.32s2.93,1.21,2.93,3.32-1.38,3.31-2.93,3.31-2.93-1.22-2.93-3.31ZM71.39,138.2c0-1.45-.74-2.43-1.82-2.43s-1.82.99-1.82,2.43.74,2.42,1.82,2.42,1.82-.97,1.82-2.42Z"/>
    <path class="st12" d="M73.19,135.03h1.1l1.19,3.59c.19.62.39,1.26.58,1.86h.05c.19-.6.39-1.25.58-1.86l1.19-3.59h1.05l-2.23,6.32h-1.24l-2.28-6.32h0Z"/>
    <path class="st12" d="M79.65,138.2c0-2.06,1.39-3.32,2.84-3.32,1.61,0,2.52,1.16,2.52,2.97,0,.23-.02.45-.05.61h-4.26c.08,1.34.9,2.21,2.1,2.21.61,0,1.1-.2,1.57-.5l.38.7c-.55.36-1.23.66-2.09.66-1.68,0-3.03-1.23-3.03-3.31l.02-.02h0ZM84.07,137.68c0-1.27-.57-1.95-1.56-1.95-.89,0-1.68.71-1.81,1.95,0,0,3.37,0,3.37,0Z"/>
    <path class="st12" d="M86.57,135.03h.88l.09,1.15h.04c.44-.8,1.09-1.31,1.8-1.31.28,0,.48.04.67.13l-.2.94c-.22-.07-.36-.1-.61-.1-.53,0-1.17.38-1.6,1.45v4.06h-1.07v-6.32h0Z"/>
    <path class="st12" d="M91.08,135.03h.88l.09.91h.04c.6-.59,1.25-1.07,2.12-1.07,1.33,0,1.93.86,1.93,2.47v4h-1.07v-3.87c0-1.18-.36-1.68-1.19-1.68-.65,0-1.09.33-1.73.97v4.58h-1.07v-6.32h0Z"/>
    <path class="st12" d="M98.19,135.03h.88l.09.92h.04c.55-.6,1.21-1.07,1.97-1.07.97,0,1.48.46,1.74,1.2.66-.71,1.32-1.2,2.08-1.2,1.3,0,1.92.86,1.92,2.47v4h-1.07v-3.87c0-1.18-.37-1.68-1.18-1.68-.49,0-1,.32-1.58.97v4.58h-1.07v-3.87c0-1.18-.37-1.68-1.18-1.68-.47,0-1,.32-1.58.97v4.58h-1.07v-6.32h.01Z"/>
    <path class="st12" d="M108.5,138.2c0-2.06,1.39-3.32,2.84-3.32,1.61,0,2.52,1.16,2.52,2.97,0,.23-.02.45-.05.61h-4.26c.08,1.34.9,2.21,2.1,2.21.61,0,1.1-.2,1.57-.5l.38.7c-.55.36-1.23.66-2.09.66-1.68,0-3.03-1.23-3.03-3.31l.02-.02h0ZM112.91,137.68c0-1.27-.57-1.95-1.56-1.95-.89,0-1.68.71-1.81,1.95,0,0,3.37,0,3.37,0Z"/>
    <path class="st12" d="M115.41,135.03h.88l.09.91h.04c.6-.59,1.25-1.07,2.12-1.07,1.33,0,1.93.86,1.93,2.47v4h-1.07v-3.87c0-1.18-.36-1.68-1.19-1.68-.65,0-1.09.33-1.73.97v4.58h-1.07v-6.32h0Z"/>
    <path class="st12" d="M122.71,139.4v-3.49h-.94v-.81l.99-.06.13-1.77h.89v1.77h1.71v.87h-1.71v3.51c0,.77.25,1.22.98,1.22.22,0,.51-.08.72-.17l.21.81c-.35.12-.78.23-1.17.23-1.35,0-1.8-.85-1.8-2.11h0Z"/>
    <path class="st12" d="M130.51,140.7h-.04l-.1.65h-.85v-9.26h1.07v2.53l-.04,1.13c.58-.5,1.28-.88,1.99-.88,1.63,0,2.51,1.27,2.51,3.21,0,2.16-1.29,3.42-2.74,3.42-.59,0-1.24-.3-1.8-.81h0ZM133.94,138.11c0-1.39-.48-2.33-1.67-2.33-.54,0-1.09.29-1.69.86v3.31c.56.48,1.12.66,1.54.66,1.05,0,1.82-.94,1.82-2.5Z"/>
    <path class="st12" d="M136.24,138.2c0-2.11,1.38-3.32,2.93-3.32s2.93,1.21,2.93,3.32-1.38,3.31-2.93,3.31-2.93-1.22-2.93-3.31ZM140.99,138.2c0-1.45-.74-2.43-1.82-2.43s-1.82.99-1.82,2.43.74,2.42,1.82,2.42,1.82-.97,1.82-2.42Z"/>
    <path class="st12" d="M143.3,138.2c0-2.05,1.29-3.32,2.73-3.32.73,0,1.22.28,1.77.73l-.04-1.08v-2.43h1.07v9.26h-.88l-.09-.75h-.04c-.49.49-1.16.9-1.92.9-1.58,0-2.6-1.2-2.6-3.31h0ZM147.76,139.75v-3.31c-.54-.48-1.03-.66-1.54-.66-1.01,0-1.81.97-1.81,2.41,0,1.52.63,2.42,1.73,2.42.58,0,1.09-.28,1.62-.86Z"/>
    <path class="st12" d="M150.33,143.95l.21-.85c.12.04.32.09.48.09.71,0,1.16-.57,1.42-1.36l.14-.47-2.54-6.33h1.1l1.29,3.5c.2.55.41,1.2.62,1.78h.05c.18-.57.36-1.22.53-1.78l1.13-3.5h1.05l-2.38,6.84c-.45,1.25-1.1,2.2-2.37,2.2-.29,0-.54-.05-.74-.13h0Z"/>
  </g>
  <g class="st1">
    <path class="st12" d="M7.76,160.35h2.44c1.91,0,3.2.64,3.2,2.51s-1.28,2.64-3.15,2.64h-1.4v3.38h-1.09v-8.53ZM10.12,164.62c1.49,0,2.2-.54,2.2-1.75s-.76-1.63-2.26-1.63h-1.21v3.39h1.27Z"/>
    <path class="st12" d="M15.02,162.57h.88l.09,1.15h.04c.44-.8,1.09-1.31,1.8-1.31.28,0,.48.04.67.13l-.2.94c-.22-.07-.36-.1-.61-.1-.53,0-1.17.38-1.6,1.45v4.06h-1.07v-6.32h0Z"/>
    <path class="st12" d="M19.34,160.58c0-.42.32-.69.74-.69s.74.27.74.69-.32.69-.74.69-.74-.29-.74-.69ZM19.53,162.57h1.07v6.32h-1.07v-6.32Z"/>
    <path class="st12" d="M21.82,162.57h1.1l1.19,3.59c.19.62.39,1.26.58,1.86h.05c.19-.6.39-1.25.58-1.86l1.19-3.59h1.05l-2.23,6.32h-1.24l-2.28-6.32h.01Z"/>
    <path class="st12" d="M28.15,167.25c0-1.38,1.19-2.07,3.88-2.36,0-.81-.27-1.6-1.3-1.6-.73,0-1.39.35-1.88.68l-.42-.73c.58-.38,1.47-.83,2.48-.83,1.54,0,2.19,1.03,2.19,2.6v3.88h-.88l-.09-.76h-.04c-.6.5-1.31.91-2.09.91-1.06,0-1.85-.66-1.85-1.8h0ZM32.03,167.35v-1.75c-2.12.25-2.83.77-2.83,1.58,0,.72.49,1.01,1.11,1.01s1.11-.3,1.73-.84h-.01Z"/>
    <path class="st12" d="M35.1,166.93v-3.49h-.94v-.81l.99-.06.13-1.77h.89v1.77h1.71v.87h-1.71v3.51c0,.77.25,1.22.98,1.22.22,0,.51-.08.72-.17l.21.81c-.35.12-.78.23-1.17.23-1.35,0-1.8-.85-1.8-2.11h-.01Z"/>
    <path class="st12" d="M38.66,165.74c0-2.06,1.39-3.32,2.84-3.32,1.61,0,2.52,1.16,2.52,2.97,0,.23-.02.45-.05.61h-4.26c.08,1.34.9,2.21,2.1,2.21.61,0,1.1-.2,1.57-.5l.38.7c-.55.36-1.23.66-2.09.66-1.68,0-3.03-1.23-3.03-3.31l.02-.02ZM43.07,165.22c0-1.27-.57-1.95-1.56-1.95-.89,0-1.68.71-1.81,1.95h3.37Z"/>
    <path class="st12" d="M47.98,160.58c0-.42.32-.69.74-.69s.74.27.74.69-.32.69-.74.69-.74-.29-.74-.69ZM48.17,162.57h1.07v6.32h-1.07v-6.32Z"/>
    <path class="st12" d="M51.37,162.57h.88l.09.91h.04c.6-.59,1.25-1.07,2.12-1.07,1.33,0,1.93.86,1.93,2.47v4h-1.07v-3.87c0-1.18-.36-1.68-1.19-1.68-.65,0-1.09.33-1.73.97v4.58h-1.07v-6.32h0Z"/>
    <path class="st12" d="M57.78,168.17l.53-.71c.55.44,1.11.75,1.87.75.83,0,1.24-.44,1.24-.98,0-.65-.75-.94-1.45-1.2-.89-.32-1.88-.76-1.88-1.83,0-1.01.81-1.79,2.18-1.79.79,0,1.48.32,1.96.71l-.51.69c-.44-.32-.88-.56-1.44-.56-.8,0-1.16.42-1.16.91,0,.6.69.83,1.4,1.1.91.34,1.93.71,1.93,1.92,0,1.02-.81,1.88-2.31,1.88-.9,0-1.76-.38-2.36-.88h0Z"/>
    <path class="st12" d="M63.86,166.93v-3.49h-.94v-.81l.99-.06.13-1.77h.89v1.77h1.71v.87h-1.71v3.51c0,.77.25,1.22.98,1.22.22,0,.51-.08.72-.17l.21.81c-.35.12-.78.23-1.17.23-1.35,0-1.8-.85-1.8-2.11h-.01Z"/>
    <path class="st12" d="M67.87,160.58c0-.42.32-.69.74-.69s.74.27.74.69-.32.69-.74.69-.74-.29-.74-.69ZM68.06,162.57h1.07v6.32h-1.07v-6.32Z"/>
    <path class="st12" d="M71.45,166.93v-3.49h-.94v-.81l.99-.06.13-1.77h.89v1.77h1.71v.87h-1.71v3.51c0,.77.25,1.22.98,1.22.22,0,.51-.08.72-.17l.21.81c-.35.12-.78.23-1.17.23-1.35,0-1.8-.85-1.8-2.11h0Z"/>
    <path class="st12" d="M75.57,166.57v-4h1.07v3.87c0,1.18.36,1.68,1.19,1.68.65,0,1.09-.32,1.69-1.07v-4.48h1.07v6.32h-.88l-.09-.99h-.04c-.59.69-1.22,1.15-2.08,1.15-1.33,0-1.93-.86-1.93-2.47h0Z"/>
    <path class="st12" d="M82.91,166.93v-3.49h-.94v-.81l.99-.06.13-1.77h.89v1.77h1.71v.87h-1.71v3.51c0,.77.25,1.22.98,1.22.22,0,.51-.08.72-.17l.21.81c-.35.12-.78.23-1.17.23-1.35,0-1.8-.85-1.8-2.11h0Z"/>
    <path class="st12" d="M86.92,160.58c0-.42.32-.69.74-.69s.74.27.74.69-.32.69-.74.69-.74-.29-.74-.69ZM87.12,162.57h1.07v6.32h-1.07v-6.32Z"/>
    <path class="st12" d="M89.85,165.74c0-2.11,1.38-3.32,2.93-3.32s2.93,1.21,2.93,3.32-1.38,3.31-2.93,3.31-2.93-1.22-2.93-3.31ZM94.6,165.74c0-1.45-.74-2.43-1.82-2.43s-1.82.99-1.82,2.43.74,2.42,1.82,2.42,1.82-.97,1.82-2.42Z"/>
    <path class="st12" d="M97.36,162.57h.88l.09.91h.04c.6-.59,1.25-1.07,2.12-1.07,1.33,0,1.93.86,1.93,2.47v4h-1.07v-3.87c0-1.18-.36-1.68-1.19-1.68-.65,0-1.09.33-1.73.97v4.58h-1.07v-6.32h0Z"/>
    <path class="st12" d="M107.01,159.66h.77l-3.47,11.31h-.77l3.47-11.31Z"/>
    <path class="st12" d="M110.01,168.23h-.04l-.1.65h-.85v-9.26h1.07v2.53l-.04,1.13c.58-.5,1.28-.88,1.99-.88,1.63,0,2.51,1.27,2.51,3.21,0,2.16-1.29,3.42-2.74,3.42-.59,0-1.24-.3-1.8-.81h0ZM113.45,165.64c0-1.39-.48-2.33-1.67-2.33-.54,0-1.09.29-1.69.86v3.31c.56.48,1.12.66,1.54.66,1.05,0,1.82-.94,1.82-2.5Z"/>
    <path class="st12" d="M116.13,166.57v-4h1.07v3.87c0,1.18.36,1.68,1.19,1.68.65,0,1.09-.32,1.69-1.07v-4.48h1.07v6.32h-.88l-.09-.99h-.04c-.59.69-1.22,1.15-2.08,1.15-1.33,0-1.93-.86-1.93-2.47h0Z"/>
    <path class="st12" d="M122.58,168.17l.53-.71c.55.44,1.11.75,1.87.75.83,0,1.24-.44,1.24-.98,0-.65-.75-.94-1.45-1.2-.89-.32-1.88-.76-1.88-1.83,0-1.01.81-1.79,2.18-1.79.79,0,1.48.32,1.96.71l-.51.69c-.44-.32-.88-.56-1.44-.56-.8,0-1.16.42-1.16.91,0,.6.69.83,1.4,1.1.91.34,1.93.71,1.93,1.92,0,1.02-.81,1.88-2.31,1.88-.9,0-1.76-.38-2.36-.88h0Z"/>
    <path class="st12" d="M128.54,160.58c0-.42.32-.69.74-.69s.74.27.74.69-.32.69-.74.69-.74-.29-.74-.69ZM128.73,162.57h1.07v6.32h-1.07v-6.32Z"/>
    <path class="st12" d="M131.93,162.57h.88l.09.91h.04c.6-.59,1.25-1.07,2.12-1.07,1.33,0,1.93.86,1.93,2.47v4h-1.07v-3.87c0-1.18-.36-1.68-1.19-1.68-.65,0-1.09.33-1.73.97v4.58h-1.07v-6.32h0Z"/>
    <path class="st12" d="M138.57,165.74c0-2.06,1.39-3.32,2.84-3.32,1.61,0,2.52,1.16,2.52,2.97,0,.23-.02.45-.05.61h-4.26c.08,1.34.9,2.21,2.1,2.21.61,0,1.1-.2,1.57-.5l.38.7c-.55.36-1.23.66-2.09.66-1.68,0-3.03-1.23-3.03-3.31l.02-.02h0ZM142.99,165.22c0-1.27-.57-1.95-1.56-1.95-.89,0-1.68.71-1.81,1.95h3.37Z"/>
    <path class="st12" d="M144.79,168.17l.53-.71c.55.44,1.11.75,1.87.75.83,0,1.24-.44,1.24-.98,0-.65-.75-.94-1.45-1.2-.89-.32-1.88-.76-1.88-1.83,0-1.01.81-1.79,2.18-1.79.79,0,1.48.32,1.96.71l-.51.69c-.44-.32-.88-.56-1.44-.56-.8,0-1.16.42-1.16.91,0,.6.69.83,1.4,1.1.91.34,1.93.71,1.93,1.92,0,1.02-.81,1.88-2.31,1.88-.9,0-1.76-.38-2.36-.88h0Z"/>
    <path class="st12" d="M150.24,168.17l.53-.71c.55.44,1.11.75,1.87.75.83,0,1.24-.44,1.24-.98,0-.65-.75-.94-1.45-1.2-.89-.32-1.88-.76-1.88-1.83,0-1.01.81-1.79,2.18-1.79.79,0,1.48.32,1.96.71l-.51.69c-.44-.32-.88-.56-1.44-.56-.8,0-1.16.42-1.16.91,0,.6.69.83,1.4,1.1.91.34,1.93.71,1.93,1.92,0,1.02-.81,1.88-2.31,1.88-.9,0-1.76-.38-2.36-.88h0Z"/>
  </g>
  <g class="st1">
    <path class="st12" d="M23.12,195.43h1.23l2.89,8.53h-1.15l-1.49-4.77c-.31-.95-.58-1.89-.85-2.88h-.05c-.26.99-.54,1.92-.84,2.88l-1.5,4.77h-1.1l2.89-8.53s-.03,0-.03,0ZM21.75,200.49h3.93v.87h-3.93v-.87Z"/>
    <path class="st12" d="M28.38,195.43h2.53c1.74,0,2.93.59,2.93,2.09,0,.84-.45,1.59-1.25,1.85v.05c1.02.2,1.74.88,1.74,2.04,0,1.68-1.33,2.5-3.23,2.5h-2.73v-8.53h0ZM30.73,199.06c1.45,0,2.05-.54,2.05-1.4,0-1-.68-1.37-2-1.37h-1.31v2.77h1.26ZM30.96,203.1c1.46,0,2.32-.53,2.32-1.68,0-1.05-.83-1.53-2.32-1.53h-1.49v3.21h1.49Z"/>
    <path class="st12" d="M35.53,199.7c0-2.75,1.62-4.43,3.79-4.43,1.04,0,1.85.5,2.35,1.05l-.59.71c-.45-.48-1.01-.81-1.73-.81-1.61,0-2.68,1.32-2.68,3.45s1.02,3.49,2.64,3.49c.81,0,1.43-.35,1.98-.96l.59.68c-.67.78-1.51,1.23-2.62,1.23-2.13,0-3.72-1.64-3.72-4.42h0Z"/>
    <path class="st12" d="M45.25,203.24l.53-.71c.55.44,1.11.75,1.87.75.83,0,1.24-.44,1.24-.98,0-.65-.75-.94-1.45-1.2-.89-.32-1.88-.76-1.88-1.83,0-1.01.81-1.79,2.18-1.79.79,0,1.47.32,1.96.71l-.51.69c-.43-.32-.88-.56-1.44-.56-.8,0-1.16.42-1.16.91,0,.6.69.83,1.4,1.1.91.34,1.93.71,1.93,1.92,0,1.02-.81,1.88-2.31,1.88-.9,0-1.76-.38-2.36-.88h0Z"/>
    <path class="st12" d="M51.4,194.7h1.07v2.53l-.04,1.3c.59-.57,1.23-1.05,2.1-1.05,1.33,0,1.93.86,1.93,2.47v4h-1.07v-3.87c0-1.18-.36-1.68-1.19-1.68-.65,0-1.09.33-1.73.97v4.58h-1.07v-9.26h0Z"/>
    <path class="st12" d="M58,200.81c0-2.06,1.39-3.32,2.84-3.32,1.61,0,2.52,1.16,2.52,2.97,0,.23-.02.45-.05.61h-4.26c.08,1.34.89,2.21,2.1,2.21.61,0,1.1-.2,1.57-.5l.38.7c-.55.36-1.23.66-2.09.66-1.68,0-3.03-1.23-3.03-3.31,0,0,.02-.02.02-.02ZM62.42,200.29c0-1.27-.57-1.95-1.56-1.95-.89,0-1.68.71-1.81,1.95h3.37Z"/>
    <path class="st12" d="M64.92,202.69v-7.99h1.07v8.07c0,.33.14.46.3.46.06,0,.11,0,.23-.03l.14.82c-.15.05-.33.1-.62.1-.8,0-1.13-.51-1.13-1.43h0Z"/>
    <path class="st12" d="M68.42,202v-3.49h-.94v-.81l.99-.06.13-1.77h.89v1.77h1.71v.87h-1.71v3.51c0,.77.25,1.22.98,1.22.22,0,.51-.08.72-.17l.21.81c-.35.12-.78.23-1.17.23-1.35,0-1.8-.85-1.8-2.11h0Z"/>
    <path class="st12" d="M71.98,200.81c0-2.06,1.39-3.32,2.84-3.32,1.61,0,2.52,1.16,2.52,2.97,0,.23-.02.45-.05.61h-4.26c.08,1.34.89,2.21,2.1,2.21.61,0,1.1-.2,1.57-.5l.38.7c-.55.36-1.23.66-2.09.66-1.68,0-3.03-1.23-3.03-3.31l.02-.02h0ZM76.39,200.29c0-1.27-.57-1.95-1.56-1.95-.89,0-1.68.71-1.81,1.95,0,0,3.37,0,3.37,0Z"/>
    <path class="st12" d="M78.89,197.64h.88l.09,1.15h.04c.44-.8,1.08-1.31,1.8-1.31.28,0,.48.04.67.13l-.2.94c-.22-.07-.36-.1-.61-.1-.53,0-1.17.38-1.6,1.45v4.06h-1.07v-6.32h0Z"/>
    <path class="st12" d="M85.53,200.81c0-2.11,1.38-3.32,2.93-3.32s2.93,1.21,2.93,3.32-1.38,3.31-2.93,3.31-2.93-1.22-2.93-3.31ZM90.29,200.81c0-1.45-.74-2.43-1.82-2.43s-1.82.99-1.82,2.43.74,2.42,1.82,2.42,1.82-.97,1.82-2.42Z"/>
    <path class="st12" d="M93.05,197.64h.88l.09,1.15h.04c.44-.8,1.08-1.31,1.8-1.31.28,0,.48.04.67.13l-.2.94c-.22-.07-.36-.1-.61-.1-.53,0-1.17.38-1.6,1.45v4.06h-1.07v-6.32h0Z"/>
    <path class="st12" d="M99.69,200.81c0-2.11,1.42-3.32,3.04-3.32.83,0,1.4.34,1.85.74l-.55.71c-.37-.33-.76-.56-1.25-.56-1.14,0-1.98.99-1.98,2.43s.79,2.42,1.96,2.42c.58,0,1.09-.28,1.48-.63l.46.72c-.57.51-1.29.8-2.04.8-1.68,0-2.96-1.22-2.96-3.31h0Z"/>
    <path class="st12" d="M105.35,200.81c0-2.11,1.38-3.32,2.93-3.32s2.93,1.21,2.93,3.32-1.38,3.31-2.93,3.31-2.93-1.22-2.93-3.31ZM110.1,200.81c0-1.45-.74-2.43-1.82-2.43s-1.82.99-1.82,2.43.74,2.42,1.82,2.42,1.82-.97,1.82-2.42Z"/>
    <path class="st12" d="M112.86,197.64h.88l.09.91h.04c.6-.59,1.25-1.07,2.12-1.07,1.33,0,1.93.86,1.93,2.47v4h-1.07v-3.87c0-1.18-.36-1.68-1.19-1.68-.65,0-1.09.33-1.73.97v4.58h-1.07v-6.32h0Z"/>
    <path class="st12" d="M120.16,202v-3.49h-.94v-.81l.99-.06.13-1.77h.89v1.77h1.71v.87h-1.71v3.51c0,.77.25,1.22.98,1.22.22,0,.51-.08.72-.17l.21.81c-.35.12-.78.23-1.17.23-1.35,0-1.8-.85-1.8-2.11h0Z"/>
    <path class="st12" d="M124.37,197.64h.88l.09,1.15h.04c.44-.8,1.09-1.31,1.8-1.31.28,0,.48.04.67.13l-.2.94c-.22-.07-.36-.1-.61-.1-.53,0-1.17.38-1.6,1.45v4.06h-1.07v-6.32h0Z"/>
    <path class="st12" d="M128.17,202.32c0-1.38,1.19-2.07,3.88-2.36,0-.81-.27-1.6-1.3-1.6-.73,0-1.39.35-1.88.68l-.42-.73c.58-.38,1.47-.83,2.48-.83,1.54,0,2.2,1.03,2.2,2.6v3.88h-.88l-.09-.76h-.04c-.6.5-1.31.91-2.09.91-1.06,0-1.85-.66-1.85-1.8h0ZM132.06,202.42v-1.75c-2.12.25-2.83.77-2.83,1.58,0,.72.49,1.01,1.11,1.01s1.11-.3,1.73-.84h0Z"/>
    <path class="st12" d="M134.65,200.81c0-2.11,1.42-3.32,3.04-3.32.83,0,1.4.34,1.85.74l-.55.71c-.37-.33-.76-.56-1.25-.56-1.14,0-1.98.99-1.98,2.43s.79,2.42,1.96,2.42c.58,0,1.09-.28,1.48-.63l.46.72c-.57.51-1.29.8-2.04.8-1.68,0-2.96-1.22-2.96-3.31h-.01Z"/>
    <path class="st12" d="M141.1,202v-3.49h-.94v-.81l.99-.06.13-1.77h.89v1.77h1.71v.87h-1.71v3.51c0,.77.25,1.22.98,1.22.22,0,.51-.08.72-.17l.21.81c-.35.12-.78.23-1.17.23-1.34,0-1.8-.85-1.8-2.11h-.01Z"/>
    <path class="st12" d="M144.66,200.81c0-2.11,1.38-3.32,2.93-3.32s2.93,1.21,2.93,3.32-1.38,3.31-2.93,3.31-2.93-1.22-2.93-3.31ZM149.41,200.81c0-1.45-.74-2.43-1.82-2.43s-1.82.99-1.82,2.43.74,2.42,1.82,2.42,1.82-.97,1.82-2.42Z"/>
    <path class="st12" d="M152.17,197.64h.88l.09,1.15h.04c.44-.8,1.09-1.31,1.8-1.31.28,0,.48.04.67.13l-.2.94c-.22-.07-.36-.1-.61-.1-.53,0-1.17.38-1.6,1.45v4.06h-1.07v-6.32h0Z"/>
  </g>
  <g class="st1">
    <path class="st12" d="M108.44,233.65v-5.01h1.09v5.04c0,2.05.87,2.69,1.98,2.69s2.02-.64,2.02-2.69v-5.04h1.04v5.01c0,2.74-1.32,3.68-3.06,3.68s-3.07-.94-3.07-3.68Z"/>
    <path class="st12" d="M116.76,230.85h.88l.09.91h.04c.6-.59,1.25-1.07,2.12-1.07,1.33,0,1.93.86,1.93,2.47v4h-1.07v-3.87c0-1.18-.36-1.68-1.19-1.68-.65,0-1.09.33-1.73.97v4.58h-1.07v-6.32h0Z"/>
    <path class="st12" d="M123.4,234.02c0-2.11,1.42-3.32,3.04-3.32.83,0,1.4.34,1.85.74l-.55.71c-.37-.33-.76-.56-1.25-.56-1.14,0-1.98.99-1.98,2.43s.79,2.42,1.95,2.42c.58,0,1.09-.28,1.48-.63l.46.72c-.57.51-1.28.8-2.04.8-1.68,0-2.96-1.22-2.96-3.31h0Z"/>
    <path class="st12" d="M129.8,235.9v-7.99h1.07v8.07c0,.33.14.46.3.46.06,0,.11,0,.23-.03l.15.82c-.15.05-.34.1-.62.1-.8,0-1.13-.51-1.13-1.43h0Z"/>
    <path class="st12" d="M132.64,234.02c0-2.06,1.39-3.32,2.84-3.32,1.61,0,2.52,1.16,2.52,2.97,0,.23-.02.45-.05.61h-4.26c.08,1.34.9,2.21,2.1,2.21.61,0,1.1-.2,1.57-.5l.38.7c-.55.36-1.23.66-2.09.66-1.68,0-3.03-1.23-3.03-3.31l.02-.02h0ZM137.06,233.5c0-1.27-.57-1.95-1.56-1.95-.89,0-1.68.71-1.81,1.95h3.37Z"/>
    <path class="st12" d="M138.99,235.53c0-1.38,1.19-2.07,3.88-2.36,0-.81-.27-1.6-1.3-1.6-.73,0-1.39.35-1.88.68l-.42-.73c.58-.38,1.47-.83,2.48-.83,1.54,0,2.19,1.03,2.19,2.6v3.88h-.88l-.09-.76h-.04c-.6.5-1.31.91-2.09.91-1.06,0-1.85-.66-1.85-1.8h0ZM142.87,235.63v-1.75c-2.12.25-2.83.77-2.83,1.58,0,.72.49,1.01,1.11,1.01s1.11-.3,1.73-.84h0Z"/>
    <path class="st12" d="M145.93,230.85h.88l.09,1.15h.04c.44-.8,1.09-1.31,1.8-1.31.28,0,.48.04.67.13l-.2.94c-.22-.07-.36-.1-.61-.1-.53,0-1.17.38-1.6,1.45v4.06h-1.07v-6.32h0Z"/>
  </g>
  <g class="st1">
    <g class="st1">
      <g class="st1">
        <text class="st3" transform="translate(0 282.79)"><tspan x="0" y="0">Source: Animal Welfare Board of India; analysis and AI-assisted classification by the author</tspan></text>
      </g>
    </g>
    <g class="st1">
      <g class="st1">
        <text class="st3" transform="translate(0 295.99)"><tspan x="0" y="0">Note: Includes complaints submitted between March 2023 and December 2025. Each complaint was assigned one primary actor</tspan></text>
      </g>
    </g>
    <g class="st1">
      <g class="st1">
        <text class="st3" transform="translate(0 309.19)"><tspan x="0" y="0">based on the complaint text.</tspan></text>
      </g>
    </g>
  </g>
  <g>
    <path class="st7" d="M14.17,14.82l-1.89-8.4c-.17-.77-.32-1.43-.45-1.97-.13-.55-.26-1.02-.37-1.43s-.22-.78-.34-1.13h-.92c-.08-.22-.13-.42-.13-.59,0-.15.04-.28.13-.37.08-.09.22-.14.42-.14h3.63c.08.22.13.42.13.59,0,.34-.18.5-.55.5h-.59c.11.69.26,1.48.43,2.39.17.91.37,1.87.58,2.89.21,1.02.43,2.02.65,3,.22.99.44,1.91.65,2.76.2-.7.41-1.47.63-2.31.22-.84.45-1.71.68-2.61s.45-1.8.66-2.68.4-1.71.57-2.49.31-1.46.42-2.05h1.45c.38,0,.66.07.84.21.18.14.31.42.4.84.15.71.34,1.53.57,2.44.22.91.46,1.87.71,2.87s.51,2,.78,2.99.52,1.93.76,2.79c.22-.85.45-1.78.67-2.77s.44-2,.64-3,.39-1.97.57-2.88c.17-.91.33-1.71.45-2.39h-1.03c-.07-.22-.1-.42-.1-.59,0-.34.18-.5.55-.5h3.34c.08.22.13.42.13.59,0,.15-.04.28-.13.37-.08.09-.22.14-.42.14h-.63c-.11.42-.23.87-.35,1.34s-.23.98-.35,1.5c-.11.52-.23,1.08-.36,1.67l-1.68,7.46c-.08.36-.21.62-.37.76-.16.14-.41.21-.75.21h-1.53l-3.02-11.91-2.81,10.94c-.08.38-.2.63-.34.77-.14.13-.39.2-.76.2h-1.57,0Z"/>
    <path class="st7" d="M30.7,13.73h.55c.03-.5.04-1.06.05-1.66V2.43c0-.45-.06-.74-.18-.87s-.34-.2-.66-.2h-.23c-.04-.13-.07-.24-.09-.35s-.03-.21-.03-.3c0-.34.2-.5.59-.5h2.37c0,.52,0,1.15-.03,1.89-.02.74-.03,1.45-.03,2.12v1.62c.41-.38.86-.67,1.38-.86.51-.2,1.05-.29,1.61-.29.99,0,1.75.26,2.28.79s.79,1.38.79,2.57v4.62c0,.31.02.54.06.69s.11.26.21.3c.1.05.24.07.42.07h.36c.03.1.05.2.07.29s.03.2.03.29c0,.34-.19.5-.57.5h-2.35v-1.23c0-.47.02-.96.03-1.46s.02-.97.02-1.41v-1.57c0-.76-.07-1.36-.21-1.82s-.37-.78-.68-.99c-.31-.2-.73-.3-1.25-.3-.74,0-1.29.22-1.66.65-.36.43-.55,1.09-.55,1.97v3.29c0,.61,0,1.2.04,1.77h.99c.04.1.07.2.09.29s.03.2.03.29c0,.34-.19.5-.57.5h-3.36c-.04-.11-.07-.21-.09-.3s-.03-.19-.03-.28c0-.34.2-.5.59-.5v.02h0Z"/>
    <path class="st7" d="M41.58,10.1c0-1.23.2-2.25.59-3.04.39-.8.93-1.39,1.62-1.79.69-.39,1.46-.59,2.33-.59,1.41,0,2.47.41,3.18,1.24s1.06,2.06,1.06,3.7c0,1.23-.2,2.25-.59,3.04s-.93,1.39-1.61,1.79c-.68.39-1.46.59-2.34.59-1.41,0-2.47-.41-3.18-1.24s-1.06-2.06-1.06-3.7ZM43.41,9.62c0,1.53.22,2.6.65,3.22s1.09.93,1.97.93c.45,0,.86-.11,1.24-.34.38-.22.68-.6.91-1.14s.35-1.27.35-2.19c0-1.53-.22-2.6-.65-3.22s-1.09-.93-1.97-.93c-.45,0-.86.11-1.24.34-.38.22-.68.6-.91,1.13s-.35,1.27-.35,2.21h0Z"/>
    <path class="st7" d="M59.57,14.82l-2.04-7.69c-.13-.45-.27-.74-.42-.88-.15-.14-.4-.21-.74-.21h-.23c-.04-.13-.07-.24-.09-.35s-.03-.21-.03-.3c0-.15.04-.28.13-.37.08-.09.24-.14.46-.14h2.23l.29,1.41c.07.34.16.78.27,1.33s.25,1.16.4,1.82.31,1.31.48,1.96.34,1.24.5,1.77c.17-.5.35-1.12.54-1.86s.38-1.51.57-2.32.36-1.58.52-2.3.29-1.33.39-1.82h1.11c.29,0,.52.06.69.18.17.12.29.34.38.66.11.46.24,1,.38,1.63.14.62.29,1.28.45,1.97.16.69.32,1.37.48,2.04s.33,1.27.49,1.82c.15-.49.31-1.05.48-1.67.17-.62.33-1.27.48-1.93.15-.67.3-1.31.44-1.92.14-.62.25-1.15.34-1.62h-.84c-.04-.11-.07-.22-.09-.31-.02-.1-.03-.2-.03-.32,0-.15.04-.27.11-.34s.17-.12.3-.15c.13-.03.3-.04.49-.04h2.73c.03.11.05.22.07.31.02.1.03.2.03.31,0,.17-.04.3-.13.39-.08.09-.23.14-.44.14h-.57l-1.99,7.08c-.13.46-.24.82-.35,1.06-.1.25-.23.41-.37.5s-.33.14-.57.14h-1.3c-.04-.14-.11-.42-.21-.83s-.22-.91-.37-1.49-.3-1.19-.46-1.83c-.16-.64-.32-1.26-.47-1.87s-.29-1.14-.4-1.61l-1.49,5.92c-.11.48-.22.84-.31,1.08-.1.25-.22.41-.36.49s-.34.13-.59.13h-1.37s.03.03.03.03Z"/>
    <path class="st7" d="M79.25,10.12h-5.27c.04.87.19,1.56.43,2.09.24.52.58.91,1.01,1.14.43.24.93.36,1.5.36.62,0,1.13-.12,1.53-.36.41-.24.78-.57,1.11-1.01.24.08.43.2.59.34.15.14.23.33.23.57,0,.28-.16.56-.49.83-.33.27-.77.5-1.32.68s-1.17.27-1.86.27c-1.54,0-2.68-.43-3.42-1.28s-1.11-2.07-1.11-3.65c0-1.85.41-3.21,1.23-4.09s1.89-1.32,3.2-1.32c.91,0,1.65.18,2.21.54s.97.85,1.24,1.47.4,1.34.4,2.15c0,.35-.04.62-.12.8s-.2.31-.38.38-.41.1-.7.1h-.01ZM74,8.9h4.68v-.25c0-.81-.18-1.47-.55-1.96-.36-.5-.92-.75-1.66-.75s-1.28.23-1.71.68c-.43.46-.68,1.21-.77,2.28h.01Z"/>
    <path class="st7" d="M82.63,13.73h.55c.03-.57.04-1.17.05-1.77,0-.61.01-1.16.01-1.65v-3.19c0-.45-.06-.74-.17-.87s-.34-.2-.67-.2h-.23c-.04-.13-.07-.24-.09-.35s-.03-.21-.03-.3c0-.34.2-.5.59-.5h2.02c.03.14.05.33.06.57.01.24.02.49.02.76.53-.55,1.09-.94,1.67-1.18s1.13-.36,1.65-.36c.27,0,.46.05.58.16s.18.28.18.54c0,.29-.05.56-.15.79s-.2.38-.29.45c-.14.1-.33.16-.56.2-.23.04-.46.05-.68.05l-.29-.8c-.66.24-1.14.57-1.44,1.01-.3.43-.45,1.08-.45,1.95v1.28c0,.49,0,1.04.01,1.65,0,.61.02,1.2.03,1.77h1.28c.03.1.05.2.07.29s.03.2.03.29c0,.34-.19.5-.57.5h-3.63c-.04-.11-.07-.21-.09-.3s-.03-.19-.03-.28c0-.34.2-.5.59-.5h-.02Z"/>
    <path class="st7" d="M96.81,10.12h-5.27c.04.87.19,1.56.43,2.09.24.52.58.91,1.01,1.14.43.24.93.36,1.5.36.62,0,1.13-.12,1.53-.36.41-.24.78-.57,1.11-1.01.24.08.43.2.59.34.15.14.23.33.23.57,0,.28-.16.56-.49.83-.33.27-.77.5-1.32.68s-1.17.27-1.86.27c-1.54,0-2.68-.43-3.42-1.28s-1.11-2.07-1.11-3.65c0-1.85.41-3.21,1.23-4.09s1.89-1.32,3.2-1.32c.91,0,1.65.18,2.21.54s.97.85,1.24,1.47.4,1.34.4,2.15c0,.35-.04.62-.12.8s-.2.31-.38.38-.41.1-.7.1h-.01ZM91.56,8.9h4.68v-.25c0-.81-.18-1.47-.55-1.96-.36-.5-.92-.75-1.66-.75s-1.28.23-1.71.68c-.43.46-.68,1.21-.77,2.28h.01Z"/>
    <path class="st7" d="M111.7,11.93c0,.9-.34,1.64-1.01,2.23-.67.59-1.63.88-2.88.88-.78,0-1.46-.1-2.04-.3-.57-.2-1.02-.45-1.32-.73-.31-.29-.46-.57-.46-.85,0-.24.09-.44.26-.61.17-.17.38-.29.62-.38.32.42.72.79,1.19,1.12s1.07.49,1.82.49c.7,0,1.23-.13,1.59-.39.36-.26.54-.61.54-1.06s-.18-.82-.55-1.06c-.36-.24-.88-.46-1.53-.64l-.9-.25c-.92-.25-1.61-.6-2.06-1.05s-.67-1.03-.67-1.74c0-.57.15-1.08.44-1.51s.71-.77,1.25-1.02,1.19-.37,1.94-.37c.71,0,1.32.09,1.82.28s.88.42,1.14.69c.27.27.4.54.4.81,0,.22-.08.41-.24.56-.16.15-.37.25-.62.3l-.25.06-.13-.19c-.27-.36-.6-.66-.99-.9s-.87-.36-1.43-.36c-.5,0-.91.12-1.21.36-.3.24-.45.56-.45.97s.14.71.41.96c.27.25.72.44,1.33.6l.88.25c1.11.28,1.9.65,2.38,1.1.48.46.72,1.04.72,1.75h0Z"/>
    <path class="st7" d="M113.99,11.93v-5.8h-1.47c-.04-.11-.08-.22-.1-.33-.03-.1-.04-.22-.04-.35,0-.38.2-.57.61-.57h1.01l.52-2.29.46.04c.28,0,.47.08.57.2s.15.35.15.7v1.34h3.09c.04.11.07.22.09.33s.03.22.03.35c0,.38-.2.57-.59.57h-2.62v5.42c0,.78.1,1.33.29,1.65.2.31.52.47.97.47.27,0,.5-.06.71-.17s.4-.26.57-.44c.18.04.34.14.48.28.14.15.21.32.21.51,0,.28-.21.55-.64.8s-.98.38-1.67.38c-.91,0-1.58-.26-2-.78s-.63-1.29-.63-2.33c0,0,0,.02,0,.02Z"/>
    <path class="st7" d="M120.47,13.73h.55c.03-.57.04-1.17.05-1.77,0-.61.01-1.16.01-1.65v-3.19c0-.45-.06-.74-.17-.87s-.34-.2-.67-.2h-.23c-.04-.13-.07-.24-.09-.35s-.03-.21-.03-.3c0-.34.2-.5.59-.5h2.02c.03.14.05.33.06.57.01.24.02.49.02.76.53-.55,1.09-.94,1.67-1.18s1.13-.36,1.65-.36c.27,0,.46.05.58.16s.18.28.18.54c0,.29-.05.56-.15.79s-.2.38-.29.45c-.14.1-.33.16-.56.2-.23.04-.46.05-.68.05l-.29-.8c-.66.24-1.14.57-1.44,1.01-.3.43-.45,1.08-.45,1.95v1.28c0,.49,0,1.04.01,1.65,0,.61.02,1.2.03,1.77h1.28c.03.1.05.2.07.29s.03.2.03.29c0,.34-.19.5-.57.5h-3.63c-.04-.11-.07-.21-.09-.3s-.03-.19-.03-.28c0-.34.2-.5.59-.5h-.02Z"/>
    <path class="st7" d="M135.78,14.61l-1.57.21c-.1-.14-.19-.31-.26-.51-.08-.2-.13-.39-.16-.56-.36.45-.79.77-1.27.98-.48.2-1.04.3-1.67.3-.87,0-1.59-.24-2.15-.73-.57-.49-.85-1.22-.85-2.18s.34-1.71,1.02-2.25c.68-.53,1.75-.8,3.22-.8h1.49v-.59c0-.7-.08-1.24-.23-1.61s-.42-.63-.81-.78-.93-.22-1.63-.22h-.61l-.31,1.13c-.13.06-.28.1-.45.15-.17.04-.35.06-.51.06-.15,0-.3-.06-.45-.18s-.27-.27-.36-.46-.14-.38-.14-.58c0-.17.06-.31.18-.43s.33-.24.62-.37c.36-.14.82-.26,1.38-.37.55-.1,1.14-.16,1.77-.16,1.15,0,1.98.24,2.49.71.51.48.77,1.32.77,2.54v4.77c0,.35.05.58.15.68.1.1.27.16.52.16h.4c.03.08.05.17.07.25s.03.17.03.27c0,.17-.05.29-.15.38-.1.08-.27.14-.53.17v.02h0ZM133.58,11.46v-1.18h-1.74c-.84,0-1.42.15-1.73.45s-.47.7-.47,1.21c0,.56.15.99.44,1.29.29.3.72.45,1.28.45.76,0,1.32-.2,1.68-.6s.55-.94.55-1.63h0Z"/>
    <path class="st7" d="M139.69,18.14c.24-.08.46-.29.67-.61.21-.32.41-.72.61-1.19.2-.47.38-.96.57-1.48v-.03s0-.02-.02-.03c-.21-.03-.38-.07-.5-.14s-.24-.2-.35-.4c-.1-.2-.23-.52-.39-.96l-1.89-6.17c-.14-.43-.28-.72-.43-.87s-.39-.22-.72-.22h-.23c-.04-.13-.07-.24-.08-.35,0-.1-.02-.21-.02-.3,0-.15.04-.28.13-.37.08-.09.23-.14.44-.14h2.25l.29,1.41c.06.34.16.79.31,1.35.15.57.33,1.19.54,1.87.2.68.42,1.35.64,2.01s.43,1.24.61,1.74c.55-1.64,1-3.07,1.37-4.28.36-1.22.62-2.2.76-2.94h-.82c-.04-.11-.07-.22-.09-.31-.02-.1-.03-.2-.03-.32,0-.21.07-.35.2-.42.13-.07.35-.1.64-.1h2.81c.04.11.07.22.09.31.02.1.03.2.03.31,0,.17-.04.3-.13.39-.08.09-.24.14-.46.14h-.52c-.48,1.41-.95,2.83-1.42,4.24s-.93,2.83-1.4,4.24c-.32.91-.62,1.67-.88,2.29-.27.62-.53,1.12-.8,1.5s-.56.67-.88.86-.7.3-1.13.35h-.39c-.13,0-.26,0-.37-.02-.45-.03-.79-.12-1.04-.28s-.37-.36-.37-.6c0-.18.07-.36.2-.54.13-.18.28-.3.45-.39.15.11.34.21.55.3s.42.15.63.18c.1.01.2.01.29,0,.1-.01.2-.03.29-.04h0Z"/>
    <path class="st7" d="M161.51,14.82h-1.85c-.06-.14-.1-.31-.15-.5-.04-.2-.07-.38-.08-.55-.31.38-.71.68-1.2.91-.49.23-1.05.35-1.68.35-1.2,0-2.15-.4-2.85-1.19-.69-.79-1.04-1.99-1.04-3.6,0-1.32.2-2.38.59-3.2s.92-1.42,1.6-1.8,1.44-.57,2.29-.57c.46,0,.86.03,1.21.09.34.06.63.14.87.24v-2.58c0-.45-.06-.74-.17-.87s-.34-.2-.67-.2h-.5c-.03-.13-.05-.24-.07-.35s-.03-.21-.03-.3c0-.34.19-.5.57-.5h2.65v1.22c0,.48-.02.96-.03,1.45s-.02.94-.02,1.34v8.59c0,.39.05.64.15.76.1.11.28.17.55.17h.36c.04.1.07.2.09.29s.03.2.03.29c0,.34-.2.5-.59.5h-.03ZM159.22,11.04v-4.6c-.24-.14-.54-.26-.91-.36-.37-.1-.79-.15-1.25-.15-.77,0-1.39.28-1.86.85-.47.57-.7,1.55-.7,2.95,0,1.04.11,1.84.34,2.42.22.57.53.97.92,1.2.39.22.84.34,1.34.34.71,0,1.25-.23,1.6-.7s.52-1.12.52-1.94h0Z"/>
    <path class="st7" d="M163.44,10.1c0-1.23.2-2.25.59-3.04.39-.8.93-1.39,1.62-1.79.69-.39,1.46-.59,2.33-.59,1.41,0,2.47.41,3.18,1.24.71.83,1.06,2.06,1.06,3.7,0,1.23-.2,2.25-.59,3.04s-.93,1.39-1.61,1.79c-.68.39-1.46.59-2.34.59-1.41,0-2.47-.41-3.18-1.24s-1.06-2.06-1.06-3.7ZM165.27,9.62c0,1.53.22,2.6.65,3.22s1.09.93,1.97.93c.45,0,.86-.11,1.24-.34.38-.22.68-.6.91-1.14s.35-1.27.35-2.19c0-1.53-.22-2.6-.65-3.22s-1.09-.93-1.97-.93c-.45,0-.86.11-1.24.34-.38.22-.68.6-.91,1.13-.23.53-.35,1.27-.35,2.21h0Z"/>
    <path class="st7" d="M182.55,15.83c0,.59-.15,1.11-.46,1.56s-.73.84-1.26,1.17c-.53.32-1.13.57-1.8.74s-1.35.25-2.05.25c-.85,0-1.54-.12-2.06-.36s-.89-.55-1.12-.92-.35-.78-.35-1.22.13-.84.39-1.22.66-.71,1.21-.99l.19-.1c-.28-.14-.5-.35-.67-.62s-.25-.61-.25-1,.1-.76.29-1.06c.2-.3.5-.54.9-.7-.46-.22-.86-.58-1.19-1.08s-.49-1.14-.49-1.94.17-1.43.5-1.97c.34-.55.79-.96,1.38-1.25.58-.29,1.24-.43,1.96-.43.27,0,.52.02.78.05s.49.09.71.16h3.47c.04.11.08.22.1.33.03.1.04.22.04.35,0,.38-.2.57-.61.57h-1.34c.42.55.63,1.23.63,2.06,0,1.06-.37,1.92-1.1,2.57-.73.65-1.78.98-3.14.98-.49,0-.84.08-1.06.24s-.33.38-.33.64c0,.31.09.53.28.66s.47.2.85.2h2.62c.97,0,1.7.2,2.21.59.5.39.76.98.76,1.76v-.02h0ZM180.83,16.21c0-.39-.12-.69-.37-.88-.25-.2-.7-.29-1.35-.29h-2.69c-.41.18-.72.42-.96.7-.23.29-.35.61-.35.98,0,.49.17.88.51,1.18.34.29.91.44,1.69.44.7,0,1.31-.09,1.84-.27s.93-.43,1.23-.75c.29-.31.44-.68.44-1.1h.01ZM179.71,8.29c0-.74-.17-1.33-.51-1.75-.34-.43-.89-.64-1.65-.64-.64,0-1.13.19-1.47.58s-.5.93-.5,1.65.17,1.33.51,1.75c.34.43.89.64,1.65.64.64,0,1.13-.19,1.47-.58s.5-.93.5-1.65Z"/>
    <path class="st7" d="M184.44,8.73h5c.08.25.13.52.13.8,0,.21-.05.38-.14.5-.09.13-.26.19-.51.19h-5c-.08-.25-.13-.52-.13-.8,0-.21.05-.38.14-.5.09-.13.26-.19.51-.19Z"/>
    <path class="st7" d="M191.51,13.73h.55c.03-.57.04-1.17.05-1.77v-4.84c0-.45-.06-.74-.17-.87s-.34-.2-.67-.2h-.23c-.04-.13-.07-.24-.09-.35s-.03-.21-.03-.3c0-.34.2-.5.59-.5h2.02c.03.14.05.33.06.57s.02.49.02.76c.53-.55,1.09-.94,1.67-1.18s1.13-.36,1.65-.36c.27,0,.46.05.58.16s.18.28.18.54c0,.29-.05.56-.15.79-.1.23-.2.38-.29.45-.14.1-.33.16-.56.2s-.46.05-.68.05l-.29-.8c-.66.24-1.14.57-1.44,1.01-.3.43-.45,1.08-.45,1.95v2.93c0,.61.02,1.2.03,1.77h1.28c.03.1.05.2.07.29s.03.2.03.29c0,.34-.19.5-.57.5h-3.63c-.04-.11-.07-.21-.09-.3-.02-.09-.03-.19-.03-.28,0-.34.2-.5.59-.5h-.02.02,0Z"/>
    <path class="st7" d="M205.69,10.12h-5.27c.04.87.19,1.56.43,2.09.24.52.58.91,1.01,1.14.43.24.93.36,1.5.36.62,0,1.13-.12,1.53-.36.41-.24.78-.57,1.11-1.01.24.08.43.2.59.34.15.14.23.33.23.57,0,.28-.16.56-.49.83s-.77.5-1.32.68-1.17.27-1.86.27c-1.54,0-2.68-.43-3.42-1.28s-1.11-2.07-1.11-3.65c0-1.85.41-3.21,1.23-4.09.82-.88,1.89-1.32,3.2-1.32.91,0,1.65.18,2.21.54.56.36.97.85,1.24,1.47s.4,1.34.4,2.15c0,.35-.04.62-.12.8s-.2.31-.38.38c-.18.07-.41.1-.7.1h0ZM200.44,8.9h4.68v-.25c0-.81-.18-1.47-.55-1.96-.36-.5-.92-.75-1.66-.75s-1.28.23-1.71.68c-.43.46-.68,1.21-.77,2.28h.01Z"/>
    <path class="st7" d="M208.97,13.73h.55c.03-.5.04-1.06.05-1.66V2.43c0-.45-.06-.74-.18-.87s-.34-.2-.66-.2h-.23c-.04-.13-.07-.24-.09-.35s-.03-.21-.03-.3c0-.34.2-.5.59-.5h2.37c0,.52,0,1.15-.03,1.89-.02.74-.03,1.45-.03,2.12v7.74c0,.61.02,1.2.03,1.77h1.01c.03.1.05.2.07.29s.03.2.03.29c0,.34-.19.5-.57.5h-3.36c-.04-.11-.07-.21-.09-.3-.02-.09-.03-.19-.03-.28,0-.34.2-.5.59-.5h0Z"/>
    <path class="st7" d="M221.73,14.61l-1.57.21c-.1-.14-.19-.31-.26-.51-.08-.2-.13-.39-.16-.56-.36.45-.79.77-1.27.98-.48.2-1.04.3-1.67.3-.87,0-1.59-.24-2.15-.73-.57-.49-.85-1.22-.85-2.18s.34-1.71,1.02-2.25c.68-.53,1.75-.8,3.22-.8h1.49v-.59c0-.7-.08-1.24-.23-1.61s-.42-.63-.81-.78-.93-.22-1.63-.22h-.61l-.31,1.13c-.13.06-.28.1-.45.15-.17.04-.35.06-.51.06-.15,0-.3-.06-.45-.18s-.27-.27-.36-.46-.14-.38-.14-.58c0-.17.06-.31.18-.43s.33-.24.62-.37c.36-.14.82-.26,1.38-.37.55-.1,1.14-.16,1.77-.16,1.15,0,1.98.24,2.49.71.51.48.77,1.32.77,2.54v4.77c0,.35.05.58.15.68.1.1.27.16.52.16h.4c.03.08.05.17.07.25s.03.17.03.27c0,.17-.05.29-.15.38-.1.08-.27.14-.53.17v.02h0ZM219.53,11.46v-1.18h-1.74c-.84,0-1.42.15-1.73.45s-.47.7-.47,1.21c0,.56.15.99.44,1.29.29.3.72.45,1.28.45.76,0,1.32-.2,1.68-.6s.55-.94.55-1.63h0Z"/>
    <path class="st7" d="M224.72,11.93v-5.8h-1.47c-.04-.11-.08-.22-.1-.33-.03-.1-.04-.22-.04-.35,0-.38.2-.57.61-.57h1.01l.52-2.29.46.04c.28,0,.47.08.57.2s.15.35.15.7v1.34h3.09c.04.11.07.22.09.33s.03.22.03.35c0,.38-.2.57-.59.57h-2.62v5.42c0,.78.1,1.33.29,1.65.2.31.52.47.97.47.27,0,.5-.06.71-.17s.4-.26.57-.44c.18.04.34.14.48.28.14.15.21.32.21.51,0,.28-.21.55-.64.8s-.98.38-1.67.38c-.91,0-1.58-.26-2-.78s-.63-1.29-.63-2.33v.02h0Z"/>
    <path class="st7" d="M237.84,10.12h-5.27c.04.87.19,1.56.43,2.09.24.52.58.91,1.01,1.14.43.24.93.36,1.5.36.62,0,1.13-.12,1.53-.36.41-.24.78-.57,1.11-1.01.24.08.43.2.59.34.15.14.23.33.23.57,0,.28-.16.56-.49.83s-.77.5-1.32.68-1.17.27-1.86.27c-1.54,0-2.68-.43-3.42-1.28s-1.11-2.07-1.11-3.65c0-1.85.41-3.21,1.23-4.09.82-.88,1.89-1.32,3.2-1.32.91,0,1.65.18,2.21.54.56.36.97.85,1.24,1.47s.4,1.34.4,2.15c0,.35-.04.62-.12.8s-.2.31-.38.38c-.18.07-.41.1-.7.1h0ZM232.59,8.9h4.68v-.25c0-.81-.18-1.47-.55-1.96-.36-.5-.92-.75-1.66-.75s-1.28.23-1.71.68c-.43.46-.68,1.21-.77,2.28h.01Z"/>
    <path class="st7" d="M249.62,14.82h-1.85c-.06-.14-.1-.31-.15-.5-.04-.2-.07-.38-.08-.55-.31.38-.71.68-1.2.91-.49.23-1.05.35-1.68.35-1.2,0-2.15-.4-2.85-1.19-.69-.79-1.04-1.99-1.04-3.6,0-1.32.2-2.38.59-3.2s.92-1.42,1.6-1.8,1.44-.57,2.29-.57c.46,0,.86.03,1.21.09.34.06.63.14.87.24v-2.58c0-.45-.06-.74-.17-.87s-.34-.2-.67-.2h-.5c-.03-.13-.05-.24-.07-.35s-.03-.21-.03-.3c0-.34.19-.5.57-.5h2.65v1.22c0,.48-.02.96-.03,1.45s-.02.94-.02,1.34v8.59c0,.39.05.64.15.76.1.11.28.17.55.17h.36c.04.1.07.2.09.29s.03.2.03.29c0,.34-.2.5-.59.5h-.03ZM247.33,11.04v-4.6c-.24-.14-.54-.26-.91-.36-.37-.1-.79-.15-1.25-.15-.77,0-1.39.28-1.86.85-.47.57-.7,1.55-.7,2.95,0,1.04.11,1.84.34,2.42.22.57.53.97.92,1.2.39.22.84.34,1.34.34.71,0,1.25-.23,1.6-.7s.52-1.12.52-1.94h0Z"/>
    <path class="st7" d="M262.87,7.52l-.17-.23c-.27-.39-.56-.71-.89-.94-.33-.24-.77-.36-1.31-.36-.46,0-.88.12-1.26.35s-.68.61-.9,1.12c-.22.52-.34,1.23-.34,2.12,0,.99.12,1.79.36,2.39s.57,1.04,1,1.3c.43.27.92.4,1.48.4s.99-.11,1.38-.33c.38-.22.74-.54,1.06-.98.22.06.41.16.57.3.15.15.23.33.23.56,0,.28-.15.56-.44.83s-.7.5-1.21.69c-.51.19-1.09.28-1.73.28-1.47,0-2.59-.42-3.36-1.25s-1.16-2.08-1.16-3.73c0-1.22.2-2.23.6-3.02s.94-1.39,1.63-1.77,1.46-.58,2.33-.58c.73,0,1.34.1,1.84.29.5.2.88.44,1.13.74.26.29.39.58.39.86,0,.41-.31.69-.92.86l-.29.08s-.02.02-.02.02Z"/>
    <path class="st7" d="M265.54,10.1c0-1.23.2-2.25.59-3.04.39-.8.93-1.39,1.62-1.79.69-.39,1.46-.59,2.33-.59,1.41,0,2.47.41,3.18,1.24s1.06,2.06,1.06,3.7c0,1.23-.2,2.25-.59,3.04s-.93,1.39-1.61,1.79c-.68.39-1.46.59-2.34.59-1.41,0-2.47-.41-3.18-1.24s-1.06-2.06-1.06-3.7ZM267.36,9.62c0,1.53.22,2.6.65,3.22s1.09.93,1.97.93c.45,0,.86-.11,1.24-.34.38-.22.68-.6.91-1.14s.35-1.27.35-2.19c0-1.53-.22-2.6-.65-3.22s-1.09-.93-1.97-.93c-.45,0-.86.11-1.24.34-.38.22-.68.6-.91,1.13s-.35,1.27-.35,2.21h0Z"/>
    <path class="st7" d="M276.39,13.73h.55c.03-.57.04-1.17.05-1.77,0-.61.01-1.16.01-1.65v-3.19c0-.45-.06-.74-.17-.87-.11-.13-.34-.2-.67-.2h-.23c-.04-.13-.07-.24-.09-.35s-.03-.21-.03-.3c0-.34.2-.5.59-.5h2.02c.03.14.05.31.06.52s.02.41.02.59c.46-.43.96-.76,1.49-.99.53-.22,1.1-.34,1.7-.34s1.16.12,1.59.36c.43.24.75.6.96,1.07.46-.49.96-.85,1.48-1.08.52-.23,1.11-.35,1.75-.35.98,0,1.71.26,2.19.79s.72,1.38.72,2.57v4.62c0,.31.02.54.06.69s.11.26.21.3c.1.05.24.07.42.07h.36c.06.1.09.2.1.29.01.1.02.2.02.29,0,.34-.2.5-.59.5h-2.35c.01-.35.02-.76.03-1.23,0-.47.01-.96.02-1.46,0-.5.01-.97.01-1.41v-1.57c0-1.13-.15-1.94-.45-2.4-.3-.47-.81-.7-1.52-.7s-1.27.23-1.63.68c-.36.46-.54,1.14-.54,2.05v1.53c0,.49,0,1.04.01,1.65,0,.61.02,1.2.05,1.77h.88c.04.1.07.2.09.29s.03.2.03.29c0,.34-.2.5-.59.5h-3.11c-.04-.11-.07-.21-.09-.3s-.03-.19-.03-.28c0-.34.2-.5.59-.5h.4c.03-.56.05-1.14.05-1.73s.01-1.13.01-1.61v-1.22c0-1.13-.15-1.94-.45-2.42-.3-.48-.8-.71-1.5-.71-.74,0-1.29.23-1.65.68-.36.46-.54,1.14-.54,2.05v1.53c0,.49,0,1.04.01,1.65,0,.61.02,1.2.03,1.77h.84c.03.1.05.2.07.29s.03.2.03.29c0,.34-.19.5-.57.5h-3.19c-.04-.11-.07-.21-.09-.3s-.03-.19-.03-.28c0-.34.2-.5.59-.5l.02.03h0Z"/>
    <path class="st7" d="M293.3,18.25h.55c.03-.53.04-1.09.05-1.67,0-.58.01-1.1.01-1.54v-7.92c0-.45-.06-.74-.17-.87-.11-.13-.34-.2-.67-.2h-.23c-.04-.13-.07-.24-.09-.35s-.03-.21-.03-.3c0-.34.2-.5.59-.5h2c.04.14.07.31.07.51s.02.39.03.56c.34-.39.75-.7,1.23-.93s1.03-.35,1.65-.35c.8,0,1.49.17,2.07.51.58.34,1.03.86,1.34,1.56s.47,1.59.47,2.67c0,1.3-.2,2.37-.59,3.19-.39.83-.92,1.44-1.6,1.83-.67.39-1.43.59-2.27.59-.48,0-.88-.05-1.22-.14s-.63-.2-.88-.33v2.05c0,.57.01,1.11.04,1.63h1.28c.03.1.05.2.07.29s.03.2.03.29c0,.34-.19.5-.57.5h-3.63c-.04-.11-.07-.21-.09-.3s-.03-.19-.03-.28c0-.34.2-.5.59-.5h0ZM295.61,8.8v4.39c.24.17.54.31.9.42s.78.17,1.26.17.93-.12,1.31-.36.69-.63.91-1.19c.22-.55.34-1.31.34-2.28,0-1.04-.11-1.84-.34-2.42-.22-.57-.53-.98-.91-1.21-.39-.23-.84-.35-1.35-.35-.73,0-1.26.25-1.61.75-.34.5-.51,1.19-.51,2.07h0Z"/>
    <path class="st7" d="M304.11,13.73h.55c.03-.5.04-1.06.05-1.66,0-.6.01-1.18.01-1.74V2.43c0-.45-.06-.74-.18-.87s-.34-.2-.66-.2h-.23c-.04-.13-.07-.24-.09-.35s-.03-.21-.03-.3c0-.34.2-.5.59-.5h2.37c0,.52-.01,1.15-.03,1.89s-.03,1.45-.03,2.12v6.09c0,.49,0,1.04.01,1.65,0,.61.02,1.2.03,1.77h1.01c.03.1.05.2.07.29s.03.2.03.29c0,.34-.19.5-.57.5h-3.36c-.04-.11-.07-.21-.09-.3s-.03-.19-.03-.28c0-.34.2-.5.59-.5h-.01Z"/>
    <path class="st7" d="M316.88,14.61l-1.57.21c-.1-.14-.19-.31-.26-.51-.08-.2-.13-.39-.16-.56-.36.45-.79.77-1.27.98-.48.2-1.04.3-1.67.3-.87,0-1.59-.24-2.15-.73-.57-.49-.85-1.22-.85-2.18s.34-1.71,1.02-2.25c.68-.53,1.75-.8,3.22-.8h1.49v-.59c0-.7-.08-1.24-.23-1.61-.15-.37-.42-.63-.81-.78-.39-.15-.93-.22-1.63-.22h-.61l-.31,1.13c-.13.06-.28.1-.45.15-.17.04-.35.06-.51.06-.15,0-.3-.06-.45-.18-.15-.12-.27-.27-.36-.46s-.14-.38-.14-.58c0-.17.06-.31.18-.43s.33-.24.62-.37c.36-.14.82-.26,1.38-.37.55-.1,1.14-.16,1.77-.16,1.15,0,1.98.24,2.49.71.51.48.77,1.32.77,2.54v4.77c0,.35.05.58.15.68s.27.16.52.16h.4c.03.08.05.17.07.25s.03.17.03.27c0,.17-.05.29-.15.38-.1.08-.27.14-.53.17v.02h0ZM314.68,11.46v-1.18h-1.74c-.84,0-1.42.15-1.73.45s-.47.7-.47,1.21c0,.56.15.99.44,1.29s.72.45,1.28.45c.76,0,1.32-.2,1.68-.6s.55-.94.55-1.63h0Z"/>
    <path class="st7" d="M319.32,13.73h.55c.03-.57.04-1.17.05-1.77,0-.61.01-1.16.01-1.65v-3.19c0-.45-.06-.74-.17-.87-.11-.13-.34-.2-.67-.2h-.23c-.04-.13-.07-.24-.09-.35s-.03-.21-.03-.3c0-.34.2-.5.59-.5h2.37c0,.52-.01,1.13-.03,1.83s-.03,1.39-.03,2.06v1.53c0,.49,0,1.04.01,1.65,0,.61.02,1.2.03,1.77h1.01c.03.1.05.2.07.29s.03.2.03.29c0,.34-.19.5-.57.5h-3.36c-.04-.11-.07-.21-.09-.3s-.03-.19-.03-.28c0-.34.2-.5.59-.5h0ZM320.6,2.85c-.49,0-.83-.09-1.01-.26-.18-.17-.27-.44-.27-.81,0-.34.1-.6.3-.79.2-.19.53-.28.98-.28.48,0,.81.09,1,.26.19.18.28.44.28.81,0,.34-.1.6-.3.79-.2.19-.53.28-.98.28Z"/>
    <path class="st7" d="M324.61,13.73h.55c.03-.57.04-1.17.05-1.77,0-.61.01-1.16.01-1.65v-3.19c0-.45-.06-.74-.17-.87-.11-.13-.34-.2-.67-.2h-.23c-.04-.13-.07-.24-.09-.35s-.03-.21-.03-.3c0-.34.2-.5.59-.5h2.02c.03.14.05.31.06.52s.02.41.02.59c.46-.43.96-.76,1.49-.99.53-.22,1.1-.34,1.7-.34.99,0,1.75.26,2.28.79s.79,1.38.79,2.57v4.62c0,.31.02.54.06.69s.11.26.21.3c.1.05.24.07.42.07h.36c.04.1.07.2.08.29.01.1.02.2.02.29,0,.34-.19.5-.57.5h-2.35c0-.35,0-.76.02-1.23.01-.47.02-.96.03-1.46,0-.5.01-.97.01-1.41v-1.57c0-.76-.07-1.36-.21-1.82-.14-.46-.37-.78-.68-.99-.31-.2-.73-.3-1.25-.3-.76,0-1.31.23-1.67.68-.36.46-.54,1.14-.54,2.05v1.53c0,.49,0,1.04.01,1.65,0,.61.02,1.2.03,1.77h1.01c.03.1.05.2.07.29s.03.2.03.29c0,.34-.19.5-.57.5h-3.36c-.04-.11-.07-.21-.09-.3s-.03-.19-.03-.28c0-.34.2-.5.59-.5v.03h0Z"/>
    <path class="st7" d="M336.47,11.93v-5.8h-1.47c-.04-.11-.08-.22-.1-.33-.03-.1-.04-.22-.04-.35,0-.38.2-.57.61-.57h1.01l.52-2.29.46.04c.28,0,.47.08.57.2s.15.35.15.7v1.34h3.09c.04.11.07.22.09.33.02.1.03.22.03.35,0,.38-.2.57-.59.57h-2.62v5.42c0,.78.1,1.33.29,1.65.2.31.52.47.96.47.27,0,.51-.06.71-.17.21-.11.4-.26.57-.44.18.04.34.14.48.28.14.15.21.32.21.51,0,.28-.21.55-.64.8s-.98.38-1.67.38c-.91,0-1.57-.26-1.99-.78s-.63-1.29-.63-2.33v.02h0Z"/>
    <path class="st7" d="M349.85,11.93c0,.9-.34,1.64-1.01,2.23s-1.63.88-2.88.88c-.78,0-1.46-.1-2.04-.3-.57-.2-1.01-.45-1.32-.73-.31-.29-.46-.57-.46-.85,0-.24.09-.44.26-.61s.38-.29.62-.38c.32.42.72.79,1.19,1.12s1.07.49,1.82.49c.7,0,1.23-.13,1.58-.39.36-.26.54-.61.54-1.06s-.18-.82-.55-1.06c-.36-.24-.88-.46-1.53-.64l-.9-.25c-.92-.25-1.61-.6-2.06-1.05s-.67-1.03-.67-1.74c0-.57.15-1.08.44-1.51s.71-.77,1.25-1.02,1.19-.37,1.94-.37c.71,0,1.32.09,1.82.28s.88.42,1.14.69c.27.27.4.54.4.81,0,.22-.08.41-.24.56s-.37.25-.62.3l-.25.06-.13-.19c-.27-.36-.6-.66-.99-.9-.39-.24-.87-.36-1.43-.36-.5,0-.91.12-1.21.36s-.45.56-.45.97.14.71.41.96.72.44,1.33.6l.88.25c1.11.28,1.9.65,2.38,1.1.48.46.72,1.04.72,1.75h.02,0Z"/>
    <path class="st7" d="M356.36,13.73h.55c.03-.48.04-1,.05-1.56v-6.03h-1.47c-.04-.11-.08-.22-.1-.33-.03-.1-.04-.22-.04-.35,0-.38.2-.57.61-.57h1.01c0-.85.06-1.59.17-2.21.11-.62.31-1.12.6-1.52s.69-.69,1.22-.88c.52-.19,1.2-.28,2.03-.28,1.15,0,2.01.12,2.58.37.57.25.86.55.86.91,0,.28-.09.51-.28.69-.19.18-.43.33-.72.44-.43-.36-.86-.63-1.29-.81-.43-.17-.94-.27-1.54-.28h-.36c-.11,0-.22,0-.34.04-.38.06-.65.19-.82.39s-.28.48-.33.84-.07.82-.07,1.38v.92h5.9c-.01.45-.03.98-.05,1.59s-.03,1.24-.03,1.88v1.13c0,.52,0,1.15.01,1.89,0,.74.02,1.53.05,2.35h.99c.04.1.07.2.09.29.02.1.03.2.03.29,0,.34-.2.5-.59.5h-3.3c-.03-.11-.05-.21-.07-.3-.02-.09-.03-.19-.03-.28,0-.34.19-.5.57-.5h.5c.06-1.25.08-2.37.07-3.38,0-1.01-.01-2.05-.01-3.13,0-.36-.03-.62-.1-.77s-.19-.24-.37-.27-.44-.05-.79-.05h-2.88v5.24c0,.75.01,1.54.04,2.36h1.01c.03.1.05.2.07.29.02.1.03.2.03.29,0,.34-.19.5-.57.5h-3.36c-.04-.11-.07-.21-.09-.3s-.03-.19-.03-.28c0-.34.2-.5.59-.5h0Z"/>
    <path class="st7" d="M367.39,13.73h.55c.03-.5.04-1.06.05-1.66V2.43c0-.45-.06-.74-.18-.87s-.34-.2-.66-.2h-.23c-.04-.13-.07-.24-.09-.35-.02-.1-.03-.21-.03-.3,0-.34.2-.5.59-.5h2.37c0,.52-.01,1.15-.03,1.89s-.03,1.45-.03,2.12v6.09c0,.49,0,1.04.01,1.65,0,.61.02,1.2.03,1.77h1.01c.03.1.05.2.07.29.02.1.03.2.03.29,0,.34-.19.5-.57.5h-3.36c-.04-.11-.07-.21-.09-.3s-.03-.19-.03-.28c0-.34.2-.5.59-.5Z"/>
    <path class="st7" d="M379.29,10.12h-5.27c.04.87.19,1.56.43,2.09.24.52.58.91,1.01,1.14.43.24.93.36,1.5.36.62,0,1.13-.12,1.53-.36.41-.24.78-.57,1.11-1.01.24.08.43.2.59.34.15.14.23.33.23.57,0,.28-.17.56-.49.83s-.77.5-1.32.68c-.55.18-1.17.27-1.86.27-1.54,0-2.68-.43-3.42-1.28s-1.11-2.07-1.11-3.65c0-1.85.41-3.21,1.23-4.09s1.89-1.32,3.2-1.32c.91,0,1.64.18,2.21.54.56.36.97.85,1.24,1.47s.4,1.34.4,2.15c0,.35-.04.62-.12.8s-.2.31-.38.38-.41.1-.7.1h-.01ZM374.04,8.9h4.68v-.25c0-.81-.18-1.47-.55-1.96-.36-.5-.92-.75-1.66-.75s-1.28.23-1.71.68c-.43.46-.68,1.21-.77,2.28h0Z"/>
    <path class="st7" d="M391.07,14.82h-1.85c-.06-.14-.1-.31-.15-.5-.04-.2-.07-.38-.08-.55-.31.38-.71.68-1.2.91-.49.23-1.05.35-1.68.35-1.2,0-2.15-.4-2.85-1.19-.69-.79-1.04-1.99-1.04-3.6,0-1.32.2-2.38.59-3.2.39-.82.92-1.42,1.6-1.8s1.43-.57,2.29-.57c.46,0,.86.03,1.21.09.34.06.63.14.87.24v-2.58c0-.45-.06-.74-.17-.87-.11-.13-.34-.2-.67-.2h-.5c-.03-.13-.05-.24-.07-.35-.02-.1-.03-.21-.03-.3,0-.34.19-.5.57-.5h2.65c0,.34,0,.74-.01,1.22,0,.48-.02.96-.03,1.45s-.02.94-.02,1.34v8.59c0,.39.05.64.15.76.1.11.28.17.55.17h.36c.04.1.07.2.09.29.02.1.03.2.03.29,0,.34-.2.5-.59.5h-.02,0ZM388.78,11.04v-4.6c-.24-.14-.54-.26-.91-.36s-.79-.15-1.25-.15c-.77,0-1.39.28-1.86.85-.47.57-.7,1.55-.7,2.95,0,1.04.11,1.84.34,2.42.22.57.53.97.92,1.2.39.22.84.34,1.34.34.71,0,1.25-.23,1.6-.7s.53-1.12.53-1.94h-.01Z"/>
    <path class="st7" d="M405.56,14.61l-1.58.21c-.1-.14-.19-.31-.26-.51-.08-.2-.13-.39-.16-.56-.36.45-.79.77-1.27.98-.48.2-1.04.3-1.67.3-.87,0-1.59-.24-2.15-.73-.57-.49-.85-1.22-.85-2.18s.34-1.71,1.02-2.25c.68-.53,1.75-.8,3.22-.8h1.49v-.59c0-.7-.08-1.24-.23-1.61-.15-.37-.42-.63-.81-.78-.39-.15-.93-.22-1.63-.22h-.61l-.32,1.13c-.13.06-.28.1-.45.15-.18.04-.35.06-.51.06-.15,0-.3-.06-.45-.18-.15-.12-.27-.27-.36-.46s-.14-.38-.14-.58c0-.17.06-.31.18-.43s.33-.24.62-.37c.36-.14.82-.26,1.38-.37.55-.1,1.14-.16,1.77-.16,1.15,0,1.98.24,2.49.71.51.48.77,1.32.77,2.54v4.77c0,.35.05.58.15.68s.27.16.52.16h.4c.03.08.05.17.07.25.02.08.03.17.03.27,0,.17-.05.29-.15.38-.1.08-.27.14-.53.17l.02.02h0ZM403.36,11.46v-1.18h-1.74c-.84,0-1.42.15-1.73.45s-.47.7-.47,1.21c0,.56.15.99.44,1.29s.72.45,1.28.45c.76,0,1.32-.2,1.68-.6s.55-.94.55-1.63h0Z"/>
    <path class="st7" d="M416.25,15.83c0,.59-.15,1.11-.46,1.56s-.73.84-1.26,1.17c-.53.32-1.13.57-1.8.74s-1.35.25-2.05.25c-.85,0-1.54-.12-2.06-.36s-.89-.55-1.12-.92c-.23-.38-.35-.78-.35-1.22s.13-.84.39-1.22.66-.71,1.21-.99l.19-.1c-.28-.14-.5-.35-.67-.62s-.25-.61-.25-1,.1-.76.29-1.06c.2-.3.5-.54.9-.7-.46-.22-.86-.58-1.19-1.08s-.49-1.14-.49-1.94.17-1.43.5-1.97.79-.96,1.38-1.25c.58-.29,1.24-.43,1.96-.43.27,0,.53.02.78.05s.49.09.71.16h3.46c.04.11.08.22.11.33.03.1.04.22.04.35,0,.38-.2.57-.61.57h-1.34c.42.55.63,1.23.63,2.06,0,1.06-.37,1.92-1.1,2.57s-1.78.98-3.14.98c-.49,0-.84.08-1.06.24s-.33.38-.33.64c0,.31.09.53.28.66s.47.2.85.2h2.62c.97,0,1.7.2,2.21.59s.76.98.76,1.76v-.02h0ZM414.53,16.21c0-.39-.12-.69-.37-.88-.25-.2-.7-.29-1.35-.29h-2.69c-.41.18-.72.42-.96.7-.23.29-.35.61-.35.98,0,.49.17.88.51,1.18.34.29.91.44,1.69.44.7,0,1.31-.09,1.84-.27s.93-.43,1.23-.75c.29-.31.44-.68.44-1.1h0ZM413.42,8.29c0-.74-.17-1.33-.51-1.75-.34-.43-.89-.64-1.65-.64-.64,0-1.13.19-1.47.58s-.5.93-.5,1.65.17,1.33.51,1.75c.34.43.89.64,1.65.64.64,0,1.13-.19,1.47-.58s.5-.93.5-1.65Z"/>
    <path class="st7" d="M425.43,14.61l-1.58.21c-.1-.14-.19-.31-.26-.51-.08-.2-.13-.39-.16-.56-.36.45-.79.77-1.27.98-.48.2-1.04.3-1.67.3-.87,0-1.59-.24-2.15-.73-.57-.49-.85-1.22-.85-2.18s.34-1.71,1.02-2.25c.68-.53,1.75-.8,3.22-.8h1.49v-.59c0-.7-.08-1.24-.23-1.61-.15-.37-.42-.63-.81-.78-.39-.15-.93-.22-1.63-.22h-.61l-.32,1.13c-.13.06-.28.1-.45.15-.18.04-.35.06-.51.06-.15,0-.3-.06-.45-.18-.15-.12-.27-.27-.36-.46s-.14-.38-.14-.58c0-.17.06-.31.18-.43s.33-.24.62-.37c.36-.14.82-.26,1.38-.37.55-.1,1.14-.16,1.77-.16,1.15,0,1.98.24,2.49.71.51.48.77,1.32.77,2.54v4.77c0,.35.05.58.15.68s.27.16.52.16h.4c.03.08.05.17.07.25.02.08.03.17.03.27,0,.17-.05.29-.15.38-.1.08-.27.14-.53.17l.02.02h0ZM423.22,11.46v-1.18h-1.74c-.84,0-1.42.15-1.73.45s-.47.7-.47,1.21c0,.56.15.99.44,1.29s.72.45,1.28.45c.76,0,1.32-.2,1.68-.6s.55-.94.55-1.63h0Z"/>
    <path class="st7" d="M427.86,13.73h.55c.03-.57.05-1.17.05-1.77s.01-1.16.01-1.65v-3.19c0-.45-.06-.74-.17-.87-.11-.13-.34-.2-.67-.2h-.23c-.04-.13-.07-.24-.09-.35-.02-.1-.03-.21-.03-.3,0-.34.2-.5.59-.5h2.37c0,.52-.01,1.13-.03,1.83s-.03,1.39-.03,2.06v3.18c0,.61.02,1.2.03,1.77h1.01c.03.1.05.2.07.29.02.1.03.2.03.29,0,.34-.19.5-.57.5h-3.36c-.04-.11-.07-.21-.09-.3s-.03-.19-.03-.28c0-.34.2-.5.59-.5h0ZM429.14,2.85c-.49,0-.83-.09-1.01-.26-.18-.17-.27-.44-.27-.81,0-.34.1-.6.3-.79s.53-.28.98-.28c.48,0,.81.09,1,.26.19.18.28.44.28.81,0,.34-.1.6-.3.79s-.53.28-.98.28Z"/>
    <path class="st7" d="M433.16,13.73h.55c.03-.57.05-1.17.05-1.77s.01-1.16.01-1.65v-3.19c0-.45-.06-.74-.17-.87-.11-.13-.34-.2-.67-.2h-.23c-.04-.13-.07-.24-.09-.35-.02-.1-.03-.21-.03-.3,0-.34.2-.5.59-.5h2.02c.03.14.05.31.06.52s.02.41.02.59c.46-.43.96-.76,1.49-.99.53-.22,1.1-.34,1.7-.34.99,0,1.75.26,2.28.79.53.52.79,1.38.79,2.57v4.62c0,.31.02.54.06.69s.11.26.21.3.24.07.42.07h.36c.04.1.07.2.08.29s.02.2.02.29c0,.34-.19.5-.57.5h-2.35c0-.35,0-.76.02-1.23.01-.47.02-.96.03-1.46s.01-.97.01-1.41v-1.57c0-.76-.07-1.36-.21-1.82-.14-.46-.37-.78-.68-.99-.31-.2-.73-.3-1.25-.3-.76,0-1.31.23-1.67.68-.36.46-.54,1.14-.54,2.05v3.18c0,.61.02,1.2.03,1.77h1.01c.03.1.05.2.07.29.02.1.03.2.03.29,0,.34-.19.5-.57.5h-3.36c-.04-.11-.07-.21-.09-.3s-.03-.19-.03-.28c0-.34.2-.5.59-.5v.03h.01Z"/>
    <path class="st7" d="M451.36,11.93c0,.9-.34,1.64-1.01,2.23s-1.63.88-2.88.88c-.78,0-1.46-.1-2.04-.3-.57-.2-1.01-.45-1.32-.73-.31-.29-.46-.57-.46-.85,0-.24.09-.44.26-.61s.38-.29.62-.38c.32.42.72.79,1.19,1.12s1.07.49,1.82.49c.7,0,1.23-.13,1.58-.39.36-.26.54-.61.54-1.06s-.18-.82-.55-1.06c-.36-.24-.88-.46-1.53-.64l-.9-.25c-.92-.25-1.61-.6-2.06-1.05s-.67-1.03-.67-1.74c0-.57.15-1.08.44-1.51s.71-.77,1.25-1.02,1.19-.37,1.94-.37c.71,0,1.32.09,1.82.28s.88.42,1.14.69c.27.27.4.54.4.81,0,.22-.08.41-.24.56s-.37.25-.62.3l-.25.06-.13-.19c-.27-.36-.6-.66-.99-.9-.39-.24-.87-.36-1.43-.36-.5,0-.91.12-1.21.36s-.45.56-.45.97.14.71.41.96.72.44,1.33.6l.88.25c1.11.28,1.9.65,2.38,1.1.48.46.72,1.04.72,1.75h.02,0Z"/>
    <path class="st7" d="M453.65,11.93v-5.8h-1.47c-.04-.11-.08-.22-.1-.33-.03-.1-.04-.22-.04-.35,0-.38.2-.57.61-.57h1.01l.53-2.29.46.04c.28,0,.47.08.57.2s.15.35.15.7v1.34h3.09c.04.11.07.22.09.33.02.1.03.22.03.35,0,.38-.2.57-.59.57h-2.62v5.42c0,.78.1,1.33.29,1.65s.52.47.97.47c.27,0,.5-.06.71-.17s.4-.26.57-.44c.18.04.34.14.48.28.14.15.21.32.21.51,0,.28-.21.55-.64.8-.43.25-.98.38-1.67.38-.91,0-1.57-.26-2-.78-.42-.52-.63-1.29-.63-2.33v.02h0Z"/>
    <path class="st7" d="M462.22,10.9l-.1-.5c-.14-.64-.12-1.2.06-1.66s.58-.9,1.2-1.32l1.18-.78c.53-.36.93-.74,1.19-1.12s.39-.88.39-1.48c0-.7-.22-1.23-.65-1.58s-1.13-.52-2.08-.52h-1.28l-.27,1.11c-.13.06-.29.12-.49.19-.2.07-.4.1-.6.1-.14,0-.28-.08-.42-.23s-.26-.34-.36-.55-.15-.4-.15-.57.07-.31.2-.44.37-.26.72-.4c.43-.17.93-.3,1.49-.41.56-.1,1.15-.16,1.79-.16.95,0,1.72.14,2.32.41.59.27,1.03.66,1.31,1.16s.42,1.07.42,1.73-.09,1.19-.28,1.65-.46.85-.8,1.19-.76.67-1.25.99l-1.16.76c-.31.21-.55.42-.71.64-.17.22-.28.47-.35.75-.06.28-.09.63-.09,1.05h-1.23ZM463,15.03c-.52,0-.88-.1-1.07-.29s-.29-.49-.29-.88.11-.67.33-.88.56-.31,1.04-.31c.52,0,.88.09,1.07.28.2.19.29.49.29.89,0,.36-.11.65-.32.87-.21.22-.56.33-1.05.33h0Z"/>
  </g>
  <g class="st1">
    <g class="st1">
      <g class="st1">
        <text class="st2" transform="translate(10.08 35.59)"><tspan x="0" y="0">Primary actors named in stray dog-related complaints submitted to the Animal Welfare Board of India.</tspan></text>
      </g>
    </g>
  </g>
  <text class="st4" transform="translate(562.66 78.83)"><tspan x="0" y="0">42%</tspan></text>
  <text class="st4" transform="translate(450.73 108.33)"><tspan x="0" y="0">31%</tspan></text>
  <text class="st4" transform="translate(221.83 139.14)"><tspan x="0" y="0">8%</tspan></text>
  <text class="st4" transform="translate(193.07 169.57)"><tspan x="0" y="0">5%</tspan></text>
  <text class="st4" transform="translate(185.74 203.57)"><tspan x="0" y="0">4%</tspan></text>
  <text class="st4" transform="translate(239.04 237.53)"><tspan x="0" y="0">10%</tspan></text>
</svg>