<?xml version="1.0" encoding="UTF-8"?>
<svg id="exportSvg" xmlns="http://www.w3.org/2000/svg" version="1.1" viewBox="0 0 654.33 526.92">
  <!-- Generator: Adobe Illustrator 30.6.0, SVG Export Plug-In . SVG Version: 2.1.4 Build 109)  -->
  <defs>
    <style>
      .st0 {
        fill: #a8dbd5;
      }

      .st0, .st1, .st2, .st3, .st4, .st5, .st6, .st7 {
        stroke: #bcbbb8;
        stroke-miterlimit: 10;
        stroke-width: .25px;
      }

      .st8 {
        fill: #231f20;
      }

      .st1 {
        stroke-dasharray: 3.04 2.03;
      }

      .st1, .st2, .st7 {
        fill: none;
      }

      .st3 {
        fill: #03675e;
      }

      .st9 {
        font-size: 12px;
      }

      .st9, .st10 {
        fill: #818181;
      }

      .st9, .st10, .st11, .st12, .st13, .st14 {
        font-family: MyriadPro-Regular, 'Myriad Pro';
      }

      .st10 {
        font-size: 11px;
      }

      .st11 {
        fill: #fffafc;
      }

      .st11, .st12, .st13, .st14 {
        font-size: 14px;
      }

      .st4 {
        fill: #f4f4f5;
      }

      .st5, .st15 {
        fill: #35978f;
      }

      .st16, .st12 {
        fill: #fff;
      }

      .st13 {
        fill: #fffefe;
      }

      .st6 {
        fill: #6abdb5;
      }

      .st7 {
        stroke-dasharray: 2.8 1.87;
      }

      .st14 {
        fill: #f8f7f8;
      }

      .st17 {
        fill: #a7a9ac;
      }
    </style>
  </defs>
  <rect class="st3" x="152.24" y="113.64" width="64.23" height="64.23"/>
  <g>
    <rect class="st15" x="153.74" y="179.37" width="61.23" height="61.23"/>
    <path d="M213.47,180.87v58.23h-58.23v-58.23h58.23M216.47,177.87h-64.23v64.23h64.23v-64.23h0Z"/>
  </g>
  <rect class="st0" x="152.24" y="242.1" width="64.23" height="64.23"/>
  <rect class="st0" x="152.24" y="306.33" width="64.23" height="64.23"/>
  <rect class="st0" x="152.24" y="370.56" width="64.23" height="64.23"/>
  <rect class="st6" x="216.47" y="242.1" width="64.23" height="64.23"/>
  <rect class="st0" x="216.47" y="306.33" width="64.23" height="64.23"/>
  <rect class="st0" x="216.47" y="370.56" width="64.23" height="64.23"/>
  <rect class="st5" x="216.42" y="178.04" width="64.23" height="64.23"/>
  <rect class="st0" x="280.7" y="306.33" width="64.23" height="64.23"/>
  <rect class="st0" x="280.7" y="370.56" width="64.23" height="64.23"/>
  <rect class="st6" x="280.7" y="242.1" width="64.23" height="64.23"/>
  <rect class="st0" x="344.93" y="370.56" width="64.23" height="64.23"/>
  <rect class="st6" x="344.93" y="306.33" width="64.23" height="64.23"/>
  <rect class="st0" x="409.16" y="370.56" width="64.23" height="64.23"/>
  <rect class="st4" x="216.47" y="113.64" width="64.23" height="64.23"/>
  <rect class="st4" x="280.7" y="113.64" width="64.23" height="64.23"/>
  <rect class="st4" x="344.93" y="113.64" width="64.23" height="64.23"/>
  <rect class="st4" x="409.16" y="113.64" width="64.23" height="64.23"/>
  <rect class="st4" x="280.7" y="177.87" width="64.23" height="64.23"/>
  <rect class="st4" x="344.93" y="177.87" width="64.23" height="64.23"/>
  <rect class="st4" x="409.16" y="177.87" width="64.23" height="64.23"/>
  <rect class="st4" x="344.93" y="242.1" width="64.23" height="64.23"/>
  <rect class="st4" x="409.16" y="242.1" width="64.23" height="64.23"/>
  <rect class="st4" x="409.16" y="306.33" width="64.23" height="64.23"/>
  <g>
    <path class="st8" d="M165.65,83.59h2.27c1.6,0,2.78.55,2.78,2.22s-1.19,2.33-2.74,2.33h-1.03v2.64h-1.28v-7.19ZM167.86,87.12c1.07,0,1.58-.43,1.58-1.31s-.56-1.2-1.63-1.2h-.88v2.51h.93Z"/>
    <path class="st8" d="M171.94,83.01h1.27v2.01l-.05,1.04c.45-.43.99-.82,1.73-.82,1.16,0,1.66.78,1.66,2.15v3.39h-1.27v-3.23c0-.89-.26-1.22-.84-1.22-.48,0-.79.23-1.23.67v3.78h-1.27v-7.77Z"/>
    <path class="st8" d="M177.73,92.89l.23-.98c.1.03.26.07.39.07.57,0,.9-.39,1.08-.93l.1-.34-2.13-5.34h1.29l.93,2.65c.16.48.32,1.01.48,1.53h.04c.14-.5.27-1.03.41-1.53l.81-2.65h1.22l-1.95,5.65c-.45,1.22-1.02,1.97-2.2,1.97-.29,0-.51-.04-.7-.11Z"/>
    <path class="st8" d="M182.99,90.16l.59-.81c.48.37.94.6,1.49.6.59,0,.87-.28.87-.65,0-.45-.59-.66-1.16-.88-.71-.27-1.52-.67-1.52-1.58s.76-1.62,1.97-1.62c.75,0,1.36.31,1.8.65l-.58.78c-.38-.28-.76-.47-1.18-.47-.54,0-.8.26-.8.6,0,.43.55.59,1.13.81.73.27,1.55.62,1.55,1.63,0,.93-.74,1.68-2.1,1.68-.74,0-1.52-.32-2.05-.75Z"/>
    <path class="st8" d="M188.12,83.71c0-.43.33-.72.78-.72s.78.29.78.72-.33.72-.78.72-.78-.3-.78-.72ZM188.27,85.38h1.27v5.4h-1.27v-5.4Z"/>
    <path class="st8" d="M190.79,88.08c0-1.8,1.27-2.84,2.71-2.84.69,0,1.19.26,1.58.61l-.62.82c-.29-.25-.56-.4-.9-.4-.87,0-1.47.72-1.47,1.8s.59,1.8,1.43,1.8c.42,0,.81-.21,1.12-.47l.52.84c-.51.45-1.15.66-1.76.66-1.47,0-2.61-1.04-2.61-2.83Z"/>
    <path class="st8" d="M195.83,89.33c0-1.16.96-1.76,3.18-2-.02-.58-.25-1.06-.98-1.06-.54,0-1.04.24-1.52.53l-.47-.85c.59-.37,1.36-.71,2.22-.71,1.35,0,2.02.83,2.02,2.34v3.2h-1.04l-.1-.6h-.04c-.48.41-1.04.73-1.68.73-.95,0-1.6-.64-1.6-1.58ZM199.01,89.33v-1.21c-1.47.19-1.95.57-1.95,1.11,0,.48.33.69.78.69s.77-.22,1.17-.59Z"/>
    <path class="st8" d="M201.8,89.39v-6.38h1.27v6.45c0,.31.14.42.27.42.06,0,.1,0,.2-.02l.16.95c-.15.06-.37.11-.67.11-.9,0-1.23-.58-1.23-1.52Z"/>
    <path class="st8" d="M168.17,101.28c0-1.8,1.27-2.84,2.71-2.84.69,0,1.19.26,1.58.61l-.62.82c-.29-.25-.56-.4-.9-.4-.87,0-1.47.72-1.47,1.8s.59,1.8,1.43,1.8c.42,0,.81-.21,1.12-.47l.52.84c-.51.45-1.15.66-1.76.66-1.47,0-2.61-1.04-2.61-2.83Z"/>
    <path class="st8" d="M173.6,98.58h1.04l.1.96h.04c.38-.7.96-1.1,1.54-1.1.27,0,.45.04.61.11l-.22,1.1c-.19-.05-.33-.09-.55-.09-.43,0-.95.29-1.28,1.12v3.3h-1.27v-5.4Z"/>
    <path class="st8" d="M177.65,101.97v-3.39h1.27v3.23c0,.89.25,1.22.84,1.22.48,0,.79-.22,1.2-.75v-3.7h1.27v5.4h-1.04l-.1-.8h-.04c-.48.56-1,.93-1.74.93-1.16,0-1.66-.78-1.66-2.15Z"/>
    <path class="st8" d="M183.47,101.28c0-1.76,1.22-2.84,2.49-2.84,1.46,0,2.23,1.06,2.23,2.57,0,.24-.03.48-.06.62h-3.43c.11.96.72,1.51,1.59,1.51.46,0,.86-.15,1.25-.39l.43.79c-.51.35-1.17.58-1.85.58-1.49,0-2.66-1.05-2.66-2.83ZM187.09,100.76c0-.83-.37-1.34-1.11-1.34-.63,0-1.18.47-1.29,1.34h2.4Z"/>
    <path class="st8" d="M189.4,102.59v-6.38h1.27v6.45c0,.31.14.42.27.42.06,0,.1,0,.2-.02l.16.95c-.15.06-.37.11-.67.11-.9,0-1.23-.58-1.23-1.52Z"/>
    <path class="st8" d="M192.57,102.16v-2.57h-.77v-.95l.84-.06.15-1.47h1.05v1.47h1.38v1.01h-1.38v2.57c0,.64.25.95.77.95.18,0,.4-.06.56-.12l.22.93c-.29.1-.67.2-1.1.2-1.25,0-1.71-.79-1.71-1.95Z"/>
    <path class="st8" d="M196,106.09l.23-.98c.1.03.26.07.39.07.57,0,.9-.39,1.08-.93l.1-.34-2.13-5.34h1.29l.93,2.65c.16.48.32,1.01.48,1.53h.04c.14-.5.27-1.03.41-1.53l.81-2.65h1.22l-1.95,5.65c-.45,1.22-1.02,1.97-2.2,1.97-.29,0-.51-.04-.7-.11Z"/>
  </g>
  <g>
    <path class="st8" d="M224.59,83.6h2.07c1.44,0,2.39.53,2.39,1.91s-.94,2.01-2.39,2.01h-1.57v3.33h-.51v-7.25ZM226.53,87.1c1.28,0,2-.51,2-1.58s-.71-1.49-2-1.49h-1.44v3.07h1.44ZM226.55,87.38l.48-.15,2.15,3.62h-.59l-2.05-3.48Z"/>
    <path class="st8" d="M229.97,88.22c0-1.72,1.12-2.78,2.3-2.78,1.25,0,2.02.89,2.02,2.44,0,.13,0,.26-.03.4h-3.8c.02,1.33.8,2.29,1.99,2.29.57,0,1.02-.19,1.42-.47l.2.37c-.42.26-.89.52-1.67.52-1.35,0-2.44-1.04-2.44-2.76ZM233.83,87.88c0-1.35-.61-2.02-1.56-2.02-.89,0-1.7.76-1.81,2.02h3.37Z"/>
    <path class="st8" d="M235.72,85.57h.41l.05.82h.02c.48-.54,1.08-.95,1.67-.95.85,0,1.27.43,1.46,1.08.6-.66,1.18-1.08,1.79-1.08,1.05,0,1.58.66,1.58,2.03v3.39h-.49v-3.32c0-1.12-.37-1.65-1.18-1.65-.5,0-1,.33-1.58.99v3.98h-.49v-3.32c0-1.12-.37-1.65-1.18-1.65-.48,0-1,.33-1.58.99v3.98h-.49v-5.28Z"/>
    <path class="st8" d="M244.21,88.22c0-1.77,1.1-2.78,2.37-2.78s2.37,1.02,2.37,2.78-1.1,2.76-2.37,2.76-2.37-1.02-2.37-2.76ZM248.44,88.22c0-1.39-.79-2.35-1.86-2.35s-1.86.96-1.86,2.35.79,2.33,1.86,2.33,1.86-.94,1.86-2.33Z"/>
    <path class="st8" d="M249.65,85.57h.53l1.19,3.31c.17.51.36,1.04.53,1.52h.04c.17-.48.36-1.01.53-1.52l1.19-3.31h.5l-1.96,5.28h-.57l-1.98-5.28Z"/>
    <path class="st8" d="M254.71,89.54c0-1.17,1.06-1.73,3.41-1.99.02-.81-.21-1.68-1.25-1.68-.71,0-1.33.35-1.68.62l-.22-.36c.37-.26,1.11-.69,1.96-.69,1.25,0,1.67.91,1.67,2.04v3.38h-.41l-.05-.69h-.02c-.54.44-1.18.82-1.87.82-.84,0-1.53-.46-1.53-1.45ZM258.11,89.71v-1.8c-2.17.25-2.91.75-2.91,1.6,0,.76.51,1.05,1.12,1.05s1.14-.29,1.79-.85Z"/>
    <path class="st8" d="M260.48,90.14v-7.21h.49v7.27c0,.24.1.35.23.35.05,0,.09,0,.2-.02l.08.4c-.1.03-.19.05-.35.05-.42,0-.65-.26-.65-.84Z"/>
    <path class="st8" d="M264.85,88.22c0-1.77,1.1-2.78,2.37-2.78s2.37,1.02,2.37,2.78-1.1,2.76-2.37,2.76-2.37-1.02-2.37-2.76ZM269.08,88.22c0-1.39-.79-2.35-1.86-2.35s-1.86.96-1.86,2.35.79,2.33,1.86,2.33,1.86-.94,1.86-2.33Z"/>
    <path class="st8" d="M271.18,85.57h.41l.05.99h.02c.36-.65.87-1.12,1.5-1.12.19,0,.35.02.52.11l-.11.44c-.18-.06-.28-.09-.48-.09-.48,0-1.04.36-1.44,1.36v3.59h-.49v-5.28Z"/>
    <path class="st8" d="M227.11,98.77h.41l.05.99h.02c.36-.65.87-1.12,1.5-1.12.19,0,.35.02.52.11l-.11.44c-.18-.06-.28-.09-.48-.09-.48,0-1.04.36-1.44,1.36v3.59h-.49v-5.28Z"/>
    <path class="st8" d="M230.04,101.42c0-1.72,1.12-2.78,2.3-2.78,1.25,0,2.02.89,2.02,2.44,0,.13,0,.26-.03.4h-3.8c.02,1.33.8,2.29,1.99,2.29.57,0,1.02-.19,1.42-.47l.2.37c-.42.26-.89.52-1.67.52-1.35,0-2.44-1.04-2.44-2.76ZM233.91,101.08c0-1.35-.61-2.02-1.56-2.02-.89,0-1.7.76-1.81,2.02h3.37Z"/>
    <path class="st8" d="M235.8,103.34v-7.21h.49v7.27c0,.24.1.35.23.35.05,0,.09,0,.2-.02l.08.4c-.1.03-.19.05-.35.05-.42,0-.65-.26-.65-.84Z"/>
    <path class="st8" d="M237.96,101.42c0-1.77,1.1-2.78,2.37-2.78s2.37,1.02,2.37,2.78-1.1,2.76-2.37,2.76-2.37-1.02-2.37-2.76ZM242.2,101.42c0-1.39-.79-2.35-1.86-2.35s-1.86.96-1.86,2.35.79,2.33,1.86,2.33,1.86-.94,1.86-2.33Z"/>
    <path class="st8" d="M243.85,101.42c0-1.77,1.13-2.78,2.41-2.78.72,0,1.19.32,1.55.65l-.29.34c-.34-.32-.74-.56-1.25-.56-1.08,0-1.91.96-1.91,2.35s.76,2.33,1.91,2.33c.57,0,1.05-.27,1.42-.61l.25.34c-.45.4-1.02.7-1.69.7-1.36,0-2.4-1.02-2.4-2.76Z"/>
    <path class="st8" d="M248.74,102.74c0-1.17,1.06-1.73,3.41-1.99.02-.81-.21-1.68-1.25-1.68-.71,0-1.33.35-1.68.62l-.22-.36c.37-.26,1.11-.69,1.96-.69,1.25,0,1.67.91,1.67,2.04v3.38h-.41l-.05-.69h-.02c-.54.44-1.18.82-1.87.82-.84,0-1.53-.46-1.53-1.45ZM252.15,102.91v-1.8c-2.17.25-2.91.75-2.91,1.6,0,.76.51,1.05,1.12,1.05s1.14-.29,1.79-.85Z"/>
    <path class="st8" d="M254.52,102.59v-3.4h-.83v-.38l.84-.05.06-1.53h.41v1.53h1.53v.42h-1.53v3.44c0,.67.17,1.13.9,1.13.2,0,.47-.08.66-.17l.13.39c-.31.11-.64.2-.86.2-1.01,0-1.31-.64-1.31-1.59Z"/>
    <path class="st8" d="M257.64,97.06c0-.27.2-.43.44-.43s.44.16.44.43c0,.25-.2.43-.44.43s-.44-.18-.44-.43ZM257.83,98.77h.49v5.28h-.49v-5.28Z"/>
    <path class="st8" d="M259.91,101.42c0-1.77,1.1-2.78,2.37-2.78s2.37,1.02,2.37,2.78-1.1,2.76-2.37,2.76-2.37-1.02-2.37-2.76ZM264.14,101.42c0-1.39-.79-2.35-1.86-2.35s-1.86.96-1.86,2.35.79,2.33,1.86,2.33,1.86-.94,1.86-2.33Z"/>
    <path class="st8" d="M266.24,98.77h.41l.05.82h.02c.54-.54,1.09-.95,1.82-.95,1.09,0,1.6.66,1.6,2.03v3.39h-.49v-3.32c0-1.12-.35-1.65-1.2-1.65-.63,0-1.08.33-1.73.99v3.98h-.49v-5.28Z"/>
  </g>
  <g>
    <path class="st8" d="M290,83.6h.51v7.25h-.51v-7.25Z"/>
    <path class="st8" d="M292.59,85.57h.41l.05.82h.02c.54-.54,1.09-.95,1.82-.95,1.09,0,1.6.66,1.6,2.03v3.39h-.49v-3.32c0-1.12-.35-1.65-1.2-1.65-.63,0-1.08.33-1.73.99v3.98h-.49v-5.28Z"/>
    <path class="st8" d="M297.78,90.25l.28-.35c.45.37.93.67,1.68.67.83,0,1.26-.49,1.26-1.04,0-.66-.68-.95-1.29-1.17-.8-.28-1.68-.61-1.68-1.51,0-.76.6-1.41,1.7-1.41.57,0,1.12.23,1.51.55l-.26.35c-.36-.27-.73-.48-1.26-.48-.82,0-1.2.47-1.2.96,0,.6.62.83,1.25,1.07.82.31,1.72.58,1.72,1.61,0,.8-.64,1.49-1.78,1.49-.78,0-1.46-.33-1.94-.73Z"/>
    <path class="st8" d="M302.8,89.39v-3.4h-.83v-.38l.84-.05.06-1.53h.41v1.53h1.53v.42h-1.53v3.44c0,.67.17,1.13.9,1.13.2,0,.47-.08.66-.17l.13.39c-.31.11-.64.2-.86.2-1.01,0-1.31-.64-1.31-1.59Z"/>
    <path class="st8" d="M305.92,83.86c0-.27.2-.43.44-.43s.44.16.44.43c0,.25-.2.43-.44.43s-.44-.18-.44-.43ZM306.11,85.57h.49v5.28h-.49v-5.28Z"/>
    <path class="st8" d="M308.75,89.39v-3.4h-.83v-.38l.84-.05.06-1.53h.41v1.53h1.53v.42h-1.53v3.44c0,.67.17,1.13.9,1.13.2,0,.47-.08.66-.17l.13.39c-.31.11-.64.2-.86.2-1.01,0-1.31-.64-1.31-1.59Z"/>
    <path class="st8" d="M311.98,88.96v-3.39h.49v3.32c0,1.12.35,1.65,1.2,1.65.63,0,1.08-.33,1.7-1.08v-3.9h.49v5.28h-.41l-.05-.88h-.02c-.52.61-1.06,1.02-1.79,1.02-1.09,0-1.6-.66-1.6-2.03Z"/>
    <path class="st8" d="M318,89.39v-3.4h-.83v-.38l.84-.05.06-1.53h.41v1.53h1.53v.42h-1.53v3.44c0,.67.17,1.13.9,1.13.2,0,.47-.08.66-.17l.13.39c-.31.11-.64.2-.86.2-1.01,0-1.31-.64-1.31-1.59Z"/>
    <path class="st8" d="M321.12,83.86c0-.27.2-.43.44-.43s.44.16.44.43c0,.25-.2.43-.44.43s-.44-.18-.44-.43ZM321.31,85.57h.49v5.28h-.49v-5.28Z"/>
    <path class="st8" d="M323.38,88.22c0-1.77,1.1-2.78,2.37-2.78s2.37,1.02,2.37,2.78-1.1,2.76-2.37,2.76-2.37-1.02-2.37-2.76ZM327.62,88.22c0-1.39-.79-2.35-1.86-2.35s-1.86.96-1.86,2.35.79,2.33,1.86,2.33,1.86-.94,1.86-2.33Z"/>
    <path class="st8" d="M329.71,85.57h.41l.05.82h.02c.54-.54,1.09-.95,1.82-.95,1.09,0,1.6.66,1.6,2.03v3.39h-.49v-3.32c0-1.12-.35-1.65-1.2-1.65-.63,0-1.08.33-1.73.99v3.98h-.49v-5.28Z"/>
    <path class="st8" d="M335.19,89.54c0-1.17,1.06-1.73,3.41-1.99.01-.81-.21-1.68-1.25-1.68-.71,0-1.33.35-1.68.62l-.22-.36c.37-.26,1.11-.69,1.96-.69,1.25,0,1.67.91,1.67,2.04v3.38h-.41l-.05-.69h-.02c-.54.44-1.18.82-1.87.82-.84,0-1.53-.46-1.53-1.45ZM338.6,89.71v-1.8c-2.17.25-2.91.75-2.91,1.6,0,.76.51,1.05,1.12,1.05s1.14-.29,1.79-.85Z"/>
    <path class="st8" d="M340.97,90.14v-7.21h.49v7.27c0,.24.1.35.23.35.05,0,.09,0,.2-.02l.08.4c-.1.03-.19.05-.35.05-.42,0-.65-.26-.65-.84Z"/>
    <path class="st8" d="M300.46,98.77h.41l.05.82h.02c.54-.54,1.09-.95,1.82-.95,1.09,0,1.6.66,1.6,2.03v3.39h-.49v-3.32c0-1.12-.35-1.65-1.2-1.65-.63,0-1.08.33-1.73.99v3.98h-.49v-5.28Z"/>
    <path class="st8" d="M305.87,101.42c0-1.72,1.12-2.78,2.3-2.78,1.25,0,2.02.89,2.02,2.44,0,.13,0,.26-.03.4h-3.8c.02,1.33.8,2.29,1.99,2.29.57,0,1.02-.19,1.42-.47l.2.37c-.42.26-.89.52-1.67.52-1.35,0-2.44-1.04-2.44-2.76ZM309.74,101.08c0-1.35-.61-2.02-1.56-2.02-.89,0-1.7.76-1.81,2.02h3.37Z"/>
    <path class="st8" d="M311.07,105.13c0-.46.3-.93.79-1.27v-.04c-.27-.16-.47-.44-.47-.85,0-.47.34-.81.58-.97v-.04c-.34-.28-.67-.81-.67-1.45,0-1.09.83-1.86,1.86-1.86.29,0,.54.06.7.13h1.79v.41h-1.23c.34.29.58.77.58,1.32,0,1.08-.81,1.87-1.85,1.87-.29,0-.63-.08-.87-.23-.23.19-.43.41-.43.76,0,.38.22.69,1.01.69h1.13c1.19,0,1.74.38,1.74,1.21,0,.91-.97,1.78-2.5,1.78-1.33,0-2.17-.57-2.17-1.46ZM315.24,104.86c0-.58-.42-.81-1.22-.81h-1.13c-.1,0-.38-.02-.65-.09-.49.33-.69.74-.69,1.11,0,.67.64,1.12,1.75,1.12,1.19,0,1.95-.67,1.95-1.34ZM314.53,100.5c0-.89-.62-1.46-1.37-1.46s-1.37.56-1.37,1.46.64,1.48,1.37,1.48,1.37-.6,1.37-1.48Z"/>
    <path class="st8" d="M316.88,103.34v-7.21h.49v7.27c0,.24.1.35.23.35.05,0,.09,0,.2-.02l.08.4c-.1.03-.19.05-.35.05-.42,0-.64-.26-.64-.84Z"/>
    <path class="st8" d="M319.04,101.42c0-1.72,1.12-2.78,2.3-2.78,1.25,0,2.02.89,2.02,2.44,0,.13,0,.26-.03.4h-3.8c.02,1.33.8,2.29,1.99,2.29.57,0,1.02-.19,1.42-.47l.2.37c-.42.26-.89.52-1.67.52-1.35,0-2.44-1.04-2.44-2.76ZM322.91,101.08c0-1.35-.61-2.02-1.56-2.02-.89,0-1.7.76-1.81,2.02h3.37Z"/>
    <path class="st8" d="M324.35,101.42c0-1.77,1.13-2.78,2.41-2.78.72,0,1.19.32,1.55.65l-.29.34c-.34-.32-.74-.56-1.25-.56-1.08,0-1.92.96-1.92,2.35s.76,2.33,1.91,2.33c.57,0,1.05-.27,1.42-.61l.25.34c-.45.4-1.02.7-1.69.7-1.36,0-2.4-1.02-2.4-2.76Z"/>
    <path class="st8" d="M329.75,102.59v-3.4h-.83v-.38l.84-.05.06-1.53h.41v1.53h1.53v.42h-1.53v3.44c0,.67.17,1.13.9,1.13.2,0,.47-.08.66-.17l.13.39c-.31.11-.64.2-.86.2-1.01,0-1.31-.64-1.31-1.59Z"/>
  </g>
  <g>
    <path class="st8" d="M364.72,83.6h.54l1.34,4.23c.28.89.47,1.56.77,2.43h.04c.3-.88.49-1.55.77-2.43l1.34-4.23h.51l-2.37,7.25h-.54l-2.39-7.25Z"/>
    <path class="st8" d="M370.5,88.22c0-1.72,1.12-2.78,2.3-2.78,1.25,0,2.02.89,2.02,2.44,0,.13,0,.26-.03.4h-3.8c.02,1.33.8,2.29,1.99,2.29.57,0,1.02-.19,1.42-.47l.2.37c-.42.26-.89.52-1.67.52-1.35,0-2.44-1.04-2.44-2.76ZM374.36,87.88c0-1.35-.61-2.02-1.56-2.02-.89,0-1.7.76-1.81,2.02h3.37Z"/>
    <path class="st8" d="M376.25,82.94h.49v3.46c.54-.55,1.09-.96,1.82-.96,1.09,0,1.6.66,1.6,2.03v3.39h-.49v-3.32c0-1.12-.35-1.65-1.2-1.65-.63,0-1.08.33-1.73.99v3.98h-.49v-7.91Z"/>
    <path class="st8" d="M381.87,83.86c0-.27.2-.43.44-.43s.44.16.44.43c0,.25-.2.43-.44.43s-.44-.18-.44-.43ZM382.06,85.57h.49v5.28h-.49v-5.28Z"/>
    <path class="st8" d="M384.14,88.22c0-1.77,1.13-2.78,2.41-2.78.72,0,1.19.32,1.55.65l-.29.34c-.34-.32-.74-.56-1.25-.56-1.08,0-1.91.96-1.91,2.35s.76,2.33,1.91,2.33c.57,0,1.05-.27,1.42-.61l.25.34c-.45.4-1.02.7-1.69.7-1.36,0-2.4-1.02-2.4-2.76Z"/>
    <path class="st8" d="M389.52,90.14v-7.21h.49v7.27c0,.24.1.35.23.35.05,0,.09,0,.2-.02l.08.4c-.1.03-.19.05-.35.05-.42,0-.64-.26-.64-.84Z"/>
    <path class="st8" d="M391.68,88.22c0-1.72,1.12-2.78,2.3-2.78,1.25,0,2.02.89,2.02,2.44,0,.13,0,.26-.03.4h-3.8c.02,1.33.8,2.29,1.99,2.29.57,0,1.02-.19,1.42-.47l.2.37c-.42.26-.89.52-1.67.52-1.35,0-2.44-1.04-2.44-2.76ZM395.55,87.88c0-1.35-.61-2.02-1.56-2.02-.89,0-1.7.76-1.81,2.02h3.37Z"/>
    <path class="st8" d="M362.58,101.42c0-1.77,1.13-2.78,2.41-2.78.72,0,1.19.32,1.55.65l-.29.34c-.34-.32-.74-.56-1.25-.56-1.08,0-1.92.96-1.92,2.35s.76,2.33,1.91,2.33c.57,0,1.05-.27,1.42-.61l.25.34c-.45.4-1.02.7-1.69.7-1.36,0-2.4-1.02-2.4-2.76Z"/>
    <path class="st8" d="M367.33,101.42c0-1.77,1.1-2.78,2.37-2.78s2.37,1.02,2.37,2.78-1.1,2.76-2.37,2.76-2.37-1.02-2.37-2.76ZM371.57,101.42c0-1.39-.79-2.35-1.86-2.35s-1.86.96-1.86,2.35.79,2.33,1.86,2.33,1.86-.94,1.86-2.33Z"/>
    <path class="st8" d="M373.65,103.34v-7.21h.49v7.27c0,.24.1.35.23.35.05,0,.09,0,.2-.02l.08.4c-.1.03-.19.05-.35.05-.42,0-.64-.26-.64-.84Z"/>
    <path class="st8" d="M376.26,103.34v-7.21h.49v7.27c0,.24.1.35.23.35.05,0,.09,0,.2-.02l.08.4c-.1.03-.19.05-.35.05-.42,0-.65-.26-.65-.84Z"/>
    <path class="st8" d="M378.68,97.06c0-.27.2-.43.44-.43s.44.16.44.43c0,.25-.2.43-.44.43s-.44-.18-.44-.43ZM378.87,98.77h.49v5.28h-.49v-5.28Z"/>
    <path class="st8" d="M380.73,103.45l.28-.35c.45.37.93.67,1.68.67.83,0,1.26-.49,1.26-1.04,0-.66-.68-.95-1.29-1.17-.8-.28-1.68-.61-1.68-1.51,0-.76.6-1.41,1.7-1.41.57,0,1.12.23,1.51.55l-.26.35c-.36-.27-.73-.48-1.26-.48-.82,0-1.2.47-1.2.96,0,.6.62.83,1.25,1.07.82.31,1.72.58,1.72,1.61,0,.8-.64,1.49-1.78,1.49-.78,0-1.46-.33-1.94-.73Z"/>
    <path class="st8" d="M385.65,97.06c0-.27.2-.43.44-.43s.44.16.44.43c0,.25-.2.43-.44.43s-.44-.18-.44-.43ZM385.84,98.77h.49v5.28h-.49v-5.28Z"/>
    <path class="st8" d="M387.91,101.42c0-1.77,1.1-2.78,2.37-2.78s2.37,1.02,2.37,2.78-1.1,2.76-2.37,2.76-2.37-1.02-2.37-2.76ZM392.15,101.42c0-1.39-.79-2.35-1.86-2.35s-1.86.96-1.86,2.35.79,2.33,1.86,2.33,1.86-.94,1.86-2.33Z"/>
    <path class="st8" d="M394.24,98.77h.41l.05.82h.02c.54-.54,1.09-.95,1.82-.95,1.09,0,1.6.66,1.6,2.03v3.39h-.49v-3.32c0-1.12-.35-1.65-1.2-1.65-.63,0-1.08.33-1.73.99v3.98h-.49v-5.28Z"/>
  </g>
  <g>
    <path class="st8" d="M429.27,87.2c0-2.29,1.24-3.73,2.99-3.73s2.99,1.44,2.99,3.73-1.24,3.78-2.99,3.78-2.99-1.48-2.99-3.78ZM434.71,87.2c0-2.01-.98-3.27-2.46-3.27s-2.46,1.26-2.46,3.27.98,3.32,2.46,3.32,2.46-1.31,2.46-3.32Z"/>
    <path class="st8" d="M436.98,89.39v-3.4h-.83v-.38l.84-.05.06-1.53h.41v1.53h1.53v.42h-1.53v3.44c0,.67.17,1.13.9,1.13.2,0,.47-.08.66-.17l.13.39c-.31.11-.64.2-.86.2-1.01,0-1.31-.64-1.31-1.59Z"/>
    <path class="st8" d="M440.29,82.94h.49v3.46c.54-.55,1.09-.96,1.82-.96,1.09,0,1.6.66,1.6,2.03v3.39h-.49v-3.32c0-1.12-.35-1.65-1.2-1.65-.63,0-1.08.33-1.73.99v3.98h-.49v-7.91Z"/>
    <path class="st8" d="M445.65,88.22c0-1.72,1.12-2.78,2.3-2.78,1.25,0,2.02.89,2.02,2.44,0,.13,0,.26-.03.4h-3.8c.02,1.33.8,2.29,1.99,2.29.57,0,1.02-.19,1.42-.47l.2.37c-.42.26-.89.52-1.67.52-1.35,0-2.44-1.04-2.44-2.76ZM449.52,87.88c0-1.35-.61-2.02-1.56-2.02-.89,0-1.7.76-1.81,2.02h3.37Z"/>
    <path class="st8" d="M451.41,85.57h.41l.05.99h.02c.36-.65.88-1.12,1.5-1.12.19,0,.35.02.52.11l-.11.44c-.18-.06-.28-.09-.48-.09-.48,0-1.04.36-1.44,1.36v3.59h-.49v-5.28Z"/>
    <path class="st8" d="M430.48,96.14h.49v3.46c.54-.55,1.09-.96,1.82-.96,1.09,0,1.6.66,1.6,2.03v3.39h-.49v-3.32c0-1.12-.35-1.65-1.2-1.65-.63,0-1.08.33-1.73.99v3.98h-.49v-7.91Z"/>
    <path class="st8" d="M435.91,102.74c0-1.17,1.06-1.73,3.41-1.99.01-.81-.21-1.68-1.25-1.68-.71,0-1.33.35-1.68.62l-.22-.36c.37-.26,1.11-.69,1.96-.69,1.25,0,1.67.91,1.67,2.04v3.38h-.41l-.05-.69h-.02c-.54.44-1.18.82-1.87.82-.84,0-1.53-.46-1.53-1.45ZM439.31,102.91v-1.8c-2.17.25-2.91.75-2.91,1.6,0,.76.51,1.05,1.12,1.05s1.14-.29,1.79-.85Z"/>
    <path class="st8" d="M441.69,98.77h.41l.05.99h.02c.36-.65.87-1.12,1.5-1.12.19,0,.35.02.52.11l-.11.44c-.18-.06-.28-.09-.48-.09-.48,0-1.04.36-1.44,1.36v3.59h-.49v-5.28Z"/>
    <path class="st8" d="M445.17,98.77h.41l.05.82h.02c.48-.54,1.08-.95,1.67-.95.85,0,1.27.43,1.46,1.08.6-.66,1.18-1.08,1.79-1.08,1.05,0,1.58.66,1.58,2.03v3.39h-.49v-3.32c0-1.12-.37-1.65-1.18-1.65-.5,0-1,.33-1.58.99v3.98h-.49v-3.32c0-1.12-.37-1.65-1.18-1.65-.48,0-1,.33-1.58.99v3.98h-.49v-5.28Z"/>
  </g>
  <g>
    <path class="st8" d="M99.47,135.86h1.83c1.64,0,2.63.53,2.63,2.02s-.97,2.11-2.58,2.11h-1.36v3.12h-.51v-7.25ZM101.21,139.57c1.48,0,2.19-.49,2.19-1.69s-.73-1.59-2.23-1.59h-1.19v3.28h1.24Z"/>
    <path class="st8" d="M105.45,135.2h.49v3.46c.54-.55,1.09-.96,1.82-.96,1.09,0,1.6.66,1.6,2.03v3.39h-.49v-3.32c0-1.12-.35-1.65-1.2-1.65-.63,0-1.08.33-1.73.99v3.98h-.49v-7.91Z"/>
    <path class="st8" d="M110.5,145.41l.11-.42c.11.04.28.09.43.09.64,0,1.08-.6,1.35-1.4l.15-.46-2.17-5.38h.53l1.27,3.32c.17.45.38,1.01.57,1.48h.04c.17-.47.34-1.03.49-1.48l1.12-3.32h.5l-2.09,5.95c-.29.88-.83,1.74-1.78,1.74-.2,0-.4-.04-.54-.11Z"/>
    <path class="st8" d="M115.4,142.51l.28-.35c.45.37.93.67,1.68.67.83,0,1.26-.49,1.26-1.04,0-.66-.68-.95-1.29-1.17-.8-.28-1.68-.61-1.68-1.51,0-.76.6-1.41,1.7-1.41.57,0,1.12.23,1.51.55l-.26.35c-.36-.27-.73-.48-1.26-.48-.82,0-1.2.47-1.2.96,0,.6.62.83,1.25,1.07.82.31,1.73.58,1.73,1.61,0,.8-.64,1.49-1.78,1.49-.78,0-1.46-.33-1.94-.73Z"/>
    <path class="st8" d="M120.32,136.12c0-.27.2-.43.44-.43s.44.16.44.43c0,.25-.2.43-.44.43s-.44-.18-.44-.43ZM120.51,137.83h.49v5.28h-.49v-5.28Z"/>
    <path class="st8" d="M122.58,140.48c0-1.77,1.13-2.78,2.41-2.78.72,0,1.19.32,1.55.65l-.29.34c-.34-.32-.74-.56-1.25-.56-1.08,0-1.91.96-1.91,2.35s.76,2.33,1.91,2.33c.57,0,1.05-.27,1.42-.61l.25.34c-.45.4-1.02.7-1.69.7-1.36,0-2.4-1.02-2.4-2.76Z"/>
    <path class="st8" d="M127.48,141.8c0-1.17,1.06-1.73,3.41-1.99.02-.81-.21-1.68-1.25-1.68-.71,0-1.33.35-1.68.62l-.22-.36c.37-.26,1.11-.69,1.96-.69,1.25,0,1.67.91,1.67,2.04v3.38h-.41l-.05-.69h-.02c-.54.44-1.18.82-1.87.82-.84,0-1.53-.46-1.53-1.45ZM130.89,141.97v-1.8c-2.17.25-2.91.75-2.91,1.6,0,.76.51,1.05,1.12,1.05s1.14-.29,1.79-.85Z"/>
    <path class="st8" d="M133.26,142.4v-7.21h.49v7.27c0,.24.1.35.23.35.05,0,.09,0,.2-.02l.08.4c-.1.03-.19.05-.35.05-.42,0-.65-.26-.65-.84Z"/>
    <path class="st8" d="M102,153.68c0-1.77,1.13-2.78,2.41-2.78.72,0,1.19.32,1.55.65l-.29.34c-.34-.32-.74-.56-1.25-.56-1.08,0-1.91.96-1.91,2.35s.76,2.33,1.91,2.33c.57,0,1.05-.27,1.42-.61l.25.34c-.45.4-1.02.7-1.69.7-1.36,0-2.4-1.02-2.4-2.76Z"/>
    <path class="st8" d="M107.38,151.03h.41l.05.99h.02c.36-.65.87-1.12,1.5-1.12.19,0,.35.02.52.11l-.11.44c-.18-.06-.28-.09-.48-.09-.48,0-1.04.36-1.44,1.36v3.59h-.49v-5.28Z"/>
    <path class="st8" d="M110.78,154.42v-3.39h.49v3.32c0,1.12.35,1.65,1.2,1.65.63,0,1.08-.33,1.7-1.08v-3.9h.49v5.28h-.41l-.05-.88h-.02c-.52.61-1.06,1.02-1.79,1.02-1.09,0-1.6-.66-1.6-2.03Z"/>
    <path class="st8" d="M116.24,153.68c0-1.72,1.12-2.78,2.3-2.78,1.25,0,2.02.89,2.02,2.44,0,.13,0,.26-.03.4h-3.8c.02,1.33.8,2.29,1.99,2.29.57,0,1.02-.19,1.42-.47l.2.37c-.42.26-.89.52-1.67.52-1.35,0-2.44-1.04-2.44-2.76ZM120.11,153.34c0-1.35-.61-2.02-1.56-2.02-.89,0-1.7.76-1.81,2.02h3.37Z"/>
    <path class="st8" d="M122,155.6v-7.21h.49v7.27c0,.24.1.35.23.35.05,0,.09,0,.2-.02l.08.4c-.1.03-.19.05-.35.05-.42,0-.65-.26-.65-.84Z"/>
    <path class="st8" d="M124.73,154.85v-3.4h-.83v-.38l.84-.05.06-1.53h.41v1.53h1.53v.42h-1.53v3.44c0,.67.17,1.13.9,1.13.2,0,.47-.08.66-.17l.13.39c-.31.11-.64.2-.86.2-1.01,0-1.31-.64-1.31-1.59Z"/>
    <path class="st8" d="M127.28,158.61l.11-.42c.11.04.28.09.43.09.64,0,1.08-.6,1.35-1.4l.15-.46-2.17-5.38h.53l1.27,3.32c.17.45.38,1.01.57,1.48h.04c.17-.47.34-1.03.49-1.48l1.12-3.32h.5l-2.09,5.95c-.29.88-.83,1.74-1.78,1.74-.2,0-.4-.04-.54-.11Z"/>
  </g>
  <g>
    <path class="st8" d="M90.82,200.07h2.42c1.5,0,2.65.53,2.65,2.13s-1.15,2.25-2.65,2.25h-1.15v2.81h-1.28v-7.19ZM93.11,203.44c.99,0,1.52-.41,1.52-1.23s-.54-1.11-1.52-1.11h-1.02v2.34h1.02ZM93,204.12l.92-.76,2.25,3.91h-1.43l-1.74-3.15Z"/>
    <path class="st8" d="M96.75,204.57c0-1.76,1.22-2.84,2.49-2.84,1.46,0,2.23,1.06,2.23,2.57,0,.24-.03.48-.06.62h-3.43c.11.96.72,1.51,1.59,1.51.46,0,.86-.15,1.25-.39l.43.79c-.51.35-1.17.58-1.85.58-1.49,0-2.66-1.05-2.66-2.83ZM100.38,204.05c0-.83-.37-1.34-1.11-1.34-.63,0-1.18.47-1.29,1.34h2.4Z"/>
    <path class="st8" d="M102.68,201.87h1.04l.1.74h.04c.46-.48.98-.87,1.66-.87.79,0,1.24.36,1.49.97.52-.55,1.05-.97,1.74-.97,1.14,0,1.67.78,1.67,2.15v3.39h-1.27v-3.23c0-.89-.26-1.22-.83-1.22-.34,0-.71.22-1.13.67v3.78h-1.27v-3.23c0-.89-.26-1.22-.83-1.22-.33,0-.71.22-1.13.67v3.78h-1.27v-5.4Z"/>
    <path class="st8" d="M111.6,204.57c0-1.8,1.22-2.84,2.57-2.84s2.57,1.04,2.57,2.84-1.22,2.83-2.57,2.83-2.57-1.04-2.57-2.83ZM115.44,204.57c0-1.08-.48-1.8-1.27-1.8s-1.27.72-1.27,1.8.48,1.8,1.27,1.8,1.27-.71,1.27-1.8Z"/>
    <path class="st8" d="M117.26,201.87h1.29l.86,2.8c.15.53.31,1.09.46,1.63h.04c.15-.54.31-1.1.46-1.63l.86-2.8h1.22l-1.83,5.4h-1.47l-1.88-5.4Z"/>
    <path class="st8" d="M122.86,205.82c0-1.16.96-1.76,3.18-2-.02-.58-.25-1.06-.98-1.06-.54,0-1.04.24-1.52.53l-.47-.85c.59-.37,1.36-.71,2.22-.71,1.35,0,2.02.83,2.02,2.34v3.2h-1.04l-.1-.6h-.04c-.48.41-1.04.73-1.68.73-.95,0-1.6-.64-1.6-1.58ZM126.04,205.82v-1.21c-1.47.19-1.95.57-1.95,1.11,0,.48.33.69.78.69s.77-.22,1.17-.59Z"/>
    <path class="st8" d="M128.83,205.88v-6.38h1.27v6.45c0,.31.14.42.27.42.06,0,.1,0,.2-.02l.16.95c-.15.06-.37.11-.67.11-.9,0-1.23-.58-1.23-1.52Z"/>
    <path class="st8" d="M133.66,204.57c0-1.8,1.22-2.84,2.57-2.84s2.57,1.04,2.57,2.84-1.22,2.83-2.57,2.83-2.57-1.04-2.57-2.83ZM137.49,204.57c0-1.08-.48-1.8-1.27-1.8s-1.27.72-1.27,1.8.48,1.8,1.27,1.8,1.27-.71,1.27-1.8Z"/>
    <path class="st8" d="M140.05,201.87h1.04l.1.96h.04c.38-.7.96-1.1,1.54-1.1.27,0,.45.04.61.11l-.22,1.1c-.19-.05-.33-.09-.55-.09-.43,0-.95.29-1.28,1.12v3.3h-1.27v-5.4Z"/>
    <path class="st8" d="M93.37,215.07h1.04l.1.96h.04c.38-.7.96-1.1,1.54-1.1.27,0,.45.04.61.11l-.22,1.1c-.19-.05-.33-.09-.55-.09-.43,0-.95.29-1.28,1.12v3.3h-1.27v-5.4Z"/>
    <path class="st8" d="M97.01,217.77c0-1.76,1.22-2.84,2.49-2.84,1.46,0,2.23,1.06,2.23,2.57,0,.24-.03.48-.06.62h-3.43c.11.96.72,1.51,1.59,1.51.46,0,.86-.15,1.25-.39l.43.79c-.51.35-1.17.58-1.85.58-1.49,0-2.66-1.05-2.66-2.83ZM100.64,217.25c0-.83-.37-1.34-1.11-1.34-.63,0-1.18.47-1.29,1.34h2.4Z"/>
    <path class="st8" d="M102.94,219.08v-6.38h1.27v6.45c0,.31.14.42.27.42.06,0,.1,0,.2-.02l.16.95c-.15.06-.37.11-.67.11-.9,0-1.23-.58-1.23-1.52Z"/>
    <path class="st8" d="M105.57,217.77c0-1.8,1.22-2.84,2.57-2.84s2.57,1.04,2.57,2.84-1.22,2.83-2.57,2.83-2.57-1.04-2.57-2.83ZM109.41,217.77c0-1.08-.48-1.8-1.27-1.8s-1.27.72-1.27,1.8.48,1.8,1.27,1.8,1.27-.71,1.27-1.8Z"/>
    <path class="st8" d="M111.61,217.77c0-1.8,1.27-2.84,2.71-2.84.69,0,1.19.26,1.58.61l-.62.82c-.29-.25-.56-.4-.9-.4-.87,0-1.47.72-1.47,1.8s.59,1.8,1.43,1.8c.42,0,.81-.21,1.12-.47l.52.84c-.51.45-1.15.66-1.76.66-1.47,0-2.61-1.04-2.61-2.83Z"/>
    <path class="st8" d="M116.65,219.02c0-1.16.96-1.76,3.18-2-.02-.58-.25-1.06-.98-1.06-.54,0-1.04.24-1.52.53l-.47-.85c.59-.37,1.36-.71,2.22-.71,1.35,0,2.02.83,2.02,2.34v3.2h-1.04l-.1-.6h-.04c-.48.41-1.04.73-1.68.73-.95,0-1.6-.64-1.6-1.58ZM119.82,219.02v-1.21c-1.47.19-1.95.57-1.95,1.11,0,.48.33.69.78.69s.77-.22,1.17-.59Z"/>
    <path class="st8" d="M122.62,218.65v-2.57h-.77v-.95l.84-.06.15-1.47h1.05v1.47h1.38v1.01h-1.38v2.57c0,.64.25.95.77.95.18,0,.4-.06.56-.12l.22.93c-.29.1-.67.2-1.1.2-1.25,0-1.71-.79-1.71-1.95Z"/>
    <path class="st8" d="M126.26,213.4c0-.43.33-.72.78-.72s.78.29.78.72-.33.72-.78.72-.78-.3-.78-.72ZM126.41,215.07h1.27v5.4h-1.27v-5.4Z"/>
    <path class="st8" d="M128.93,217.77c0-1.8,1.22-2.84,2.57-2.84s2.57,1.04,2.57,2.84-1.22,2.83-2.57,2.83-2.57-1.04-2.57-2.83ZM132.77,217.77c0-1.08-.48-1.8-1.27-1.8s-1.27.72-1.27,1.8.48,1.8,1.27,1.8,1.27-.71,1.27-1.8Z"/>
    <path class="st8" d="M135.33,215.07h1.04l.1.73h.04c.48-.47,1.03-.86,1.77-.86,1.16,0,1.66.78,1.66,2.15v3.39h-1.27v-3.23c0-.89-.26-1.22-.84-1.22-.48,0-.79.23-1.23.67v3.78h-1.27v-5.4Z"/>
  </g>
  <g>
    <path class="st8" d="M90.88,264.32h.51v7.25h-.51v-7.25Z"/>
    <path class="st8" d="M93.47,266.29h.41l.05.82h.02c.54-.54,1.09-.95,1.82-.95,1.09,0,1.6.66,1.6,2.03v3.39h-.49v-3.32c0-1.12-.35-1.65-1.2-1.65-.63,0-1.08.33-1.73.99v3.98h-.49v-5.28Z"/>
    <path class="st8" d="M98.66,270.97l.28-.35c.45.37.93.67,1.68.67.83,0,1.26-.49,1.26-1.04,0-.66-.68-.95-1.29-1.17-.8-.28-1.68-.61-1.68-1.51,0-.76.6-1.41,1.7-1.41.57,0,1.12.23,1.51.55l-.26.35c-.36-.27-.73-.48-1.26-.48-.82,0-1.2.47-1.2.96,0,.6.62.83,1.25,1.07.82.31,1.73.58,1.73,1.61,0,.8-.64,1.49-1.78,1.49-.78,0-1.46-.33-1.94-.73Z"/>
    <path class="st8" d="M103.68,270.11v-3.4h-.83v-.38l.84-.05.06-1.53h.41v1.53h1.53v.42h-1.53v3.44c0,.67.17,1.13.9,1.13.2,0,.47-.08.66-.17l.13.39c-.31.11-.64.2-.86.2-1.01,0-1.31-.64-1.31-1.59Z"/>
    <path class="st8" d="M106.8,264.58c0-.27.2-.43.44-.43s.44.16.44.43c0,.25-.2.43-.44.43s-.44-.18-.44-.43ZM106.99,266.29h.49v5.28h-.49v-5.28Z"/>
    <path class="st8" d="M109.63,270.11v-3.4h-.83v-.38l.84-.05.06-1.53h.41v1.53h1.53v.42h-1.53v3.44c0,.67.17,1.13.9,1.13.2,0,.47-.08.66-.17l.13.39c-.31.11-.64.2-.86.2-1.01,0-1.31-.64-1.31-1.59Z"/>
    <path class="st8" d="M112.85,269.68v-3.39h.49v3.32c0,1.12.35,1.65,1.2,1.65.63,0,1.08-.33,1.7-1.08v-3.9h.49v5.28h-.41l-.05-.88h-.02c-.52.61-1.06,1.02-1.79,1.02-1.09,0-1.6-.66-1.6-2.03Z"/>
    <path class="st8" d="M118.88,270.11v-3.4h-.83v-.38l.84-.05.06-1.53h.41v1.53h1.53v.42h-1.53v3.44c0,.67.17,1.13.9,1.13.2,0,.47-.08.66-.17l.13.39c-.31.11-.64.2-.86.2-1.01,0-1.31-.64-1.31-1.59Z"/>
    <path class="st8" d="M122,264.58c0-.27.2-.43.44-.43s.44.16.44.43c0,.25-.2.43-.44.43s-.44-.18-.44-.43ZM122.19,266.29h.49v5.28h-.49v-5.28Z"/>
    <path class="st8" d="M124.26,268.94c0-1.77,1.1-2.78,2.37-2.78s2.37,1.02,2.37,2.78-1.1,2.76-2.37,2.76-2.37-1.02-2.37-2.76ZM128.5,268.94c0-1.39-.79-2.35-1.86-2.35s-1.86.96-1.86,2.35.79,2.33,1.86,2.33,1.86-.94,1.86-2.33Z"/>
    <path class="st8" d="M130.59,266.29h.41l.05.82h.02c.54-.54,1.09-.95,1.82-.95,1.09,0,1.6.66,1.6,2.03v3.39h-.49v-3.32c0-1.12-.35-1.65-1.2-1.65-.63,0-1.08.33-1.73.99v3.98h-.49v-5.28Z"/>
    <path class="st8" d="M136.07,270.26c0-1.17,1.06-1.73,3.41-1.99.02-.81-.21-1.68-1.25-1.68-.71,0-1.33.35-1.68.62l-.22-.36c.37-.26,1.11-.69,1.96-.69,1.25,0,1.67.91,1.67,2.04v3.38h-.41l-.05-.69h-.02c-.54.44-1.18.82-1.87.82-.84,0-1.53-.46-1.53-1.45ZM139.47,270.43v-1.8c-2.17.25-2.91.75-2.91,1.6,0,.76.51,1.05,1.12,1.05s1.14-.29,1.79-.85Z"/>
    <path class="st8" d="M141.84,270.86v-7.21h.49v7.27c0,.24.1.35.23.35.05,0,.09,0,.2-.02l.08.4c-.1.03-.19.05-.35.05-.42,0-.65-.26-.65-.84Z"/>
    <path class="st8" d="M101.34,279.49h.41l.05.82h.02c.54-.54,1.09-.95,1.82-.95,1.09,0,1.6.66,1.6,2.03v3.39h-.49v-3.33c0-1.12-.35-1.65-1.2-1.65-.63,0-1.08.33-1.73.99v3.99h-.49v-5.28Z"/>
    <path class="st8" d="M106.75,282.14c0-1.72,1.12-2.78,2.3-2.78,1.25,0,2.02.89,2.02,2.44,0,.13,0,.26-.03.4h-3.8c.02,1.33.8,2.29,1.99,2.29.57,0,1.02-.19,1.42-.47l.2.37c-.42.26-.89.52-1.67.52-1.35,0-2.44-1.04-2.44-2.76ZM110.62,281.8c0-1.35-.61-2.02-1.56-2.02-.89,0-1.7.76-1.81,2.02h3.37Z"/>
    <path class="st8" d="M111.95,285.85c0-.46.3-.93.79-1.27v-.04c-.27-.16-.47-.44-.47-.85,0-.47.34-.81.58-.97v-.04c-.34-.28-.67-.81-.67-1.45,0-1.09.83-1.86,1.86-1.86.29,0,.54.06.7.13h1.79v.41h-1.23c.34.29.58.77.58,1.32,0,1.08-.81,1.87-1.85,1.87-.29,0-.63-.08-.87-.23-.23.19-.43.41-.43.76,0,.38.22.69,1.01.69h1.13c1.19,0,1.74.38,1.74,1.21,0,.91-.97,1.78-2.5,1.78-1.33,0-2.17-.57-2.17-1.46ZM116.12,285.58c0-.58-.42-.81-1.22-.81h-1.13c-.1,0-.38-.02-.65-.08-.49.33-.69.74-.69,1.11,0,.67.64,1.12,1.75,1.12,1.19,0,1.95-.67,1.95-1.34ZM115.41,281.22c0-.89-.62-1.46-1.37-1.46s-1.37.56-1.37,1.46.64,1.48,1.37,1.48,1.37-.6,1.37-1.48Z"/>
    <path class="st8" d="M117.75,284.06v-7.21h.49v7.27c0,.24.1.35.23.35.05,0,.09,0,.2-.02l.08.4c-.1.03-.19.05-.35.05-.42,0-.65-.26-.65-.84Z"/>
    <path class="st8" d="M119.92,282.14c0-1.72,1.12-2.78,2.3-2.78,1.25,0,2.02.89,2.02,2.44,0,.13,0,.26-.03.4h-3.8c.02,1.33.8,2.29,1.99,2.29.57,0,1.02-.19,1.42-.47l.2.37c-.42.26-.89.52-1.67.52-1.35,0-2.44-1.04-2.44-2.76ZM123.79,281.8c0-1.35-.61-2.02-1.56-2.02-.89,0-1.7.76-1.81,2.02h3.37Z"/>
    <path class="st8" d="M125.23,282.14c0-1.77,1.13-2.78,2.41-2.78.72,0,1.19.32,1.55.65l-.29.34c-.34-.32-.74-.56-1.25-.56-1.08,0-1.91.96-1.91,2.35s.76,2.33,1.91,2.33c.57,0,1.05-.27,1.42-.61l.25.34c-.45.4-1.02.7-1.69.7-1.36,0-2.4-1.02-2.4-2.76Z"/>
    <path class="st8" d="M130.63,283.31v-3.4h-.83v-.38l.84-.05.06-1.53h.41v1.53h1.53v.42h-1.53v3.44c0,.67.17,1.13.9,1.13.2,0,.47-.08.66-.17l.13.39c-.31.11-.64.2-.86.2-1.01,0-1.31-.64-1.31-1.59Z"/>
  </g>
  <g>
    <path class="st8" d="M100.79,328.55h.54l1.34,4.23c.28.89.47,1.56.77,2.43h.04c.3-.88.49-1.55.77-2.43l1.34-4.23h.51l-2.37,7.25h-.55l-2.39-7.25Z"/>
    <path class="st8" d="M106.57,333.17c0-1.72,1.12-2.78,2.3-2.78,1.25,0,2.02.89,2.02,2.45,0,.13,0,.26-.03.4h-3.8c.02,1.33.8,2.29,1.99,2.29.57,0,1.02-.19,1.42-.47l.2.37c-.42.26-.89.52-1.67.52-1.35,0-2.44-1.04-2.44-2.76ZM110.44,332.83c0-1.35-.61-2.02-1.56-2.02-.89,0-1.7.76-1.81,2.02h3.37Z"/>
    <path class="st8" d="M112.33,327.89h.49v3.46c.54-.55,1.09-.96,1.82-.96,1.09,0,1.6.66,1.6,2.03v3.39h-.49v-3.32c0-1.12-.35-1.65-1.2-1.65-.63,0-1.08.33-1.73.99v3.98h-.49v-7.91Z"/>
    <path class="st8" d="M117.95,328.81c0-.27.2-.43.44-.43s.44.16.44.43c0,.25-.2.43-.44.43s-.44-.18-.44-.43ZM118.14,330.52h.49v5.28h-.49v-5.28Z"/>
    <path class="st8" d="M120.21,333.17c0-1.77,1.13-2.78,2.41-2.78.72,0,1.19.32,1.55.65l-.29.34c-.34-.32-.74-.56-1.25-.56-1.08,0-1.91.96-1.91,2.35s.76,2.33,1.91,2.33c.57,0,1.05-.27,1.42-.61l.25.34c-.45.41-1.02.7-1.69.7-1.36,0-2.4-1.02-2.4-2.76Z"/>
    <path class="st8" d="M125.6,335.09v-7.21h.49v7.27c0,.24.1.35.23.35.05,0,.09,0,.2-.02l.08.4c-.1.03-.19.05-.35.05-.42,0-.65-.26-.65-.84Z"/>
    <path class="st8" d="M127.76,333.17c0-1.72,1.12-2.78,2.3-2.78,1.25,0,2.02.89,2.02,2.45,0,.13,0,.26-.03.4h-3.8c.02,1.33.8,2.29,1.99,2.29.57,0,1.02-.19,1.42-.47l.2.37c-.42.26-.89.52-1.67.52-1.35,0-2.44-1.04-2.44-2.76ZM131.63,332.83c0-1.35-.61-2.02-1.56-2.02-.89,0-1.7.76-1.81,2.02h3.37Z"/>
    <path class="st8" d="M98.66,346.37c0-1.77,1.13-2.78,2.41-2.78.72,0,1.19.32,1.55.65l-.29.34c-.34-.32-.74-.56-1.25-.56-1.08,0-1.91.96-1.91,2.35s.76,2.33,1.91,2.33c.57,0,1.05-.27,1.42-.61l.25.34c-.45.41-1.02.7-1.69.7-1.36,0-2.4-1.02-2.4-2.76Z"/>
    <path class="st8" d="M103.41,346.37c0-1.77,1.1-2.78,2.37-2.78s2.37,1.02,2.37,2.78-1.1,2.76-2.37,2.76-2.37-1.02-2.37-2.76ZM107.65,346.37c0-1.39-.79-2.35-1.86-2.35s-1.86.96-1.86,2.35.79,2.33,1.86,2.33,1.86-.94,1.86-2.33Z"/>
    <path class="st8" d="M109.73,348.29v-7.21h.49v7.27c0,.24.1.35.23.35.05,0,.09,0,.2-.02l.08.4c-.1.03-.19.05-.35.05-.42,0-.65-.26-.65-.84Z"/>
    <path class="st8" d="M112.34,348.29v-7.21h.49v7.27c0,.24.1.35.23.35.05,0,.09,0,.2-.02l.08.4c-.1.03-.19.05-.35.05-.42,0-.65-.26-.65-.84Z"/>
    <path class="st8" d="M114.76,342.01c0-.27.2-.43.44-.43s.44.16.44.43c0,.25-.2.43-.44.43s-.44-.18-.44-.43ZM114.94,343.72h.49v5.28h-.49v-5.28Z"/>
    <path class="st8" d="M116.81,348.4l.28-.35c.45.37.93.67,1.68.67.83,0,1.26-.49,1.26-1.04,0-.66-.68-.95-1.29-1.17-.8-.28-1.68-.61-1.68-1.51,0-.76.6-1.41,1.7-1.41.57,0,1.12.23,1.51.55l-.26.35c-.36-.27-.73-.48-1.26-.48-.82,0-1.2.47-1.2.96,0,.6.62.83,1.25,1.07.82.31,1.73.58,1.73,1.61,0,.8-.64,1.49-1.78,1.49-.78,0-1.46-.33-1.94-.73Z"/>
    <path class="st8" d="M121.73,342.01c0-.27.2-.43.44-.43s.44.16.44.43c0,.25-.2.43-.44.43s-.44-.18-.44-.43ZM121.92,343.72h.49v5.28h-.49v-5.28Z"/>
    <path class="st8" d="M123.99,346.37c0-1.77,1.1-2.78,2.37-2.78s2.37,1.02,2.37,2.78-1.1,2.76-2.37,2.76-2.37-1.02-2.37-2.76ZM128.23,346.37c0-1.39-.79-2.35-1.86-2.35s-1.86.96-1.86,2.35.79,2.33,1.86,2.33,1.86-.94,1.86-2.33Z"/>
    <path class="st8" d="M130.32,343.72h.41l.05.82h.02c.54-.54,1.09-.95,1.82-.95,1.09,0,1.6.66,1.6,2.03v3.39h-.49v-3.32c0-1.12-.35-1.65-1.2-1.65-.63,0-1.08.33-1.73.99v3.98h-.49v-5.28Z"/>
  </g>
  <g>
    <path class="st8" d="M104.62,393.35c0-2.29,1.24-3.73,2.99-3.73s2.99,1.44,2.99,3.73-1.24,3.78-2.99,3.78-2.99-1.48-2.99-3.78ZM110.06,393.35c0-2.01-.98-3.27-2.46-3.27s-2.46,1.26-2.46,3.27.98,3.32,2.46,3.32,2.46-1.31,2.46-3.32Z"/>
    <path class="st8" d="M112.33,395.54v-3.4h-.83v-.38l.84-.05.06-1.53h.41v1.53h1.53v.42h-1.53v3.44c0,.67.17,1.13.9,1.13.2,0,.47-.08.66-.17l.13.39c-.31.11-.64.2-.86.2-1.01,0-1.31-.64-1.31-1.59Z"/>
    <path class="st8" d="M115.64,389.08h.49v3.46c.54-.55,1.09-.96,1.82-.96,1.09,0,1.6.66,1.6,2.03v3.39h-.49v-3.32c0-1.12-.35-1.65-1.2-1.65-.63,0-1.08.33-1.73.99v3.98h-.49v-7.91Z"/>
    <path class="st8" d="M121,394.37c0-1.72,1.12-2.78,2.3-2.78,1.25,0,2.02.89,2.02,2.45,0,.13,0,.26-.03.4h-3.8c.02,1.33.8,2.29,1.99,2.29.57,0,1.02-.19,1.42-.47l.2.37c-.42.26-.89.52-1.67.52-1.35,0-2.44-1.04-2.44-2.76ZM124.87,394.02c0-1.35-.61-2.02-1.56-2.02-.89,0-1.7.76-1.81,2.02h3.37Z"/>
    <path class="st8" d="M126.76,391.71h.41l.05.99h.02c.36-.65.87-1.12,1.5-1.12.19,0,.35.02.52.11l-.11.44c-.18-.06-.28-.09-.48-.09-.48,0-1.04.36-1.44,1.36v3.59h-.49v-5.28Z"/>
    <path class="st8" d="M105.82,402.28h.49v3.46c.54-.55,1.09-.96,1.82-.96,1.09,0,1.6.66,1.6,2.03v3.39h-.49v-3.32c0-1.12-.35-1.65-1.2-1.65-.63,0-1.08.33-1.73.99v3.98h-.49v-7.91Z"/>
    <path class="st8" d="M111.25,408.88c0-1.17,1.06-1.73,3.41-1.99.02-.81-.21-1.68-1.25-1.68-.71,0-1.33.35-1.68.62l-.22-.36c.37-.26,1.11-.69,1.96-.69,1.25,0,1.67.91,1.67,2.04v3.38h-.41l-.05-.69h-.02c-.54.44-1.18.82-1.87.82-.84,0-1.53-.46-1.53-1.45ZM114.66,409.06v-1.8c-2.17.25-2.91.75-2.91,1.6,0,.76.51,1.05,1.12,1.05s1.14-.29,1.79-.85Z"/>
    <path class="st8" d="M117.03,404.91h.41l.05.99h.02c.36-.65.87-1.12,1.5-1.12.19,0,.35.02.52.11l-.11.44c-.18-.06-.28-.09-.48-.09-.48,0-1.04.36-1.44,1.36v3.59h-.49v-5.28Z"/>
    <path class="st8" d="M120.52,404.91h.41l.05.82h.02c.48-.54,1.08-.95,1.67-.95.85,0,1.27.43,1.46,1.08.6-.66,1.18-1.08,1.79-1.08,1.05,0,1.58.66,1.58,2.03v3.39h-.49v-3.32c0-1.12-.37-1.65-1.18-1.65-.5,0-1,.33-1.58.99v3.98h-.49v-3.32c0-1.12-.37-1.65-1.18-1.65-.48,0-1,.33-1.58.99v3.98h-.49v-5.28Z"/>
  </g>
  <text class="st14" transform="translate(174.91 150.74)"><tspan x="0" y="0">266</tspan></text>
  <text class="st14" transform="translate(237.81 214.95)"><tspan x="0" y="0">164</tspan></text>
  <text class="st14" transform="translate(305.63 279.19)"><tspan x="0" y="0">23</tspan></text>
  <text class="st14" transform="translate(369.86 341.18)"><tspan x="0" y="0">23</tspan></text>
  <text class="st14" transform="translate(437.69 407.65)"><tspan x="0" y="0">5</tspan></text>
  <text class="st11" transform="translate(176.89 214.95)"><tspan x="0" y="0">92</tspan></text>
  <text class="st12" transform="translate(180.48 279.19)"><tspan x="0" y="0">7</tspan></text>
  <text class="st13" transform="translate(180.76 345.19)"><tspan x="0" y="0">3</tspan></text>
  <text class="st12" transform="translate(180.76 407.65)"><tspan x="0" y="0">3</tspan></text>
  <text class="st13" transform="translate(241.4 279.19)"><tspan x="0" y="0">22</tspan></text>
  <text class="st12" transform="translate(244.99 345.19)"><tspan x="0" y="0">1</tspan></text>
  <text class="st12" transform="translate(245.9 407.65)"><tspan x="0" y="0">2</tspan></text>
  <text class="st12" transform="translate(310.98 343.42)"><tspan x="0" y="0">0</tspan></text>
  <text class="st12" transform="translate(310.98 407.65)"><tspan x="0" y="0">0</tspan></text>
  <text class="st12" transform="translate(373.45 409.17)"><tspan x="0" y="0">0</tspan></text>
  <g>
    <path class="st8" d="M4.93,24.97l-2.07-9.2c-.18-.84-.35-1.56-.49-2.16-.15-.6-.28-1.12-.4-1.56-.12-.44-.25-.86-.37-1.24H.58c-.09-.25-.14-.46-.14-.64,0-.17.05-.3.14-.4.09-.1.25-.15.46-.15h3.98c.09.25.14.46.14.64,0,.37-.2.55-.6.55h-.64c.12.75.28,1.63.47,2.62s.4,2.05.63,3.16c.23,1.11.47,2.21.71,3.29.25,1.08.48,2.09.71,3.02.21-.77.44-1.61.69-2.53.25-.92.49-1.87.75-2.86.25-.99.5-1.97.72-2.93.23-.97.44-1.87.62-2.73s.34-1.6.46-2.24h1.59c.41,0,.72.08.92.23s.34.46.44.92c.17.78.38,1.67.62,2.67.25,1,.51,2.04.78,3.14.28,1.1.56,2.19.85,3.28.29,1.09.57,2.11.83,3.06.25-.94.49-1.95.74-3.04.25-1.09.48-2.19.7-3.29.22-1.1.43-2.15.62-3.15.19-1,.36-1.87.49-2.62h-1.13c-.08-.25-.12-.46-.12-.64,0-.37.2-.55.6-.55h3.66c.09.25.14.46.14.64,0,.17-.05.3-.14.4s-.25.15-.46.15h-.69c-.12.46-.25.95-.38,1.47-.13.52-.26,1.07-.38,1.64-.12.57-.25,1.18-.39,1.83l-1.84,8.17c-.09.4-.23.67-.4.83-.18.15-.45.23-.82.23h-1.68l-3.31-13.04-3.08,11.98c-.09.41-.21.69-.37.84-.15.15-.43.22-.83.22h-1.72Z"/>
    <path class="st8" d="M23.03,23.78h.6c.03-.55.05-1.16.06-1.82,0-.66.01-1.3.01-1.91v-8.65c0-.49-.07-.81-.2-.95-.13-.15-.37-.22-.72-.22h-.25c-.05-.14-.08-.26-.1-.38-.02-.11-.03-.23-.03-.33,0-.37.21-.55.64-.55h2.6c0,.57-.01,1.26-.03,2.07-.02.81-.04,1.59-.04,2.32v1.77c.45-.41.95-.73,1.51-.94.56-.21,1.15-.32,1.76-.32,1.09,0,1.92.29,2.5.86.58.58.86,1.51.86,2.82v5.06c0,.34.02.59.07.76.05.17.12.28.23.33s.26.08.46.08h.39c.03.11.06.21.08.32.02.11.04.21.04.32,0,.37-.21.55-.62.55h-2.58c0-.38,0-.83.01-1.35,0-.51.02-1.05.03-1.6.01-.55.02-1.07.02-1.54v-1.73c0-.83-.08-1.49-.23-1.99-.15-.5-.4-.86-.75-1.08-.35-.22-.8-.33-1.37-.33-.81,0-1.42.24-1.82.71-.4.48-.6,1.2-.6,2.16v3.6c0,.67.02,1.31.05,1.94h1.08c.05.11.08.21.1.32.02.11.04.21.04.32,0,.37-.21.55-.62.55h-3.68c-.05-.12-.08-.23-.1-.33-.02-.1-.03-.2-.03-.31,0-.37.21-.55.64-.55Z"/>
    <path class="st8" d="M43.64,24.74l-1.72.23c-.11-.15-.2-.34-.29-.56-.08-.22-.14-.43-.17-.61-.4.49-.86.85-1.39,1.07s-1.14.33-1.83.33c-.95,0-1.74-.27-2.36-.81-.62-.54-.93-1.33-.93-2.39s.37-1.88,1.12-2.46c.74-.58,1.92-.87,3.53-.87h1.63v-.64c0-.77-.08-1.35-.25-1.76-.17-.41-.46-.69-.89-.85-.42-.16-1.02-.24-1.78-.24h-.67l-.34,1.24c-.14.06-.3.12-.5.16-.19.05-.38.07-.56.07-.17,0-.33-.06-.49-.2-.16-.13-.29-.3-.39-.51-.1-.21-.15-.42-.15-.63,0-.18.06-.34.2-.47.13-.13.36-.26.68-.4.4-.15.9-.29,1.51-.4.61-.11,1.25-.17,1.94-.17,1.26,0,2.17.26,2.73.78.56.52.84,1.45.84,2.78v5.22c0,.38.05.63.16.75.11.12.3.17.58.17h.44c.03.09.06.18.08.28.02.09.03.19.03.3,0,.18-.05.32-.16.41-.11.09-.3.15-.58.18ZM41.23,21.29v-1.29h-1.91c-.92,0-1.55.16-1.9.49-.34.33-.52.77-.52,1.32,0,.61.16,1.08.48,1.41s.79.49,1.4.49c.83,0,1.44-.22,1.84-.66.4-.44.6-1.03.6-1.78Z"/>
    <path class="st8" d="M46.91,21.8v-6.35h-1.61c-.05-.12-.08-.24-.12-.36-.03-.12-.05-.24-.05-.38,0-.41.22-.62.67-.62h1.1l.58-2.51.51.05c.31.02.51.09.62.22.11.13.16.39.16.77v1.47h3.38c.05.12.08.24.1.36.02.11.04.24.04.38,0,.41-.21.62-.64.62h-2.88v5.93c0,.86.11,1.46.32,1.81.21.35.57.52,1.06.52.29,0,.55-.06.78-.18.23-.12.44-.28.62-.48.2.05.38.15.53.31.15.16.23.35.23.56,0,.31-.23.6-.7.87s-1.08.41-1.83.41c-1,0-1.72-.28-2.18-.85-.46-.57-.69-1.42-.69-2.55Z"/>
    <path class="st8" d="M58.96,23.78h.6c.03-.55.05-1.16.06-1.82,0-.66.01-1.3.01-1.91v-8.65c0-.49-.07-.81-.2-.95-.13-.15-.37-.22-.72-.22h-.25c-.05-.14-.08-.26-.1-.38-.02-.11-.03-.23-.03-.33,0-.37.21-.55.64-.55h2.6c0,.57-.01,1.26-.04,2.07-.02.81-.03,1.59-.03,2.32v5.8c.35-.31.76-.69,1.22-1.14.46-.45.91-.92,1.35-1.39.44-.48.81-.9,1.12-1.26h-.87c-.03-.12-.06-.24-.09-.35-.03-.11-.05-.22-.05-.35,0-.38.21-.57.64-.57h3.45c.05.12.08.24.1.34.02.11.04.22.04.35,0,.18-.05.33-.14.43-.09.1-.26.15-.51.15h-.51c-.52.52-1.07,1.07-1.66,1.66-.58.58-1.13,1.13-1.66,1.63l2.71,3.96c.29.46.54.77.76.93s.46.24.74.24h.46c.03.11.06.21.08.32.02.11.03.21.03.32,0,.37-.21.55-.62.55h-2.32c-.09-.2-.26-.51-.5-.92-.24-.41-.51-.87-.83-1.38-.31-.51-.63-1.01-.96-1.51-.32-.5-.61-.92-.85-1.28l-1.15,1.15c0,.38,0,.82.01,1.32,0,.5.02.97.03,1.41h1.1c.03.11.06.21.08.32.02.11.03.21.03.32,0,.37-.21.55-.62.55h-3.68c-.05-.12-.08-.23-.1-.33-.02-.1-.03-.2-.03-.31,0-.37.21-.55.64-.55Z"/>
    <path class="st8" d="M70.37,23.78h.6c.03-.63.05-1.28.06-1.94s.01-1.27.01-1.81v-3.5c0-.49-.06-.81-.18-.95-.12-.15-.37-.22-.74-.22h-.25c-.05-.14-.08-.26-.1-.38-.02-.11-.03-.23-.03-.33,0-.37.21-.55.64-.55h2.6c0,.57-.01,1.23-.03,2-.02.77-.03,1.52-.03,2.25v1.68c0,.54,0,1.14.01,1.81,0,.67.02,1.31.03,1.94h1.1c.03.11.06.21.08.32.02.11.03.21.03.32,0,.37-.21.55-.62.55h-3.68c-.05-.12-.08-.23-.1-.33-.02-.1-.03-.2-.03-.31,0-.37.21-.55.64-.55ZM71.77,11.86c-.54,0-.91-.1-1.1-.29-.2-.19-.3-.49-.3-.89,0-.37.11-.66.33-.86.22-.21.58-.31,1.07-.31.52,0,.89.1,1.09.29.21.19.31.49.31.89,0,.37-.11.66-.33.86-.22.21-.58.31-1.07.31Z"/>
    <path class="st8" d="M76.16,23.78h.6c.03-.63.05-1.28.06-1.94s.01-1.27.01-1.81v-3.5c0-.49-.06-.81-.18-.95-.12-.15-.37-.22-.74-.22h-.25c-.05-.14-.08-.26-.1-.38-.02-.11-.03-.23-.03-.33,0-.37.21-.55.64-.55h2.21c.03.15.05.34.07.57.01.23.02.45.02.64.51-.48,1.05-.84,1.63-1.08.58-.25,1.2-.37,1.86-.37,1.09,0,1.92.29,2.5.86.57.58.86,1.51.86,2.82v5.06c0,.34.02.59.07.76.05.17.12.28.23.33s.26.08.46.08h.39c.05.11.08.21.09.32.01.11.02.21.02.32,0,.37-.21.55-.62.55h-2.58c0-.38,0-.83.02-1.35.01-.51.03-1.05.03-1.6,0-.55.01-1.07.01-1.54v-1.73c0-.83-.08-1.49-.23-1.99-.15-.5-.4-.86-.75-1.08s-.8-.33-1.37-.33c-.83,0-1.44.25-1.83.75-.39.5-.59,1.25-.59,2.24v1.68c0,.54,0,1.14.01,1.81,0,.67.02,1.31.03,1.94h1.1c.03.11.06.21.08.32.02.11.03.21.03.32,0,.37-.21.55-.62.55h-3.68c-.05-.12-.08-.23-.1-.33-.02-.1-.03-.2-.03-.31,0-.37.21-.55.64-.55Z"/>
    <path class="st8" d="M97.76,24.97h-2.02c-.06-.15-.11-.34-.16-.55-.05-.21-.08-.41-.09-.6-.34.41-.77.75-1.31,1-.54.25-1.15.38-1.84.38-1.32,0-2.36-.43-3.12-1.3-.76-.87-1.14-2.18-1.14-3.94,0-1.44.21-2.61.64-3.51.43-.9,1.01-1.55,1.75-1.97.74-.41,1.57-.62,2.51-.62.51,0,.95.03,1.32.1.38.07.69.16.96.26v-2.83c0-.49-.06-.81-.18-.95-.12-.15-.37-.22-.74-.22h-.55c-.03-.14-.06-.26-.08-.38-.02-.11-.03-.23-.03-.33,0-.37.21-.55.62-.55h2.9c0,.37,0,.81-.01,1.33s-.02,1.05-.03,1.59c-.02.54-.02,1.03-.02,1.47v9.41c0,.43.05.71.16.83s.31.18.6.18h.39c.05.11.08.21.1.32.02.11.03.21.03.32,0,.37-.21.55-.64.55ZM95.25,20.83v-5.04c-.26-.15-.59-.28-1-.39s-.86-.16-1.37-.16c-.84,0-1.52.31-2.04.93-.51.62-.77,1.7-.77,3.23,0,1.13.12,2.02.37,2.65.25.63.58,1.07,1.01,1.31.43.25.92.37,1.47.37.78,0,1.36-.26,1.75-.77.38-.51.58-1.22.58-2.13Z"/>
    <path class="st8" d="M107.9,21.8c0,.98-.37,1.79-1.1,2.44-.74.64-1.79.97-3.15.97-.86,0-1.6-.11-2.23-.33-.63-.22-1.11-.49-1.45-.81-.34-.31-.51-.62-.51-.93,0-.26.09-.48.29-.67.19-.18.42-.32.68-.41.35.46.79.87,1.3,1.23s1.18.54,1.99.54c.77,0,1.35-.14,1.74-.43.39-.28.59-.67.59-1.16s-.2-.89-.6-1.16c-.4-.27-.96-.5-1.68-.7l-.99-.28c-1.01-.28-1.76-.66-2.25-1.15-.49-.49-.74-1.13-.74-1.91,0-.63.16-1.18.48-1.66s.78-.85,1.37-1.12c.59-.27,1.3-.4,2.13-.4.78,0,1.45.1,1.99.31s.96.46,1.25.76c.29.3.44.59.44.89,0,.25-.09.45-.26.61-.18.16-.4.27-.68.33l-.28.07-.14-.21c-.29-.4-.65-.73-1.08-.99-.43-.26-.95-.39-1.56-.39-.55,0-.99.13-1.32.39-.33.26-.5.61-.5,1.06s.15.78.45,1.05c.3.27.79.49,1.46.66l.97.28c1.21.31,2.08.71,2.61,1.21.53.5.79,1.14.79,1.92Z"/>
    <path class="st8" d="M114.39,19.8c0-1.35.21-2.46.64-3.33.43-.87,1.02-1.53,1.77-1.96.75-.43,1.6-.64,2.55-.64,1.55,0,2.71.45,3.48,1.36s1.16,2.25,1.16,4.05c0,1.35-.21,2.46-.64,3.33-.43.87-1.02,1.53-1.76,1.96-.74.43-1.6.64-2.56.64-1.55,0-2.71-.45-3.48-1.36s-1.16-2.25-1.16-4.05ZM116.39,19.27c0,1.67.24,2.85.71,3.53.47.68,1.2,1.02,2.16,1.02.49,0,.94-.12,1.36-.37.41-.25.75-.66,1-1.25s.38-1.39.38-2.4c0-1.67-.24-2.85-.71-3.53-.48-.68-1.2-1.02-2.16-1.02-.49,0-.94.12-1.36.37s-.75.66-1,1.24c-.25.58-.38,1.39-.38,2.42Z"/>
    <path class="st8" d="M126.44,23.78h.6c.03-.52.05-1.1.06-1.73,0-.63.01-1.21.01-1.75v-4.85h-1.61c-.05-.12-.08-.24-.11-.36-.03-.12-.05-.24-.05-.38,0-.41.22-.62.67-.62h1.1c0-1.2.1-2.19.3-2.99.2-.8.56-1.39,1.08-1.78.52-.39,1.26-.59,2.21-.59.72,0,1.24.1,1.55.3.31.2.47.45.47.76,0,.2-.06.38-.17.53s-.26.28-.45.39c-.31-.17-.62-.3-.93-.39-.31-.09-.63-.14-.95-.14-.49,0-.82.15-.99.46-.17.31-.25.85-.25,1.63v1.82h2.83c.05.12.08.24.1.36.02.11.03.24.03.38,0,.41-.21.62-.64.62h-2.32v4.97c0,.46,0,1,.01,1.61s.02,1.2.04,1.75h1.4c.03.11.06.21.08.32.02.11.03.21.03.32,0,.37-.21.55-.62.55h-3.98c-.05-.12-.08-.23-.1-.33-.02-.1-.03-.2-.03-.31,0-.37.21-.55.64-.55Z"/>
    <path class="st8" d="M138.58,23.78h.6c.03-.55.05-1.16.06-1.82,0-.66.01-1.3.01-1.91v-8.65c0-.49-.07-.81-.2-.95-.13-.15-.37-.22-.72-.22h-.25c-.05-.14-.08-.26-.1-.38-.02-.11-.03-.23-.03-.33,0-.37.21-.55.64-.55h2.6c0,.57-.01,1.26-.03,2.07-.02.81-.04,1.59-.04,2.32v1.77c.45-.41.95-.73,1.51-.94.56-.21,1.15-.32,1.76-.32,1.09,0,1.92.29,2.5.86.58.58.86,1.51.86,2.82v5.06c0,.34.02.59.07.76.05.17.12.28.23.33s.26.08.46.08h.39c.03.11.06.21.08.32.02.11.04.21.04.32,0,.37-.21.55-.62.55h-2.58c0-.38,0-.83.01-1.35,0-.51.02-1.05.03-1.6.01-.55.02-1.07.02-1.54v-1.73c0-.83-.08-1.49-.23-1.99-.15-.5-.4-.86-.75-1.08-.35-.22-.8-.33-1.37-.33-.81,0-1.42.24-1.82.71-.4.48-.6,1.2-.6,2.16v3.6c0,.67.02,1.31.05,1.94h1.08c.05.11.08.21.1.32.02.11.04.21.04.32,0,.37-.21.55-.62.55h-3.68c-.05-.12-.08-.23-.1-.33-.02-.1-.03-.2-.03-.31,0-.37.21-.55.64-.55Z"/>
    <path class="st8" d="M159.19,24.74l-1.72.23c-.11-.15-.2-.34-.29-.56-.08-.22-.14-.43-.17-.61-.4.49-.86.85-1.39,1.07s-1.14.33-1.83.33c-.95,0-1.74-.27-2.36-.81-.62-.54-.93-1.33-.93-2.39s.37-1.88,1.12-2.46c.74-.58,1.92-.87,3.53-.87h1.63v-.64c0-.77-.08-1.35-.25-1.76-.17-.41-.46-.69-.89-.85-.42-.16-1.02-.24-1.78-.24h-.67l-.34,1.24c-.14.06-.3.12-.5.16-.19.05-.38.07-.56.07-.17,0-.33-.06-.49-.2-.16-.13-.29-.3-.39-.51-.1-.21-.15-.42-.15-.63,0-.18.06-.34.2-.47.13-.13.36-.26.68-.4.4-.15.9-.29,1.51-.4.61-.11,1.25-.17,1.94-.17,1.26,0,2.17.26,2.73.78.56.52.84,1.45.84,2.78v5.22c0,.38.05.63.16.75.11.12.3.17.58.17h.44c.03.09.06.18.08.28.02.09.03.19.03.3,0,.18-.05.32-.16.41-.11.09-.3.15-.58.18ZM156.77,21.29v-1.29h-1.91c-.92,0-1.55.16-1.9.49-.34.33-.52.77-.52,1.32,0,.61.16,1.08.48,1.41s.79.49,1.4.49c.83,0,1.44-.22,1.84-.66.4-.44.6-1.03.6-1.78Z"/>
    <path class="st8" d="M161.86,23.78h.6c.03-.63.05-1.28.06-1.94s.01-1.27.01-1.81v-3.5c0-.49-.06-.81-.18-.95-.12-.15-.37-.22-.74-.22h-.25c-.05-.14-.08-.26-.1-.38-.02-.11-.03-.23-.03-.33,0-.37.21-.55.64-.55h2.21c.03.15.05.36.07.62.01.26.02.54.02.83.58-.6,1.19-1.03,1.83-1.29.64-.26,1.24-.39,1.81-.39.29,0,.5.06.63.17.13.12.2.31.2.59,0,.32-.05.61-.16.86-.11.25-.22.42-.32.49-.15.11-.36.18-.61.22-.25.04-.5.06-.75.06l-.32-.87c-.72.26-1.25.63-1.58,1.1s-.49,1.19-.49,2.14v1.4c0,.54,0,1.14.01,1.81,0,.67.02,1.31.03,1.94h1.4c.03.11.06.21.08.32.02.11.03.21.03.32,0,.37-.21.55-.62.55h-3.98c-.05-.12-.08-.23-.1-.33-.02-.1-.03-.2-.03-.31,0-.37.21-.55.64-.55Z"/>
    <path class="st8" d="M170.41,23.78h.6c.03-.63.05-1.28.06-1.94s.01-1.27.01-1.81v-3.5c0-.49-.06-.81-.18-.95-.12-.15-.37-.22-.74-.22h-.25c-.05-.14-.08-.26-.1-.38-.02-.11-.03-.23-.03-.33,0-.37.21-.55.64-.55h2.21c.03.15.05.34.07.57.01.23.02.45.02.64.51-.48,1.05-.84,1.63-1.08.58-.25,1.2-.37,1.86-.37s1.27.13,1.74.39.82.65,1.05,1.17c.51-.54,1.05-.93,1.62-1.18.58-.25,1.22-.38,1.92-.38,1.07,0,1.88.29,2.4.86.53.58.79,1.51.79,2.82v5.06c0,.34.02.59.07.76.05.17.12.28.23.33s.26.08.46.08h.39c.06.11.1.21.12.32.02.11.02.21.02.32,0,.37-.21.55-.64.55h-2.58c.02-.38.03-.83.04-1.35,0-.51.01-1.05.02-1.6,0-.55.01-1.07.01-1.54v-1.73c0-1.24-.17-2.12-.49-2.63-.33-.51-.89-.77-1.67-.77s-1.39.25-1.78.75c-.39.5-.59,1.25-.59,2.24v1.68c0,.54,0,1.14.01,1.81s.03,1.31.06,1.94h.97c.05.11.08.21.1.32.02.11.03.21.03.32,0,.37-.21.55-.64.55h-3.4c-.05-.12-.08-.23-.1-.33-.02-.1-.03-.2-.03-.31,0-.37.21-.55.64-.55h.44c.03-.61.05-1.25.06-1.9s.01-1.24.01-1.76v-1.33c0-1.24-.17-2.12-.5-2.65-.33-.52-.88-.78-1.64-.78-.81,0-1.41.25-1.81.75-.39.5-.59,1.25-.59,2.24v1.68c0,.54,0,1.14.01,1.81,0,.67.02,1.31.03,1.94h.92c.03.11.06.21.08.32.02.11.04.21.04.32,0,.37-.21.55-.62.55h-3.5c-.05-.12-.08-.23-.1-.33-.02-.1-.03-.2-.03-.31,0-.37.21-.55.64-.55Z"/>
    <path class="st8" d="M203.26,24.97h-2.02c-.06-.15-.11-.34-.16-.55-.05-.21-.08-.41-.09-.6-.34.41-.77.75-1.31,1-.54.25-1.15.38-1.84.38-1.32,0-2.36-.43-3.12-1.3-.76-.87-1.14-2.18-1.14-3.94,0-1.44.21-2.61.64-3.51.43-.9,1.01-1.55,1.75-1.97.74-.41,1.57-.62,2.51-.62.51,0,.95.03,1.32.1.38.07.69.16.96.26v-2.83c0-.49-.06-.81-.18-.95-.12-.15-.37-.22-.74-.22h-.55c-.03-.14-.06-.26-.08-.38-.02-.11-.03-.23-.03-.33,0-.37.21-.55.62-.55h2.9c0,.37,0,.81-.01,1.33s-.02,1.05-.03,1.59c-.02.54-.02,1.03-.02,1.47v9.41c0,.43.05.71.16.83s.31.18.6.18h.39c.05.11.08.21.1.32.02.11.03.21.03.32,0,.37-.21.55-.64.55ZM200.75,20.83v-5.04c-.26-.15-.59-.28-1-.39s-.86-.16-1.37-.16c-.84,0-1.52.31-2.04.93-.51.62-.77,1.7-.77,3.23,0,1.13.12,2.02.37,2.65.25.63.58,1.07,1.01,1.31.43.25.92.37,1.47.37.78,0,1.36-.26,1.75-.77.38-.51.58-1.22.58-2.13Z"/>
    <path class="st8" d="M205.85,23.78h.6c.03-.63.05-1.28.06-1.94s.01-1.27.01-1.81v-3.5c0-.49-.06-.81-.18-.95-.12-.15-.37-.22-.74-.22h-.25c-.05-.14-.08-.26-.1-.38-.02-.11-.03-.23-.03-.33,0-.37.21-.55.64-.55h2.6c0,.57-.01,1.23-.03,2-.02.77-.03,1.52-.03,2.25v1.68c0,.54,0,1.14.01,1.81,0,.67.02,1.31.03,1.94h1.1c.03.11.06.21.08.32.02.11.03.21.03.32,0,.37-.21.55-.62.55h-3.68c-.05-.12-.08-.23-.1-.33-.02-.1-.03-.2-.03-.31,0-.37.21-.55.64-.55ZM207.26,11.86c-.54,0-.91-.1-1.1-.29-.2-.19-.3-.49-.3-.89,0-.37.11-.66.33-.86.22-.21.58-.31,1.07-.31.52,0,.89.1,1.09.29.21.19.31.49.31.89,0,.37-.11.66-.33.86-.22.21-.58.31-1.07.31Z"/>
    <path class="st8" d="M220.85,24.97h-2.02c-.06-.15-.11-.34-.16-.55-.05-.21-.08-.41-.09-.6-.34.41-.77.75-1.31,1-.54.25-1.15.38-1.84.38-1.32,0-2.36-.43-3.12-1.3-.76-.87-1.14-2.18-1.14-3.94,0-1.44.21-2.61.64-3.51.43-.9,1.01-1.55,1.75-1.97.74-.41,1.57-.62,2.51-.62.51,0,.95.03,1.32.1.38.07.69.16.96.26v-2.83c0-.49-.06-.81-.18-.95-.12-.15-.37-.22-.74-.22h-.55c-.03-.14-.06-.26-.08-.38-.02-.11-.03-.23-.03-.33,0-.37.21-.55.62-.55h2.9c0,.37,0,.81-.01,1.33s-.02,1.05-.03,1.59c-.02.54-.02,1.03-.02,1.47v9.41c0,.43.05.71.16.83s.31.18.6.18h.39c.05.11.08.21.1.32.02.11.03.21.03.32,0,.37-.21.55-.64.55ZM218.34,20.83v-5.04c-.26-.15-.59-.28-1-.39s-.86-.16-1.37-.16c-.84,0-1.52.31-2.04.93-.51.62-.77,1.7-.77,3.23,0,1.13.12,2.02.37,2.65.25.63.58,1.07,1.01,1.31.43.25.92.37,1.47.37.78,0,1.36-.26,1.75-.77.38-.51.58-1.22.58-2.13Z"/>
    <path class="st8" d="M235.36,16.97l-.18-.25c-.29-.43-.62-.77-.98-1.04s-.84-.39-1.44-.39c-.51,0-.97.13-1.38.38-.41.25-.74.66-.99,1.23-.25.57-.37,1.34-.37,2.32,0,1.09.13,1.96.39,2.62s.62,1.13,1.09,1.43c.47.29,1.01.44,1.62.44s1.08-.12,1.51-.36c.42-.24.81-.59,1.16-1.07.25.06.45.17.62.33s.25.36.25.61c0,.31-.16.61-.48.91-.32.3-.76.55-1.32.76s-1.19.31-1.9.31c-1.61,0-2.84-.46-3.68-1.37-.84-.91-1.26-2.27-1.26-4.08,0-1.33.22-2.44.66-3.31.44-.87,1.03-1.52,1.78-1.94.75-.42,1.6-.63,2.55-.63.8,0,1.47.11,2.01.32.54.21.96.48,1.24.81.28.32.43.64.43.94,0,.44-.34.76-1.01.94l-.32.09Z"/>
    <path class="st8" d="M238.29,19.8c0-1.35.21-2.46.64-3.33.43-.87,1.02-1.53,1.77-1.96.75-.43,1.6-.64,2.55-.64,1.55,0,2.71.45,3.48,1.36s1.16,2.25,1.16,4.05c0,1.35-.21,2.46-.64,3.33-.43.87-1.02,1.53-1.76,1.96-.74.43-1.6.64-2.56.64-1.55,0-2.71-.45-3.48-1.36s-1.16-2.25-1.16-4.05ZM240.29,19.27c0,1.67.24,2.85.71,3.53.47.68,1.2,1.02,2.16,1.02.49,0,.94-.12,1.36-.37.41-.25.75-.66,1-1.25s.38-1.39.38-2.4c0-1.67-.24-2.85-.71-3.53-.48-.68-1.2-1.02-2.16-1.02-.49,0-.94.12-1.36.37s-.75.66-1,1.24c-.25.58-.38,1.39-.38,2.42Z"/>
    <path class="st8" d="M250.18,23.78h.6c.03-.63.05-1.28.06-1.94s.01-1.27.01-1.81v-3.5c0-.49-.06-.81-.18-.95-.12-.15-.37-.22-.74-.22h-.25c-.05-.14-.08-.26-.1-.38-.02-.11-.03-.23-.03-.33,0-.37.21-.55.64-.55h2.21c.03.15.05.34.07.57.01.23.02.45.02.64.51-.48,1.05-.84,1.63-1.08.58-.25,1.2-.37,1.86-.37s1.27.13,1.74.39.82.65,1.05,1.17c.51-.54,1.05-.93,1.62-1.18.58-.25,1.22-.38,1.92-.38,1.07,0,1.88.29,2.4.86.53.58.79,1.51.79,2.82v5.06c0,.34.02.59.07.76.05.17.12.28.23.33s.26.08.46.08h.39c.06.11.1.21.12.32.02.11.02.21.02.32,0,.37-.21.55-.64.55h-2.58c.02-.38.03-.83.04-1.35,0-.51.01-1.05.02-1.6,0-.55.01-1.07.01-1.54v-1.73c0-1.24-.17-2.12-.49-2.63-.33-.51-.89-.77-1.67-.77s-1.39.25-1.78.75c-.39.5-.59,1.25-.59,2.24v1.68c0,.54,0,1.14.01,1.81s.03,1.31.06,1.94h.97c.05.11.08.21.1.32.02.11.03.21.03.32,0,.37-.21.55-.64.55h-3.4c-.05-.12-.08-.23-.1-.33-.02-.1-.03-.2-.03-.31,0-.37.21-.55.64-.55h.44c.03-.61.05-1.25.06-1.9s.01-1.24.01-1.76v-1.33c0-1.24-.17-2.12-.5-2.65-.33-.52-.88-.78-1.64-.78-.81,0-1.41.25-1.81.75-.39.5-.59,1.25-.59,2.24v1.68c0,.54,0,1.14.01,1.81,0,.67.02,1.31.03,1.94h.92c.03.11.06.21.08.32.02.11.04.21.04.32,0,.37-.21.55-.62.55h-3.5c-.05-.12-.08-.23-.1-.33-.02-.1-.03-.2-.03-.31,0-.37.21-.55.64-.55Z"/>
    <path class="st8" d="M268.69,28.72h.6c.03-.58.05-1.19.06-1.83,0-.64.01-1.2.01-1.69v-8.67c0-.49-.06-.81-.18-.95-.12-.15-.37-.22-.74-.22h-.25c-.05-.14-.08-.26-.1-.38-.02-.11-.03-.23-.03-.33,0-.37.21-.55.64-.55h2.19c.05.15.07.34.08.56s.02.43.04.61c.37-.43.82-.77,1.34-1.02.53-.25,1.13-.38,1.81-.38.87,0,1.63.19,2.27.56.64.38,1.13.95,1.47,1.71.35.77.52,1.74.52,2.92,0,1.43-.21,2.59-.64,3.5-.43.9-1.01,1.57-1.75,2s-1.56.64-2.48.64c-.52,0-.97-.05-1.33-.15-.37-.1-.69-.22-.97-.36v2.24c0,.62.02,1.22.05,1.78h1.4c.03.11.06.21.08.32.02.11.04.21.04.32,0,.37-.21.55-.62.55h-3.98c-.05-.12-.08-.23-.1-.33-.02-.1-.03-.2-.03-.31,0-.37.21-.55.64-.55ZM271.22,18.37v4.81c.26.18.59.34.99.46.4.12.86.18,1.38.18s1.02-.13,1.44-.39.75-.69,1-1.3c.25-.61.37-1.44.37-2.5,0-1.13-.12-2.02-.37-2.65-.25-.63-.58-1.07-1-1.32-.42-.25-.92-.38-1.48-.38-.8,0-1.38.27-1.76.82-.38.54-.56,1.3-.56,2.27Z"/>
    <path class="st8" d="M280.53,23.78h.6c.03-.55.05-1.16.06-1.82,0-.66.01-1.3.01-1.91v-8.65c0-.49-.07-.81-.2-.95-.13-.15-.37-.22-.72-.22h-.25c-.05-.14-.08-.26-.1-.38-.02-.11-.03-.23-.03-.33,0-.37.21-.55.64-.55h2.6c0,.57-.01,1.26-.04,2.07-.02.81-.03,1.59-.03,2.32v6.67c0,.54,0,1.14.01,1.81s.02,1.31.03,1.94h1.1c.03.11.06.21.08.32.02.11.03.21.03.32,0,.37-.21.55-.62.55h-3.68c-.05-.12-.08-.23-.1-.33-.02-.1-.03-.2-.03-.31,0-.37.21-.55.64-.55Z"/>
    <path class="st8" d="M294.52,24.74l-1.72.23c-.11-.15-.2-.34-.29-.56-.08-.22-.14-.43-.17-.61-.4.49-.86.85-1.39,1.07s-1.14.33-1.83.33c-.95,0-1.74-.27-2.36-.81-.62-.54-.93-1.33-.93-2.39s.37-1.88,1.12-2.46c.74-.58,1.92-.87,3.53-.87h1.63v-.64c0-.77-.08-1.35-.25-1.76-.17-.41-.46-.69-.89-.85-.42-.16-1.02-.24-1.78-.24h-.67l-.34,1.24c-.14.06-.3.12-.5.16-.19.05-.38.07-.56.07-.17,0-.33-.06-.49-.2-.16-.13-.29-.3-.39-.51-.1-.21-.15-.42-.15-.63,0-.18.06-.34.2-.47.13-.13.36-.26.68-.4.4-.15.9-.29,1.51-.4.61-.11,1.25-.17,1.94-.17,1.26,0,2.17.26,2.73.78.56.52.84,1.45.84,2.78v5.22c0,.38.05.63.16.75.11.12.3.17.58.17h.44c.03.09.06.18.08.28.02.09.03.19.03.3,0,.18-.05.32-.16.41-.11.09-.3.15-.58.18ZM292.1,21.29v-1.29h-1.91c-.92,0-1.55.16-1.9.49-.34.33-.52.77-.52,1.32,0,.61.16,1.08.48,1.41s.79.49,1.4.49c.83,0,1.44-.22,1.84-.66.4-.44.6-1.03.6-1.78Z"/>
    <path class="st8" d="M297.19,23.78h.6c.03-.63.05-1.28.06-1.94s.01-1.27.01-1.81v-3.5c0-.49-.06-.81-.18-.95-.12-.15-.37-.22-.74-.22h-.25c-.05-.14-.08-.26-.1-.38-.02-.11-.03-.23-.03-.33,0-.37.21-.55.64-.55h2.6c0,.57-.01,1.23-.03,2-.02.77-.03,1.52-.03,2.25v1.68c0,.54,0,1.14.01,1.81,0,.67.02,1.31.03,1.94h1.1c.03.11.06.21.08.32.02.11.03.21.03.32,0,.37-.21.55-.62.55h-3.68c-.05-.12-.08-.23-.1-.33-.02-.1-.03-.2-.03-.31,0-.37.21-.55.64-.55ZM298.59,11.86c-.54,0-.91-.1-1.1-.29-.2-.19-.3-.49-.3-.89,0-.37.11-.66.33-.86.22-.21.58-.31,1.07-.31.52,0,.89.1,1.09.29.21.19.31.49.31.89,0,.37-.11.66-.33.86-.22.21-.58.31-1.07.31Z"/>
    <path class="st8" d="M302.98,23.78h.6c.03-.63.05-1.28.06-1.94s.01-1.27.01-1.81v-3.5c0-.49-.06-.81-.18-.95-.12-.15-.37-.22-.74-.22h-.25c-.05-.14-.08-.26-.1-.38-.02-.11-.03-.23-.03-.33,0-.37.21-.55.64-.55h2.21c.03.15.05.34.07.57.01.23.02.45.02.64.51-.48,1.05-.84,1.63-1.08.58-.25,1.2-.37,1.86-.37,1.09,0,1.92.29,2.5.86.57.58.86,1.51.86,2.82v5.06c0,.34.02.59.07.76.05.17.12.28.23.33s.26.08.46.08h.39c.05.11.08.21.09.32.01.11.02.21.02.32,0,.37-.21.55-.62.55h-2.58c0-.38,0-.83.02-1.35.01-.51.03-1.05.03-1.6,0-.55.01-1.07.01-1.54v-1.73c0-.83-.08-1.49-.23-1.99-.15-.5-.4-.86-.75-1.08s-.8-.33-1.37-.33c-.83,0-1.44.25-1.83.75-.39.5-.59,1.25-.59,2.24v1.68c0,.54,0,1.14.01,1.81,0,.67.02,1.31.03,1.94h1.1c.03.11.06.21.08.32.02.11.03.21.03.32,0,.37-.21.55-.62.55h-3.68c-.05-.12-.08-.23-.1-.33-.02-.1-.03-.2-.03-.31,0-.37.21-.55.64-.55Z"/>
    <path class="st8" d="M315.98,21.8v-6.35h-1.61c-.05-.12-.08-.24-.12-.36-.03-.12-.05-.24-.05-.38,0-.41.22-.62.67-.62h1.1l.58-2.51.51.05c.31.02.51.09.62.22.11.13.16.39.16.77v1.47h3.38c.05.12.08.24.1.36.02.11.04.24.04.38,0,.41-.21.62-.64.62h-2.88v5.93c0,.86.11,1.46.32,1.81.21.35.57.52,1.06.52.29,0,.55-.06.78-.18.23-.12.44-.28.62-.48.2.05.38.15.53.31.15.16.23.35.23.56,0,.31-.23.6-.7.87s-1.08.41-1.83.41c-1,0-1.72-.28-2.18-.85-.46-.57-.69-1.42-.69-2.55Z"/>
    <path class="st8" d="M330.63,21.8c0,.98-.37,1.79-1.1,2.44-.74.64-1.79.97-3.15.97-.86,0-1.6-.11-2.23-.33-.63-.22-1.11-.49-1.45-.81-.34-.31-.51-.62-.51-.93,0-.26.09-.48.29-.67.19-.18.42-.32.68-.41.35.46.79.87,1.3,1.23s1.18.54,1.99.54c.77,0,1.35-.14,1.74-.43.39-.28.59-.67.59-1.16s-.2-.89-.6-1.16c-.4-.27-.96-.5-1.68-.7l-.99-.28c-1.01-.28-1.76-.66-2.25-1.15-.49-.49-.74-1.13-.74-1.91,0-.63.16-1.18.48-1.66s.78-.85,1.37-1.12c.59-.27,1.3-.4,2.13-.4.78,0,1.45.1,1.99.31s.96.46,1.25.76c.29.3.44.59.44.89,0,.25-.09.45-.26.61-.18.16-.4.27-.68.33l-.28.07-.14-.21c-.29-.4-.65-.73-1.08-.99-.43-.26-.95-.39-1.56-.39-.55,0-.99.13-1.32.39-.33.26-.5.61-.5,1.06s.15.78.45,1.05c.3.27.79.49,1.46.66l.97.28c1.21.31,2.08.71,2.61,1.21.53.5.79,1.14.79,1.92Z"/>
    <path class="st8" d="M337.6,23.78h.6c.03-.63.05-1.28.06-1.94s.01-1.27.01-1.81v-3.5c0-.49-.06-.81-.18-.95-.12-.15-.37-.22-.74-.22h-.25c-.05-.14-.08-.26-.1-.38-.02-.11-.03-.23-.03-.33,0-.37.21-.55.64-.55h2.6c0,.57-.01,1.23-.03,2-.02.77-.03,1.52-.03,2.25v1.68c0,.54,0,1.14.01,1.81,0,.67.02,1.31.03,1.94h1.1c.03.11.06.21.08.32.02.11.03.21.03.32,0,.37-.21.55-.62.55h-3.68c-.05-.12-.08-.23-.1-.33-.02-.1-.03-.2-.03-.31,0-.37.21-.55.64-.55ZM339,11.86c-.54,0-.91-.1-1.1-.29-.2-.19-.3-.49-.3-.89,0-.37.11-.66.33-.86.22-.21.58-.31,1.07-.31.52,0,.89.1,1.09.29.21.19.31.49.31.89,0,.37-.11.66-.33.86-.22.21-.58.31-1.07.31Z"/>
    <path class="st8" d="M343.39,23.78h.6c.03-.63.05-1.28.06-1.94s.01-1.27.01-1.81v-3.5c0-.49-.06-.81-.18-.95-.12-.15-.37-.22-.74-.22h-.25c-.05-.14-.08-.26-.1-.38-.02-.11-.03-.23-.03-.33,0-.37.21-.55.64-.55h2.21c.03.15.05.34.07.57.01.23.02.45.02.64.51-.48,1.05-.84,1.63-1.08.58-.25,1.2-.37,1.86-.37,1.09,0,1.92.29,2.5.86.57.58.86,1.51.86,2.82v5.06c0,.34.02.59.07.76.05.17.12.28.23.33s.26.08.46.08h.39c.05.11.08.21.09.32.01.11.02.21.02.32,0,.37-.21.55-.62.55h-2.58c0-.38,0-.83.02-1.35.01-.51.03-1.05.03-1.6,0-.55.01-1.07.01-1.54v-1.73c0-.83-.08-1.49-.23-1.99-.15-.5-.4-.86-.75-1.08s-.8-.33-1.37-.33c-.83,0-1.44.25-1.83.75-.39.5-.59,1.25-.59,2.24v1.68c0,.54,0,1.14.01,1.81,0,.67.02,1.31.03,1.94h1.1c.03.11.06.21.08.32.02.11.03.21.03.32,0,.37-.21.55-.62.55h-3.68c-.05-.12-.08-.23-.1-.33-.02-.1-.03-.2-.03-.31,0-.37.21-.55.64-.55Z"/>
    <path class="st8" d="M358.55,24.97l-2.69-8.42c-.15-.48-.31-.79-.47-.95s-.43-.24-.79-.24h-.25c-.05-.14-.08-.26-.09-.38-.02-.11-.02-.23-.02-.33,0-.17.05-.3.14-.4.09-.1.25-.15.48-.15h2.46l.32,1.54c.08.38.2.89.37,1.51s.36,1.3.58,2.02c.21.73.44,1.44.68,2.14.24.7.46,1.32.66,1.87.2-.58.41-1.22.64-1.91.23-.69.45-1.4.67-2.12s.41-1.41.6-2.07c.18-.66.34-1.23.46-1.72h-.92c-.05-.12-.08-.24-.1-.35-.02-.11-.04-.22-.04-.35,0-.38.21-.57.62-.57h3.38c.05.12.08.24.1.34.02.11.04.22.04.35,0,.18-.05.33-.14.43-.09.1-.26.15-.51.15h-.6c-.48,1.4-.95,2.79-1.43,4.19-.48,1.4-.94,2.79-1.4,4.19-.09.28-.19.51-.29.69-.1.18-.23.32-.4.41-.17.09-.41.14-.71.14h-1.33Z"/>
    <path class="st8" d="M366.3,19.8c0-1.35.21-2.46.64-3.33.43-.87,1.02-1.53,1.77-1.96.75-.43,1.6-.64,2.55-.64,1.55,0,2.71.45,3.48,1.36s1.16,2.25,1.16,4.05c0,1.35-.21,2.46-.64,3.33-.43.87-1.02,1.53-1.76,1.96-.74.43-1.6.64-2.56.64-1.55,0-2.71-.45-3.48-1.36s-1.16-2.25-1.16-4.05ZM368.3,19.27c0,1.67.24,2.85.71,3.53.47.68,1.2,1.02,2.16,1.02.49,0,.94-.12,1.36-.37.41-.25.75-.66,1-1.25s.38-1.39.38-2.4c0-1.67-.24-2.85-.71-3.53-.48-.68-1.2-1.02-2.16-1.02-.49,0-.94.12-1.36.37s-.75.66-1,1.24c-.25.58-.38,1.39-.38,2.42Z"/>
    <path class="st8" d="M378.07,23.78h.6c.03-.55.05-1.16.06-1.82,0-.66.01-1.3.01-1.91v-8.65c0-.49-.07-.81-.2-.95-.13-.15-.37-.22-.72-.22h-.25c-.05-.14-.08-.26-.1-.38-.02-.11-.03-.23-.03-.33,0-.37.21-.55.64-.55h2.6c0,.57-.01,1.26-.04,2.07-.02.81-.03,1.59-.03,2.32v6.67c0,.54,0,1.14.01,1.81s.02,1.31.03,1.94h1.1c.03.11.06.21.08.32.02.11.03.21.03.32,0,.37-.21.55-.62.55h-3.68c-.05-.12-.08-.23-.1-.33-.02-.1-.03-.2-.03-.31,0-.37.21-.55.64-.55Z"/>
    <path class="st8" d="M386.98,24.97l-2.69-8.42c-.15-.48-.31-.79-.47-.95s-.43-.24-.79-.24h-.25c-.05-.14-.08-.26-.09-.38-.02-.11-.02-.23-.02-.33,0-.17.05-.3.14-.4.09-.1.25-.15.48-.15h2.46l.32,1.54c.08.38.2.89.37,1.51s.36,1.3.58,2.02c.21.73.44,1.44.68,2.14.24.7.46,1.32.66,1.87.2-.58.41-1.22.64-1.91.23-.69.45-1.4.67-2.12s.41-1.41.6-2.07c.18-.66.34-1.23.46-1.72h-.92c-.05-.12-.08-.24-.1-.35-.02-.11-.04-.22-.04-.35,0-.38.21-.57.62-.57h3.38c.05.12.08.24.1.34.02.11.04.22.04.35,0,.18-.05.33-.14.43-.09.1-.26.15-.51.15h-.6c-.48,1.4-.95,2.79-1.43,4.19-.48,1.4-.94,2.79-1.4,4.19-.09.28-.19.51-.29.69-.1.18-.23.32-.4.41-.17.09-.41.14-.71.14h-1.33Z"/>
    <path class="st8" d="M395.35,23.78h.6c.03-.63.05-1.28.06-1.94s.01-1.27.01-1.81v-3.5c0-.49-.06-.81-.18-.95-.12-.15-.37-.22-.74-.22h-.25c-.05-.14-.08-.26-.1-.38-.02-.11-.03-.23-.03-.33,0-.37.21-.55.64-.55h2.6c0,.57-.01,1.23-.03,2-.02.77-.03,1.52-.03,2.25v1.68c0,.54,0,1.14.01,1.81,0,.67.02,1.31.03,1.94h1.1c.03.11.06.21.08.32.02.11.03.21.03.32,0,.37-.21.55-.62.55h-3.68c-.05-.12-.08-.23-.1-.33-.02-.1-.03-.2-.03-.31,0-.37.21-.55.64-.55ZM396.75,11.86c-.54,0-.91-.1-1.1-.29-.2-.19-.3-.49-.3-.89,0-.37.11-.66.33-.86.22-.21.58-.31,1.07-.31.52,0,.89.1,1.09.29.21.19.31.49.31.89,0,.37-.11.66-.33.86-.22.21-.58.31-1.07.31Z"/>
    <path class="st8" d="M401.14,23.78h.6c.03-.63.05-1.28.06-1.94s.01-1.27.01-1.81v-3.5c0-.49-.06-.81-.18-.95-.12-.15-.37-.22-.74-.22h-.25c-.05-.14-.08-.26-.1-.38-.02-.11-.03-.23-.03-.33,0-.37.21-.55.64-.55h2.21c.03.15.05.34.07.57.01.23.02.45.02.64.51-.48,1.05-.84,1.63-1.08.58-.25,1.2-.37,1.86-.37,1.09,0,1.92.29,2.5.86.57.58.86,1.51.86,2.82v5.06c0,.34.02.59.07.76.05.17.12.28.23.33s.26.08.46.08h.39c.05.11.08.21.09.32.01.11.02.21.02.32,0,.37-.21.55-.62.55h-2.58c0-.38,0-.83.02-1.35.01-.51.03-1.05.03-1.6,0-.55.01-1.07.01-1.54v-1.73c0-.83-.08-1.49-.23-1.99-.15-.5-.4-.86-.75-1.08s-.8-.33-1.37-.33c-.83,0-1.44.25-1.83.75-.39.5-.59,1.25-.59,2.24v1.68c0,.54,0,1.14.01,1.81,0,.67.02,1.31.03,1.94h1.1c.03.11.06.21.08.32.02.11.03.21.03.32,0,.37-.21.55-.62.55h-3.68c-.05-.12-.08-.23-.1-.33-.02-.1-.03-.2-.03-.31,0-.37.21-.55.64-.55Z"/>
    <path class="st8" d="M422.58,26.08c0,.64-.17,1.21-.51,1.71-.34.5-.8.92-1.38,1.28-.58.35-1.24.62-1.97.8s-1.48.28-2.24.28c-.94,0-1.69-.13-2.25-.39-.57-.26-.98-.6-1.23-1.01s-.38-.86-.38-1.33.14-.92.43-1.33c.28-.41.72-.77,1.32-1.08l.21-.11c-.31-.15-.55-.38-.74-.68-.18-.3-.28-.66-.28-1.09s.11-.83.32-1.16.54-.59.99-.77c-.51-.25-.94-.64-1.3-1.18-.36-.54-.54-1.25-.54-2.13s.18-1.56.55-2.16.87-1.05,1.51-1.37c.64-.31,1.35-.47,2.15-.47.29,0,.58.02.85.06.28.04.54.1.78.17h3.79c.05.12.08.24.12.36.03.11.05.24.05.38,0,.41-.22.62-.67.62h-1.47c.46.6.69,1.35.69,2.25,0,1.17-.4,2.1-1.21,2.82-.8.71-1.95,1.07-3.44,1.07-.54,0-.92.09-1.16.26-.24.18-.36.41-.36.7,0,.34.1.58.31.72.21.15.52.22.93.22h2.88c1.06,0,1.86.21,2.42.64.55.43.83,1.07.83,1.93ZM420.69,26.49c0-.43-.13-.75-.4-.97-.27-.21-.76-.32-1.48-.32h-2.94c-.45.2-.79.46-1.05.77-.25.31-.38.67-.38,1.07,0,.54.19.97.56,1.29.38.32.99.48,1.85.48.77,0,1.44-.1,2.01-.3.58-.2,1.02-.47,1.35-.82.32-.35.48-.75.48-1.21ZM419.47,17.82c0-.81-.19-1.45-.56-1.92-.38-.47-.98-.7-1.81-.7-.71,0-1.24.21-1.61.63-.37.42-.55,1.02-.55,1.81s.19,1.45.56,1.92c.38.47.98.7,1.81.7.71,0,1.24-.21,1.61-.63.37-.42.55-1.02.55-1.81Z"/>
    <path class="st8" d="M437.02,21.8c0,.98-.37,1.79-1.1,2.44-.74.64-1.79.97-3.15.97-.86,0-1.6-.11-2.23-.33-.63-.22-1.11-.49-1.45-.81-.34-.31-.51-.62-.51-.93,0-.26.09-.48.29-.67.19-.18.42-.32.68-.41.35.46.79.87,1.3,1.23s1.18.54,1.99.54c.77,0,1.35-.14,1.74-.43.39-.28.59-.67.59-1.16s-.2-.89-.6-1.16c-.4-.27-.96-.5-1.68-.7l-.99-.28c-1.01-.28-1.76-.66-2.25-1.15-.49-.49-.74-1.13-.74-1.91,0-.63.16-1.18.48-1.66s.78-.85,1.37-1.12c.59-.27,1.3-.4,2.13-.4.78,0,1.45.1,1.99.31s.96.46,1.25.76c.29.3.44.59.44.89,0,.25-.09.45-.26.61-.18.16-.4.27-.68.33l-.28.07-.14-.21c-.29-.4-.65-.73-1.08-.99-.43-.26-.95-.39-1.56-.39-.55,0-.99.13-1.32.39-.33.26-.5.61-.5,1.06s.15.78.45,1.05c.3.27.79.49,1.46.66l.97.28c1.21.31,2.08.71,2.61,1.21.53.5.79,1.14.79,1.92Z"/>
    <path class="st8" d="M439.53,21.8v-6.35h-1.61c-.05-.12-.08-.24-.12-.36-.03-.12-.05-.24-.05-.38,0-.41.22-.62.67-.62h1.1l.58-2.51.51.05c.31.02.51.09.62.22.11.13.16.39.16.77v1.47h3.38c.05.12.08.24.1.36.02.11.04.24.04.38,0,.41-.21.62-.64.62h-2.88v5.93c0,.86.11,1.46.32,1.81.21.35.57.52,1.06.52.29,0,.55-.06.78-.18.23-.12.44-.28.62-.48.2.05.38.15.53.31.15.16.23.35.23.56,0,.31-.23.6-.7.87s-1.08.41-1.83.41c-1,0-1.72-.28-2.18-.85-.46-.57-.69-1.42-.69-2.55Z"/>
    <path class="st8" d="M446.64,23.78h.6c.03-.63.05-1.28.06-1.94s.01-1.27.01-1.81v-3.5c0-.49-.06-.81-.18-.95-.12-.15-.37-.22-.74-.22h-.25c-.05-.14-.08-.26-.1-.38-.02-.11-.03-.23-.03-.33,0-.37.21-.55.64-.55h2.21c.03.15.05.36.07.62.01.26.02.54.02.83.58-.6,1.19-1.03,1.83-1.29.64-.26,1.24-.39,1.81-.39.29,0,.5.06.63.17.13.12.2.31.2.59,0,.32-.05.61-.16.86-.11.25-.22.42-.32.49-.15.11-.36.18-.61.22-.25.04-.5.06-.75.06l-.32-.87c-.72.26-1.25.63-1.58,1.1s-.49,1.19-.49,2.14v1.4c0,.54,0,1.14.01,1.81,0,.67.02,1.31.03,1.94h1.4c.03.11.06.21.08.32.02.11.03.21.03.32,0,.37-.21.55-.62.55h-3.98c-.05-.12-.08-.23-.1-.33-.02-.1-.03-.2-.03-.31,0-.37.21-.55.64-.55Z"/>
    <path class="st8" d="M463.4,24.74l-1.72.23c-.11-.15-.2-.34-.29-.56-.08-.22-.14-.43-.17-.61-.4.49-.86.85-1.39,1.07s-1.14.33-1.83.33c-.95,0-1.74-.27-2.36-.81-.62-.54-.93-1.33-.93-2.39s.37-1.88,1.12-2.46c.74-.58,1.92-.87,3.53-.87h1.63v-.64c0-.77-.08-1.35-.25-1.76-.17-.41-.46-.69-.89-.85-.42-.16-1.02-.24-1.78-.24h-.67l-.34,1.24c-.14.06-.3.12-.5.16-.19.05-.38.07-.56.07-.17,0-.33-.06-.49-.2-.16-.13-.29-.3-.39-.51-.1-.21-.15-.42-.15-.63,0-.18.06-.34.2-.47.13-.13.36-.26.68-.4.4-.15.9-.29,1.51-.4.61-.11,1.25-.17,1.94-.17,1.26,0,2.17.26,2.73.78.56.52.84,1.45.84,2.78v5.22c0,.38.05.63.16.75.11.12.3.17.58.17h.44c.03.09.06.18.08.28.02.09.03.19.03.3,0,.18-.05.32-.16.41-.11.09-.3.15-.58.18ZM460.99,21.29v-1.29h-1.91c-.92,0-1.55.16-1.9.49-.34.33-.52.77-.52,1.32,0,.61.16,1.08.48,1.41s.79.49,1.4.49c.83,0,1.44-.22,1.84-.66.4-.44.6-1.03.6-1.78Z"/>
    <path class="st8" d="M467.68,28.61c.26-.09.51-.31.74-.67.23-.35.45-.79.67-1.3.21-.51.42-1.05.62-1.62v-.03s0-.02-.02-.03c-.23-.03-.41-.08-.55-.15s-.26-.21-.38-.44-.26-.57-.43-1.05l-2.07-6.76c-.15-.48-.31-.79-.47-.95s-.43-.24-.79-.24h-.25c-.05-.14-.08-.26-.09-.38-.02-.11-.02-.23-.02-.33,0-.17.05-.3.14-.4.09-.1.25-.15.48-.15h2.46l.32,1.54c.06.37.18.86.34,1.48s.36,1.3.59,2.05c.22.74.46,1.48.7,2.2s.47,1.36.67,1.91c.6-1.79,1.1-3.36,1.5-4.69s.67-2.41.83-3.22h-.9c-.05-.12-.08-.24-.1-.35-.02-.11-.04-.22-.04-.35,0-.23.07-.38.22-.46.15-.08.38-.11.7-.11h3.08c.05.12.08.24.1.34.02.11.04.22.04.35,0,.18-.05.33-.14.43-.09.1-.26.15-.51.15h-.58c-.52,1.55-1.04,3.1-1.55,4.65-.51,1.55-1.02,3.1-1.53,4.65-.35,1-.67,1.83-.97,2.51-.29.67-.58,1.22-.87,1.64-.29.42-.61.74-.97.94s-.77.33-1.24.38h-.43c-.15,0-.28,0-.4-.02-.49-.03-.87-.13-1.14-.31-.27-.18-.4-.4-.4-.66,0-.2.07-.4.22-.59.15-.19.31-.33.49-.43.17.12.37.23.6.33.23.1.46.16.69.2.11.02.21.02.32,0,.11-.02.21-.03.32-.05Z"/>
    <path class="st8" d="M491.58,24.97h-2.02c-.06-.15-.11-.34-.16-.55-.05-.21-.08-.41-.09-.6-.34.41-.77.75-1.31,1-.54.25-1.15.38-1.84.38-1.32,0-2.36-.43-3.12-1.3-.76-.87-1.14-2.18-1.14-3.94,0-1.44.21-2.61.64-3.51.43-.9,1.01-1.55,1.75-1.97.74-.41,1.57-.62,2.51-.62.51,0,.95.03,1.32.1.38.07.69.16.96.26v-2.83c0-.49-.06-.81-.18-.95-.12-.15-.37-.22-.74-.22h-.55c-.03-.14-.06-.26-.08-.38-.02-.11-.03-.23-.03-.33,0-.37.21-.55.62-.55h2.9c0,.37,0,.81-.01,1.33s-.02,1.05-.03,1.59c-.02.54-.02,1.03-.02,1.47v9.41c0,.43.05.71.16.83s.31.18.6.18h.39c.05.11.08.21.1.32.02.11.03.21.03.32,0,.37-.21.55-.64.55ZM489.07,20.83v-5.04c-.26-.15-.59-.28-1-.39s-.86-.16-1.37-.16c-.84,0-1.52.31-2.04.93-.51.62-.77,1.7-.77,3.23,0,1.13.12,2.02.37,2.65.25.63.58,1.07,1.01,1.31.43.25.92.37,1.47.37.78,0,1.36-.26,1.75-.77.38-.51.58-1.22.58-2.13Z"/>
    <path class="st8" d="M493.69,19.8c0-1.35.21-2.46.64-3.33.43-.87,1.02-1.53,1.77-1.96.75-.43,1.6-.64,2.55-.64,1.55,0,2.71.45,3.48,1.36s1.16,2.25,1.16,4.05c0,1.35-.21,2.46-.64,3.33-.43.87-1.02,1.53-1.76,1.96-.74.43-1.6.64-2.56.64-1.55,0-2.71-.45-3.48-1.36s-1.16-2.25-1.16-4.05ZM495.69,19.27c0,1.67.24,2.85.71,3.53.47.68,1.2,1.02,2.16,1.02.49,0,.94-.12,1.36-.37.41-.25.75-.66,1-1.25s.38-1.39.38-2.4c0-1.67-.24-2.85-.71-3.53-.48-.68-1.2-1.02-2.16-1.02-.49,0-.94.12-1.36.37s-.75.66-1,1.24c-.25.58-.38,1.39-.38,2.42Z"/>
    <path class="st8" d="M514.62,26.08c0,.64-.17,1.21-.51,1.71-.34.5-.8.92-1.38,1.28-.58.35-1.24.62-1.97.8s-1.48.28-2.24.28c-.94,0-1.69-.13-2.25-.39-.57-.26-.98-.6-1.23-1.01s-.38-.86-.38-1.33.14-.92.43-1.33c.28-.41.72-.77,1.32-1.08l.21-.11c-.31-.15-.55-.38-.74-.68-.18-.3-.28-.66-.28-1.09s.11-.83.32-1.16.54-.59.99-.77c-.51-.25-.94-.64-1.3-1.18-.36-.54-.54-1.25-.54-2.13s.18-1.56.55-2.16.87-1.05,1.51-1.37c.64-.31,1.35-.47,2.15-.47.29,0,.58.02.85.06.28.04.54.1.78.17h3.79c.05.12.08.24.12.36.03.11.05.24.05.38,0,.41-.22.62-.67.62h-1.47c.46.6.69,1.35.69,2.25,0,1.17-.4,2.1-1.21,2.82-.8.71-1.95,1.07-3.44,1.07-.54,0-.92.09-1.16.26-.24.18-.36.41-.36.7,0,.34.1.58.31.72.21.15.52.22.93.22h2.88c1.06,0,1.86.21,2.42.64.55.43.83,1.07.83,1.93ZM512.74,26.49c0-.43-.13-.75-.4-.97-.27-.21-.76-.32-1.48-.32h-2.94c-.45.2-.79.46-1.05.77-.25.31-.38.67-.38,1.07,0,.54.19.97.56,1.29.38.32.99.48,1.85.48.77,0,1.44-.1,2.01-.3.58-.2,1.02-.47,1.35-.82.32-.35.48-.75.48-1.21ZM511.52,17.82c0-.81-.19-1.45-.56-1.92-.38-.47-.98-.7-1.81-.7-.71,0-1.24.21-1.61.63-.37.42-.55,1.02-.55,1.81s.19,1.45.56,1.92c.38.47.98.7,1.81.7.71,0,1.24-.21,1.61-.63.37-.42.55-1.02.55-1.81Z"/>
    <path class="st8" d="M524.01,21.8c0,.98-.37,1.79-1.1,2.44-.74.64-1.79.97-3.15.97-.86,0-1.6-.11-2.23-.33-.63-.22-1.11-.49-1.45-.81-.34-.31-.51-.62-.51-.93,0-.26.09-.48.29-.67.19-.18.42-.32.68-.41.35.46.79.87,1.3,1.23s1.18.54,1.99.54c.77,0,1.35-.14,1.74-.43.39-.28.59-.67.59-1.16s-.2-.89-.6-1.16c-.4-.27-.96-.5-1.68-.7l-.99-.28c-1.01-.28-1.76-.66-2.25-1.15-.49-.49-.74-1.13-.74-1.91,0-.63.16-1.18.48-1.66s.78-.85,1.37-1.12c.59-.27,1.3-.4,2.13-.4.78,0,1.45.1,1.99.31s.96.46,1.25.76c.29.3.44.59.44.89,0,.25-.09.45-.26.61-.18.16-.4.27-.68.33l-.28.07-.14-.21c-.29-.4-.65-.73-1.08-.99-.43-.26-.95-.39-1.56-.39-.55,0-.99.13-1.32.39-.33.26-.5.61-.5,1.06s.15.78.45,1.05c.3.27.79.49,1.46.66l.97.28c1.21.31,2.08.71,2.61,1.21.53.5.79,1.14.79,1.92Z"/>
    <path class="st8" d="M539.19,24.74l-1.72.23c-.11-.15-.2-.34-.29-.56-.08-.22-.14-.43-.17-.61-.4.49-.86.85-1.39,1.07s-1.14.33-1.83.33c-.95,0-1.74-.27-2.36-.81-.62-.54-.93-1.33-.93-2.39s.37-1.88,1.12-2.46c.74-.58,1.92-.87,3.53-.87h1.63v-.64c0-.77-.08-1.35-.25-1.76-.17-.41-.46-.69-.89-.85-.42-.16-1.02-.24-1.78-.24h-.67l-.34,1.24c-.14.06-.3.12-.5.16-.19.05-.38.07-.56.07-.17,0-.33-.06-.49-.2-.16-.13-.29-.3-.39-.51-.1-.21-.15-.42-.15-.63,0-.18.06-.34.2-.47.13-.13.36-.26.68-.4.4-.15.9-.29,1.51-.4.61-.11,1.25-.17,1.94-.17,1.26,0,2.17.26,2.73.78.56.52.84,1.45.84,2.78v5.22c0,.38.05.63.16.75.11.12.3.17.58.17h.44c.03.09.06.18.08.28.02.09.03.19.03.3,0,.18-.05.32-.16.41-.11.09-.3.15-.58.18ZM536.77,21.29v-1.29h-1.91c-.92,0-1.55.16-1.9.49-.34.33-.52.77-.52,1.32,0,.61.16,1.08.48,1.41s.79.49,1.4.49c.83,0,1.44-.22,1.84-.66.4-.44.6-1.03.6-1.78Z"/>
    <path class="st8" d="M541.74,23.78h.6c.03-.55.05-1.16.06-1.82,0-.66.01-1.3.01-1.91v-8.65c0-.49-.07-.81-.2-.95-.13-.15-.37-.22-.72-.22h-.25c-.05-.14-.08-.26-.1-.38-.02-.11-.03-.23-.03-.33,0-.37.21-.55.64-.55h2.6c0,.57-.01,1.26-.04,2.07-.02.81-.03,1.59-.03,2.32v6.67c0,.54,0,1.14.01,1.81s.02,1.31.03,1.94h1.1c.03.11.06.21.08.32.02.11.03.21.03.32,0,.37-.21.55-.62.55h-3.68c-.05-.12-.08-.23-.1-.33-.02-.1-.03-.2-.03-.31,0-.37.21-.55.64-.55Z"/>
    <path class="st8" d="M547.4,23.78h.6c.03-.55.05-1.16.06-1.82,0-.66.01-1.3.01-1.91v-8.65c0-.49-.07-.81-.2-.95-.13-.15-.37-.22-.72-.22h-.25c-.05-.14-.08-.26-.1-.38-.02-.11-.03-.23-.03-.33,0-.37.21-.55.64-.55h2.6c0,.57-.01,1.26-.04,2.07-.02.81-.03,1.59-.03,2.32v6.67c0,.54,0,1.14.01,1.81s.02,1.31.03,1.94h1.1c.03.11.06.21.08.32.02.11.03.21.03.32,0,.37-.21.55-.62.55h-3.68c-.05-.12-.08-.23-.1-.33-.02-.1-.03-.2-.03-.31,0-.37.21-.55.64-.55Z"/>
    <path class="st8" d="M560.44,19.82h-5.77c.05.95.2,1.71.47,2.29.27.57.64.99,1.1,1.25s1.02.39,1.64.39c.67,0,1.23-.13,1.68-.39.44-.26.85-.63,1.22-1.1.26.09.47.21.64.37.17.15.25.36.25.62,0,.31-.18.61-.54.91-.36.3-.84.55-1.45.75-.61.2-1.28.3-2.04.3-1.69,0-2.94-.47-3.75-1.4-.81-.94-1.22-2.27-1.22-4,0-2.02.45-3.52,1.34-4.49.9-.97,2.07-1.45,3.51-1.45,1,0,1.8.2,2.42.59s1.07.93,1.36,1.61c.29.68.44,1.47.44,2.36,0,.38-.04.68-.13.87-.08.2-.22.34-.41.41-.19.08-.45.12-.77.12ZM554.69,18.49h5.13v-.28c0-.89-.2-1.61-.6-2.15-.4-.54-1-.82-1.82-.82s-1.41.25-1.88.75c-.47.5-.75,1.33-.84,2.5Z"/>
    <path class="st8" d="M573.18,26.08c0,.64-.17,1.21-.51,1.71-.34.5-.8.92-1.38,1.28-.58.35-1.24.62-1.97.8s-1.48.28-2.24.28c-.94,0-1.69-.13-2.25-.39-.57-.26-.98-.6-1.23-1.01s-.38-.86-.38-1.33.14-.92.43-1.33c.28-.41.72-.77,1.32-1.08l.21-.11c-.31-.15-.55-.38-.74-.68-.18-.3-.28-.66-.28-1.09s.11-.83.32-1.16.54-.59.99-.77c-.51-.25-.94-.64-1.3-1.18-.36-.54-.54-1.25-.54-2.13s.18-1.56.55-2.16.87-1.05,1.51-1.37c.64-.31,1.35-.47,2.15-.47.29,0,.58.02.85.06.28.04.54.1.78.17h3.79c.05.12.08.24.12.36.03.11.05.24.05.38,0,.41-.22.62-.67.62h-1.47c.46.6.69,1.35.69,2.25,0,1.17-.4,2.1-1.21,2.82-.8.71-1.95,1.07-3.44,1.07-.54,0-.92.09-1.16.26-.24.18-.36.41-.36.7,0,.34.1.58.31.72.21.15.52.22.93.22h2.88c1.06,0,1.86.21,2.42.64.55.43.83,1.07.83,1.93ZM571.29,26.49c0-.43-.13-.75-.4-.97-.27-.21-.76-.32-1.48-.32h-2.94c-.45.2-.79.46-1.05.77-.25.31-.38.67-.38,1.07,0,.54.19.97.56,1.29.38.32.99.48,1.85.48.77,0,1.44-.1,2.01-.3.58-.2,1.02-.47,1.35-.82.32-.35.48-.75.48-1.21ZM570.07,17.82c0-.81-.19-1.45-.56-1.92-.38-.47-.98-.7-1.81-.7-.71,0-1.24.21-1.61.63-.37.42-.55,1.02-.55,1.81s.19,1.45.56,1.92c.38.47.98.7,1.81.7.71,0,1.24-.21,1.61-.63.37-.42.55-1.02.55-1.81Z"/>
    <path class="st8" d="M582.29,19.82h-5.77c.05.95.2,1.71.47,2.29.27.57.64.99,1.1,1.25s1.02.39,1.64.39c.67,0,1.23-.13,1.68-.39.44-.26.85-.63,1.22-1.1.26.09.47.21.64.37.17.15.25.36.25.62,0,.31-.18.61-.54.91-.36.3-.84.55-1.45.75-.61.2-1.28.3-2.04.3-1.69,0-2.94-.47-3.75-1.4-.81-.94-1.22-2.27-1.22-4,0-2.02.45-3.52,1.34-4.49.9-.97,2.07-1.45,3.51-1.45,1,0,1.8.2,2.42.59s1.07.93,1.36,1.61c.29.68.44,1.47.44,2.36,0,.38-.04.68-.13.87-.08.2-.22.34-.41.41-.19.08-.45.12-.77.12ZM576.54,18.49h5.13v-.28c0-.89-.2-1.61-.6-2.15-.4-.54-1-.82-1.82-.82s-1.41.25-1.88.75c-.47.5-.75,1.33-.84,2.5Z"/>
    <path class="st8" d="M587.12,20.67l-.12-.55c-.15-.71-.13-1.31.07-1.82.2-.51.64-.99,1.31-1.45l1.29-.85c.58-.4,1.02-.81,1.3-1.23.28-.42.42-.96.42-1.62,0-.77-.24-1.34-.71-1.73-.47-.38-1.23-.58-2.28-.58h-1.4l-.3,1.22c-.14.06-.32.13-.54.21-.22.08-.44.11-.66.11-.15,0-.31-.08-.46-.25-.15-.17-.28-.37-.39-.6-.11-.23-.16-.44-.16-.62s.07-.34.22-.48c.15-.14.41-.28.79-.44.48-.18,1.02-.33,1.63-.45.61-.12,1.27-.17,1.96-.17,1.04,0,1.89.15,2.54.45.65.3,1.13.72,1.44,1.27s.46,1.18.46,1.9-.1,1.31-.31,1.81c-.21.5-.5.93-.87,1.3-.38.37-.83.73-1.37,1.08l-1.27.83c-.34.23-.6.46-.78.7-.18.24-.31.51-.38.82-.07.31-.1.69-.1,1.15h-1.33ZM587.97,25.2c-.57,0-.96-.11-1.17-.32-.21-.21-.32-.54-.32-.97s.12-.74.36-.97c.24-.23.62-.35,1.14-.35.57,0,.96.1,1.17.31s.32.53.32.98c0,.4-.12.72-.34.95-.23.24-.61.36-1.15.36Z"/>
  </g>
  <text class="st9" transform="translate(.19 46)"><tspan x="0" y="0">Diagonal cells show complaints alleging each type of harm. Other cells show complaints alleging both types of harm.</tspan></text>
  <g>
    <path class="st17" d="M242.51,145.12l.85-.97c.24.27.68.5,1.08.5.82,0,1.45-.62,1.45-2.48,0-1.73-.54-2.25-1.13-2.25-.48,0-.88.34-.88,1.13,0,.74.39,1.02.92,1.02.37,0,.77-.2,1.09-.75l.07,1.06c-.36.53-1.01.84-1.47.84-1.2,0-2.08-.68-2.08-2.16s1.06-2.34,2.32-2.34c1.35,0,2.64,1.01,2.64,3.46,0,2.61-1.36,3.79-2.82,3.79-.92,0-1.6-.39-2.04-.84Z"/>
    <path class="st17" d="M248.25,144.9c1.78-1.68,3.03-2.87,3.03-3.87,0-.68-.38-1.05-.99-1.05-.5,0-.89.34-1.24.71l-.88-.87c.69-.73,1.34-1.11,2.34-1.11,1.38,0,2.32.88,2.32,2.23,0,1.18-1.1,2.43-2.24,3.61.36-.04.85-.08,1.17-.08h1.41v1.36h-4.91v-.93Z"/>
    <path class="st17" d="M256.24,143.1c0-1.81,1.34-2.86,2.84-2.86.67,0,1.19.24,1.59.59l-.76,1.04c-.26-.22-.48-.32-.74-.32-.78,0-1.28.61-1.28,1.56s.52,1.55,1.22,1.55c.36,0,.7-.18.99-.4l.63,1.06c-.53.47-1.21.65-1.8.65-1.52,0-2.7-1.05-2.7-2.86Z"/>
    <path class="st17" d="M261.07,143.1c0-1.81,1.28-2.86,2.66-2.86s2.66,1.05,2.66,2.86-1.28,2.86-2.66,2.86-2.66-1.05-2.66-2.86ZM264.73,143.1c0-.94-.33-1.56-1-1.56s-1,.61-1,1.56.33,1.55,1,1.55,1-.61,1-1.55Z"/>
    <path class="st17" d="M267.49,140.37h1.32l.12.7h.04c.45-.45.94-.83,1.65-.83.77,0,1.23.33,1.51.92.48-.5.99-.92,1.71-.92,1.18,0,1.71.84,1.71,2.2v3.39h-1.62v-3.18c0-.79-.21-1.03-.67-1.03-.27,0-.58.17-.93.53v3.68h-1.62v-3.18c0-.79-.21-1.03-.67-1.03-.27,0-.58.17-.93.53v3.68h-1.62v-5.46Z"/>
    <path class="st17" d="M276.92,140.37h1.32l.12.54h.04c.43-.38.99-.67,1.55-.67,1.32,0,2.13,1.09,2.13,2.78,0,1.87-1.11,2.95-2.3,2.95-.47,0-.91-.21-1.3-.57l.05.86v1.6h-1.62v-7.48ZM280.42,143.03c0-.98-.3-1.47-.95-1.47-.33,0-.62.15-.94.49v2.24c.29.26.6.35.87.35.56,0,1.02-.48,1.02-1.61Z"/>
    <path class="st17" d="M283.14,144.13v-6.01h1.62v6.08c0,.35.16.46.29.46.06,0,.11,0,.2-.02l.19,1.19c-.18.08-.44.13-.81.13-1.11,0-1.49-.72-1.49-1.83Z"/>
    <path class="st17" d="M286.03,144.31c0-1.15.92-1.77,3.07-2-.03-.48-.27-.79-.86-.79-.46,0-.91.19-1.44.49l-.58-1.06c.69-.42,1.47-.72,2.33-.72,1.4,0,2.17.8,2.17,2.47v3.12h-1.32l-.12-.56h-.04c-.46.4-.97.69-1.59.69-1,0-1.63-.73-1.63-1.65ZM289.1,144.24v-.95c-1.15.16-1.53.48-1.53.9,0,.35.24.52.63.52s.61-.18.9-.47Z"/>
    <path class="st17" d="M291.95,138.73c0-.5.39-.85.94-.85s.94.35.94.85-.39.85-.94.85-.94-.35-.94-.85ZM292.08,140.37h1.62v5.46h-1.62v-5.46Z"/>
    <path class="st17" d="M295.11,140.37h1.32l.12.69h.04c.46-.44,1.01-.82,1.75-.82,1.19,0,1.69.84,1.69,2.2v3.39h-1.62v-3.18c0-.79-.21-1.03-.68-1.03-.41,0-.66.19-1.01.53v3.68h-1.62v-5.46Z"/>
    <path class="st17" d="M301.62,143.84v-2.21h-.75v-1.21l.84-.06.19-1.45h1.34v1.45h1.31v1.27h-1.31v2.19c0,.62.28.87.71.87.18,0,.38-.05.52-.1l.25,1.17c-.29.09-.68.2-1.21.2-1.35,0-1.88-.85-1.88-2.12Z"/>
    <path class="st17" d="M305.03,145.2l.73-1.01c.49.37.95.57,1.41.57.48,0,.69-.18.69-.47,0-.36-.54-.52-1.1-.74-.67-.26-1.44-.7-1.44-1.6,0-1.02.83-1.71,2.09-1.71.84,0,1.46.34,1.92.69l-.72.97c-.39-.28-.77-.47-1.15-.47-.42,0-.62.16-.62.44,0,.35.51.48,1.08.69.69.26,1.47.64,1.47,1.64s-.78,1.76-2.24,1.76c-.72,0-1.54-.31-2.09-.76Z"/>
    <path class="st17" d="M312.33,144.31c0-1.15.92-1.77,3.07-2-.03-.48-.27-.79-.86-.79-.46,0-.91.19-1.44.49l-.58-1.06c.69-.42,1.47-.72,2.33-.72,1.4,0,2.17.8,2.17,2.47v3.12h-1.32l-.12-.56h-.04c-.46.4-.97.69-1.59.69-1,0-1.63-.73-1.63-1.65ZM315.4,144.24v-.95c-1.15.16-1.53.48-1.53.9,0,.35.24.52.63.52s.61-.18.9-.47Z"/>
    <path class="st17" d="M318.38,144.13v-6.01h1.62v6.08c0,.35.16.46.29.46.06,0,.11,0,.2-.02l.19,1.19c-.18.08-.44.13-.81.13-1.11,0-1.49-.72-1.49-1.83Z"/>
    <path class="st17" d="M321.52,144.13v-6.01h1.62v6.08c0,.35.16.46.29.46.06,0,.11,0,.2-.02l.19,1.19c-.18.08-.44.13-.81.13-1.11,0-1.49-.72-1.49-1.83Z"/>
    <path class="st17" d="M324.35,143.1c0-1.77,1.26-2.86,2.57-2.86,1.55,0,2.33,1.13,2.33,2.62,0,.29-.04.58-.07.71h-3.27c.15.79.69,1.16,1.42,1.16.41,0,.78-.13,1.18-.36l.53.98c-.56.39-1.29.61-1.94.61-1.56,0-2.76-1.05-2.76-2.86ZM327.87,142.5c0-.6-.26-1.03-.91-1.03-.51,0-.95.34-1.06,1.03h1.97Z"/>
    <path class="st17" d="M329.92,146.77c0-.45.27-.82.77-1.1v-.04c-.28-.19-.5-.48-.5-.93,0-.39.26-.78.61-1.02v-.04c-.38-.27-.73-.78-.73-1.42,0-1.31,1.08-1.98,2.26-1.98.3,0,.6.05.85.13h2v1.18h-.88c.1.16.19.43.19.72,0,1.26-.96,1.83-2.15,1.83-.2,0-.42-.03-.67-.11-.13.12-.19.21-.19.41,0,.27.22.4.82.4h.89c1.34,0,2.08.41,2.08,1.39,0,1.13-1.18,1.96-3.05,1.96-1.27,0-2.28-.41-2.28-1.38ZM333.71,146.46c0-.34-.29-.42-.83-.42h-.57c-.37,0-.59-.02-.77-.07-.2.17-.29.34-.29.54,0,.41.48.63,1.21.63s1.25-.29,1.25-.67ZM333.08,142.21c0-.58-.32-.89-.75-.89s-.75.3-.75.89.32.91.75.91.75-.31.75-.91Z"/>
    <path class="st17" d="M335.62,143.1c0-1.77,1.26-2.86,2.57-2.86,1.55,0,2.33,1.13,2.33,2.62,0,.29-.04.58-.07.71h-3.27c.15.79.69,1.16,1.42,1.16.41,0,.78-.13,1.18-.36l.53.98c-.56.39-1.29.61-1.94.61-1.56,0-2.76-1.05-2.76-2.86ZM339.13,142.5c0-.6-.26-1.03-.91-1.03-.51,0-.95.34-1.06,1.03h1.97Z"/>
    <path class="st17" d="M341.35,143.1c0-1.79,1.11-2.86,2.26-2.86.6,0,.97.22,1.34.57l-.06-.83v-1.86h1.62v7.71h-1.32l-.12-.54h-.04c-.38.39-.92.67-1.45.67-1.36,0-2.23-1.08-2.23-2.86ZM344.9,144.15v-2.24c-.29-.26-.61-.35-.9-.35-.52,0-.98.48-.98,1.52s.37,1.55,1,1.55c.34,0,.62-.13.89-.49Z"/>
    <path class="st17" d="M351.57,145.25h-.04l-.13.58h-1.26v-7.71h1.62v1.88l-.04.84c.41-.37.93-.6,1.44-.6,1.32,0,2.14,1.09,2.14,2.77,0,1.88-1.11,2.96-2.3,2.96-.49,0-.99-.25-1.42-.71ZM353.64,143.03c0-.98-.3-1.47-.95-1.47-.33,0-.62.15-.94.49v2.24c.29.26.6.35.87.35.56,0,1.02-.48,1.02-1.61Z"/>
    <path class="st17" d="M356.12,143.1c0-1.81,1.28-2.86,2.66-2.86s2.66,1.05,2.66,2.86-1.28,2.86-2.66,2.86-2.66-1.05-2.66-2.86ZM359.78,143.1c0-.94-.33-1.56-1-1.56s-1,.61-1,1.56.33,1.55,1,1.55,1-.61,1-1.55Z"/>
    <path class="st17" d="M362.48,143.84v-2.21h-.75v-1.21l.84-.06.19-1.45h1.34v1.45h1.31v1.27h-1.31v2.19c0,.62.28.87.71.87.18,0,.38-.05.52-.1l.25,1.17c-.29.09-.68.2-1.21.2-1.35,0-1.88-.85-1.88-2.12Z"/>
    <path class="st17" d="M366.47,138.12h1.62v1.88l-.07.99c.41-.37.94-.75,1.68-.75,1.19,0,1.69.84,1.69,2.2v3.39h-1.62v-3.18c0-.79-.21-1.03-.68-1.03-.41,0-.66.19-1.01.53v3.68h-1.62v-7.71Z"/>
    <path class="st17" d="M374.95,140.37h1.32l.12.54h.04c.43-.38.99-.67,1.55-.67,1.32,0,2.13,1.09,2.13,2.78,0,1.87-1.11,2.95-2.3,2.95-.47,0-.91-.21-1.3-.57l.05.86v1.6h-1.62v-7.48ZM378.45,143.03c0-.98-.3-1.47-.95-1.47-.33,0-.62.15-.94.49v2.24c.29.26.6.35.87.35.56,0,1.02-.48,1.02-1.61Z"/>
    <path class="st17" d="M381.17,138.12h1.62v1.88l-.07.99c.41-.37.94-.75,1.68-.75,1.19,0,1.69.84,1.69,2.2v3.39h-1.62v-3.18c0-.79-.21-1.03-.68-1.03-.41,0-.66.19-1.01.53v3.68h-1.62v-7.71Z"/>
    <path class="st17" d="M387.28,147.85l.29-1.23c.1.03.25.07.37.07.53,0,.81-.29.96-.72l.08-.28-2.11-5.32h1.62l.78,2.35c.16.49.29,1.01.43,1.55h.04c.12-.52.24-1.03.38-1.55l.66-2.35h1.55l-1.89,5.52c-.52,1.37-1.1,2.08-2.38,2.08-.34,0-.56-.04-.78-.11Z"/>
    <path class="st17" d="M392.69,145.2l.73-1.01c.49.37.95.57,1.41.57.48,0,.69-.18.69-.47,0-.36-.54-.52-1.1-.74-.67-.26-1.44-.7-1.44-1.6,0-1.02.83-1.71,2.09-1.71.84,0,1.46.34,1.92.69l-.72.97c-.39-.28-.77-.47-1.15-.47-.42,0-.62.16-.62.44,0,.35.51.48,1.08.69.69.26,1.47.64,1.47,1.64s-.78,1.76-2.24,1.76c-.72,0-1.54-.31-2.09-.76Z"/>
    <path class="st17" d="M397.92,138.73c0-.5.39-.85.94-.85s.94.35.94.85-.39.85-.94.85-.94-.35-.94-.85ZM398.05,140.37h1.62v5.46h-1.62v-5.46Z"/>
    <path class="st17" d="M400.77,143.1c0-1.81,1.34-2.86,2.84-2.86.67,0,1.19.24,1.59.59l-.76,1.04c-.26-.22-.48-.32-.74-.32-.78,0-1.28.61-1.28,1.56s.52,1.55,1.22,1.55c.36,0,.7-.18.99-.4l.63,1.06c-.53.47-1.21.65-1.8.65-1.52,0-2.7-1.05-2.7-2.86Z"/>
    <path class="st17" d="M405.86,144.31c0-1.15.92-1.77,3.07-2-.03-.48-.27-.79-.86-.79-.46,0-.91.19-1.44.49l-.58-1.06c.69-.42,1.47-.72,2.33-.72,1.4,0,2.17.8,2.17,2.47v3.12h-1.32l-.12-.56h-.04c-.46.4-.97.69-1.59.69-1,0-1.63-.73-1.63-1.65ZM408.94,144.24v-.95c-1.15.16-1.53.48-1.53.9,0,.35.24.52.63.52s.61-.18.9-.47Z"/>
    <path class="st17" d="M411.91,144.13v-6.01h1.62v6.08c0,.35.16.46.29.46.06,0,.11,0,.2-.02l.19,1.19c-.18.08-.44.13-.81.13-1.11,0-1.49-.72-1.49-1.83Z"/>
    <path class="st17" d="M242.43,156.3c0-1.81,1.34-2.86,2.84-2.86.67,0,1.19.24,1.59.59l-.76,1.04c-.26-.22-.48-.32-.74-.32-.78,0-1.28.61-1.28,1.56s.52,1.55,1.22,1.55c.36,0,.7-.18.99-.4l.63,1.06c-.53.47-1.21.65-1.8.65-1.52,0-2.7-1.05-2.7-2.86Z"/>
    <path class="st17" d="M247.88,153.57h1.32l.12.95h.04c.4-.73.99-1.09,1.55-1.09.31,0,.49.04.65.11l-.27,1.4c-.19-.05-.35-.09-.59-.09-.41,0-.91.27-1.2,1.01v3.16h-1.62v-5.46Z"/>
    <path class="st17" d="M252.21,156.96v-3.39h1.62v3.18c0,.79.21,1.03.68,1.03.41,0,.65-.17.97-.6v-3.61h1.62v5.46h-1.32l-.12-.76h-.04c-.46.54-.97.89-1.71.89-1.19,0-1.69-.84-1.69-2.2Z"/>
    <path class="st17" d="M258.19,156.3c0-1.77,1.26-2.86,2.57-2.86,1.55,0,2.33,1.13,2.33,2.62,0,.29-.04.58-.07.71h-3.27c.15.79.69,1.16,1.42,1.16.41,0,.78-.13,1.18-.36l.53.98c-.56.39-1.29.61-1.94.61-1.56,0-2.76-1.05-2.76-2.86ZM261.71,155.7c0-.6-.26-1.03-.91-1.03-.51,0-.95.34-1.06,1.03h1.97Z"/>
    <path class="st17" d="M264.21,157.33v-6.01h1.62v6.08c0,.35.16.46.29.46.06,0,.11,0,.2-.02l.19,1.19c-.18.08-.44.13-.81.13-1.11,0-1.49-.72-1.49-1.83Z"/>
    <path class="st17" d="M267.57,157.04v-2.21h-.75v-1.21l.84-.06.19-1.45h1.34v1.45h1.31v1.27h-1.31v2.19c0,.62.28.87.71.87.18,0,.38-.05.52-.1l.25,1.17c-.29.09-.68.2-1.21.2-1.35,0-1.88-.85-1.88-2.12Z"/>
    <path class="st17" d="M271.4,161.05l.29-1.23c.1.03.25.07.37.07.53,0,.81-.29.96-.72l.08-.28-2.11-5.32h1.62l.78,2.35c.16.49.29,1.01.43,1.55h.04c.12-.52.24-1.03.38-1.55l.66-2.35h1.55l-1.89,5.52c-.52,1.37-1.1,2.08-2.38,2.08-.34,0-.56-.04-.78-.11Z"/>
    <path class="st17" d="M279.24,157.51c0-1.15.92-1.77,3.07-2-.03-.48-.27-.79-.86-.79-.46,0-.91.19-1.44.49l-.58-1.06c.69-.42,1.47-.72,2.33-.72,1.4,0,2.17.8,2.17,2.47v3.12h-1.32l-.12-.56h-.04c-.46.4-.97.69-1.59.69-1,0-1.63-.73-1.63-1.65ZM282.32,157.44v-.95c-1.15.16-1.53.48-1.53.9,0,.35.24.52.63.52s.61-.18.9-.47Z"/>
    <path class="st17" d="M285.29,153.57h1.32l.12.69h.04c.46-.44,1.01-.82,1.75-.82,1.19,0,1.69.84,1.69,2.2v3.39h-1.62v-3.18c0-.79-.21-1.03-.68-1.03-.41,0-.66.19-1.01.53v3.68h-1.62v-5.46Z"/>
    <path class="st17" d="M291.3,156.3c0-1.79,1.11-2.86,2.26-2.86.6,0,.97.22,1.34.57l-.06-.83v-1.86h1.62v7.71h-1.32l-.12-.54h-.04c-.38.39-.92.67-1.45.67-1.36,0-2.23-1.08-2.23-2.86ZM294.85,157.35v-2.24c-.29-.26-.61-.35-.9-.35-.52,0-.98.48-.98,1.52s.37,1.55,1,1.55c.34,0,.62-.13.89-.49Z"/>
    <path class="st17" d="M300.09,153.57h1.32l.12.95h.04c.4-.73.99-1.09,1.55-1.09.31,0,.49.04.65.11l-.27,1.4c-.19-.05-.35-.09-.59-.09-.41,0-.91.27-1.2,1.01v3.16h-1.62v-5.46Z"/>
    <path class="st17" d="M304.04,156.3c0-1.77,1.26-2.86,2.57-2.86,1.55,0,2.33,1.13,2.33,2.62,0,.29-.04.58-.07.71h-3.27c.15.79.69,1.16,1.42,1.16.41,0,.78-.13,1.18-.36l.53.98c-.56.39-1.29.61-1.94.61-1.56,0-2.76-1.05-2.76-2.86ZM307.55,155.7c0-.6-.26-1.03-.91-1.03-.51,0-.95.34-1.06,1.03h1.97Z"/>
    <path class="st17" d="M310.05,153.57h1.32l.12.7h.04c.45-.45.94-.83,1.65-.83.77,0,1.23.33,1.51.92.48-.5.99-.92,1.71-.92,1.18,0,1.71.84,1.71,2.2v3.39h-1.62v-3.18c0-.79-.21-1.03-.67-1.03-.27,0-.58.17-.93.53v3.68h-1.62v-3.18c0-.79-.21-1.03-.67-1.03-.27,0-.58.17-.93.53v3.68h-1.62v-5.46Z"/>
    <path class="st17" d="M319.16,156.3c0-1.81,1.28-2.86,2.66-2.86s2.66,1.05,2.66,2.86-1.28,2.86-2.66,2.86-2.66-1.05-2.66-2.86ZM322.82,156.3c0-.94-.33-1.56-1-1.56s-1,.61-1,1.56.33,1.55,1,1.55,1-.61,1-1.55Z"/>
    <path class="st17" d="M324.92,153.57h1.62l.71,2.58c.14.54.28,1.11.42,1.68h.04c.14-.57.28-1.14.42-1.68l.71-2.58h1.55l-1.78,5.46h-1.87l-1.84-5.46Z"/>
    <path class="st17" d="M330.78,157.51c0-1.15.92-1.77,3.07-2-.03-.48-.27-.79-.86-.79-.46,0-.91.19-1.44.49l-.58-1.06c.69-.42,1.47-.72,2.33-.72,1.4,0,2.17.8,2.17,2.47v3.12h-1.32l-.12-.56h-.04c-.46.4-.97.69-1.59.69-1,0-1.63-.73-1.63-1.65ZM333.85,157.44v-.95c-1.15.16-1.53.48-1.53.9,0,.35.24.52.63.52s.61-.18.9-.47Z"/>
    <path class="st17" d="M336.83,157.33v-6.01h1.62v6.08c0,.35.16.46.29.46.06,0,.11,0,.2-.02l.19,1.19c-.18.08-.44.13-.81.13-1.11,0-1.49-.72-1.49-1.83Z"/>
    <path class="st17" d="M341.85,156.3c0-1.81,1.28-2.86,2.66-2.86s2.66,1.05,2.66,2.86-1.28,2.86-2.66,2.86-2.66-1.05-2.66-2.86ZM345.51,156.3c0-.94-.33-1.56-1-1.56s-1,.61-1,1.56.33,1.55,1,1.55,1-.61,1-1.55Z"/>
    <path class="st17" d="M348.28,153.57h1.32l.12.95h.04c.4-.73.99-1.09,1.55-1.09.31,0,.49.04.65.11l-.27,1.4c-.19-.05-.35-.09-.59-.09-.41,0-.91.27-1.2,1.01v3.16h-1.62v-5.46Z"/>
    <path class="st17" d="M354.85,153.57h1.32l.12.95h.04c.4-.73.99-1.09,1.55-1.09.31,0,.49.04.65.11l-.27,1.4c-.19-.05-.35-.09-.59-.09-.41,0-.91.27-1.2,1.01v3.16h-1.62v-5.46Z"/>
    <path class="st17" d="M358.81,156.3c0-1.77,1.26-2.86,2.57-2.86,1.55,0,2.33,1.13,2.33,2.62,0,.29-.04.58-.07.71h-3.27c.15.79.69,1.16,1.42,1.16.41,0,.78-.13,1.18-.36l.53.98c-.56.39-1.29.61-1.94.61-1.56,0-2.76-1.05-2.76-2.86ZM362.32,155.7c0-.6-.26-1.03-.91-1.03-.51,0-.95.34-1.06,1.03h1.97Z"/>
    <path class="st17" d="M364.82,157.33v-6.01h1.62v6.08c0,.35.16.46.29.46.06,0,.11,0,.2-.02l.19,1.19c-.18.08-.44.13-.81.13-1.11,0-1.49-.72-1.49-1.83Z"/>
    <path class="st17" d="M367.65,156.3c0-1.81,1.28-2.86,2.66-2.86s2.66,1.05,2.66,2.86-1.28,2.86-2.66,2.86-2.66-1.05-2.66-2.86ZM371.31,156.3c0-.94-.33-1.56-1-1.56s-1,.61-1,1.56.33,1.55,1,1.55,1-.61,1-1.55Z"/>
    <path class="st17" d="M373.75,156.3c0-1.81,1.34-2.86,2.84-2.86.67,0,1.19.24,1.59.59l-.76,1.04c-.26-.22-.48-.32-.74-.32-.78,0-1.28.61-1.28,1.56s.52,1.55,1.22,1.55c.36,0,.7-.18.99-.4l.63,1.06c-.53.47-1.21.65-1.8.65-1.52,0-2.7-1.05-2.7-2.86Z"/>
    <path class="st17" d="M378.85,157.51c0-1.15.92-1.77,3.07-2-.03-.48-.27-.79-.86-.79-.46,0-.91.19-1.44.49l-.58-1.06c.69-.42,1.47-.72,2.33-.72,1.4,0,2.17.8,2.17,2.47v3.12h-1.32l-.12-.56h-.04c-.46.4-.97.69-1.59.69-1,0-1.63-.73-1.63-1.65ZM381.92,157.44v-.95c-1.15.16-1.53.48-1.53.9,0,.35.24.52.63.52s.61-.18.9-.47Z"/>
    <path class="st17" d="M384.91,157.04v-2.21h-.75v-1.21l.84-.06.19-1.45h1.34v1.45h1.31v1.27h-1.31v2.19c0,.62.28.87.71.87.18,0,.38-.05.52-.1l.25,1.17c-.29.09-.68.2-1.21.2-1.35,0-1.88-.85-1.88-2.12Z"/>
    <path class="st17" d="M388.78,151.93c0-.5.39-.85.94-.85s.94.35.94.85-.39.85-.94.85-.94-.35-.94-.85ZM388.91,153.57h1.62v5.46h-1.62v-5.46Z"/>
    <path class="st17" d="M391.63,156.3c0-1.81,1.28-2.86,2.66-2.86s2.66,1.05,2.66,2.86-1.28,2.86-2.66,2.86-2.66-1.05-2.66-2.86ZM395.29,156.3c0-.94-.33-1.56-1-1.56s-1,.61-1,1.56.33,1.55,1,1.55,1-.61,1-1.55Z"/>
    <path class="st17" d="M398.05,153.57h1.32l.12.69h.04c.46-.44,1.01-.82,1.75-.82,1.19,0,1.69.84,1.69,2.2v3.39h-1.62v-3.18c0-.79-.21-1.03-.68-1.03-.41,0-.66.19-1.01.53v3.68h-1.62v-5.46Z"/>
    <path class="st17" d="M404.31,158.14c0-.58.42-1.02.98-1.02s.98.44.98,1.02-.42,1.02-.98,1.02-.98-.44-.98-1.02Z"/>
  </g>
  <g>
    <line class="st16" x1="252.48" y1="193.7" x2="217.04" y2="193.7"/>
    <g>
      <line class="st2" x1="252.48" y1="193.7" x2="250.98" y2="193.7"/>
      <line class="st1" x1="248.95" y1="193.7" x2="219.55" y2="193.7"/>
      <line class="st2" x1="218.54" y1="193.7" x2="217.04" y2="193.7"/>
    </g>
  </g>
  <g>
    <line class="st16" x1="252.48" y1="193.94" x2="252.82" y2="161.04"/>
    <g>
      <line class="st2" x1="252.48" y1="193.94" x2="252.49" y2="192.44"/>
      <line class="st7" x1="252.51" y1="190.57" x2="252.79" y2="163.48"/>
      <line class="st2" x1="252.8" y1="162.54" x2="252.82" y2="161.04"/>
    </g>
  </g>
  <text class="st10" transform="translate(0 468.36)"><tspan x="0" y="0">Source: Animal Welfare Board of India complaints database; author&apos;s analysis and AI-assisted classification.</tspan><tspan x="0" y="13.2">Note: Harm categories are not mutually exclusive. Complaints may allege more than one type of harm; counts therefore overlap </tspan><tspan x="0" y="26.4">across cells. Complaints alleging three or more types of harm (&lt;1%) are not shown.</tspan></text>
</svg>