<?xml version="1.0" encoding="UTF-8"?>
<svg id="exportSvg" xmlns="http://www.w3.org/2000/svg" version="1.1" viewBox="0 0 654.39 527.73">
  <!-- Generator: Adobe Illustrator 30.6.0, SVG Export Plug-In . SVG Version: 2.1.4 Build 109)  -->
  <defs>
    <style>
      .st0 {
        fill: #a8dbd5;
      }

      .st0, .st1, .st2, .st3, .st4, .st5 {
        stroke: #bcbbb8;
        stroke-miterlimit: 10;
        stroke-width: .25px;
      }

      .st6 {
        fill: #231f20;
      }

      .st1 {
        fill: #03675e;
      }

      .st7 {
        font-size: 12px;
      }

      .st7, .st8 {
        fill: #818181;
      }

      .st7, .st8, .st9, .st10, .st11, .st12 {
        font-family: MyriadPro-Regular, 'Myriad Pro';
      }

      .st8 {
        font-size: 11px;
      }

      .st9 {
        fill: #fffafc;
      }

      .st9, .st10, .st11, .st12 {
        font-size: 14px;
      }

      .st2 {
        fill: #f4f4f5;
      }

      .st3 {
        fill: #35978f;
      }

      .st10 {
        fill: #fff;
      }

      .st4 {
        fill: #cacecd;
      }

      .st11 {
        fill: #fffefe;
      }

      .st5 {
        fill: #6abdb5;
      }

      .st12 {
        fill: #f8f7f8;
      }
    </style>
  </defs>
  <rect class="st1" x="152.3" y="113.64" width="64.23" height="64.23"/>
  <rect class="st4" x="152.3" y="177.87" width="64.23" height="64.23"/>
  <rect class="st4" x="152.3" y="242.1" width="64.23" height="64.23"/>
  <rect class="st4" x="152.3" y="306.33" width="64.23" height="64.23"/>
  <rect class="st4" x="152.3" y="370.56" width="64.23" height="64.23"/>
  <rect class="st4" x="216.53" y="242.1" width="64.23" height="64.23"/>
  <rect class="st4" x="216.53" y="306.33" width="64.23" height="64.23"/>
  <rect class="st4" x="216.53" y="370.56" width="64.23" height="64.23"/>
  <rect class="st3" x="216.53" y="177.87" width="64.23" height="64.23"/>
  <rect class="st4" x="280.76" y="306.33" width="64.23" height="64.23"/>
  <rect class="st4" x="280.76" y="370.56" width="64.23" height="64.23"/>
  <rect class="st5" x="280.76" y="242.1" width="64.23" height="64.23"/>
  <rect class="st4" x="344.99" y="370.56" width="64.23" height="64.23"/>
  <rect class="st5" x="344.99" y="306.33" width="64.23" height="64.23"/>
  <rect class="st0" x="409.22" y="370.56" width="64.23" height="64.23"/>
  <rect class="st2" x="216.53" y="113.64" width="64.23" height="64.23"/>
  <rect class="st2" x="280.76" y="113.64" width="64.23" height="64.23"/>
  <rect class="st2" x="344.99" y="113.64" width="64.23" height="64.23"/>
  <rect class="st2" x="409.22" y="113.64" width="64.23" height="64.23"/>
  <rect class="st2" x="280.76" y="177.87" width="64.23" height="64.23"/>
  <rect class="st2" x="344.99" y="177.87" width="64.23" height="64.23"/>
  <rect class="st2" x="409.22" y="177.87" width="64.23" height="64.23"/>
  <rect class="st2" x="344.99" y="242.1" width="64.23" height="64.23"/>
  <rect class="st2" x="409.22" y="242.1" width="64.23" height="64.23"/>
  <rect class="st2" x="409.22" y="306.33" width="64.23" height="64.23"/>
  <g>
    <path class="st6" d="M165.71,83.59h2.27c1.6,0,2.78.55,2.78,2.22s-1.19,2.33-2.74,2.33h-1.03v2.64h-1.28v-7.19ZM167.92,87.12c1.07,0,1.58-.43,1.58-1.31s-.56-1.2-1.63-1.2h-.88v2.51h.93Z"/>
    <path class="st6" d="M172,83.01h1.27v2.01l-.05,1.04c.45-.43.99-.82,1.73-.82,1.16,0,1.66.78,1.66,2.15v3.39h-1.27v-3.23c0-.89-.26-1.22-.84-1.22-.48,0-.79.23-1.23.67v3.78h-1.27v-7.77Z"/>
    <path class="st6" d="M177.79,92.89l.23-.98c.1.03.26.07.39.07.57,0,.9-.39,1.08-.93l.1-.34-2.13-5.34h1.29l.93,2.65c.16.48.32,1.01.48,1.53h.04c.14-.5.27-1.03.41-1.53l.81-2.65h1.22l-1.95,5.65c-.45,1.22-1.02,1.97-2.2,1.97-.29,0-.51-.04-.7-.11Z"/>
    <path class="st6" d="M183.05,90.16l.59-.81c.48.37.94.6,1.49.6.59,0,.87-.28.87-.65,0-.45-.59-.66-1.16-.88-.71-.27-1.52-.67-1.52-1.58s.76-1.62,1.97-1.62c.75,0,1.36.31,1.8.65l-.58.78c-.38-.28-.76-.47-1.18-.47-.54,0-.8.26-.8.6,0,.43.55.59,1.13.81.73.27,1.55.62,1.55,1.63,0,.93-.74,1.68-2.1,1.68-.74,0-1.52-.32-2.05-.75Z"/>
    <path class="st6" d="M188.18,83.71c0-.43.33-.72.78-.72s.78.29.78.72-.33.72-.78.72-.78-.3-.78-.72ZM188.33,85.38h1.27v5.4h-1.27v-5.4Z"/>
    <path class="st6" d="M190.85,88.08c0-1.8,1.27-2.84,2.71-2.84.69,0,1.19.26,1.58.61l-.62.82c-.29-.25-.56-.4-.9-.4-.87,0-1.47.72-1.47,1.8s.59,1.8,1.43,1.8c.42,0,.81-.21,1.12-.47l.52.84c-.51.45-1.15.66-1.76.66-1.47,0-2.61-1.04-2.61-2.83Z"/>
    <path class="st6" d="M195.89,89.33c0-1.16.96-1.76,3.18-2-.02-.58-.25-1.06-.98-1.06-.54,0-1.04.24-1.52.53l-.47-.85c.59-.37,1.36-.71,2.22-.71,1.35,0,2.02.83,2.02,2.34v3.2h-1.04l-.1-.6h-.04c-.48.41-1.04.73-1.68.73-.95,0-1.6-.64-1.6-1.58ZM199.07,89.33v-1.21c-1.47.19-1.95.57-1.95,1.11,0,.48.33.69.78.69s.77-.22,1.17-.59Z"/>
    <path class="st6" d="M201.86,89.39v-6.38h1.27v6.45c0,.31.14.42.27.42.06,0,.1,0,.2-.02l.16.95c-.15.06-.37.11-.67.11-.9,0-1.23-.58-1.23-1.52Z"/>
    <path class="st6" d="M168.23,101.28c0-1.8,1.27-2.84,2.71-2.84.69,0,1.19.26,1.58.61l-.62.82c-.29-.25-.56-.4-.9-.4-.87,0-1.47.72-1.47,1.8s.59,1.8,1.43,1.8c.42,0,.81-.21,1.12-.47l.52.84c-.51.45-1.15.66-1.76.66-1.47,0-2.61-1.04-2.61-2.83Z"/>
    <path class="st6" d="M173.66,98.58h1.04l.1.96h.04c.38-.7.96-1.1,1.54-1.1.27,0,.45.04.61.11l-.22,1.1c-.19-.05-.33-.09-.55-.09-.43,0-.95.29-1.28,1.12v3.3h-1.27v-5.4Z"/>
    <path class="st6" d="M177.71,101.97v-3.39h1.27v3.23c0,.89.25,1.22.84,1.22.48,0,.79-.22,1.2-.75v-3.7h1.27v5.4h-1.04l-.1-.8h-.04c-.48.56-1,.93-1.74.93-1.16,0-1.66-.78-1.66-2.15Z"/>
    <path class="st6" d="M183.53,101.28c0-1.76,1.22-2.84,2.49-2.84,1.46,0,2.23,1.06,2.23,2.57,0,.24-.03.48-.06.62h-3.43c.11.96.72,1.51,1.59,1.51.46,0,.86-.15,1.25-.39l.43.79c-.51.35-1.17.58-1.85.58-1.49,0-2.66-1.05-2.66-2.83ZM187.15,100.76c0-.83-.37-1.34-1.11-1.34-.63,0-1.18.47-1.29,1.34h2.4Z"/>
    <path class="st6" d="M189.46,102.59v-6.38h1.27v6.45c0,.31.14.42.27.42.06,0,.1,0,.2-.02l.16.95c-.15.06-.37.11-.67.11-.9,0-1.23-.58-1.23-1.52Z"/>
    <path class="st6" d="M192.63,102.16v-2.57h-.77v-.95l.84-.06.15-1.47h1.05v1.47h1.38v1.01h-1.38v2.57c0,.64.25.95.77.95.18,0,.4-.06.56-.12l.22.93c-.29.1-.67.2-1.1.2-1.25,0-1.71-.79-1.71-1.95Z"/>
    <path class="st6" d="M196.06,106.09l.23-.98c.1.03.26.07.39.07.57,0,.9-.39,1.08-.93l.1-.34-2.13-5.34h1.29l.93,2.65c.16.48.32,1.01.48,1.53h.04c.14-.5.27-1.03.41-1.53l.81-2.65h1.22l-1.95,5.65c-.45,1.22-1.02,1.97-2.2,1.97-.29,0-.51-.04-.7-.11Z"/>
  </g>
  <g>
    <path class="st6" d="M222.84,83.59h2.42c1.5,0,2.65.53,2.65,2.13s-1.15,2.25-2.65,2.25h-1.15v2.81h-1.28v-7.19ZM225.13,86.95c.99,0,1.52-.41,1.52-1.23s-.54-1.11-1.52-1.11h-1.02v2.34h1.02ZM225.02,87.63l.92-.76,2.25,3.91h-1.43l-1.74-3.15Z"/>
    <path class="st6" d="M228.77,88.08c0-1.76,1.22-2.84,2.49-2.84,1.46,0,2.23,1.06,2.23,2.57,0,.24-.03.48-.06.62h-3.43c.11.96.72,1.51,1.59,1.51.46,0,.86-.15,1.25-.39l.43.79c-.51.35-1.17.58-1.85.58-1.49,0-2.66-1.05-2.66-2.83ZM232.4,87.56c0-.83-.37-1.34-1.11-1.34-.63,0-1.18.47-1.29,1.34h2.4Z"/>
    <path class="st6" d="M234.7,85.38h1.04l.1.74h.04c.46-.48.98-.87,1.66-.87.79,0,1.24.36,1.49.97.52-.55,1.05-.97,1.74-.97,1.14,0,1.67.78,1.67,2.15v3.39h-1.27v-3.23c0-.89-.26-1.22-.83-1.22-.34,0-.71.22-1.13.67v3.78h-1.27v-3.23c0-.89-.26-1.22-.83-1.22-.33,0-.71.22-1.13.67v3.78h-1.27v-5.4Z"/>
    <path class="st6" d="M243.62,88.08c0-1.8,1.22-2.84,2.57-2.84s2.57,1.04,2.57,2.84-1.22,2.83-2.57,2.83-2.57-1.04-2.57-2.83ZM247.46,88.08c0-1.08-.48-1.8-1.27-1.8s-1.27.72-1.27,1.8.48,1.8,1.27,1.8,1.27-.71,1.27-1.8Z"/>
    <path class="st6" d="M249.28,85.38h1.29l.86,2.8c.15.53.31,1.09.46,1.63h.04c.15-.54.31-1.1.46-1.63l.86-2.8h1.22l-1.83,5.4h-1.47l-1.88-5.4Z"/>
    <path class="st6" d="M254.88,89.33c0-1.16.96-1.76,3.18-2-.02-.58-.25-1.06-.98-1.06-.54,0-1.04.24-1.52.53l-.47-.85c.59-.37,1.36-.71,2.22-.71,1.35,0,2.02.83,2.02,2.34v3.2h-1.04l-.1-.6h-.04c-.48.41-1.04.73-1.68.73-.95,0-1.6-.64-1.6-1.58ZM258.06,89.33v-1.21c-1.47.19-1.95.57-1.95,1.11,0,.48.33.69.78.69s.77-.22,1.17-.59Z"/>
    <path class="st6" d="M260.85,89.39v-6.38h1.27v6.45c0,.31.14.42.27.42.06,0,.1,0,.2-.02l.16.95c-.15.06-.37.11-.67.11-.9,0-1.23-.58-1.23-1.52Z"/>
    <path class="st6" d="M265.68,88.08c0-1.8,1.22-2.84,2.57-2.84s2.57,1.04,2.57,2.84-1.22,2.83-2.57,2.83-2.57-1.04-2.57-2.83ZM269.51,88.08c0-1.08-.48-1.8-1.27-1.8s-1.27.72-1.27,1.8.48,1.8,1.27,1.8,1.27-.71,1.27-1.8Z"/>
    <path class="st6" d="M272.07,85.38h1.04l.1.96h.04c.38-.7.96-1.1,1.54-1.1.27,0,.45.04.61.11l-.22,1.1c-.19-.05-.33-.09-.55-.09-.43,0-.95.29-1.28,1.12v3.3h-1.27v-5.4Z"/>
    <path class="st6" d="M225.39,98.58h1.04l.1.96h.04c.38-.7.96-1.1,1.54-1.1.27,0,.45.04.61.11l-.22,1.1c-.19-.05-.33-.09-.55-.09-.43,0-.95.29-1.28,1.12v3.3h-1.27v-5.4Z"/>
    <path class="st6" d="M229.03,101.28c0-1.76,1.22-2.84,2.49-2.84,1.46,0,2.23,1.06,2.23,2.57,0,.24-.03.48-.06.62h-3.43c.11.96.72,1.51,1.59,1.51.46,0,.86-.15,1.25-.39l.43.79c-.51.35-1.17.58-1.85.58-1.49,0-2.66-1.05-2.66-2.83ZM232.66,100.76c0-.83-.37-1.34-1.11-1.34-.63,0-1.18.47-1.29,1.34h2.4Z"/>
    <path class="st6" d="M234.96,102.59v-6.38h1.27v6.45c0,.31.14.42.27.42.06,0,.1,0,.2-.02l.16.95c-.15.06-.37.11-.67.11-.9,0-1.23-.58-1.23-1.52Z"/>
    <path class="st6" d="M237.59,101.28c0-1.8,1.22-2.84,2.57-2.84s2.57,1.04,2.57,2.84-1.22,2.83-2.57,2.83-2.57-1.04-2.57-2.83ZM241.43,101.28c0-1.08-.48-1.8-1.27-1.8s-1.27.72-1.27,1.8.48,1.8,1.27,1.8,1.27-.71,1.27-1.8Z"/>
    <path class="st6" d="M243.63,101.28c0-1.8,1.27-2.84,2.71-2.84.69,0,1.19.26,1.58.61l-.62.82c-.29-.25-.56-.4-.9-.4-.87,0-1.47.72-1.47,1.8s.59,1.8,1.43,1.8c.42,0,.81-.21,1.12-.47l.52.84c-.51.45-1.15.66-1.76.66-1.47,0-2.61-1.04-2.61-2.83Z"/>
    <path class="st6" d="M248.67,102.53c0-1.16.96-1.76,3.18-2-.02-.58-.25-1.06-.98-1.06-.54,0-1.04.24-1.52.53l-.47-.85c.59-.37,1.36-.71,2.22-.71,1.35,0,2.02.83,2.02,2.34v3.2h-1.04l-.1-.6h-.04c-.48.41-1.04.73-1.68.73-.95,0-1.6-.64-1.6-1.58ZM251.84,102.53v-1.21c-1.47.19-1.95.57-1.95,1.11,0,.48.33.69.78.69s.77-.22,1.17-.59Z"/>
    <path class="st6" d="M254.64,102.16v-2.57h-.77v-.95l.84-.06.15-1.47h1.05v1.47h1.38v1.01h-1.38v2.57c0,.64.25.95.77.95.18,0,.4-.06.56-.12l.22.93c-.29.1-.67.2-1.1.2-1.25,0-1.71-.79-1.71-1.95Z"/>
    <path class="st6" d="M258.28,96.91c0-.43.33-.72.78-.72s.78.29.78.72-.33.72-.78.72-.78-.3-.78-.72ZM258.43,98.58h1.27v5.4h-1.27v-5.4Z"/>
    <path class="st6" d="M260.95,101.28c0-1.8,1.22-2.84,2.57-2.84s2.57,1.04,2.57,2.84-1.22,2.83-2.57,2.83-2.57-1.04-2.57-2.83ZM264.79,101.28c0-1.08-.48-1.8-1.27-1.8s-1.27.72-1.27,1.8.48,1.8,1.27,1.8,1.27-.71,1.27-1.8Z"/>
    <path class="st6" d="M267.35,98.58h1.04l.1.73h.04c.48-.47,1.03-.86,1.77-.86,1.16,0,1.66.78,1.66,2.15v3.39h-1.27v-3.23c0-.89-.26-1.22-.84-1.22-.48,0-.79.23-1.23.67v3.78h-1.27v-5.4Z"/>
  </g>
  <g>
    <path class="st6" d="M287.51,83.59h1.28v7.19h-1.28v-7.19Z"/>
    <path class="st6" d="M290.5,85.38h1.04l.1.73h.04c.48-.47,1.03-.86,1.77-.86,1.16,0,1.66.78,1.66,2.15v3.39h-1.27v-3.23c0-.89-.25-1.22-.84-1.22-.47,0-.79.23-1.23.67v3.78h-1.27v-5.4Z"/>
    <path class="st6" d="M296.12,90.16l.59-.81c.48.37.94.6,1.49.6.59,0,.87-.28.87-.65,0-.45-.58-.66-1.16-.88-.71-.27-1.52-.67-1.52-1.58s.76-1.62,1.97-1.62c.75,0,1.36.31,1.8.65l-.58.78c-.38-.28-.76-.47-1.18-.47-.54,0-.8.26-.8.6,0,.43.54.59,1.13.81.73.27,1.55.62,1.55,1.63,0,.93-.74,1.68-2.1,1.68-.74,0-1.52-.32-2.05-.75Z"/>
    <path class="st6" d="M301.37,88.96v-2.57h-.77v-.95l.84-.06.15-1.47h1.05v1.47h1.38v1.01h-1.38v2.57c0,.64.25.95.77.95.18,0,.4-.06.56-.12l.22.93c-.29.1-.67.2-1.1.2-1.25,0-1.71-.79-1.71-1.95Z"/>
    <path class="st6" d="M305,83.71c0-.43.33-.72.78-.72s.78.29.78.72-.33.72-.78.72-.78-.3-.78-.72ZM305.15,85.38h1.27v5.4h-1.27v-5.4Z"/>
    <path class="st6" d="M308.22,88.96v-2.57h-.77v-.95l.84-.06.15-1.47h1.05v1.47h1.38v1.01h-1.38v2.57c0,.64.25.95.77.95.18,0,.4-.06.56-.12l.22.93c-.29.1-.67.2-1.1.2-1.25,0-1.71-.79-1.71-1.95Z"/>
    <path class="st6" d="M311.94,88.77v-3.39h1.27v3.23c0,.89.25,1.22.84,1.22.48,0,.79-.22,1.2-.75v-3.7h1.27v5.4h-1.04l-.1-.8h-.04c-.48.56-1,.93-1.74.93-1.16,0-1.66-.78-1.66-2.15Z"/>
    <path class="st6" d="M318.31,88.96v-2.57h-.77v-.95l.84-.06.15-1.47h1.05v1.47h1.38v1.01h-1.38v2.57c0,.64.25.95.77.95.18,0,.4-.06.56-.12l.22.93c-.29.1-.67.2-1.1.2-1.25,0-1.71-.79-1.71-1.95Z"/>
    <path class="st6" d="M321.94,83.71c0-.43.33-.72.78-.72s.78.29.78.72-.33.72-.78.72-.78-.3-.78-.72ZM322.09,85.38h1.27v5.4h-1.27v-5.4Z"/>
    <path class="st6" d="M324.61,88.08c0-1.8,1.22-2.84,2.57-2.84s2.57,1.04,2.57,2.84-1.22,2.83-2.57,2.83-2.57-1.04-2.57-2.83ZM328.45,88.08c0-1.08-.47-1.8-1.27-1.8s-1.27.72-1.27,1.8.47,1.8,1.27,1.8,1.27-.71,1.27-1.8Z"/>
    <path class="st6" d="M331.01,85.38h1.04l.1.73h.04c.48-.47,1.03-.86,1.77-.86,1.16,0,1.66.78,1.66,2.15v3.39h-1.27v-3.23c0-.89-.25-1.22-.84-1.22-.47,0-.79.23-1.23.67v3.78h-1.27v-5.4Z"/>
    <path class="st6" d="M336.88,89.33c0-1.16.96-1.76,3.18-2-.02-.58-.25-1.06-.98-1.06-.54,0-1.04.24-1.52.53l-.47-.85c.59-.37,1.36-.71,2.22-.71,1.35,0,2.02.83,2.02,2.34v3.2h-1.04l-.1-.6h-.04c-.48.41-1.04.73-1.68.73-.95,0-1.6-.64-1.6-1.58ZM340.06,89.33v-1.21c-1.47.19-1.95.57-1.95,1.11,0,.48.33.69.78.69s.77-.22,1.17-.59Z"/>
    <path class="st6" d="M342.85,89.39v-6.38h1.27v6.45c0,.31.14.42.27.42.06,0,.1,0,.2-.02l.16.95c-.15.06-.37.11-.67.11-.9,0-1.23-.58-1.23-1.52Z"/>
    <path class="st6" d="M299.19,98.58h1.04l.1.73h.04c.48-.47,1.03-.86,1.77-.86,1.16,0,1.66.78,1.66,2.15v3.39h-1.27v-3.23c0-.89-.26-1.22-.84-1.22-.48,0-.79.23-1.23.67v3.78h-1.27v-5.4Z"/>
    <path class="st6" d="M304.99,101.28c0-1.76,1.22-2.84,2.49-2.84,1.46,0,2.23,1.06,2.23,2.57,0,.24-.03.48-.06.62h-3.43c.11.96.72,1.51,1.59,1.51.46,0,.86-.15,1.25-.39l.43.79c-.51.35-1.17.58-1.85.58-1.49,0-2.66-1.05-2.66-2.83ZM308.62,100.76c0-.83-.37-1.34-1.11-1.34-.63,0-1.18.47-1.29,1.34h2.4Z"/>
    <path class="st6" d="M310.44,104.96c0-.46.28-.85.78-1.15v-.04c-.28-.18-.49-.47-.49-.9s.29-.79.6-1.01v-.04c-.37-.27-.71-.79-.71-1.43,0-1.24,1-1.94,2.13-1.94.3,0,.58.05.8.13h1.93v.94h-.99c.18.2.31.54.31.91,0,1.2-.91,1.84-2.05,1.84-.23,0-.49-.05-.73-.14-.16.14-.26.27-.26.52,0,.3.22.49.88.49h.96c1.29,0,1.98.4,1.98,1.33,0,1.06-1.12,1.91-2.88,1.91-1.29,0-2.25-.46-2.25-1.41ZM314.35,104.67c0-.42-.33-.54-.95-.54h-.74c-.29,0-.52-.02-.73-.07-.29.22-.42.46-.42.71,0,.49.53.78,1.38.78s1.46-.41,1.46-.88ZM313.69,100.39c0-.68-.41-1.06-.94-1.06s-.94.38-.94,1.06.42,1.09.94,1.09.94-.4.94-1.09Z"/>
    <path class="st6" d="M316.53,102.59v-6.38h1.27v6.45c0,.31.14.42.27.42.06,0,.1,0,.2-.02l.16.95c-.15.06-.37.11-.67.11-.9,0-1.23-.58-1.23-1.52Z"/>
    <path class="st6" d="M319.16,101.28c0-1.76,1.22-2.84,2.49-2.84,1.46,0,2.23,1.06,2.23,2.57,0,.24-.03.48-.05.62h-3.43c.11.96.72,1.51,1.59,1.51.46,0,.86-.15,1.25-.39l.43.79c-.51.35-1.17.58-1.85.58-1.49,0-2.66-1.05-2.66-2.83ZM322.78,100.76c0-.83-.37-1.34-1.11-1.34-.63,0-1.18.47-1.29,1.34h2.4Z"/>
    <path class="st6" d="M324.73,101.28c0-1.8,1.27-2.84,2.71-2.84.69,0,1.19.26,1.58.61l-.62.82c-.29-.25-.56-.4-.9-.4-.87,0-1.47.72-1.47,1.8s.59,1.8,1.43,1.8c.42,0,.81-.21,1.12-.47l.51.84c-.51.45-1.15.66-1.76.66-1.47,0-2.61-1.04-2.61-2.83Z"/>
    <path class="st6" d="M330.25,102.16v-2.57h-.77v-.95l.84-.06.15-1.47h1.05v1.47h1.38v1.01h-1.38v2.57c0,.64.25.95.77.95.18,0,.4-.06.56-.12l.22.93c-.29.1-.67.2-1.1.2-1.25,0-1.71-.79-1.71-1.95Z"/>
  </g>
  <g>
    <path class="st6" d="M363.59,83.59h1.35l1.01,3.62c.23.82.39,1.52.63,2.34h.04c.24-.82.41-1.52.63-2.34l1-3.62h1.3l-2.23,7.19h-1.51l-2.24-7.19Z"/>
    <path class="st6" d="M369.79,88.08c0-1.76,1.22-2.84,2.49-2.84,1.46,0,2.23,1.06,2.23,2.57,0,.24-.03.48-.06.62h-3.43c.11.96.72,1.51,1.59,1.51.46,0,.86-.15,1.25-.39l.43.79c-.51.35-1.17.58-1.85.58-1.49,0-2.66-1.05-2.66-2.83ZM373.42,87.56c0-.83-.37-1.34-1.11-1.34-.63,0-1.18.47-1.29,1.34h2.4Z"/>
    <path class="st6" d="M375.72,83.01h1.27v2.01l-.05,1.04c.45-.43.99-.82,1.73-.82,1.16,0,1.66.78,1.66,2.15v3.39h-1.27v-3.23c0-.89-.25-1.22-.84-1.22-.47,0-.79.23-1.23.67v3.78h-1.27v-7.77Z"/>
    <path class="st6" d="M381.72,83.71c0-.43.33-.72.78-.72s.78.29.78.72-.33.72-.78.72-.78-.3-.78-.72ZM381.86,85.38h1.27v5.4h-1.27v-5.4Z"/>
    <path class="st6" d="M384.39,88.08c0-1.8,1.27-2.84,2.71-2.84.69,0,1.19.26,1.58.61l-.62.82c-.29-.25-.56-.4-.9-.4-.87,0-1.47.72-1.47,1.8s.59,1.8,1.43,1.8c.42,0,.81-.21,1.12-.47l.51.84c-.51.45-1.15.66-1.76.66-1.47,0-2.61-1.04-2.61-2.83Z"/>
    <path class="st6" d="M389.83,89.39v-6.38h1.27v6.45c0,.31.14.42.27.42.06,0,.1,0,.2-.02l.16.95c-.15.06-.37.11-.67.11-.9,0-1.23-.58-1.23-1.52Z"/>
    <path class="st6" d="M392.45,88.08c0-1.76,1.22-2.84,2.49-2.84,1.46,0,2.23,1.06,2.23,2.57,0,.24-.03.48-.05.62h-3.43c.11.96.72,1.51,1.59,1.51.46,0,.86-.15,1.25-.39l.43.79c-.51.35-1.17.58-1.85.58-1.49,0-2.66-1.05-2.66-2.83ZM396.08,87.56c0-.83-.37-1.34-1.11-1.34-.63,0-1.18.47-1.29,1.34h2.4Z"/>
    <path class="st6" d="M361.33,101.28c0-1.8,1.27-2.84,2.71-2.84.69,0,1.19.26,1.58.61l-.62.82c-.29-.25-.56-.4-.9-.4-.87,0-1.47.72-1.47,1.8s.59,1.8,1.43,1.8c.42,0,.81-.21,1.12-.47l.51.84c-.51.45-1.15.66-1.76.66-1.47,0-2.61-1.04-2.61-2.83Z"/>
    <path class="st6" d="M366.14,101.28c0-1.8,1.22-2.84,2.57-2.84s2.57,1.04,2.57,2.84-1.22,2.83-2.57,2.83-2.57-1.04-2.57-2.83ZM369.98,101.28c0-1.08-.48-1.8-1.27-1.8s-1.27.72-1.27,1.8.48,1.8,1.27,1.8,1.27-.71,1.27-1.8Z"/>
    <path class="st6" d="M372.47,102.59v-6.38h1.27v6.45c0,.31.14.42.27.42.06,0,.1,0,.2-.02l.16.95c-.15.06-.37.11-.67.11-.9,0-1.23-.58-1.23-1.52Z"/>
    <path class="st6" d="M375.45,102.59v-6.38h1.27v6.45c0,.31.14.42.27.42.06,0,.1,0,.2-.02l.16.95c-.15.06-.37.11-.67.11-.9,0-1.23-.58-1.23-1.52Z"/>
    <path class="st6" d="M378.29,96.91c0-.43.33-.72.78-.72s.78.29.78.72-.33.72-.78.72-.78-.3-.78-.72ZM378.44,98.58h1.27v5.4h-1.27v-5.4Z"/>
    <path class="st6" d="M380.78,103.36l.59-.81c.48.37.94.6,1.49.6.59,0,.87-.28.87-.65,0-.45-.58-.66-1.16-.88-.71-.27-1.52-.67-1.52-1.58s.76-1.62,1.97-1.62c.75,0,1.36.31,1.8.65l-.58.78c-.38-.28-.76-.47-1.18-.47-.54,0-.8.26-.8.6,0,.43.54.59,1.13.81.73.27,1.55.62,1.55,1.63,0,.93-.74,1.68-2.1,1.68-.74,0-1.52-.32-2.05-.75Z"/>
    <path class="st6" d="M385.91,96.91c0-.43.33-.72.78-.72s.78.29.78.72-.33.72-.78.72-.78-.3-.78-.72ZM386.06,98.58h1.27v5.4h-1.27v-5.4Z"/>
    <path class="st6" d="M388.58,101.28c0-1.8,1.22-2.84,2.57-2.84s2.57,1.04,2.57,2.84-1.22,2.83-2.57,2.83-2.57-1.04-2.57-2.83ZM392.42,101.28c0-1.08-.47-1.8-1.27-1.8s-1.27.72-1.27,1.8.47,1.8,1.27,1.8,1.27-.71,1.27-1.8Z"/>
    <path class="st6" d="M394.98,98.58h1.04l.1.73h.04c.48-.47,1.03-.86,1.77-.86,1.16,0,1.66.78,1.66,2.15v3.39h-1.27v-3.23c0-.89-.25-1.22-.84-1.22-.47,0-.79.23-1.23.67v3.78h-1.27v-5.4Z"/>
  </g>
  <g>
    <path class="st6" d="M428.27,87.16c0-2.33,1.3-3.7,3.17-3.7s3.17,1.38,3.17,3.7-1.3,3.76-3.17,3.76-3.17-1.43-3.17-3.76ZM433.31,87.16c0-1.62-.73-2.59-1.86-2.59s-1.86.98-1.86,2.59.73,2.65,1.86,2.65,1.86-1.03,1.86-2.65Z"/>
    <path class="st6" d="M436.14,88.96v-2.57h-.77v-.95l.84-.06.15-1.47h1.05v1.47h1.38v1.01h-1.38v2.57c0,.64.25.95.77.95.18,0,.41-.06.56-.12l.22.93c-.29.1-.67.2-1.1.2-1.25,0-1.71-.79-1.71-1.95Z"/>
    <path class="st6" d="M439.92,83.01h1.27v2.01l-.05,1.04c.45-.43.99-.82,1.73-.82,1.16,0,1.66.78,1.66,2.15v3.39h-1.27v-3.23c0-.89-.26-1.22-.84-1.22-.48,0-.79.23-1.23.67v3.78h-1.27v-7.77Z"/>
    <path class="st6" d="M445.71,88.08c0-1.76,1.22-2.84,2.49-2.84,1.46,0,2.23,1.06,2.23,2.57,0,.24-.03.48-.05.62h-3.43c.11.96.72,1.51,1.59,1.51.46,0,.86-.15,1.25-.39l.43.79c-.51.35-1.17.58-1.85.58-1.49,0-2.66-1.05-2.66-2.83ZM449.33,87.56c0-.83-.37-1.34-1.11-1.34-.63,0-1.18.47-1.29,1.34h2.4Z"/>
    <path class="st6" d="M451.64,85.38h1.04l.1.96h.04c.38-.7.96-1.1,1.54-1.1.27,0,.45.04.61.11l-.22,1.1c-.19-.05-.33-.09-.55-.09-.43,0-.95.29-1.28,1.12v3.3h-1.27v-5.4Z"/>
    <path class="st6" d="M429.55,96.21h1.27v2.01l-.05,1.04c.45-.43.99-.82,1.73-.82,1.16,0,1.66.78,1.66,2.15v3.39h-1.27v-3.23c0-.89-.25-1.22-.84-1.22-.47,0-.79.23-1.23.67v3.78h-1.27v-7.77Z"/>
    <path class="st6" d="M435.39,102.53c0-1.16.96-1.76,3.18-2-.02-.58-.25-1.06-.98-1.06-.54,0-1.04.24-1.52.53l-.47-.85c.59-.37,1.36-.71,2.22-.71,1.35,0,2.02.83,2.02,2.34v3.2h-1.04l-.1-.6h-.04c-.48.41-1.04.73-1.68.73-.95,0-1.6-.64-1.6-1.58ZM438.57,102.53v-1.21c-1.46.19-1.95.57-1.95,1.11,0,.48.33.69.78.69s.77-.22,1.17-.59Z"/>
    <path class="st6" d="M441.36,98.58h1.04l.1.96h.04c.38-.7.96-1.1,1.54-1.1.27,0,.45.04.61.11l-.22,1.1c-.19-.05-.33-.09-.55-.09-.43,0-.95.29-1.28,1.12v3.3h-1.27v-5.4Z"/>
    <path class="st6" d="M445.46,98.58h1.04l.1.74h.04c.46-.48.98-.87,1.66-.87.79,0,1.24.36,1.49.97.52-.55,1.05-.97,1.74-.97,1.14,0,1.67.78,1.67,2.15v3.39h-1.27v-3.23c0-.89-.26-1.22-.83-1.22-.34,0-.71.22-1.13.67v3.78h-1.27v-3.23c0-.89-.26-1.22-.83-1.22-.33,0-.71.22-1.13.67v3.78h-1.27v-5.4Z"/>
  </g>
  <g>
    <path class="st6" d="M97.98,135.84h2.27c1.6,0,2.78.55,2.78,2.22s-1.19,2.33-2.74,2.33h-1.03v2.64h-1.28v-7.19ZM100.19,139.37c1.07,0,1.58-.43,1.58-1.31s-.56-1.2-1.63-1.2h-.88v2.51h.93Z"/>
    <path class="st6" d="M104.27,135.27h1.27v2.01l-.05,1.04c.45-.43.99-.82,1.73-.82,1.16,0,1.66.78,1.66,2.15v3.39h-1.27v-3.23c0-.89-.26-1.22-.84-1.22-.48,0-.79.23-1.23.67v3.78h-1.27v-7.77Z"/>
    <path class="st6" d="M110.06,145.15l.23-.98c.1.03.26.07.39.07.57,0,.9-.39,1.08-.93l.1-.34-2.13-5.34h1.29l.93,2.65c.16.48.32,1.01.48,1.53h.04c.14-.5.27-1.03.41-1.53l.81-2.65h1.22l-1.95,5.65c-.45,1.22-1.02,1.97-2.2,1.97-.29,0-.51-.04-.7-.11Z"/>
    <path class="st6" d="M115.32,142.42l.59-.81c.48.37.94.6,1.49.6.59,0,.87-.28.87-.65,0-.45-.59-.66-1.16-.88-.71-.27-1.52-.67-1.52-1.58s.76-1.62,1.97-1.62c.75,0,1.36.31,1.8.65l-.58.78c-.38-.28-.76-.47-1.18-.47-.54,0-.8.26-.8.6,0,.43.55.59,1.13.81.73.27,1.55.62,1.55,1.63,0,.93-.74,1.68-2.1,1.68-.74,0-1.52-.32-2.05-.75Z"/>
    <path class="st6" d="M120.45,135.97c0-.43.33-.72.78-.72s.78.29.78.72-.33.72-.78.72-.78-.3-.78-.72ZM120.6,137.64h1.27v5.4h-1.27v-5.4Z"/>
    <path class="st6" d="M123.12,140.34c0-1.8,1.27-2.84,2.71-2.84.69,0,1.19.26,1.58.61l-.62.82c-.29-.25-.56-.4-.9-.4-.87,0-1.47.72-1.47,1.8s.59,1.8,1.43,1.8c.42,0,.81-.21,1.12-.47l.52.84c-.51.45-1.15.66-1.76.66-1.47,0-2.61-1.04-2.61-2.83Z"/>
    <path class="st6" d="M128.16,141.59c0-1.16.96-1.76,3.18-2-.02-.58-.25-1.06-.98-1.06-.54,0-1.04.24-1.52.53l-.47-.85c.59-.37,1.36-.71,2.22-.71,1.35,0,2.02.83,2.02,2.34v3.2h-1.04l-.1-.6h-.04c-.48.41-1.04.73-1.68.73-.95,0-1.6-.64-1.6-1.58ZM131.34,141.59v-1.21c-1.47.19-1.95.57-1.95,1.11,0,.48.33.69.78.69s.77-.22,1.17-.59Z"/>
    <path class="st6" d="M134.13,141.65v-6.38h1.27v6.45c0,.31.14.42.27.42.06,0,.1,0,.2-.02l.16.95c-.15.06-.37.11-.67.11-.9,0-1.23-.58-1.23-1.52Z"/>
    <path class="st6" d="M100.5,153.54c0-1.8,1.27-2.84,2.71-2.84.69,0,1.19.26,1.58.61l-.62.82c-.29-.25-.56-.4-.9-.4-.87,0-1.47.72-1.47,1.8s.59,1.8,1.43,1.8c.42,0,.81-.21,1.12-.47l.52.84c-.51.45-1.15.66-1.76.66-1.47,0-2.61-1.04-2.61-2.83Z"/>
    <path class="st6" d="M105.93,150.84h1.04l.1.96h.04c.38-.7.96-1.1,1.54-1.1.27,0,.45.04.61.11l-.22,1.1c-.19-.05-.33-.09-.55-.09-.43,0-.95.29-1.28,1.12v3.3h-1.27v-5.4Z"/>
    <path class="st6" d="M109.98,154.22v-3.39h1.27v3.23c0,.89.25,1.22.84,1.22.48,0,.79-.22,1.2-.75v-3.7h1.27v5.4h-1.04l-.1-.8h-.04c-.48.56-1,.93-1.74.93-1.16,0-1.66-.78-1.66-2.15Z"/>
    <path class="st6" d="M115.8,153.54c0-1.76,1.22-2.84,2.49-2.84,1.46,0,2.23,1.06,2.23,2.57,0,.24-.03.48-.06.62h-3.43c.11.96.72,1.51,1.59,1.51.46,0,.86-.15,1.25-.39l.43.79c-.51.35-1.17.58-1.85.58-1.49,0-2.66-1.05-2.66-2.83ZM119.42,153.02c0-.83-.37-1.34-1.11-1.34-.63,0-1.18.47-1.29,1.34h2.4Z"/>
    <path class="st6" d="M121.73,154.85v-6.38h1.27v6.45c0,.31.14.42.27.42.06,0,.1,0,.2-.02l.16.95c-.15.06-.37.11-.67.11-.9,0-1.23-.58-1.23-1.52Z"/>
    <path class="st6" d="M124.9,154.42v-2.57h-.77v-.95l.84-.06.15-1.47h1.05v1.47h1.38v1.01h-1.38v2.57c0,.64.25.95.77.95.18,0,.4-.06.56-.12l.22.93c-.29.1-.67.2-1.1.2-1.25,0-1.71-.79-1.71-1.95Z"/>
    <path class="st6" d="M128.33,158.35l.23-.98c.1.03.26.07.39.07.57,0,.9-.39,1.08-.93l.1-.34-2.13-5.34h1.29l.93,2.65c.16.48.32,1.01.48,1.53h.04c.14-.5.27-1.03.41-1.53l.81-2.65h1.22l-1.95,5.65c-.45,1.22-1.02,1.97-2.2,1.97-.29,0-.51-.04-.7-.11Z"/>
  </g>
  <g>
    <path class="st6" d="M90.88,200.07h2.42c1.5,0,2.65.53,2.65,2.13s-1.15,2.25-2.65,2.25h-1.15v2.81h-1.28v-7.19ZM93.17,203.44c.99,0,1.52-.41,1.52-1.23s-.54-1.11-1.52-1.11h-1.02v2.34h1.02ZM93.06,204.12l.92-.76,2.25,3.91h-1.43l-1.74-3.15Z"/>
    <path class="st6" d="M96.81,204.57c0-1.76,1.22-2.84,2.49-2.84,1.46,0,2.23,1.06,2.23,2.57,0,.24-.03.48-.06.62h-3.43c.11.96.72,1.51,1.59,1.51.46,0,.86-.15,1.25-.39l.43.79c-.51.35-1.17.58-1.85.58-1.49,0-2.66-1.05-2.66-2.83ZM100.44,204.05c0-.83-.37-1.34-1.11-1.34-.63,0-1.18.47-1.29,1.34h2.4Z"/>
    <path class="st6" d="M102.74,201.87h1.04l.1.74h.04c.46-.48.98-.87,1.66-.87.79,0,1.24.36,1.49.97.52-.55,1.05-.97,1.74-.97,1.14,0,1.67.78,1.67,2.15v3.39h-1.27v-3.23c0-.89-.26-1.22-.83-1.22-.34,0-.71.22-1.13.67v3.78h-1.27v-3.23c0-.89-.26-1.22-.83-1.22-.33,0-.71.22-1.13.67v3.78h-1.27v-5.4Z"/>
    <path class="st6" d="M111.66,204.57c0-1.8,1.22-2.84,2.57-2.84s2.57,1.04,2.57,2.84-1.22,2.83-2.57,2.83-2.57-1.04-2.57-2.83ZM115.5,204.57c0-1.08-.48-1.8-1.27-1.8s-1.27.72-1.27,1.8.48,1.8,1.27,1.8,1.27-.71,1.27-1.8Z"/>
    <path class="st6" d="M117.32,201.87h1.29l.86,2.8c.15.53.31,1.09.46,1.63h.04c.15-.54.31-1.1.46-1.63l.86-2.8h1.22l-1.83,5.4h-1.47l-1.88-5.4Z"/>
    <path class="st6" d="M122.92,205.82c0-1.16.96-1.76,3.18-2-.02-.58-.25-1.06-.98-1.06-.54,0-1.04.24-1.52.53l-.47-.85c.59-.37,1.36-.71,2.22-.71,1.35,0,2.02.83,2.02,2.34v3.2h-1.04l-.1-.6h-.04c-.48.41-1.04.73-1.68.73-.95,0-1.6-.64-1.6-1.58ZM126.1,205.82v-1.21c-1.47.19-1.95.57-1.95,1.11,0,.48.33.69.78.69s.77-.22,1.17-.59Z"/>
    <path class="st6" d="M128.89,205.88v-6.38h1.27v6.45c0,.31.14.42.27.42.06,0,.1,0,.2-.02l.16.95c-.15.06-.37.11-.67.11-.9,0-1.23-.58-1.23-1.52Z"/>
    <path class="st6" d="M133.72,204.57c0-1.8,1.22-2.84,2.57-2.84s2.57,1.04,2.57,2.84-1.22,2.83-2.57,2.83-2.57-1.04-2.57-2.83ZM137.55,204.57c0-1.08-.48-1.8-1.27-1.8s-1.27.72-1.27,1.8.48,1.8,1.27,1.8,1.27-.71,1.27-1.8Z"/>
    <path class="st6" d="M140.11,201.87h1.04l.1.96h.04c.38-.7.96-1.1,1.54-1.1.27,0,.45.04.61.11l-.22,1.1c-.19-.05-.33-.09-.55-.09-.43,0-.95.29-1.28,1.12v3.3h-1.27v-5.4Z"/>
    <path class="st6" d="M93.43,215.07h1.04l.1.96h.04c.38-.7.96-1.1,1.54-1.1.27,0,.45.04.61.11l-.22,1.1c-.19-.05-.33-.09-.55-.09-.43,0-.95.29-1.28,1.12v3.3h-1.27v-5.4Z"/>
    <path class="st6" d="M97.07,217.77c0-1.76,1.22-2.84,2.49-2.84,1.46,0,2.23,1.06,2.23,2.57,0,.24-.03.48-.06.62h-3.43c.11.96.72,1.51,1.59,1.51.46,0,.86-.15,1.25-.39l.43.79c-.51.35-1.17.58-1.85.58-1.49,0-2.66-1.05-2.66-2.83ZM100.7,217.25c0-.83-.37-1.34-1.11-1.34-.63,0-1.18.47-1.29,1.34h2.4Z"/>
    <path class="st6" d="M103,219.08v-6.38h1.27v6.45c0,.31.14.42.27.42.06,0,.1,0,.2-.02l.16.95c-.15.06-.37.11-.67.11-.9,0-1.23-.58-1.23-1.52Z"/>
    <path class="st6" d="M105.63,217.77c0-1.8,1.22-2.84,2.57-2.84s2.57,1.04,2.57,2.84-1.22,2.83-2.57,2.83-2.57-1.04-2.57-2.83ZM109.46,217.77c0-1.08-.48-1.8-1.27-1.8s-1.27.72-1.27,1.8.48,1.8,1.27,1.8,1.27-.71,1.27-1.8Z"/>
    <path class="st6" d="M111.67,217.77c0-1.8,1.27-2.84,2.71-2.84.69,0,1.19.26,1.58.61l-.62.82c-.29-.25-.56-.4-.9-.4-.87,0-1.47.72-1.47,1.8s.59,1.8,1.43,1.8c.42,0,.81-.21,1.12-.47l.52.84c-.51.45-1.15.66-1.76.66-1.47,0-2.61-1.04-2.61-2.83Z"/>
    <path class="st6" d="M116.7,219.02c0-1.16.96-1.76,3.18-2-.02-.58-.25-1.06-.98-1.06-.54,0-1.04.24-1.52.53l-.47-.85c.59-.37,1.36-.71,2.22-.71,1.35,0,2.02.83,2.02,2.34v3.2h-1.04l-.1-.6h-.04c-.48.41-1.04.73-1.68.73-.95,0-1.6-.64-1.6-1.58ZM119.88,219.02v-1.21c-1.47.19-1.95.57-1.95,1.11,0,.48.33.69.78.69s.77-.22,1.17-.59Z"/>
    <path class="st6" d="M122.68,218.65v-2.57h-.77v-.95l.84-.06.15-1.47h1.05v1.47h1.38v1.01h-1.38v2.57c0,.64.25.95.77.95.18,0,.4-.06.56-.12l.22.93c-.29.1-.67.2-1.1.2-1.25,0-1.71-.79-1.71-1.95Z"/>
    <path class="st6" d="M126.32,213.4c0-.43.33-.72.78-.72s.78.29.78.72-.33.72-.78.72-.78-.3-.78-.72ZM126.47,215.07h1.27v5.4h-1.27v-5.4Z"/>
    <path class="st6" d="M128.99,217.77c0-1.8,1.22-2.84,2.57-2.84s2.57,1.04,2.57,2.84-1.22,2.83-2.57,2.83-2.57-1.04-2.57-2.83ZM132.83,217.77c0-1.08-.48-1.8-1.27-1.8s-1.27.72-1.27,1.8.48,1.8,1.27,1.8,1.27-.71,1.27-1.8Z"/>
    <path class="st6" d="M135.39,215.07h1.04l.1.73h.04c.48-.47,1.03-.86,1.77-.86,1.16,0,1.66.78,1.66,2.15v3.39h-1.27v-3.23c0-.89-.26-1.22-.84-1.22-.48,0-.79.23-1.23.67v3.78h-1.27v-5.4Z"/>
  </g>
  <g>
    <path class="st6" d="M88.38,264.31h1.28v7.19h-1.28v-7.19Z"/>
    <path class="st6" d="M91.38,266.1h1.04l.1.73h.04c.48-.47,1.03-.86,1.77-.86,1.16,0,1.66.78,1.66,2.15v3.39h-1.27v-3.23c0-.89-.26-1.22-.84-1.22-.48,0-.79.23-1.23.67v3.78h-1.27v-5.4Z"/>
    <path class="st6" d="M97,270.88l.59-.8c.48.37.94.6,1.49.6.59,0,.87-.28.87-.65,0-.45-.59-.66-1.16-.88-.71-.27-1.52-.67-1.52-1.58s.76-1.62,1.97-1.62c.75,0,1.36.31,1.8.65l-.58.78c-.38-.28-.76-.47-1.18-.47-.54,0-.8.26-.8.6,0,.43.55.59,1.13.81.73.27,1.55.62,1.55,1.63,0,.93-.74,1.68-2.1,1.68-.74,0-1.52-.32-2.05-.75Z"/>
    <path class="st6" d="M102.25,269.68v-2.57h-.77v-.95l.84-.06.15-1.47h1.05v1.47h1.38v1.01h-1.38v2.57c0,.64.25.95.77.95.18,0,.4-.06.56-.12l.22.93c-.29.1-.67.2-1.1.2-1.25,0-1.71-.79-1.71-1.95Z"/>
    <path class="st6" d="M105.88,264.43c0-.43.33-.72.78-.72s.78.29.78.72-.33.72-.78.72-.78-.3-.78-.72ZM106.03,266.1h1.27v5.4h-1.27v-5.4Z"/>
    <path class="st6" d="M109.1,269.68v-2.57h-.77v-.95l.84-.06.15-1.47h1.05v1.47h1.38v1.01h-1.38v2.57c0,.64.25.95.77.95.18,0,.4-.06.56-.12l.22.93c-.29.1-.67.2-1.1.2-1.25,0-1.71-.79-1.71-1.95Z"/>
    <path class="st6" d="M112.82,269.48v-3.39h1.27v3.23c0,.89.25,1.22.84,1.22.48,0,.79-.22,1.2-.75v-3.7h1.27v5.4h-1.04l-.1-.8h-.04c-.48.56-1,.93-1.74.93-1.16,0-1.66-.78-1.66-2.15Z"/>
    <path class="st6" d="M119.19,269.68v-2.57h-.77v-.95l.84-.06.15-1.47h1.05v1.47h1.38v1.01h-1.38v2.57c0,.64.25.95.77.95.18,0,.4-.06.56-.12l.22.93c-.29.1-.67.2-1.1.2-1.25,0-1.71-.79-1.71-1.95Z"/>
    <path class="st6" d="M122.82,264.43c0-.43.33-.72.78-.72s.78.29.78.72-.33.72-.78.72-.78-.3-.78-.72ZM122.97,266.1h1.27v5.4h-1.27v-5.4Z"/>
    <path class="st6" d="M125.49,268.8c0-1.8,1.22-2.84,2.57-2.84s2.57,1.04,2.57,2.84-1.22,2.83-2.57,2.83-2.57-1.04-2.57-2.83ZM129.33,268.8c0-1.08-.48-1.8-1.27-1.8s-1.27.72-1.27,1.8.48,1.8,1.27,1.8,1.27-.71,1.27-1.8Z"/>
    <path class="st6" d="M131.89,266.1h1.04l.1.73h.04c.48-.47,1.03-.86,1.77-.86,1.16,0,1.66.78,1.66,2.15v3.39h-1.27v-3.23c0-.89-.26-1.22-.84-1.22-.48,0-.79.23-1.23.67v3.78h-1.27v-5.4Z"/>
    <path class="st6" d="M137.76,270.05c0-1.16.96-1.76,3.18-2-.02-.58-.25-1.06-.98-1.06-.54,0-1.04.24-1.52.53l-.47-.85c.59-.37,1.36-.71,2.22-.71,1.35,0,2.02.83,2.02,2.34v3.2h-1.04l-.1-.6h-.04c-.48.41-1.04.73-1.68.73-.95,0-1.6-.64-1.6-1.58ZM140.94,270.05v-1.21c-1.47.19-1.95.57-1.95,1.11,0,.48.33.69.78.69s.77-.22,1.17-.59Z"/>
    <path class="st6" d="M143.72,270.11v-6.38h1.27v6.45c0,.31.14.42.27.42.06,0,.1,0,.2-.02l.16.95c-.15.06-.37.11-.67.11-.9,0-1.23-.58-1.23-1.52Z"/>
    <path class="st6" d="M100.07,279.3h1.04l.1.73h.04c.48-.47,1.03-.86,1.77-.86,1.16,0,1.66.78,1.66,2.15v3.39h-1.27v-3.23c0-.89-.26-1.22-.84-1.22-.48,0-.79.23-1.23.67v3.78h-1.27v-5.4Z"/>
    <path class="st6" d="M105.87,282c0-1.76,1.22-2.84,2.49-2.84,1.46,0,2.23,1.06,2.23,2.57,0,.24-.03.48-.06.62h-3.43c.11.96.72,1.5,1.59,1.5.46,0,.86-.15,1.25-.39l.43.79c-.51.35-1.17.58-1.85.58-1.49,0-2.66-1.05-2.66-2.83ZM109.5,281.48c0-.83-.37-1.34-1.11-1.34-.63,0-1.18.47-1.29,1.34h2.4Z"/>
    <path class="st6" d="M111.32,285.68c0-.46.28-.85.78-1.15v-.04c-.28-.18-.49-.47-.49-.9s.29-.79.6-1.01v-.04c-.37-.27-.71-.79-.71-1.43,0-1.24,1-1.94,2.13-1.94.3,0,.58.05.8.13h1.93v.94h-.99c.18.2.31.54.31.91,0,1.2-.91,1.84-2.06,1.84-.23,0-.49-.05-.73-.14-.16.14-.26.28-.26.52,0,.3.22.49.88.49h.96c1.29,0,1.98.4,1.98,1.33,0,1.07-1.12,1.91-2.88,1.91-1.29,0-2.25-.46-2.25-1.41ZM115.23,285.39c0-.42-.33-.54-.95-.54h-.74c-.29,0-.52-.02-.73-.08-.29.22-.42.46-.42.71,0,.49.53.78,1.38.78s1.47-.41,1.47-.88ZM114.57,281.11c0-.68-.41-1.06-.94-1.06s-.94.38-.94,1.06.42,1.09.94,1.09.94-.4.94-1.09Z"/>
    <path class="st6" d="M117.41,283.31v-6.38h1.27v6.45c0,.31.14.42.27.42.06,0,.1,0,.2-.02l.16.95c-.15.06-.37.11-.67.11-.9,0-1.23-.58-1.23-1.52Z"/>
    <path class="st6" d="M120.04,282c0-1.76,1.22-2.84,2.49-2.84,1.46,0,2.23,1.06,2.23,2.57,0,.24-.03.48-.06.62h-3.43c.11.96.72,1.5,1.59,1.5.46,0,.86-.15,1.25-.39l.43.79c-.51.35-1.17.58-1.85.58-1.49,0-2.66-1.05-2.66-2.83ZM123.66,281.48c0-.83-.37-1.34-1.11-1.34-.63,0-1.18.47-1.29,1.34h2.4Z"/>
    <path class="st6" d="M125.61,282c0-1.8,1.27-2.84,2.71-2.84.69,0,1.19.26,1.58.61l-.62.82c-.29-.25-.56-.4-.9-.4-.87,0-1.47.72-1.47,1.8s.59,1.8,1.43,1.8c.42,0,.81-.21,1.12-.47l.52.84c-.51.45-1.15.67-1.76.67-1.47,0-2.61-1.04-2.61-2.83Z"/>
    <path class="st6" d="M131.13,282.88v-2.57h-.77v-.95l.84-.06.15-1.47h1.05v1.47h1.38v1.01h-1.38v2.57c0,.64.25.95.77.95.18,0,.4-.06.56-.12l.22.93c-.29.1-.67.2-1.1.2-1.25,0-1.71-.79-1.71-1.95Z"/>
  </g>
  <g>
    <path class="st6" d="M99.67,328.54h1.35l1.01,3.62c.23.82.39,1.52.63,2.34h.04c.24-.82.41-1.52.63-2.34l1-3.62h1.3l-2.23,7.19h-1.51l-2.24-7.19Z"/>
    <path class="st6" d="M105.87,333.03c0-1.76,1.22-2.84,2.49-2.84,1.46,0,2.23,1.06,2.23,2.57,0,.24-.03.48-.06.62h-3.43c.11.96.72,1.51,1.59,1.51.46,0,.86-.15,1.25-.39l.43.79c-.51.35-1.17.58-1.85.58-1.49,0-2.66-1.05-2.66-2.83ZM109.5,332.51c0-.83-.37-1.34-1.11-1.34-.63,0-1.18.47-1.29,1.34h2.4Z"/>
    <path class="st6" d="M111.8,327.96h1.27v2.01l-.05,1.04c.45-.43.99-.82,1.73-.82,1.16,0,1.66.78,1.66,2.15v3.39h-1.27v-3.23c0-.89-.26-1.22-.84-1.22-.48,0-.79.23-1.23.67v3.78h-1.27v-7.77Z"/>
    <path class="st6" d="M117.8,328.66c0-.43.33-.72.78-.72s.78.29.78.72-.33.72-.78.72-.78-.3-.78-.72ZM117.94,330.33h1.27v5.4h-1.27v-5.4Z"/>
    <path class="st6" d="M120.47,333.03c0-1.8,1.27-2.84,2.71-2.84.69,0,1.19.26,1.58.61l-.62.82c-.29-.25-.56-.4-.9-.4-.87,0-1.47.72-1.47,1.8s.59,1.79,1.43,1.79c.42,0,.81-.21,1.12-.47l.52.84c-.51.45-1.15.66-1.76.66-1.47,0-2.61-1.04-2.61-2.83Z"/>
    <path class="st6" d="M125.9,334.34v-6.38h1.27v6.45c0,.31.14.42.27.42.06,0,.1,0,.2-.02l.16.95c-.15.06-.37.11-.67.11-.9,0-1.23-.58-1.23-1.52Z"/>
    <path class="st6" d="M128.53,333.03c0-1.76,1.22-2.84,2.49-2.84,1.46,0,2.23,1.06,2.23,2.57,0,.24-.03.48-.06.62h-3.43c.11.96.72,1.51,1.59,1.51.46,0,.86-.15,1.25-.39l.43.79c-.51.35-1.17.58-1.85.58-1.49,0-2.66-1.05-2.66-2.83ZM132.16,332.51c0-.83-.37-1.34-1.11-1.34-.63,0-1.18.47-1.29,1.34h2.4Z"/>
    <path class="st6" d="M97.4,346.23c0-1.8,1.27-2.84,2.71-2.84.69,0,1.19.26,1.58.61l-.62.82c-.29-.25-.56-.4-.9-.4-.87,0-1.47.72-1.47,1.8s.59,1.79,1.43,1.79c.42,0,.81-.21,1.12-.47l.52.84c-.51.45-1.15.66-1.76.66-1.47,0-2.61-1.04-2.61-2.83Z"/>
    <path class="st6" d="M102.22,346.23c0-1.8,1.22-2.84,2.57-2.84s2.57,1.04,2.57,2.84-1.22,2.83-2.57,2.83-2.57-1.04-2.57-2.83ZM106.06,346.23c0-1.08-.48-1.8-1.27-1.8s-1.27.72-1.27,1.8.48,1.79,1.27,1.79,1.27-.71,1.27-1.79Z"/>
    <path class="st6" d="M108.55,347.54v-6.38h1.27v6.45c0,.31.14.42.27.42.06,0,.1,0,.2-.02l.16.95c-.15.06-.37.11-.67.11-.9,0-1.23-.58-1.23-1.52Z"/>
    <path class="st6" d="M111.53,347.54v-6.38h1.27v6.45c0,.31.14.42.27.42.06,0,.1,0,.2-.02l.16.95c-.15.06-.37.11-.67.11-.9,0-1.23-.58-1.23-1.52Z"/>
    <path class="st6" d="M114.37,341.86c0-.43.33-.72.78-.72s.78.29.78.72-.33.72-.78.72-.78-.3-.78-.72ZM114.51,343.53h1.27v5.4h-1.27v-5.4Z"/>
    <path class="st6" d="M116.86,348.31l.59-.81c.48.37.94.6,1.49.6.59,0,.87-.28.87-.65,0-.45-.59-.66-1.16-.88-.71-.27-1.52-.67-1.52-1.58s.76-1.62,1.97-1.62c.75,0,1.36.31,1.8.65l-.58.78c-.38-.28-.76-.47-1.18-.47-.54,0-.8.26-.8.6,0,.43.55.59,1.13.81.73.27,1.55.62,1.55,1.63,0,.93-.74,1.68-2.1,1.68-.74,0-1.52-.32-2.05-.75Z"/>
    <path class="st6" d="M121.99,341.86c0-.43.33-.72.78-.72s.78.29.78.72-.33.72-.78.72-.78-.3-.78-.72ZM122.14,343.53h1.27v5.4h-1.27v-5.4Z"/>
    <path class="st6" d="M124.66,346.23c0-1.8,1.22-2.84,2.57-2.84s2.57,1.04,2.57,2.84-1.22,2.83-2.57,2.83-2.57-1.04-2.57-2.83ZM128.5,346.23c0-1.08-.48-1.8-1.27-1.8s-1.27.72-1.27,1.8.48,1.79,1.27,1.79,1.27-.71,1.27-1.79Z"/>
    <path class="st6" d="M131.06,343.53h1.04l.1.73h.04c.48-.47,1.03-.86,1.77-.86,1.16,0,1.66.78,1.66,2.15v3.39h-1.27v-3.23c0-.89-.26-1.22-.84-1.22-.48,0-.79.23-1.23.67v3.78h-1.27v-5.4Z"/>
  </g>
  <g>
    <path class="st6" d="M103.62,393.3c0-2.33,1.3-3.7,3.17-3.7s3.17,1.38,3.17,3.7-1.3,3.76-3.17,3.76-3.17-1.43-3.17-3.76ZM108.65,393.3c0-1.62-.73-2.59-1.86-2.59s-1.86.98-1.86,2.59.73,2.65,1.86,2.65,1.86-1.03,1.86-2.65Z"/>
    <path class="st6" d="M111.49,395.1v-2.57h-.77v-.95l.84-.06.15-1.47h1.05v1.47h1.38v1.01h-1.38v2.57c0,.64.25.95.77.95.18,0,.4-.06.56-.12l.22.93c-.29.1-.67.2-1.1.2-1.25,0-1.71-.79-1.71-1.95Z"/>
    <path class="st6" d="M115.27,389.15h1.27v2.01l-.05,1.04c.45-.43.99-.82,1.73-.82,1.16,0,1.66.78,1.66,2.15v3.39h-1.27v-3.23c0-.89-.26-1.22-.84-1.22-.48,0-.79.23-1.23.67v3.78h-1.27v-7.77Z"/>
    <path class="st6" d="M121.05,394.23c0-1.76,1.22-2.84,2.49-2.84,1.46,0,2.23,1.06,2.23,2.57,0,.24-.03.48-.06.62h-3.43c.11.96.72,1.51,1.59,1.51.46,0,.86-.15,1.25-.39l.43.79c-.51.35-1.17.58-1.85.58-1.49,0-2.66-1.05-2.66-2.83ZM124.68,393.71c0-.83-.37-1.34-1.11-1.34-.63,0-1.18.47-1.29,1.34h2.4Z"/>
    <path class="st6" d="M126.99,391.52h1.04l.1.96h.04c.38-.7.96-1.1,1.54-1.1.27,0,.45.04.61.11l-.22,1.1c-.19-.05-.33-.09-.55-.09-.43,0-.95.29-1.28,1.12v3.3h-1.27v-5.4Z"/>
    <path class="st6" d="M104.89,402.35h1.27v2.01l-.05,1.04c.45-.43.99-.82,1.73-.82,1.16,0,1.66.78,1.66,2.15v3.39h-1.27v-3.23c0-.89-.26-1.22-.84-1.22-.48,0-.79.23-1.23.67v3.78h-1.27v-7.77Z"/>
    <path class="st6" d="M110.74,408.67c0-1.16.96-1.76,3.18-2-.02-.58-.25-1.06-.98-1.06-.54,0-1.04.24-1.52.53l-.47-.84c.59-.37,1.36-.71,2.22-.71,1.35,0,2.02.83,2.02,2.34v3.2h-1.04l-.1-.6h-.04c-.48.41-1.04.73-1.68.73-.95,0-1.6-.64-1.6-1.58ZM113.92,408.68v-1.21c-1.47.18-1.95.57-1.95,1.11,0,.48.33.69.78.69s.77-.22,1.17-.58Z"/>
    <path class="st6" d="M116.71,404.72h1.04l.1.96h.04c.38-.7.96-1.1,1.54-1.1.27,0,.45.04.61.11l-.22,1.1c-.19-.05-.33-.09-.55-.09-.43,0-.95.29-1.28,1.12v3.3h-1.27v-5.4Z"/>
    <path class="st6" d="M120.81,404.72h1.04l.1.74h.04c.46-.48.98-.87,1.66-.87.79,0,1.24.36,1.49.97.52-.55,1.05-.97,1.74-.97,1.14,0,1.67.78,1.67,2.15v3.39h-1.27v-3.23c0-.89-.26-1.22-.83-1.22-.34,0-.71.22-1.13.67v3.78h-1.27v-3.23c0-.89-.26-1.22-.83-1.22-.33,0-.71.22-1.13.67v3.78h-1.27v-5.4Z"/>
  </g>
  <text class="st12" transform="translate(174.97 150.74)"><tspan x="0" y="0">266</tspan></text>
  <text class="st12" transform="translate(237.87 214.95)"><tspan x="0" y="0">164</tspan></text>
  <text class="st12" transform="translate(305.69 279.19)"><tspan x="0" y="0">23</tspan></text>
  <text class="st12" transform="translate(369.92 341.18)"><tspan x="0" y="0">23</tspan></text>
  <text class="st12" transform="translate(437.75 407.65)"><tspan x="0" y="0">5</tspan></text>
  <text class="st9" transform="translate(176.95 214.95)"><tspan x="0" y="0">92</tspan></text>
  <text class="st10" transform="translate(180.54 279.19)"><tspan x="0" y="0">7</tspan></text>
  <text class="st11" transform="translate(180.82 345.19)"><tspan x="0" y="0">3</tspan></text>
  <text class="st10" transform="translate(180.82 407.65)"><tspan x="0" y="0">3</tspan></text>
  <text class="st11" transform="translate(241.46 279.19)"><tspan x="0" y="0">22</tspan></text>
  <text class="st10" transform="translate(245.05 345.19)"><tspan x="0" y="0">1</tspan></text>
  <text class="st10" transform="translate(245.96 407.65)"><tspan x="0" y="0">2</tspan></text>
  <text class="st10" transform="translate(311.04 343.42)"><tspan x="0" y="0">0</tspan></text>
  <text class="st10" transform="translate(311.04 407.65)"><tspan x="0" y="0">0</tspan></text>
  <text class="st10" transform="translate(373.51 409.17)"><tspan x="0" y="0">0</tspan></text>
  <g>
    <path class="st6" d="M4.99,24.97l-2.07-9.2c-.18-.84-.35-1.56-.49-2.16-.15-.6-.28-1.12-.4-1.56-.12-.44-.25-.86-.37-1.24H.64c-.09-.25-.14-.46-.14-.64,0-.17.05-.3.14-.4.09-.1.25-.15.46-.15h3.98c.09.25.14.46.14.64,0,.37-.2.55-.6.55h-.64c.12.75.28,1.63.47,2.62s.4,2.05.63,3.16c.23,1.11.47,2.21.71,3.29.25,1.08.48,2.09.71,3.02.21-.77.44-1.61.69-2.53.25-.92.49-1.87.75-2.86.25-.99.5-1.97.72-2.93.23-.97.44-1.87.62-2.73s.34-1.6.46-2.24h1.59c.41,0,.72.08.92.23s.34.46.44.92c.17.78.38,1.67.62,2.67.25,1,.51,2.04.78,3.14.28,1.1.56,2.19.85,3.28.29,1.09.57,2.11.83,3.06.25-.94.49-1.95.74-3.04.25-1.09.48-2.19.7-3.29.22-1.1.43-2.15.62-3.15.19-1,.36-1.87.49-2.62h-1.13c-.08-.25-.12-.46-.12-.64,0-.37.2-.55.6-.55h3.66c.09.25.14.46.14.64,0,.17-.05.3-.14.4s-.25.15-.46.15h-.69c-.12.46-.25.95-.38,1.47-.13.52-.26,1.07-.38,1.64-.12.57-.25,1.18-.39,1.83l-1.84,8.17c-.09.4-.23.67-.4.83-.18.15-.45.23-.82.23h-1.68l-3.31-13.04-3.08,11.98c-.09.41-.21.69-.37.84-.15.15-.43.22-.83.22h-1.72Z"/>
    <path class="st6" d="M23.09,23.78h.6c.03-.55.05-1.16.06-1.82,0-.66.01-1.3.01-1.91v-8.65c0-.49-.07-.81-.2-.95-.13-.15-.37-.22-.72-.22h-.25c-.05-.14-.08-.26-.1-.38-.02-.11-.03-.23-.03-.33,0-.37.21-.55.64-.55h2.6c0,.57-.01,1.26-.03,2.07-.02.81-.04,1.59-.04,2.32v1.77c.45-.41.95-.73,1.51-.94.56-.21,1.15-.32,1.76-.32,1.09,0,1.92.29,2.5.86.58.58.86,1.51.86,2.82v5.06c0,.34.02.59.07.76.05.17.12.28.23.33s.26.08.46.08h.39c.03.11.06.21.08.32.02.11.04.21.04.32,0,.37-.21.55-.62.55h-2.58c0-.38,0-.83.01-1.35,0-.51.02-1.05.03-1.6.01-.55.02-1.07.02-1.54v-1.73c0-.83-.08-1.49-.23-1.99-.15-.5-.4-.86-.75-1.08-.35-.22-.8-.33-1.37-.33-.81,0-1.42.24-1.82.71-.4.48-.6,1.2-.6,2.16v3.6c0,.67.02,1.31.05,1.94h1.08c.05.11.08.21.1.32.02.11.04.21.04.32,0,.37-.21.55-.62.55h-3.68c-.05-.12-.08-.23-.1-.33-.02-.1-.03-.2-.03-.31,0-.37.21-.55.64-.55Z"/>
    <path class="st6" d="M43.7,24.74l-1.72.23c-.11-.15-.2-.34-.29-.56-.08-.22-.14-.43-.17-.61-.4.49-.86.85-1.39,1.07s-1.14.33-1.83.33c-.95,0-1.74-.27-2.36-.81-.62-.54-.93-1.33-.93-2.39s.37-1.88,1.12-2.46c.74-.58,1.92-.87,3.53-.87h1.63v-.64c0-.77-.08-1.35-.25-1.76-.17-.41-.46-.69-.89-.85-.42-.16-1.02-.24-1.78-.24h-.67l-.34,1.24c-.14.06-.3.12-.5.16-.19.05-.38.07-.56.07-.17,0-.33-.06-.49-.2-.16-.13-.29-.3-.39-.51-.1-.21-.15-.42-.15-.63,0-.18.06-.34.2-.47.13-.13.36-.26.68-.4.4-.15.9-.29,1.51-.4.61-.11,1.25-.17,1.94-.17,1.26,0,2.17.26,2.73.78.56.52.84,1.45.84,2.78v5.22c0,.38.05.63.16.75.11.12.3.17.58.17h.44c.03.09.06.18.08.28.02.09.03.19.03.3,0,.18-.05.32-.16.41-.11.09-.3.15-.58.18ZM41.28,21.29v-1.29h-1.91c-.92,0-1.55.16-1.9.49-.34.33-.52.77-.52,1.32,0,.61.16,1.08.48,1.41s.79.49,1.4.49c.83,0,1.44-.22,1.84-.66.4-.44.6-1.03.6-1.78Z"/>
    <path class="st6" d="M46.97,21.8v-6.35h-1.61c-.05-.12-.08-.24-.12-.36-.03-.12-.05-.24-.05-.38,0-.41.22-.62.67-.62h1.1l.58-2.51.51.05c.31.02.51.09.62.22.11.13.16.39.16.77v1.47h3.38c.05.12.08.24.1.36.02.11.04.24.04.38,0,.41-.21.62-.64.62h-2.88v5.93c0,.86.11,1.46.32,1.81.21.35.57.52,1.06.52.29,0,.55-.06.78-.18.23-.12.44-.28.62-.48.2.05.38.15.53.31.15.16.23.35.23.56,0,.31-.23.6-.7.87s-1.08.41-1.83.41c-1,0-1.72-.28-2.18-.85-.46-.57-.69-1.42-.69-2.55Z"/>
    <path class="st6" d="M59.02,23.78h.6c.03-.55.05-1.16.06-1.82,0-.66.01-1.3.01-1.91v-8.65c0-.49-.07-.81-.2-.95-.13-.15-.37-.22-.72-.22h-.25c-.05-.14-.08-.26-.1-.38-.02-.11-.03-.23-.03-.33,0-.37.21-.55.64-.55h2.6c0,.57-.01,1.26-.04,2.07-.02.81-.03,1.59-.03,2.32v5.8c.35-.31.76-.69,1.22-1.14.46-.45.91-.92,1.35-1.39.44-.48.81-.9,1.12-1.26h-.87c-.03-.12-.06-.24-.09-.35-.03-.11-.05-.22-.05-.35,0-.38.21-.57.64-.57h3.45c.05.12.08.24.1.34.02.11.04.22.04.35,0,.18-.05.33-.14.43-.09.1-.26.15-.51.15h-.51c-.52.52-1.07,1.07-1.66,1.66-.58.58-1.13,1.13-1.66,1.63l2.71,3.96c.29.46.54.77.76.93s.46.24.74.24h.46c.03.11.06.21.08.32.02.11.03.21.03.32,0,.37-.21.55-.62.55h-2.32c-.09-.2-.26-.51-.5-.92-.24-.41-.51-.87-.83-1.38-.31-.51-.63-1.01-.96-1.51-.32-.5-.61-.92-.85-1.28l-1.15,1.15c0,.38,0,.82.01,1.32,0,.5.02.97.03,1.41h1.1c.03.11.06.21.08.32.02.11.03.21.03.32,0,.37-.21.55-.62.55h-3.68c-.05-.12-.08-.23-.1-.33-.02-.1-.03-.2-.03-.31,0-.37.21-.55.64-.55Z"/>
    <path class="st6" d="M70.43,23.78h.6c.03-.63.05-1.28.06-1.94s.01-1.27.01-1.81v-3.5c0-.49-.06-.81-.18-.95-.12-.15-.37-.22-.74-.22h-.25c-.05-.14-.08-.26-.1-.38-.02-.11-.03-.23-.03-.33,0-.37.21-.55.64-.55h2.6c0,.57-.01,1.23-.03,2-.02.77-.03,1.52-.03,2.25v1.68c0,.54,0,1.14.01,1.81,0,.67.02,1.31.03,1.94h1.1c.03.11.06.21.08.32.02.11.03.21.03.32,0,.37-.21.55-.62.55h-3.68c-.05-.12-.08-.23-.1-.33-.02-.1-.03-.2-.03-.31,0-.37.21-.55.64-.55ZM71.83,11.86c-.54,0-.91-.1-1.1-.29-.2-.19-.3-.49-.3-.89,0-.37.11-.66.33-.86.22-.21.58-.31,1.07-.31.52,0,.89.1,1.09.29.21.19.31.49.31.89,0,.37-.11.66-.33.86-.22.21-.58.31-1.07.31Z"/>
    <path class="st6" d="M76.22,23.78h.6c.03-.63.05-1.28.06-1.94s.01-1.27.01-1.81v-3.5c0-.49-.06-.81-.18-.95-.12-.15-.37-.22-.74-.22h-.25c-.05-.14-.08-.26-.1-.38-.02-.11-.03-.23-.03-.33,0-.37.21-.55.64-.55h2.21c.03.15.05.34.07.57.01.23.02.45.02.64.51-.48,1.05-.84,1.63-1.08.58-.25,1.2-.37,1.86-.37,1.09,0,1.92.29,2.5.86.57.58.86,1.51.86,2.82v5.06c0,.34.02.59.07.76.05.17.12.28.23.33s.26.08.46.08h.39c.05.11.08.21.09.32.01.11.02.21.02.32,0,.37-.21.55-.62.55h-2.58c0-.38,0-.83.02-1.35.01-.51.03-1.05.03-1.6,0-.55.01-1.07.01-1.54v-1.73c0-.83-.08-1.49-.23-1.99-.15-.5-.4-.86-.75-1.08s-.8-.33-1.37-.33c-.83,0-1.44.25-1.83.75-.39.5-.59,1.25-.59,2.24v1.68c0,.54,0,1.14.01,1.81,0,.67.02,1.31.03,1.94h1.1c.03.11.06.21.08.32.02.11.03.21.03.32,0,.37-.21.55-.62.55h-3.68c-.05-.12-.08-.23-.1-.33-.02-.1-.03-.2-.03-.31,0-.37.21-.55.64-.55Z"/>
    <path class="st6" d="M97.82,24.97h-2.02c-.06-.15-.11-.34-.16-.55-.05-.21-.08-.41-.09-.6-.34.41-.77.75-1.31,1-.54.25-1.15.38-1.84.38-1.32,0-2.36-.43-3.12-1.3-.76-.87-1.14-2.18-1.14-3.94,0-1.44.21-2.61.64-3.51.43-.9,1.01-1.55,1.75-1.97.74-.41,1.57-.62,2.51-.62.51,0,.95.03,1.32.1.38.07.69.16.96.26v-2.83c0-.49-.06-.81-.18-.95-.12-.15-.37-.22-.74-.22h-.55c-.03-.14-.06-.26-.08-.38-.02-.11-.03-.23-.03-.33,0-.37.21-.55.62-.55h2.9c0,.37,0,.81-.01,1.33s-.02,1.05-.03,1.59c-.02.54-.02,1.03-.02,1.47v9.41c0,.43.05.71.16.83s.31.18.6.18h.39c.05.11.08.21.1.32.02.11.03.21.03.32,0,.37-.21.55-.64.55ZM95.31,20.83v-5.04c-.26-.15-.59-.28-1-.39s-.86-.16-1.37-.16c-.84,0-1.52.31-2.04.93-.51.62-.77,1.7-.77,3.23,0,1.13.12,2.02.37,2.65.25.63.58,1.07,1.01,1.31.43.25.92.37,1.47.37.78,0,1.36-.26,1.75-.77.38-.51.58-1.22.58-2.13Z"/>
    <path class="st6" d="M107.96,21.8c0,.98-.37,1.79-1.1,2.44-.74.64-1.79.97-3.15.97-.86,0-1.6-.11-2.23-.33-.63-.22-1.11-.49-1.45-.81-.34-.31-.51-.62-.51-.93,0-.26.09-.48.29-.67.19-.18.42-.32.68-.41.35.46.79.87,1.3,1.23s1.18.54,1.99.54c.77,0,1.35-.14,1.74-.43.39-.28.59-.67.59-1.16s-.2-.89-.6-1.16c-.4-.27-.96-.5-1.68-.7l-.99-.28c-1.01-.28-1.76-.66-2.25-1.15-.49-.49-.74-1.13-.74-1.91,0-.63.16-1.18.48-1.66s.78-.85,1.37-1.12c.59-.27,1.3-.4,2.13-.4.78,0,1.45.1,1.99.31s.96.46,1.25.76c.29.3.44.59.44.89,0,.25-.09.45-.26.61-.18.16-.4.27-.68.33l-.28.07-.14-.21c-.29-.4-.65-.73-1.08-.99-.43-.26-.95-.39-1.56-.39-.55,0-.99.13-1.32.39-.33.26-.5.61-.5,1.06s.15.78.45,1.05c.3.27.79.49,1.46.66l.97.28c1.21.31,2.08.71,2.61,1.21.53.5.79,1.14.79,1.92Z"/>
    <path class="st6" d="M114.45,19.8c0-1.35.21-2.46.64-3.33.43-.87,1.02-1.53,1.77-1.96.75-.43,1.6-.64,2.55-.64,1.55,0,2.71.45,3.48,1.36s1.16,2.25,1.16,4.05c0,1.35-.21,2.46-.64,3.33-.43.87-1.02,1.53-1.76,1.96-.74.43-1.6.64-2.56.64-1.55,0-2.71-.45-3.48-1.36s-1.16-2.25-1.16-4.05ZM116.45,19.27c0,1.67.24,2.85.71,3.53.47.68,1.2,1.02,2.16,1.02.49,0,.94-.12,1.36-.37.41-.25.75-.66,1-1.25s.38-1.39.38-2.4c0-1.67-.24-2.85-.71-3.53-.48-.68-1.2-1.02-2.16-1.02-.49,0-.94.12-1.36.37s-.75.66-1,1.24c-.25.58-.38,1.39-.38,2.42Z"/>
    <path class="st6" d="M126.5,23.78h.6c.03-.52.05-1.1.06-1.73,0-.63.01-1.21.01-1.75v-4.85h-1.61c-.05-.12-.08-.24-.11-.36-.03-.12-.05-.24-.05-.38,0-.41.22-.62.67-.62h1.1c0-1.2.1-2.19.3-2.99.2-.8.56-1.39,1.08-1.78.52-.39,1.26-.59,2.21-.59.72,0,1.24.1,1.55.3.31.2.47.45.47.76,0,.2-.06.38-.17.53s-.26.28-.45.39c-.31-.17-.62-.3-.93-.39-.31-.09-.63-.14-.95-.14-.49,0-.82.15-.99.46-.17.31-.25.85-.25,1.63v1.82h2.83c.05.12.08.24.1.36.02.11.03.24.03.38,0,.41-.21.62-.64.62h-2.32v4.97c0,.46,0,1,.01,1.61s.02,1.2.04,1.75h1.4c.03.11.06.21.08.32.02.11.03.21.03.32,0,.37-.21.55-.62.55h-3.98c-.05-.12-.08-.23-.1-.33-.02-.1-.03-.2-.03-.31,0-.37.21-.55.64-.55Z"/>
    <path class="st6" d="M138.64,23.78h.6c.03-.55.05-1.16.06-1.82,0-.66.01-1.3.01-1.91v-8.65c0-.49-.07-.81-.2-.95-.13-.15-.37-.22-.72-.22h-.25c-.05-.14-.08-.26-.1-.38-.02-.11-.03-.23-.03-.33,0-.37.21-.55.64-.55h2.6c0,.57-.01,1.26-.03,2.07-.02.81-.04,1.59-.04,2.32v1.77c.45-.41.95-.73,1.51-.94.56-.21,1.15-.32,1.76-.32,1.09,0,1.92.29,2.5.86.58.58.86,1.51.86,2.82v5.06c0,.34.02.59.07.76.05.17.12.28.23.33s.26.08.46.08h.39c.03.11.06.21.08.32.02.11.04.21.04.32,0,.37-.21.55-.62.55h-2.58c0-.38,0-.83.01-1.35,0-.51.02-1.05.03-1.6.01-.55.02-1.07.02-1.54v-1.73c0-.83-.08-1.49-.23-1.99-.15-.5-.4-.86-.75-1.08-.35-.22-.8-.33-1.37-.33-.81,0-1.42.24-1.82.71-.4.48-.6,1.2-.6,2.16v3.6c0,.67.02,1.31.05,1.94h1.08c.05.11.08.21.1.32.02.11.04.21.04.32,0,.37-.21.55-.62.55h-3.68c-.05-.12-.08-.23-.1-.33-.02-.1-.03-.2-.03-.31,0-.37.21-.55.64-.55Z"/>
    <path class="st6" d="M159.25,24.74l-1.72.23c-.11-.15-.2-.34-.29-.56-.08-.22-.14-.43-.17-.61-.4.49-.86.85-1.39,1.07s-1.14.33-1.83.33c-.95,0-1.74-.27-2.36-.81-.62-.54-.93-1.33-.93-2.39s.37-1.88,1.12-2.46c.74-.58,1.92-.87,3.53-.87h1.63v-.64c0-.77-.08-1.35-.25-1.76-.17-.41-.46-.69-.89-.85-.42-.16-1.02-.24-1.78-.24h-.67l-.34,1.24c-.14.06-.3.12-.5.16-.19.05-.38.07-.56.07-.17,0-.33-.06-.49-.2-.16-.13-.29-.3-.39-.51-.1-.21-.15-.42-.15-.63,0-.18.06-.34.2-.47.13-.13.36-.26.68-.4.4-.15.9-.29,1.51-.4.61-.11,1.25-.17,1.94-.17,1.26,0,2.17.26,2.73.78.56.52.84,1.45.84,2.78v5.22c0,.38.05.63.16.75.11.12.3.17.58.17h.44c.03.09.06.18.08.28.02.09.03.19.03.3,0,.18-.05.32-.16.41-.11.09-.3.15-.58.18ZM156.83,21.29v-1.29h-1.91c-.92,0-1.55.16-1.9.49-.34.33-.52.77-.52,1.32,0,.61.16,1.08.48,1.41s.79.49,1.4.49c.83,0,1.44-.22,1.84-.66.4-.44.6-1.03.6-1.78Z"/>
    <path class="st6" d="M161.92,23.78h.6c.03-.63.05-1.28.06-1.94s.01-1.27.01-1.81v-3.5c0-.49-.06-.81-.18-.95-.12-.15-.37-.22-.74-.22h-.25c-.05-.14-.08-.26-.1-.38-.02-.11-.03-.23-.03-.33,0-.37.21-.55.64-.55h2.21c.03.15.05.36.07.62.01.26.02.54.02.83.58-.6,1.19-1.03,1.83-1.29.64-.26,1.24-.39,1.81-.39.29,0,.5.06.63.17.13.12.2.31.2.59,0,.32-.05.61-.16.86-.11.25-.22.42-.32.49-.15.11-.36.18-.61.22-.25.04-.5.06-.75.06l-.32-.87c-.72.26-1.25.63-1.58,1.1s-.49,1.19-.49,2.14v1.4c0,.54,0,1.14.01,1.81,0,.67.02,1.31.03,1.94h1.4c.03.11.06.21.08.32.02.11.03.21.03.32,0,.37-.21.55-.62.55h-3.98c-.05-.12-.08-.23-.1-.33-.02-.1-.03-.2-.03-.31,0-.37.21-.55.64-.55Z"/>
    <path class="st6" d="M170.47,23.78h.6c.03-.63.05-1.28.06-1.94s.01-1.27.01-1.81v-3.5c0-.49-.06-.81-.18-.95-.12-.15-.37-.22-.74-.22h-.25c-.05-.14-.08-.26-.1-.38-.02-.11-.03-.23-.03-.33,0-.37.21-.55.64-.55h2.21c.03.15.05.34.07.57.01.23.02.45.02.64.51-.48,1.05-.84,1.63-1.08.58-.25,1.2-.37,1.86-.37s1.27.13,1.74.39.82.65,1.05,1.17c.51-.54,1.05-.93,1.62-1.18.58-.25,1.22-.38,1.92-.38,1.07,0,1.88.29,2.4.86.53.58.79,1.51.79,2.82v5.06c0,.34.02.59.07.76.05.17.12.28.23.33s.26.08.46.08h.39c.06.11.1.21.12.32.02.11.02.21.02.32,0,.37-.21.55-.64.55h-2.58c.02-.38.03-.83.04-1.35,0-.51.01-1.05.02-1.6,0-.55.01-1.07.01-1.54v-1.73c0-1.24-.17-2.12-.49-2.63-.33-.51-.89-.77-1.67-.77s-1.39.25-1.78.75c-.39.5-.59,1.25-.59,2.24v1.68c0,.54,0,1.14.01,1.81s.03,1.31.06,1.94h.97c.05.11.08.21.1.32.02.11.03.21.03.32,0,.37-.21.55-.64.55h-3.4c-.05-.12-.08-.23-.1-.33-.02-.1-.03-.2-.03-.31,0-.37.21-.55.64-.55h.44c.03-.61.05-1.25.06-1.9s.01-1.24.01-1.76v-1.33c0-1.24-.17-2.12-.5-2.65-.33-.52-.88-.78-1.64-.78-.81,0-1.41.25-1.81.75-.39.5-.59,1.25-.59,2.24v1.68c0,.54,0,1.14.01,1.81,0,.67.02,1.31.03,1.94h.92c.03.11.06.21.08.32.02.11.04.21.04.32,0,.37-.21.55-.62.55h-3.5c-.05-.12-.08-.23-.1-.33-.02-.1-.03-.2-.03-.31,0-.37.21-.55.64-.55Z"/>
    <path class="st6" d="M203.32,24.97h-2.02c-.06-.15-.11-.34-.16-.55-.05-.21-.08-.41-.09-.6-.34.41-.77.75-1.31,1-.54.25-1.15.38-1.84.38-1.32,0-2.36-.43-3.12-1.3-.76-.87-1.14-2.18-1.14-3.94,0-1.44.21-2.61.64-3.51.43-.9,1.01-1.55,1.75-1.97.74-.41,1.57-.62,2.51-.62.51,0,.95.03,1.32.1.38.07.69.16.96.26v-2.83c0-.49-.06-.81-.18-.95-.12-.15-.37-.22-.74-.22h-.55c-.03-.14-.06-.26-.08-.38-.02-.11-.03-.23-.03-.33,0-.37.21-.55.62-.55h2.9c0,.37,0,.81-.01,1.33s-.02,1.05-.03,1.59c-.02.54-.02,1.03-.02,1.47v9.41c0,.43.05.71.16.83s.31.18.6.18h.39c.05.11.08.21.1.32.02.11.03.21.03.32,0,.37-.21.55-.64.55ZM200.81,20.83v-5.04c-.26-.15-.59-.28-1-.39s-.86-.16-1.37-.16c-.84,0-1.52.31-2.04.93-.51.62-.77,1.7-.77,3.23,0,1.13.12,2.02.37,2.65.25.63.58,1.07,1.01,1.31.43.25.92.37,1.47.37.78,0,1.36-.26,1.75-.77.38-.51.58-1.22.58-2.13Z"/>
    <path class="st6" d="M205.91,23.78h.6c.03-.63.05-1.28.06-1.94s.01-1.27.01-1.81v-3.5c0-.49-.06-.81-.18-.95-.12-.15-.37-.22-.74-.22h-.25c-.05-.14-.08-.26-.1-.38-.02-.11-.03-.23-.03-.33,0-.37.21-.55.64-.55h2.6c0,.57-.01,1.23-.03,2-.02.77-.03,1.52-.03,2.25v1.68c0,.54,0,1.14.01,1.81,0,.67.02,1.31.03,1.94h1.1c.03.11.06.21.08.32.02.11.03.21.03.32,0,.37-.21.55-.62.55h-3.68c-.05-.12-.08-.23-.1-.33-.02-.1-.03-.2-.03-.31,0-.37.21-.55.64-.55ZM207.32,11.86c-.54,0-.91-.1-1.1-.29-.2-.19-.3-.49-.3-.89,0-.37.11-.66.33-.86.22-.21.58-.31,1.07-.31.52,0,.89.1,1.09.29.21.19.31.49.31.89,0,.37-.11.66-.33.86-.22.21-.58.31-1.07.31Z"/>
    <path class="st6" d="M220.91,24.97h-2.02c-.06-.15-.11-.34-.16-.55-.05-.21-.08-.41-.09-.6-.34.41-.77.75-1.31,1-.54.25-1.15.38-1.84.38-1.32,0-2.36-.43-3.12-1.3-.76-.87-1.14-2.18-1.14-3.94,0-1.44.21-2.61.64-3.51.43-.9,1.01-1.55,1.75-1.97.74-.41,1.57-.62,2.51-.62.51,0,.95.03,1.32.1.38.07.69.16.96.26v-2.83c0-.49-.06-.81-.18-.95-.12-.15-.37-.22-.74-.22h-.55c-.03-.14-.06-.26-.08-.38-.02-.11-.03-.23-.03-.33,0-.37.21-.55.62-.55h2.9c0,.37,0,.81-.01,1.33s-.02,1.05-.03,1.59c-.02.54-.02,1.03-.02,1.47v9.41c0,.43.05.71.16.83s.31.18.6.18h.39c.05.11.08.21.1.32.02.11.03.21.03.32,0,.37-.21.55-.64.55ZM218.4,20.83v-5.04c-.26-.15-.59-.28-1-.39s-.86-.16-1.37-.16c-.84,0-1.52.31-2.04.93-.51.62-.77,1.7-.77,3.23,0,1.13.12,2.02.37,2.65.25.63.58,1.07,1.01,1.31.43.25.92.37,1.47.37.78,0,1.36-.26,1.75-.77.38-.51.58-1.22.58-2.13Z"/>
    <path class="st6" d="M235.42,16.97l-.18-.25c-.29-.43-.62-.77-.98-1.04s-.84-.39-1.44-.39c-.51,0-.97.13-1.38.38-.41.25-.74.66-.99,1.23-.25.57-.37,1.34-.37,2.32,0,1.09.13,1.96.39,2.62s.62,1.13,1.09,1.43c.47.29,1.01.44,1.62.44s1.08-.12,1.51-.36c.42-.24.81-.59,1.16-1.07.25.06.45.17.62.33s.25.36.25.61c0,.31-.16.61-.48.91-.32.3-.76.55-1.32.76s-1.19.31-1.9.31c-1.61,0-2.84-.46-3.68-1.37-.84-.91-1.26-2.27-1.26-4.08,0-1.33.22-2.44.66-3.31.44-.87,1.03-1.52,1.78-1.94.75-.42,1.6-.63,2.55-.63.8,0,1.47.11,2.01.32.54.21.96.48,1.24.81.28.32.43.64.43.94,0,.44-.34.76-1.01.94l-.32.09Z"/>
    <path class="st6" d="M238.35,19.8c0-1.35.21-2.46.64-3.33.43-.87,1.02-1.53,1.77-1.96.75-.43,1.6-.64,2.55-.64,1.55,0,2.71.45,3.48,1.36s1.16,2.25,1.16,4.05c0,1.35-.21,2.46-.64,3.33-.43.87-1.02,1.53-1.76,1.96-.74.43-1.6.64-2.56.64-1.55,0-2.71-.45-3.48-1.36s-1.16-2.25-1.16-4.05ZM240.35,19.27c0,1.67.24,2.85.71,3.53.47.68,1.2,1.02,2.16,1.02.49,0,.94-.12,1.36-.37.41-.25.75-.66,1-1.25s.38-1.39.38-2.4c0-1.67-.24-2.85-.71-3.53-.48-.68-1.2-1.02-2.16-1.02-.49,0-.94.12-1.36.37s-.75.66-1,1.24c-.25.58-.38,1.39-.38,2.42Z"/>
    <path class="st6" d="M250.23,23.78h.6c.03-.63.05-1.28.06-1.94s.01-1.27.01-1.81v-3.5c0-.49-.06-.81-.18-.95-.12-.15-.37-.22-.74-.22h-.25c-.05-.14-.08-.26-.1-.38-.02-.11-.03-.23-.03-.33,0-.37.21-.55.64-.55h2.21c.03.15.05.34.07.57.01.23.02.45.02.64.51-.48,1.05-.84,1.63-1.08.58-.25,1.2-.37,1.86-.37s1.27.13,1.74.39.82.65,1.05,1.17c.51-.54,1.05-.93,1.62-1.18.58-.25,1.22-.38,1.92-.38,1.07,0,1.88.29,2.4.86.53.58.79,1.51.79,2.82v5.06c0,.34.02.59.07.76.05.17.12.28.23.33s.26.08.46.08h.39c.06.11.1.21.12.32.02.11.02.21.02.32,0,.37-.21.55-.64.55h-2.58c.02-.38.03-.83.04-1.35,0-.51.01-1.05.02-1.6,0-.55.01-1.07.01-1.54v-1.73c0-1.24-.17-2.12-.49-2.63-.33-.51-.89-.77-1.67-.77s-1.39.25-1.78.75c-.39.5-.59,1.25-.59,2.24v1.68c0,.54,0,1.14.01,1.81s.03,1.31.06,1.94h.97c.05.11.08.21.1.32.02.11.03.21.03.32,0,.37-.21.55-.64.55h-3.4c-.05-.12-.08-.23-.1-.33-.02-.1-.03-.2-.03-.31,0-.37.21-.55.64-.55h.44c.03-.61.05-1.25.06-1.9s.01-1.24.01-1.76v-1.33c0-1.24-.17-2.12-.5-2.65-.33-.52-.88-.78-1.64-.78-.81,0-1.41.25-1.81.75-.39.5-.59,1.25-.59,2.24v1.68c0,.54,0,1.14.01,1.81,0,.67.02,1.31.03,1.94h.92c.03.11.06.21.08.32.02.11.04.21.04.32,0,.37-.21.55-.62.55h-3.5c-.05-.12-.08-.23-.1-.33-.02-.1-.03-.2-.03-.31,0-.37.21-.55.64-.55Z"/>
    <path class="st6" d="M268.75,28.72h.6c.03-.58.05-1.19.06-1.83,0-.64.01-1.2.01-1.69v-8.67c0-.49-.06-.81-.18-.95-.12-.15-.37-.22-.74-.22h-.25c-.05-.14-.08-.26-.1-.38-.02-.11-.03-.23-.03-.33,0-.37.21-.55.64-.55h2.19c.05.15.07.34.08.56s.02.43.04.61c.37-.43.82-.77,1.34-1.02.53-.25,1.13-.38,1.81-.38.87,0,1.63.19,2.27.56.64.38,1.13.95,1.47,1.71.35.77.52,1.74.52,2.92,0,1.43-.21,2.59-.64,3.5-.43.9-1.01,1.57-1.75,2s-1.56.64-2.48.64c-.52,0-.97-.05-1.33-.15-.37-.1-.69-.22-.97-.36v2.24c0,.62.02,1.22.05,1.78h1.4c.03.11.06.21.08.32.02.11.04.21.04.32,0,.37-.21.55-.62.55h-3.98c-.05-.12-.08-.23-.1-.33-.02-.1-.03-.2-.03-.31,0-.37.21-.55.64-.55ZM271.28,18.37v4.81c.26.18.59.34.99.46.4.12.86.18,1.38.18s1.02-.13,1.44-.39.75-.69,1-1.3c.25-.61.37-1.44.37-2.5,0-1.13-.12-2.02-.37-2.65-.25-.63-.58-1.07-1-1.32-.42-.25-.92-.38-1.48-.38-.8,0-1.38.27-1.76.82-.38.54-.56,1.3-.56,2.27Z"/>
    <path class="st6" d="M280.59,23.78h.6c.03-.55.05-1.16.06-1.82,0-.66.01-1.3.01-1.91v-8.65c0-.49-.07-.81-.2-.95-.13-.15-.37-.22-.72-.22h-.25c-.05-.14-.08-.26-.1-.38-.02-.11-.03-.23-.03-.33,0-.37.21-.55.64-.55h2.6c0,.57-.01,1.26-.04,2.07-.02.81-.03,1.59-.03,2.32v6.67c0,.54,0,1.14.01,1.81s.02,1.31.03,1.94h1.1c.03.11.06.21.08.32.02.11.03.21.03.32,0,.37-.21.55-.62.55h-3.68c-.05-.12-.08-.23-.1-.33-.02-.1-.03-.2-.03-.31,0-.37.21-.55.64-.55Z"/>
    <path class="st6" d="M294.58,24.74l-1.72.23c-.11-.15-.2-.34-.29-.56-.08-.22-.14-.43-.17-.61-.4.49-.86.85-1.39,1.07s-1.14.33-1.83.33c-.95,0-1.74-.27-2.36-.81-.62-.54-.93-1.33-.93-2.39s.37-1.88,1.12-2.46c.74-.58,1.92-.87,3.53-.87h1.63v-.64c0-.77-.08-1.35-.25-1.76-.17-.41-.46-.69-.89-.85-.42-.16-1.02-.24-1.78-.24h-.67l-.34,1.24c-.14.06-.3.12-.5.16-.19.05-.38.07-.56.07-.17,0-.33-.06-.49-.2-.16-.13-.29-.3-.39-.51-.1-.21-.15-.42-.15-.63,0-.18.06-.34.2-.47.13-.13.36-.26.68-.4.4-.15.9-.29,1.51-.4.61-.11,1.25-.17,1.94-.17,1.26,0,2.17.26,2.73.78.56.52.84,1.45.84,2.78v5.22c0,.38.05.63.16.75.11.12.3.17.58.17h.44c.03.09.06.18.08.28.02.09.03.19.03.3,0,.18-.05.32-.16.41-.11.09-.3.15-.58.18ZM292.16,21.29v-1.29h-1.91c-.92,0-1.55.16-1.9.49-.34.33-.52.77-.52,1.32,0,.61.16,1.08.48,1.41s.79.49,1.4.49c.83,0,1.44-.22,1.84-.66.4-.44.6-1.03.6-1.78Z"/>
    <path class="st6" d="M297.25,23.78h.6c.03-.63.05-1.28.06-1.94s.01-1.27.01-1.81v-3.5c0-.49-.06-.81-.18-.95-.12-.15-.37-.22-.74-.22h-.25c-.05-.14-.08-.26-.1-.38-.02-.11-.03-.23-.03-.33,0-.37.21-.55.64-.55h2.6c0,.57-.01,1.23-.03,2-.02.77-.03,1.52-.03,2.25v1.68c0,.54,0,1.14.01,1.81,0,.67.02,1.31.03,1.94h1.1c.03.11.06.21.08.32.02.11.03.21.03.32,0,.37-.21.55-.62.55h-3.68c-.05-.12-.08-.23-.1-.33-.02-.1-.03-.2-.03-.31,0-.37.21-.55.64-.55ZM298.65,11.86c-.54,0-.91-.1-1.1-.29-.2-.19-.3-.49-.3-.89,0-.37.11-.66.33-.86.22-.21.58-.31,1.07-.31.52,0,.89.1,1.09.29.21.19.31.49.31.89,0,.37-.11.66-.33.86-.22.21-.58.31-1.07.31Z"/>
    <path class="st6" d="M303.04,23.78h.6c.03-.63.05-1.28.06-1.94s.01-1.27.01-1.81v-3.5c0-.49-.06-.81-.18-.95-.12-.15-.37-.22-.74-.22h-.25c-.05-.14-.08-.26-.1-.38-.02-.11-.03-.23-.03-.33,0-.37.21-.55.64-.55h2.21c.03.15.05.34.07.57.01.23.02.45.02.64.51-.48,1.05-.84,1.63-1.08.58-.25,1.2-.37,1.86-.37,1.09,0,1.92.29,2.5.86.57.58.86,1.51.86,2.82v5.06c0,.34.02.59.07.76.05.17.12.28.23.33s.26.08.46.08h.39c.05.11.08.21.09.32.01.11.02.21.02.32,0,.37-.21.55-.62.55h-2.58c0-.38,0-.83.02-1.35.01-.51.03-1.05.03-1.6,0-.55.01-1.07.01-1.54v-1.73c0-.83-.08-1.49-.23-1.99-.15-.5-.4-.86-.75-1.08s-.8-.33-1.37-.33c-.83,0-1.44.25-1.83.75-.39.5-.59,1.25-.59,2.24v1.68c0,.54,0,1.14.01,1.81,0,.67.02,1.31.03,1.94h1.1c.03.11.06.21.08.32.02.11.03.21.03.32,0,.37-.21.55-.62.55h-3.68c-.05-.12-.08-.23-.1-.33-.02-.1-.03-.2-.03-.31,0-.37.21-.55.64-.55Z"/>
    <path class="st6" d="M316.04,21.8v-6.35h-1.61c-.05-.12-.08-.24-.12-.36-.03-.12-.05-.24-.05-.38,0-.41.22-.62.67-.62h1.1l.58-2.51.51.05c.31.02.51.09.62.22.11.13.16.39.16.77v1.47h3.38c.05.12.08.24.1.36.02.11.04.24.04.38,0,.41-.21.62-.64.62h-2.88v5.93c0,.86.11,1.46.32,1.81.21.35.57.52,1.06.52.29,0,.55-.06.78-.18.23-.12.44-.28.62-.48.2.05.38.15.53.31.15.16.23.35.23.56,0,.31-.23.6-.7.87s-1.08.41-1.83.41c-1,0-1.72-.28-2.18-.85-.46-.57-.69-1.42-.69-2.55Z"/>
    <path class="st6" d="M330.69,21.8c0,.98-.37,1.79-1.1,2.44-.74.64-1.79.97-3.15.97-.86,0-1.6-.11-2.23-.33-.63-.22-1.11-.49-1.45-.81-.34-.31-.51-.62-.51-.93,0-.26.09-.48.29-.67.19-.18.42-.32.68-.41.35.46.79.87,1.3,1.23s1.18.54,1.99.54c.77,0,1.35-.14,1.74-.43.39-.28.59-.67.59-1.16s-.2-.89-.6-1.16c-.4-.27-.96-.5-1.68-.7l-.99-.28c-1.01-.28-1.76-.66-2.25-1.15-.49-.49-.74-1.13-.74-1.91,0-.63.16-1.18.48-1.66s.78-.85,1.37-1.12c.59-.27,1.3-.4,2.13-.4.78,0,1.45.1,1.99.31s.96.46,1.25.76c.29.3.44.59.44.89,0,.25-.09.45-.26.61-.18.16-.4.27-.68.33l-.28.07-.14-.21c-.29-.4-.65-.73-1.08-.99-.43-.26-.95-.39-1.56-.39-.55,0-.99.13-1.32.39-.33.26-.5.61-.5,1.06s.15.78.45,1.05c.3.27.79.49,1.46.66l.97.28c1.21.31,2.08.71,2.61,1.21.53.5.79,1.14.79,1.92Z"/>
    <path class="st6" d="M337.66,23.78h.6c.03-.63.05-1.28.06-1.94s.01-1.27.01-1.81v-3.5c0-.49-.06-.81-.18-.95-.12-.15-.37-.22-.74-.22h-.25c-.05-.14-.08-.26-.1-.38-.02-.11-.03-.23-.03-.33,0-.37.21-.55.64-.55h2.6c0,.57-.01,1.23-.03,2-.02.77-.03,1.52-.03,2.25v1.68c0,.54,0,1.14.01,1.81,0,.67.02,1.31.03,1.94h1.1c.03.11.06.21.08.32.02.11.03.21.03.32,0,.37-.21.55-.62.55h-3.68c-.05-.12-.08-.23-.1-.33-.02-.1-.03-.2-.03-.31,0-.37.21-.55.64-.55ZM339.06,11.86c-.54,0-.91-.1-1.1-.29-.2-.19-.3-.49-.3-.89,0-.37.11-.66.33-.86.22-.21.58-.31,1.07-.31.52,0,.89.1,1.09.29.21.19.31.49.31.89,0,.37-.11.66-.33.86-.22.21-.58.31-1.07.31Z"/>
    <path class="st6" d="M343.45,23.78h.6c.03-.63.05-1.28.06-1.94s.01-1.27.01-1.81v-3.5c0-.49-.06-.81-.18-.95-.12-.15-.37-.22-.74-.22h-.25c-.05-.14-.08-.26-.1-.38-.02-.11-.03-.23-.03-.33,0-.37.21-.55.64-.55h2.21c.03.15.05.34.07.57.01.23.02.45.02.64.51-.48,1.05-.84,1.63-1.08.58-.25,1.2-.37,1.86-.37,1.09,0,1.92.29,2.5.86.57.58.86,1.51.86,2.82v5.06c0,.34.02.59.07.76.05.17.12.28.23.33s.26.08.46.08h.39c.05.11.08.21.09.32.01.11.02.21.02.32,0,.37-.21.55-.62.55h-2.58c0-.38,0-.83.02-1.35.01-.51.03-1.05.03-1.6,0-.55.01-1.07.01-1.54v-1.73c0-.83-.08-1.49-.23-1.99-.15-.5-.4-.86-.75-1.08s-.8-.33-1.37-.33c-.83,0-1.44.25-1.83.75-.39.5-.59,1.25-.59,2.24v1.68c0,.54,0,1.14.01,1.81,0,.67.02,1.31.03,1.94h1.1c.03.11.06.21.08.32.02.11.03.21.03.32,0,.37-.21.55-.62.55h-3.68c-.05-.12-.08-.23-.1-.33-.02-.1-.03-.2-.03-.31,0-.37.21-.55.64-.55Z"/>
    <path class="st6" d="M358.61,24.97l-2.69-8.42c-.15-.48-.31-.79-.47-.95s-.43-.24-.79-.24h-.25c-.05-.14-.08-.26-.09-.38-.02-.11-.02-.23-.02-.33,0-.17.05-.3.14-.4.09-.1.25-.15.48-.15h2.46l.32,1.54c.08.38.2.89.37,1.51s.36,1.3.58,2.02c.21.73.44,1.44.68,2.14.24.7.46,1.32.66,1.87.2-.58.41-1.22.64-1.91.23-.69.45-1.4.67-2.12s.41-1.41.6-2.07c.18-.66.34-1.23.46-1.72h-.92c-.05-.12-.08-.24-.1-.35-.02-.11-.04-.22-.04-.35,0-.38.21-.57.62-.57h3.38c.05.12.08.24.1.34.02.11.04.22.04.35,0,.18-.05.33-.14.43-.09.1-.26.15-.51.15h-.6c-.48,1.4-.95,2.79-1.43,4.19-.48,1.4-.94,2.79-1.4,4.19-.09.28-.19.51-.29.69-.1.18-.23.32-.4.41-.17.09-.41.14-.71.14h-1.33Z"/>
    <path class="st6" d="M366.36,19.8c0-1.35.21-2.46.64-3.33.43-.87,1.02-1.53,1.77-1.96.75-.43,1.6-.64,2.55-.64,1.55,0,2.71.45,3.48,1.36s1.16,2.25,1.16,4.05c0,1.35-.21,2.46-.64,3.33-.43.87-1.02,1.53-1.76,1.96-.74.43-1.6.64-2.56.64-1.55,0-2.71-.45-3.48-1.36s-1.16-2.25-1.16-4.05ZM368.36,19.27c0,1.67.24,2.85.71,3.53.47.68,1.2,1.02,2.16,1.02.49,0,.94-.12,1.36-.37.41-.25.75-.66,1-1.25s.38-1.39.38-2.4c0-1.67-.24-2.85-.71-3.53-.48-.68-1.2-1.02-2.16-1.02-.49,0-.94.12-1.36.37s-.75.66-1,1.24c-.25.58-.38,1.39-.38,2.42Z"/>
    <path class="st6" d="M378.13,23.78h.6c.03-.55.05-1.16.06-1.82,0-.66.01-1.3.01-1.91v-8.65c0-.49-.07-.81-.2-.95-.13-.15-.37-.22-.72-.22h-.25c-.05-.14-.08-.26-.1-.38-.02-.11-.03-.23-.03-.33,0-.37.21-.55.64-.55h2.6c0,.57-.01,1.26-.04,2.07-.02.81-.03,1.59-.03,2.32v6.67c0,.54,0,1.14.01,1.81s.02,1.31.03,1.94h1.1c.03.11.06.21.08.32.02.11.03.21.03.32,0,.37-.21.55-.62.55h-3.68c-.05-.12-.08-.23-.1-.33-.02-.1-.03-.2-.03-.31,0-.37.21-.55.64-.55Z"/>
    <path class="st6" d="M387.03,24.97l-2.69-8.42c-.15-.48-.31-.79-.47-.95s-.43-.24-.79-.24h-.25c-.05-.14-.08-.26-.09-.38-.02-.11-.02-.23-.02-.33,0-.17.05-.3.14-.4.09-.1.25-.15.48-.15h2.46l.32,1.54c.08.38.2.89.37,1.51s.36,1.3.58,2.02c.21.73.44,1.44.68,2.14.24.7.46,1.32.66,1.87.2-.58.41-1.22.64-1.91.23-.69.45-1.4.67-2.12s.41-1.41.6-2.07c.18-.66.34-1.23.46-1.72h-.92c-.05-.12-.08-.24-.1-.35-.02-.11-.04-.22-.04-.35,0-.38.21-.57.62-.57h3.38c.05.12.08.24.1.34.02.11.04.22.04.35,0,.18-.05.33-.14.43-.09.1-.26.15-.51.15h-.6c-.48,1.4-.95,2.79-1.43,4.19-.48,1.4-.94,2.79-1.4,4.19-.09.28-.19.51-.29.69-.1.18-.23.32-.4.41-.17.09-.41.14-.71.14h-1.33Z"/>
    <path class="st6" d="M395.41,23.78h.6c.03-.63.05-1.28.06-1.94s.01-1.27.01-1.81v-3.5c0-.49-.06-.81-.18-.95-.12-.15-.37-.22-.74-.22h-.25c-.05-.14-.08-.26-.1-.38-.02-.11-.03-.23-.03-.33,0-.37.21-.55.64-.55h2.6c0,.57-.01,1.23-.03,2-.02.77-.03,1.52-.03,2.25v1.68c0,.54,0,1.14.01,1.81,0,.67.02,1.31.03,1.94h1.1c.03.11.06.21.08.32.02.11.03.21.03.32,0,.37-.21.55-.62.55h-3.68c-.05-.12-.08-.23-.1-.33-.02-.1-.03-.2-.03-.31,0-.37.21-.55.64-.55ZM396.81,11.86c-.54,0-.91-.1-1.1-.29-.2-.19-.3-.49-.3-.89,0-.37.11-.66.33-.86.22-.21.58-.31,1.07-.31.52,0,.89.1,1.09.29.21.19.31.49.31.89,0,.37-.11.66-.33.86-.22.21-.58.31-1.07.31Z"/>
    <path class="st6" d="M401.2,23.78h.6c.03-.63.05-1.28.06-1.94s.01-1.27.01-1.81v-3.5c0-.49-.06-.81-.18-.95-.12-.15-.37-.22-.74-.22h-.25c-.05-.14-.08-.26-.1-.38-.02-.11-.03-.23-.03-.33,0-.37.21-.55.64-.55h2.21c.03.15.05.34.07.57.01.23.02.45.02.64.51-.48,1.05-.84,1.63-1.08.58-.25,1.2-.37,1.86-.37,1.09,0,1.92.29,2.5.86.57.58.86,1.51.86,2.82v5.06c0,.34.02.59.07.76.05.17.12.28.23.33s.26.08.46.08h.39c.05.11.08.21.09.32.01.11.02.21.02.32,0,.37-.21.55-.62.55h-2.58c0-.38,0-.83.02-1.35.01-.51.03-1.05.03-1.6,0-.55.01-1.07.01-1.54v-1.73c0-.83-.08-1.49-.23-1.99-.15-.5-.4-.86-.75-1.08s-.8-.33-1.37-.33c-.83,0-1.44.25-1.83.75-.39.5-.59,1.25-.59,2.24v1.68c0,.54,0,1.14.01,1.81,0,.67.02,1.31.03,1.94h1.1c.03.11.06.21.08.32.02.11.03.21.03.32,0,.37-.21.55-.62.55h-3.68c-.05-.12-.08-.23-.1-.33-.02-.1-.03-.2-.03-.31,0-.37.21-.55.64-.55Z"/>
    <path class="st6" d="M422.64,26.08c0,.64-.17,1.21-.51,1.71-.34.5-.8.92-1.38,1.28-.58.35-1.24.62-1.97.8s-1.48.28-2.24.28c-.94,0-1.69-.13-2.25-.39-.57-.26-.98-.6-1.23-1.01s-.38-.86-.38-1.33.14-.92.43-1.33c.28-.41.72-.77,1.32-1.08l.21-.11c-.31-.15-.55-.38-.74-.68-.18-.3-.28-.66-.28-1.09s.11-.83.32-1.16.54-.59.99-.77c-.51-.25-.94-.64-1.3-1.18-.36-.54-.54-1.25-.54-2.13s.18-1.56.55-2.16.87-1.05,1.51-1.37c.64-.31,1.35-.47,2.15-.47.29,0,.58.02.85.06.28.04.54.1.78.17h3.79c.05.12.08.24.12.36.03.11.05.24.05.38,0,.41-.22.62-.67.62h-1.47c.46.6.69,1.35.69,2.25,0,1.17-.4,2.1-1.21,2.82-.8.71-1.95,1.07-3.44,1.07-.54,0-.92.09-1.16.26-.24.18-.36.41-.36.7,0,.34.1.58.31.72.21.15.52.22.93.22h2.88c1.06,0,1.86.21,2.42.64.55.43.83,1.07.83,1.93ZM420.75,26.49c0-.43-.13-.75-.4-.97-.27-.21-.76-.32-1.48-.32h-2.94c-.45.2-.79.46-1.05.77-.25.31-.38.67-.38,1.07,0,.54.19.97.56,1.29.38.32.99.48,1.85.48.77,0,1.44-.1,2.01-.3.58-.2,1.02-.47,1.35-.82.32-.35.48-.75.48-1.21ZM419.53,17.82c0-.81-.19-1.45-.56-1.92-.38-.47-.98-.7-1.81-.7-.71,0-1.24.21-1.61.63-.37.42-.55,1.02-.55,1.81s.19,1.45.56,1.92c.38.47.98.7,1.81.7.71,0,1.24-.21,1.61-.63.37-.42.55-1.02.55-1.81Z"/>
    <path class="st6" d="M437.08,21.8c0,.98-.37,1.79-1.1,2.44-.74.64-1.79.97-3.15.97-.86,0-1.6-.11-2.23-.33-.63-.22-1.11-.49-1.45-.81-.34-.31-.51-.62-.51-.93,0-.26.09-.48.29-.67.19-.18.42-.32.68-.41.35.46.79.87,1.3,1.23s1.18.54,1.99.54c.77,0,1.35-.14,1.74-.43.39-.28.59-.67.59-1.16s-.2-.89-.6-1.16c-.4-.27-.96-.5-1.68-.7l-.99-.28c-1.01-.28-1.76-.66-2.25-1.15-.49-.49-.74-1.13-.74-1.91,0-.63.16-1.18.48-1.66s.78-.85,1.37-1.12c.59-.27,1.3-.4,2.13-.4.78,0,1.45.1,1.99.31s.96.46,1.25.76c.29.3.44.59.44.89,0,.25-.09.45-.26.61-.18.16-.4.27-.68.33l-.28.07-.14-.21c-.29-.4-.65-.73-1.08-.99-.43-.26-.95-.39-1.56-.39-.55,0-.99.13-1.32.39-.33.26-.5.61-.5,1.06s.15.78.45,1.05c.3.27.79.49,1.46.66l.97.28c1.21.31,2.08.71,2.61,1.21.53.5.79,1.14.79,1.92Z"/>
    <path class="st6" d="M439.59,21.8v-6.35h-1.61c-.05-.12-.08-.24-.12-.36-.03-.12-.05-.24-.05-.38,0-.41.22-.62.67-.62h1.1l.58-2.51.51.05c.31.02.51.09.62.22.11.13.16.39.16.77v1.47h3.38c.05.12.08.24.1.36.02.11.04.24.04.38,0,.41-.21.62-.64.62h-2.88v5.93c0,.86.11,1.46.32,1.81.21.35.57.52,1.06.52.29,0,.55-.06.78-.18.23-.12.44-.28.62-.48.2.05.38.15.53.31.15.16.23.35.23.56,0,.31-.23.6-.7.87s-1.08.41-1.83.41c-1,0-1.72-.28-2.18-.85-.46-.57-.69-1.42-.69-2.55Z"/>
    <path class="st6" d="M446.7,23.78h.6c.03-.63.05-1.28.06-1.94s.01-1.27.01-1.81v-3.5c0-.49-.06-.81-.18-.95-.12-.15-.37-.22-.74-.22h-.25c-.05-.14-.08-.26-.1-.38-.02-.11-.03-.23-.03-.33,0-.37.21-.55.64-.55h2.21c.03.15.05.36.07.62.01.26.02.54.02.83.58-.6,1.19-1.03,1.83-1.29.64-.26,1.24-.39,1.81-.39.29,0,.5.06.63.17.13.12.2.31.2.59,0,.32-.05.61-.16.86-.11.25-.22.42-.32.49-.15.11-.36.18-.61.22-.25.04-.5.06-.75.06l-.32-.87c-.72.26-1.25.63-1.58,1.1s-.49,1.19-.49,2.14v1.4c0,.54,0,1.14.01,1.81,0,.67.02,1.31.03,1.94h1.4c.03.11.06.21.08.32.02.11.03.21.03.32,0,.37-.21.55-.62.55h-3.98c-.05-.12-.08-.23-.1-.33-.02-.1-.03-.2-.03-.31,0-.37.21-.55.64-.55Z"/>
    <path class="st6" d="M463.46,24.74l-1.72.23c-.11-.15-.2-.34-.29-.56-.08-.22-.14-.43-.17-.61-.4.49-.86.85-1.39,1.07s-1.14.33-1.83.33c-.95,0-1.74-.27-2.36-.81-.62-.54-.93-1.33-.93-2.39s.37-1.88,1.12-2.46c.74-.58,1.92-.87,3.53-.87h1.63v-.64c0-.77-.08-1.35-.25-1.76-.17-.41-.46-.69-.89-.85-.42-.16-1.02-.24-1.78-.24h-.67l-.34,1.24c-.14.06-.3.12-.5.16-.19.05-.38.07-.56.07-.17,0-.33-.06-.49-.2-.16-.13-.29-.3-.39-.51-.1-.21-.15-.42-.15-.63,0-.18.06-.34.2-.47.13-.13.36-.26.68-.4.4-.15.9-.29,1.51-.4.61-.11,1.25-.17,1.94-.17,1.26,0,2.17.26,2.73.78.56.52.84,1.45.84,2.78v5.22c0,.38.05.63.16.75.11.12.3.17.58.17h.44c.03.09.06.18.08.28.02.09.03.19.03.3,0,.18-.05.32-.16.41-.11.09-.3.15-.58.18ZM461.05,21.29v-1.29h-1.91c-.92,0-1.55.16-1.9.49-.34.33-.52.77-.52,1.32,0,.61.16,1.08.48,1.41s.79.49,1.4.49c.83,0,1.44-.22,1.84-.66.4-.44.6-1.03.6-1.78Z"/>
    <path class="st6" d="M467.74,28.61c.26-.09.51-.31.74-.67.23-.35.45-.79.67-1.3.21-.51.42-1.05.62-1.62v-.03s0-.02-.02-.03c-.23-.03-.41-.08-.55-.15s-.26-.21-.38-.44-.26-.57-.43-1.05l-2.07-6.76c-.15-.48-.31-.79-.47-.95s-.43-.24-.79-.24h-.25c-.05-.14-.08-.26-.09-.38-.02-.11-.02-.23-.02-.33,0-.17.05-.3.14-.4.09-.1.25-.15.48-.15h2.46l.32,1.54c.06.37.18.86.34,1.48s.36,1.3.59,2.05c.22.74.46,1.48.7,2.2s.47,1.36.67,1.91c.6-1.79,1.1-3.36,1.5-4.69s.67-2.41.83-3.22h-.9c-.05-.12-.08-.24-.1-.35-.02-.11-.04-.22-.04-.35,0-.23.07-.38.22-.46.15-.08.38-.11.7-.11h3.08c.05.12.08.24.1.34.02.11.04.22.04.35,0,.18-.05.33-.14.43-.09.1-.26.15-.51.15h-.58c-.52,1.55-1.04,3.1-1.55,4.65-.51,1.55-1.02,3.1-1.53,4.65-.35,1-.67,1.83-.97,2.51-.29.67-.58,1.22-.87,1.64-.29.42-.61.74-.97.94s-.77.33-1.24.38h-.43c-.15,0-.28,0-.4-.02-.49-.03-.87-.13-1.14-.31-.27-.18-.4-.4-.4-.66,0-.2.07-.4.22-.59.15-.19.31-.33.49-.43.17.12.37.23.6.33.23.1.46.16.69.2.11.02.21.02.32,0,.11-.02.21-.03.32-.05Z"/>
    <path class="st6" d="M491.64,24.97h-2.02c-.06-.15-.11-.34-.16-.55-.05-.21-.08-.41-.09-.6-.34.41-.77.75-1.31,1-.54.25-1.15.38-1.84.38-1.32,0-2.36-.43-3.12-1.3-.76-.87-1.14-2.18-1.14-3.94,0-1.44.21-2.61.64-3.51.43-.9,1.01-1.55,1.75-1.97.74-.41,1.57-.62,2.51-.62.51,0,.95.03,1.32.1.38.07.69.16.96.26v-2.83c0-.49-.06-.81-.18-.95-.12-.15-.37-.22-.74-.22h-.55c-.03-.14-.06-.26-.08-.38-.02-.11-.03-.23-.03-.33,0-.37.21-.55.62-.55h2.9c0,.37,0,.81-.01,1.33s-.02,1.05-.03,1.59c-.02.54-.02,1.03-.02,1.47v9.41c0,.43.05.71.16.83s.31.18.6.18h.39c.05.11.08.21.1.32.02.11.03.21.03.32,0,.37-.21.55-.64.55ZM489.13,20.83v-5.04c-.26-.15-.59-.28-1-.39s-.86-.16-1.37-.16c-.84,0-1.52.31-2.04.93-.51.62-.77,1.7-.77,3.23,0,1.13.12,2.02.37,2.65.25.63.58,1.07,1.01,1.31.43.25.92.37,1.47.37.78,0,1.36-.26,1.75-.77.38-.51.58-1.22.58-2.13Z"/>
    <path class="st6" d="M493.75,19.8c0-1.35.21-2.46.64-3.33.43-.87,1.02-1.53,1.77-1.96.75-.43,1.6-.64,2.55-.64,1.55,0,2.71.45,3.48,1.36s1.16,2.25,1.16,4.05c0,1.35-.21,2.46-.64,3.33-.43.87-1.02,1.53-1.76,1.96-.74.43-1.6.64-2.56.64-1.55,0-2.71-.45-3.48-1.36s-1.16-2.25-1.16-4.05ZM495.75,19.27c0,1.67.24,2.85.71,3.53.47.68,1.2,1.02,2.16,1.02.49,0,.94-.12,1.36-.37.41-.25.75-.66,1-1.25s.38-1.39.38-2.4c0-1.67-.24-2.85-.71-3.53-.48-.68-1.2-1.02-2.16-1.02-.49,0-.94.12-1.36.37s-.75.66-1,1.24c-.25.58-.38,1.39-.38,2.42Z"/>
    <path class="st6" d="M514.68,26.08c0,.64-.17,1.21-.51,1.71-.34.5-.8.92-1.38,1.28-.58.35-1.24.62-1.97.8s-1.48.28-2.24.28c-.94,0-1.69-.13-2.25-.39-.57-.26-.98-.6-1.23-1.01s-.38-.86-.38-1.33.14-.92.43-1.33c.28-.41.72-.77,1.32-1.08l.21-.11c-.31-.15-.55-.38-.74-.68-.18-.3-.28-.66-.28-1.09s.11-.83.32-1.16.54-.59.99-.77c-.51-.25-.94-.64-1.3-1.18-.36-.54-.54-1.25-.54-2.13s.18-1.56.55-2.16.87-1.05,1.51-1.37c.64-.31,1.35-.47,2.15-.47.29,0,.58.02.85.06.28.04.54.1.78.17h3.79c.05.12.08.24.12.36.03.11.05.24.05.38,0,.41-.22.62-.67.62h-1.47c.46.6.69,1.35.69,2.25,0,1.17-.4,2.1-1.21,2.82-.8.71-1.95,1.07-3.44,1.07-.54,0-.92.09-1.16.26-.24.18-.36.41-.36.7,0,.34.1.58.31.72.21.15.52.22.93.22h2.88c1.06,0,1.86.21,2.42.64.55.43.83,1.07.83,1.93ZM512.8,26.49c0-.43-.13-.75-.4-.97-.27-.21-.76-.32-1.48-.32h-2.94c-.45.2-.79.46-1.05.77-.25.31-.38.67-.38,1.07,0,.54.19.97.56,1.29.38.32.99.48,1.85.48.77,0,1.44-.1,2.01-.3.58-.2,1.02-.47,1.35-.82.32-.35.48-.75.48-1.21ZM511.58,17.82c0-.81-.19-1.45-.56-1.92-.38-.47-.98-.7-1.81-.7-.71,0-1.24.21-1.61.63-.37.42-.55,1.02-.55,1.81s.19,1.45.56,1.92c.38.47.98.7,1.81.7.71,0,1.24-.21,1.61-.63.37-.42.55-1.02.55-1.81Z"/>
    <path class="st6" d="M524.07,21.8c0,.98-.37,1.79-1.1,2.44-.74.64-1.79.97-3.15.97-.86,0-1.6-.11-2.23-.33-.63-.22-1.11-.49-1.45-.81-.34-.31-.51-.62-.51-.93,0-.26.09-.48.29-.67.19-.18.42-.32.68-.41.35.46.79.87,1.3,1.23s1.18.54,1.99.54c.77,0,1.35-.14,1.74-.43.39-.28.59-.67.59-1.16s-.2-.89-.6-1.16c-.4-.27-.96-.5-1.68-.7l-.99-.28c-1.01-.28-1.76-.66-2.25-1.15-.49-.49-.74-1.13-.74-1.91,0-.63.16-1.18.48-1.66s.78-.85,1.37-1.12c.59-.27,1.3-.4,2.13-.4.78,0,1.45.1,1.99.31s.96.46,1.25.76c.29.3.44.59.44.89,0,.25-.09.45-.26.61-.18.16-.4.27-.68.33l-.28.07-.14-.21c-.29-.4-.65-.73-1.08-.99-.43-.26-.95-.39-1.56-.39-.55,0-.99.13-1.32.39-.33.26-.5.61-.5,1.06s.15.78.45,1.05c.3.27.79.49,1.46.66l.97.28c1.21.31,2.08.71,2.61,1.21.53.5.79,1.14.79,1.92Z"/>
    <path class="st6" d="M539.25,24.74l-1.72.23c-.11-.15-.2-.34-.29-.56-.08-.22-.14-.43-.17-.61-.4.49-.86.85-1.39,1.07s-1.14.33-1.83.33c-.95,0-1.74-.27-2.36-.81-.62-.54-.93-1.33-.93-2.39s.37-1.88,1.12-2.46c.74-.58,1.92-.87,3.53-.87h1.63v-.64c0-.77-.08-1.35-.25-1.76-.17-.41-.46-.69-.89-.85-.42-.16-1.02-.24-1.78-.24h-.67l-.34,1.24c-.14.06-.3.12-.5.16-.19.05-.38.07-.56.07-.17,0-.33-.06-.49-.2-.16-.13-.29-.3-.39-.51-.1-.21-.15-.42-.15-.63,0-.18.06-.34.2-.47.13-.13.36-.26.68-.4.4-.15.9-.29,1.51-.4.61-.11,1.25-.17,1.94-.17,1.26,0,2.17.26,2.73.78.56.52.84,1.45.84,2.78v5.22c0,.38.05.63.16.75.11.12.3.17.58.17h.44c.03.09.06.18.08.28.02.09.03.19.03.3,0,.18-.05.32-.16.41-.11.09-.3.15-.58.18ZM536.83,21.29v-1.29h-1.91c-.92,0-1.55.16-1.9.49-.34.33-.52.77-.52,1.32,0,.61.16,1.08.48,1.41s.79.49,1.4.49c.83,0,1.44-.22,1.84-.66.4-.44.6-1.03.6-1.78Z"/>
    <path class="st6" d="M541.8,23.78h.6c.03-.55.05-1.16.06-1.82,0-.66.01-1.3.01-1.91v-8.65c0-.49-.07-.81-.2-.95-.13-.15-.37-.22-.72-.22h-.25c-.05-.14-.08-.26-.1-.38-.02-.11-.03-.23-.03-.33,0-.37.21-.55.64-.55h2.6c0,.57-.01,1.26-.04,2.07-.02.81-.03,1.59-.03,2.32v6.67c0,.54,0,1.14.01,1.81s.02,1.31.03,1.94h1.1c.03.11.06.21.08.32.02.11.03.21.03.32,0,.37-.21.55-.62.55h-3.68c-.05-.12-.08-.23-.1-.33-.02-.1-.03-.2-.03-.31,0-.37.21-.55.64-.55Z"/>
    <path class="st6" d="M547.46,23.78h.6c.03-.55.05-1.16.06-1.82,0-.66.01-1.3.01-1.91v-8.65c0-.49-.07-.81-.2-.95-.13-.15-.37-.22-.72-.22h-.25c-.05-.14-.08-.26-.1-.38-.02-.11-.03-.23-.03-.33,0-.37.21-.55.64-.55h2.6c0,.57-.01,1.26-.04,2.07-.02.81-.03,1.59-.03,2.32v6.67c0,.54,0,1.14.01,1.81s.02,1.31.03,1.94h1.1c.03.11.06.21.08.32.02.11.03.21.03.32,0,.37-.21.55-.62.55h-3.68c-.05-.12-.08-.23-.1-.33-.02-.1-.03-.2-.03-.31,0-.37.21-.55.64-.55Z"/>
    <path class="st6" d="M560.5,19.82h-5.77c.05.95.2,1.71.47,2.29.27.57.64.99,1.1,1.25s1.02.39,1.64.39c.67,0,1.23-.13,1.68-.39.44-.26.85-.63,1.22-1.1.26.09.47.21.64.37.17.15.25.36.25.62,0,.31-.18.61-.54.91-.36.3-.84.55-1.45.75-.61.2-1.28.3-2.04.3-1.69,0-2.94-.47-3.75-1.4-.81-.94-1.22-2.27-1.22-4,0-2.02.45-3.52,1.34-4.49.9-.97,2.07-1.45,3.51-1.45,1,0,1.8.2,2.42.59s1.07.93,1.36,1.61c.29.68.44,1.47.44,2.36,0,.38-.04.68-.13.87-.08.2-.22.34-.41.41-.19.08-.45.12-.77.12ZM554.75,18.49h5.13v-.28c0-.89-.2-1.61-.6-2.15-.4-.54-1-.82-1.82-.82s-1.41.25-1.88.75c-.47.5-.75,1.33-.84,2.5Z"/>
    <path class="st6" d="M573.24,26.08c0,.64-.17,1.21-.51,1.71-.34.5-.8.92-1.38,1.28-.58.35-1.24.62-1.97.8s-1.48.28-2.24.28c-.94,0-1.69-.13-2.25-.39-.57-.26-.98-.6-1.23-1.01s-.38-.86-.38-1.33.14-.92.43-1.33c.28-.41.72-.77,1.32-1.08l.21-.11c-.31-.15-.55-.38-.74-.68-.18-.3-.28-.66-.28-1.09s.11-.83.32-1.16.54-.59.99-.77c-.51-.25-.94-.64-1.3-1.18-.36-.54-.54-1.25-.54-2.13s.18-1.56.55-2.16.87-1.05,1.51-1.37c.64-.31,1.35-.47,2.15-.47.29,0,.58.02.85.06.28.04.54.1.78.17h3.79c.05.12.08.24.12.36.03.11.05.24.05.38,0,.41-.22.62-.67.62h-1.47c.46.6.69,1.35.69,2.25,0,1.17-.4,2.1-1.21,2.82-.8.71-1.95,1.07-3.44,1.07-.54,0-.92.09-1.16.26-.24.18-.36.41-.36.7,0,.34.1.58.31.72.21.15.52.22.93.22h2.88c1.06,0,1.86.21,2.42.64.55.43.83,1.07.83,1.93ZM571.35,26.49c0-.43-.13-.75-.4-.97-.27-.21-.76-.32-1.48-.32h-2.94c-.45.2-.79.46-1.05.77-.25.31-.38.67-.38,1.07,0,.54.19.97.56,1.29.38.32.99.48,1.85.48.77,0,1.44-.1,2.01-.3.58-.2,1.02-.47,1.35-.82.32-.35.48-.75.48-1.21ZM570.13,17.82c0-.81-.19-1.45-.56-1.92-.38-.47-.98-.7-1.81-.7-.71,0-1.24.21-1.61.63-.37.42-.55,1.02-.55,1.81s.19,1.45.56,1.92c.38.47.98.7,1.81.7.71,0,1.24-.21,1.61-.63.37-.42.55-1.02.55-1.81Z"/>
    <path class="st6" d="M582.35,19.82h-5.77c.05.95.2,1.71.47,2.29.27.57.64.99,1.1,1.25s1.02.39,1.64.39c.67,0,1.23-.13,1.68-.39.44-.26.85-.63,1.22-1.1.26.09.47.21.64.37.17.15.25.36.25.62,0,.31-.18.61-.54.91-.36.3-.84.55-1.45.75-.61.2-1.28.3-2.04.3-1.69,0-2.94-.47-3.75-1.4-.81-.94-1.22-2.27-1.22-4,0-2.02.45-3.52,1.34-4.49.9-.97,2.07-1.45,3.51-1.45,1,0,1.8.2,2.42.59s1.07.93,1.36,1.61c.29.68.44,1.47.44,2.36,0,.38-.04.68-.13.87-.08.2-.22.34-.41.41-.19.08-.45.12-.77.12ZM576.6,18.49h5.13v-.28c0-.89-.2-1.61-.6-2.15-.4-.54-1-.82-1.82-.82s-1.41.25-1.88.75c-.47.5-.75,1.33-.84,2.5Z"/>
    <path class="st6" d="M587.18,20.67l-.12-.55c-.15-.71-.13-1.31.07-1.82.2-.51.64-.99,1.31-1.45l1.29-.85c.58-.4,1.02-.81,1.3-1.23.28-.42.42-.96.42-1.62,0-.77-.24-1.34-.71-1.73-.47-.38-1.23-.58-2.28-.58h-1.4l-.3,1.22c-.14.06-.32.13-.54.21-.22.08-.44.11-.66.11-.15,0-.31-.08-.46-.25-.15-.17-.28-.37-.39-.6-.11-.23-.16-.44-.16-.62s.07-.34.22-.48c.15-.14.41-.28.79-.44.48-.18,1.02-.33,1.63-.45.61-.12,1.27-.17,1.96-.17,1.04,0,1.89.15,2.54.45.65.3,1.13.72,1.44,1.27s.46,1.18.46,1.9-.1,1.31-.31,1.81c-.21.5-.5.93-.87,1.3-.38.37-.83.73-1.37,1.08l-1.27.83c-.34.23-.6.46-.78.7-.18.24-.31.51-.38.82-.07.31-.1.69-.1,1.15h-1.33ZM588.03,25.2c-.57,0-.96-.11-1.17-.32-.21-.21-.32-.54-.32-.97s.12-.74.36-.97c.24-.23.62-.35,1.14-.35.57,0,.96.1,1.17.31s.32.53.32.98c0,.4-.12.72-.34.95-.23.24-.61.36-1.15.36Z"/>
  </g>
  <text class="st7" transform="translate(.25 46)"><tspan x="0" y="0">Diagonal cells show complaints alleging each type of harm. Other cells show complaints alleging both types of harm.</tspan></text>
  <text class="st8" transform="translate(0 469.17)"><tspan x="0" y="0">Source: Animal Welfare Board of India complaints database; author&apos;s analysis and AI-assisted classification.</tspan><tspan x="0" y="13.2">Note: Complaints may allege more than one type of harm; counts therefore overlap across cells. Complaints alleging three or </tspan><tspan x="0" y="26.4">more types of harm (&lt;1%) are not shown.</tspan></text>
</svg>