<?xml version="1.0" encoding="UTF-8"?>
<svg id="Layer_1" xmlns="http://www.w3.org/2000/svg" version="1.1" viewBox="0 0 497.64 499.78">
  <!-- Generator: Adobe Illustrator 30.6.0, SVG Export Plug-In . SVG Version: 2.1.4 Build 109)  -->
  <defs>
    <style>
      .st0 {
        fill: #a2a2a1;
      }

      .st1 {
        fill: #231f20;
      }

      .st2 {
        fill: none;
        stroke: #cccccb;
        stroke-linecap: square;
      }

      .st3 {
        font-size: 12px;
      }

      .st3, .st4 {
        fill: #818181;
        font-family: MyriadPro-Regular, 'Myriad Pro';
      }

      .st4 {
        font-size: 11px;
      }

      .st5 {
        fill: #37978f;
      }

      .st6 {
        fill: #4e4e4e;
      }

      .st7 {
        fill: #989898;
      }
    </style>
  </defs>
  <rect class="st5" x="91.75" y="371.24" width="71.64" height="25.05"/>
  <rect class="st5" x="216.1" y="283.11" width="71.64" height="113.17"/>
  <rect class="st5" x="352.27" y="114.29" width="71.64" height="282"/>
  <path class="st0" d="M33.04,349.78l1.11-.09c.08.54.27.94.57,1.22s.66.41,1.08.41c.51,0,.94-.19,1.29-.57s.53-.89.53-1.52-.17-1.08-.51-1.42-.78-.52-1.33-.52c-.34,0-.65.08-.92.23s-.49.35-.64.6l-.99-.13.83-4.41h4.27v1.01h-3.43l-.46,2.31c.52-.36,1.06-.54,1.62-.54.75,0,1.38.26,1.9.78s.77,1.19.77,2-.23,1.45-.68,2.02c-.55.7-1.3,1.04-2.26,1.04-.78,0-1.42-.22-1.91-.66s-.78-1.02-.85-1.74Z"/>
  <path class="st0" d="M39.71,347.79c0-1.02.1-1.83.31-2.45s.52-1.1.93-1.43.93-.5,1.56-.5c.46,0,.87.09,1.21.28s.63.45.86.8.4.78.53,1.28.19,1.18.19,2.03c0,1.01-.1,1.82-.31,2.44s-.52,1.1-.93,1.44-.93.51-1.56.51c-.83,0-1.48-.3-1.95-.89-.57-.71-.85-1.88-.85-3.49ZM40.8,347.79c0,1.41.17,2.35.5,2.82s.74.7,1.22.7.89-.23,1.22-.7.5-1.41.5-2.81-.17-2.35-.5-2.82-.74-.7-1.23-.7-.87.21-1.16.62c-.36.52-.54,1.49-.54,2.9Z"/>
  <path class="st0" d="M30.34,305.65h-1.05v-6.72c-.25.24-.59.48-1,.73s-.78.42-1.11.54v-1.02c.59-.28,1.11-.61,1.55-1.01s.75-.78.94-1.15h.68v8.62Z"/>
  <path class="st0" d="M33.04,301.41c0-1.02.1-1.83.31-2.45s.52-1.1.93-1.43.93-.5,1.56-.5c.46,0,.87.09,1.21.28s.63.45.86.8.4.78.53,1.28.19,1.18.19,2.03c0,1.01-.1,1.82-.31,2.44s-.52,1.1-.93,1.44-.93.51-1.56.51c-.83,0-1.48-.3-1.95-.89-.57-.71-.85-1.88-.85-3.49ZM34.12,301.41c0,1.41.17,2.35.5,2.82s.74.7,1.22.7.89-.23,1.22-.7.5-1.41.5-2.81-.17-2.35-.5-2.82-.74-.7-1.23-.7-.87.21-1.16.62c-.36.52-.54,1.49-.54,2.9Z"/>
  <path class="st0" d="M39.71,301.41c0-1.02.1-1.83.31-2.45s.52-1.1.93-1.43.93-.5,1.56-.5c.46,0,.87.09,1.21.28s.63.45.86.8.4.78.53,1.28.19,1.18.19,2.03c0,1.01-.1,1.82-.31,2.44s-.52,1.1-.93,1.44-.93.51-1.56.51c-.83,0-1.48-.3-1.95-.89-.57-.71-.85-1.88-.85-3.49ZM40.8,301.41c0,1.41.17,2.35.5,2.82s.74.7,1.22.7.89-.23,1.22-.7.5-1.41.5-2.81-.17-2.35-.5-2.82-.74-.7-1.23-.7-.87.21-1.16.62c-.36.52-.54,1.49-.54,2.9Z"/>
  <path class="st0" d="M30.34,259.27h-1.05v-6.72c-.25.24-.59.48-1,.73s-.78.42-1.11.54v-1.02c.59-.28,1.11-.61,1.55-1.01s.75-.78.94-1.15h.68v8.62Z"/>
  <path class="st0" d="M33.04,257.02l1.11-.09c.08.54.27.94.57,1.22s.66.41,1.08.41c.51,0,.94-.19,1.29-.57s.53-.89.53-1.52-.17-1.08-.51-1.42-.78-.52-1.33-.52c-.34,0-.65.08-.92.23s-.49.35-.64.6l-.99-.13.83-4.41h4.27v1.01h-3.43l-.46,2.31c.52-.36,1.06-.54,1.62-.54.75,0,1.38.26,1.9.78s.77,1.19.77,2-.23,1.45-.68,2.02c-.55.7-1.3,1.04-2.26,1.04-.78,0-1.42-.22-1.91-.66s-.78-1.02-.85-1.74Z"/>
  <path class="st0" d="M39.71,255.03c0-1.02.1-1.83.31-2.45s.52-1.1.93-1.43.93-.5,1.56-.5c.46,0,.87.09,1.21.28s.63.45.86.8.4.78.53,1.28.19,1.18.19,2.03c0,1.01-.1,1.82-.31,2.44s-.52,1.1-.93,1.44-.93.51-1.56.51c-.83,0-1.48-.3-1.95-.89-.57-.71-.85-1.88-.85-3.49ZM40.8,255.03c0,1.41.17,2.35.5,2.82s.74.7,1.22.7.89-.23,1.22-.7.5-1.41.5-2.81-.17-2.35-.5-2.82-.74-.7-1.23-.7-.87.21-1.16.62c-.36.52-.54,1.49-.54,2.9Z"/>
  <path class="st0" d="M31.91,211.87v1.01h-5.68c0-.25.03-.5.12-.73.14-.39.38-.77.69-1.14s.78-.81,1.38-1.3c.93-.77,1.56-1.37,1.89-1.82s.49-.87.49-1.27c0-.42-.15-.77-.45-1.06s-.69-.43-1.17-.43c-.51,0-.91.15-1.22.46s-.46.73-.46,1.27l-1.08-.11c.07-.81.35-1.42.84-1.85s1.13-.64,1.95-.64,1.48.23,1.96.69.72,1.02.72,1.7c0,.34-.07.68-.21,1.01s-.37.68-.7,1.05-.87.87-1.63,1.51c-.63.53-1.04.89-1.22,1.08s-.33.38-.45.57h4.21Z"/>
  <path class="st0" d="M33.04,208.65c0-1.02.1-1.83.31-2.45s.52-1.1.93-1.43.93-.5,1.56-.5c.46,0,.87.09,1.21.28s.63.45.86.8.4.78.53,1.28.19,1.18.19,2.03c0,1.01-.1,1.82-.31,2.44s-.52,1.1-.93,1.44-.93.51-1.56.51c-.83,0-1.48-.3-1.95-.89-.57-.71-.85-1.88-.85-3.49ZM34.12,208.65c0,1.41.17,2.35.5,2.82s.74.7,1.22.7.89-.23,1.22-.7.5-1.41.5-2.81-.17-2.35-.5-2.82-.74-.7-1.23-.7-.87.21-1.16.62c-.36.52-.54,1.49-.54,2.9Z"/>
  <path class="st0" d="M39.71,208.65c0-1.02.1-1.83.31-2.45s.52-1.1.93-1.43.93-.5,1.56-.5c.46,0,.87.09,1.21.28s.63.45.86.8.4.78.53,1.28.19,1.18.19,2.03c0,1.01-.1,1.82-.31,2.44s-.52,1.1-.93,1.44-.93.51-1.56.51c-.83,0-1.48-.3-1.95-.89-.57-.71-.85-1.88-.85-3.49ZM40.8,208.65c0,1.41.17,2.35.5,2.82s.74.7,1.22.7.89-.23,1.22-.7.5-1.41.5-2.81-.17-2.35-.5-2.82-.74-.7-1.23-.7-.87.21-1.16.62c-.36.52-.54,1.49-.54,2.9Z"/>
  <path class="st0" d="M31.91,165.49v1.01h-5.68c0-.25.03-.5.12-.73.14-.39.38-.77.69-1.14s.78-.81,1.38-1.3c.93-.77,1.56-1.37,1.89-1.82s.49-.87.49-1.27c0-.42-.15-.77-.45-1.06s-.69-.43-1.17-.43c-.51,0-.91.15-1.22.46s-.46.73-.46,1.27l-1.08-.11c.07-.81.35-1.42.84-1.85s1.13-.64,1.95-.64,1.48.23,1.96.69.72,1.02.72,1.7c0,.34-.07.68-.21,1.01s-.37.68-.7,1.05-.87.87-1.63,1.51c-.63.53-1.04.89-1.22,1.08s-.33.38-.45.57h4.21Z"/>
  <path class="st0" d="M33.04,164.25l1.11-.09c.08.54.27.94.57,1.22s.66.41,1.08.41c.51,0,.94-.19,1.29-.57s.53-.89.53-1.52-.17-1.08-.51-1.42-.78-.52-1.33-.52c-.34,0-.65.08-.92.23s-.49.35-.64.6l-.99-.13.83-4.41h4.27v1.01h-3.43l-.46,2.31c.52-.36,1.06-.54,1.62-.54.75,0,1.38.26,1.9.78s.77,1.19.77,2-.23,1.45-.68,2.02c-.55.7-1.3,1.04-2.26,1.04-.78,0-1.42-.22-1.91-.66s-.78-1.02-.85-1.74Z"/>
  <path class="st0" d="M39.71,162.27c0-1.02.1-1.83.31-2.45s.52-1.1.93-1.43.93-.5,1.56-.5c.46,0,.87.09,1.21.28s.63.45.86.8.4.78.53,1.28.19,1.18.19,2.03c0,1.01-.1,1.82-.31,2.44s-.52,1.1-.93,1.44-.93.51-1.56.51c-.83,0-1.48-.3-1.95-.89-.57-.71-.85-1.88-.85-3.49ZM40.8,162.27c0,1.41.17,2.35.5,2.82s.74.7,1.22.7.89-.23,1.22-.7.5-1.41.5-2.81-.17-2.35-.5-2.82-.74-.7-1.23-.7-.87.21-1.16.62c-.36.52-.54,1.49-.54,2.9Z"/>
  <path class="st0" d="M26.37,117.85l1.05-.14c.12.6.33,1.03.62,1.29s.65.4,1.06.4c.5,0,.92-.17,1.26-.52s.51-.77.51-1.28-.16-.88-.47-1.2-.72-.47-1.21-.47c-.2,0-.45.04-.74.12l.12-.93c.07,0,.13.01.17.01.45,0,.85-.12,1.21-.35s.54-.6.54-1.08c0-.39-.13-.71-.39-.96s-.6-.38-1.01-.38-.75.13-1.03.39-.45.64-.53,1.16l-1.05-.19c.13-.71.42-1.25.88-1.64s1.03-.58,1.71-.58c.47,0,.9.1,1.29.3s.7.48.91.82.31.72.31,1.11-.1.71-.3,1.01-.49.55-.88.73c.51.12.9.36,1.18.73s.42.83.42,1.39c0,.75-.27,1.39-.82,1.91s-1.24.78-2.07.78c-.75,0-1.38-.22-1.88-.67s-.78-1.03-.85-1.75Z"/>
  <path class="st0" d="M33.04,115.88c0-1.02.1-1.83.31-2.45s.52-1.1.93-1.43.93-.5,1.56-.5c.46,0,.87.09,1.21.28s.63.45.86.8.4.78.53,1.28.19,1.18.19,2.03c0,1.01-.1,1.82-.31,2.44s-.52,1.1-.93,1.44-.93.51-1.56.51c-.83,0-1.48-.3-1.95-.89-.57-.71-.85-1.88-.85-3.49ZM34.12,115.88c0,1.41.17,2.35.5,2.82s.74.7,1.22.7.89-.23,1.22-.7.5-1.41.5-2.81-.17-2.35-.5-2.82-.74-.7-1.23-.7-.87.21-1.16.62c-.36.52-.54,1.49-.54,2.9Z"/>
  <path class="st0" d="M39.71,115.88c0-1.02.1-1.83.31-2.45s.52-1.1.93-1.43.93-.5,1.56-.5c.46,0,.87.09,1.21.28s.63.45.86.8.4.78.53,1.28.19,1.18.19,2.03c0,1.01-.1,1.82-.31,2.44s-.52,1.1-.93,1.44-.93.51-1.56.51c-.83,0-1.48-.3-1.95-.89-.57-.71-.85-1.88-.85-3.49ZM40.8,115.88c0,1.41.17,2.35.5,2.82s.74.7,1.22.7.89-.23,1.22-.7.5-1.41.5-2.81-.17-2.35-.5-2.82-.74-.7-1.23-.7-.87.21-1.16.62c-.36.52-.54,1.49-.54,2.9Z"/>
  <g>
    <path class="st1" d="M112.79,414.87c2.47-2.4,4.03-3.97,4.03-5.33,0-.94-.52-1.54-1.47-1.54-.69,0-1.26.45-1.74.99l-.9-.88c.81-.88,1.63-1.38,2.85-1.38,1.7,0,2.82,1.08,2.82,2.73s-1.47,3.22-3.24,5.07c.47-.04,1.06-.09,1.5-.09h2.18v1.37h-6.02v-.94Z"/>
    <path class="st1" d="M120,411.32c0-3.01,1.18-4.59,3.03-4.59s3.03,1.58,3.03,4.59-1.18,4.66-3.03,4.66-3.03-1.65-3.03-4.66ZM124.51,411.32c0-2.52-.62-3.32-1.48-3.32s-1.48.8-1.48,3.32.62,3.4,1.48,3.4,1.48-.87,1.48-3.4Z"/>
    <path class="st1" d="M127.15,414.87c2.47-2.4,4.03-3.97,4.03-5.33,0-.94-.52-1.54-1.47-1.54-.69,0-1.26.45-1.74.99l-.9-.88c.81-.88,1.63-1.38,2.85-1.38,1.7,0,2.82,1.08,2.82,2.73s-1.47,3.22-3.24,5.07c.47-.04,1.06-.09,1.5-.09h2.18v1.37h-6.02v-.94Z"/>
    <path class="st1" d="M134.13,414.72l.77-1.03c.54.54,1.22.97,2.11.97.97,0,1.65-.5,1.65-1.34,0-.92-.59-1.51-2.62-1.51v-1.18c1.74,0,2.31-.61,2.31-1.42,0-.75-.5-1.19-1.32-1.19-.69,0-1.24.33-1.78.84l-.83-1c.76-.67,1.61-1.13,2.68-1.13,1.7,0,2.87.85,2.87,2.36,0,1-.59,1.67-1.55,2.05v.06c1.05.27,1.85,1.03,1.85,2.22,0,1.62-1.42,2.57-3.13,2.57-1.44,0-2.39-.55-3.02-1.26Z"/>
  </g>
  <polygon class="st2" points="450.41 396.18 58.63 396.18 58.94 396.18 447.17 396.18 450.41 396.18"/>
  <polygon class="st2" points="58.63 396.67 58.63 396.65 58.63 106.26 58.63 143.82 58.63 396.67"/>
  <g>
    <path class="st6" d="M2.26,295.88v-1.12l5.36-3.09,1.77-.92v-.05c-.86.05-1.82.14-2.71.14H2.26v-1.03h8.53v1.12l-5.37,3.09-1.76.92v.05c.86-.05,1.77-.14,2.67-.14h4.47v1.03H2.26Z"/>
    <path class="st6" d="M8.47,287.65h-4v-1.07h3.87c1.18,0,1.68-.36,1.68-1.19,0-.65-.32-1.09-1.06-1.69h-4.48v-1.07h6.32v.88l-.99.09v.04c.69.59,1.15,1.22,1.15,2.08,0,1.33-.86,1.93-2.47,1.93Z"/>
    <path class="st6" d="M4.47,280.49v-.88l.92-.09v-.04c-.6-.55-1.07-1.21-1.07-1.97,0-.97.46-1.48,1.2-1.74-.71-.66-1.2-1.32-1.2-2.08,0-1.3.86-1.92,2.47-1.92h4v1.07h-3.87c-1.18,0-1.68.37-1.68,1.18,0,.49.32,1,.97,1.58h4.58v1.07h-3.87c-1.18,0-1.68.37-1.68,1.18,0,.47.32,1,.97,1.58h4.58v1.07h-6.32Z"/>
    <path class="st6" d="M10.14,268.73v.04l.65.1v.85H1.53v-1.07h2.53l1.13.04c-.5-.58-.88-1.28-.88-1.99,0-1.63,1.27-2.51,3.22-2.51,2.16,0,3.42,1.29,3.42,2.74,0,.59-.3,1.24-.81,1.8ZM7.54,265.29c-1.39,0-2.33.48-2.33,1.67,0,.54.29,1.09.86,1.69h3.31c.48-.56.66-1.12.66-1.54,0-1.05-.94-1.82-2.5-1.82Z"/>
    <path class="st6" d="M7.64,263c-2.06,0-3.32-1.39-3.32-2.84,0-1.61,1.16-2.52,2.97-2.52.23,0,.45.02.61.05v4.26c1.34-.08,2.21-.9,2.21-2.1,0-.61-.2-1.1-.51-1.57l.7-.38c.36.55.66,1.23.66,2.09,0,1.68-1.23,3.03-3.31,3.03ZM7.12,258.58c-1.27,0-1.96.57-1.96,1.56,0,.89.71,1.68,1.96,1.81v-3.37Z"/>
    <path class="st6" d="M4.47,256.08v-.88l1.15-.09v-.04c-.8-.44-1.31-1.09-1.31-1.8,0-.28.04-.48.13-.67l.94.2c-.07.22-.1.36-.1.61,0,.53.38,1.17,1.45,1.6h4.06v1.07h-6.32Z"/>
    <path class="st6" d="M7.64,249.44c-2.11,0-3.32-1.38-3.32-2.93s1.22-2.93,3.32-2.93,3.31,1.38,3.31,2.93-1.22,2.93-3.31,2.93ZM7.64,244.69c-1.45,0-2.43.74-2.43,1.82s.99,1.82,2.43,1.82,2.42-.74,2.42-1.82-.97-1.82-2.42-1.82Z"/>
    <path class="st6" d="M3.47,241.77c-1.28,0-2.1-.58-2.1-1.85,0-.38.1-.76.22-1.05l.82.23c-.11.24-.16.49-.16.72,0,.6.42.89,1.23.89h7.31v1.07H3.47ZM4.53,242.63l-.06-.91v-2.36h.87v3.27h-.81Z"/>
    <path class="st6" d="M6.53,235.95c-2.75,0-4.43-1.62-4.43-3.79,0-1.04.5-1.85,1.05-2.35l.71.59c-.48.45-.8,1.01-.8,1.73,0,1.61,1.32,2.68,3.45,2.68s3.49-1.02,3.49-2.64c0-.81-.35-1.43-.96-1.98l.68-.59c.78.67,1.23,1.51,1.23,2.62,0,2.13-1.64,3.72-4.42,3.72Z"/>
    <path class="st6" d="M7.64,228.6c-2.11,0-3.32-1.38-3.32-2.93s1.22-2.93,3.32-2.93,3.31,1.38,3.31,2.93-1.22,2.93-3.31,2.93ZM7.64,223.85c-1.45,0-2.43.74-2.43,1.82s.99,1.82,2.43,1.82,2.42-.74,2.42-1.82-.97-1.82-2.42-1.82Z"/>
    <path class="st6" d="M4.47,221.09v-.88l.92-.09v-.04c-.6-.55-1.07-1.21-1.07-1.97,0-.97.46-1.48,1.2-1.74-.71-.66-1.2-1.32-1.2-2.08,0-1.3.86-1.92,2.47-1.92h4v1.07h-3.87c-1.18,0-1.68.37-1.68,1.18,0,.49.32,1,.97,1.58h4.58v1.07h-3.87c-1.18,0-1.68.37-1.68,1.18,0,.47.32,1,.97,1.58h4.58v1.07h-6.32Z"/>
    <path class="st6" d="M4.47,210.31v-.88l.73-.09v-.04c-.48-.57-.89-1.28-.89-2.01,0-1.63,1.27-2.51,3.22-2.51,2.15,0,3.41,1.29,3.41,2.74,0,.58-.27,1.17-.73,1.75l1.1-.03h2.14v1.07H4.47ZM7.54,205.88c-1.39,0-2.33.48-2.33,1.67,0,.54.29,1.07.86,1.69h3.31c.48-.57.66-1.12.66-1.54,0-1.05-.94-1.82-2.5-1.82Z"/>
    <path class="st6" d="M9.52,203.15H1.53v-1.07h8.07c.33,0,.46-.14.46-.3,0-.06,0-.11-.03-.23l.82-.15c.05.15.1.34.1.62,0,.8-.51,1.13-1.43,1.13Z"/>
    <path class="st6" d="M9.15,200.22c-1.38,0-2.06-1.19-2.36-3.88-.81,0-1.6.27-1.6,1.3,0,.73.35,1.39.68,1.88l-.73.42c-.38-.58-.83-1.47-.83-2.48,0-1.54,1.03-2.19,2.6-2.19h3.88v.88l-.76.09v.04c.5.6.91,1.31.91,2.09,0,1.06-.66,1.85-1.8,1.85ZM9.25,196.34h-1.75c.25,2.12.77,2.83,1.58,2.83.72,0,1.01-.49,1.01-1.11s-.3-1.11-.84-1.73Z"/>
    <path class="st6" d="M2.48,193.47c-.42,0-.69-.32-.69-.74s.27-.74.69-.74.69.32.69.74-.29.74-.69.74ZM4.47,193.28v-1.07h6.32v1.07h-6.32Z"/>
    <path class="st6" d="M4.47,190.08v-.88l.91-.09v-.04c-.59-.6-1.07-1.25-1.07-2.12,0-1.33.86-1.93,2.47-1.93h4v1.07h-3.87c-1.18,0-1.68.36-1.68,1.19,0,.65.33,1.09.97,1.73h4.58v1.07h-6.32Z"/>
    <path class="st6" d="M8.84,182.78h-3.49v.94h-.81l-.06-.99-1.77-.13v-.89h1.77v-1.71h.87v1.71h3.51c.77,0,1.22-.25,1.22-.98,0-.22-.08-.51-.17-.72l.81-.21c.12.35.23.78.23,1.17,0,1.34-.85,1.8-2.11,1.8Z"/>
    <path class="st6" d="M10.07,179.41l-.7-.53c.44-.55.75-1.11.75-1.87,0-.83-.44-1.24-.98-1.24-.65,0-.94.75-1.2,1.45-.32.88-.76,1.88-1.83,1.88s-1.79-.81-1.79-2.18c0-.79.32-1.47.71-1.96l.69.51c-.32.44-.56.88-.56,1.44,0,.8.42,1.16.91,1.16.6,0,.83-.69,1.1-1.4.34-.91.71-1.93,1.92-1.93,1.02,0,1.88.81,1.88,2.3,0,.9-.38,1.76-.88,2.36Z"/>
  </g>
  <g>
    <path class="st1" d="M11.97,11.45l-1.57-.53c-.7-.22-1.3-.51-1.8-.85s-.88-.76-1.14-1.25-.4-1.06-.4-1.72c0-.74.18-1.4.54-1.97.36-.57.88-1.03,1.58-1.35.69-.33,1.54-.49,2.55-.49.83,0,1.53.11,2.12.34s1.04.5,1.35.82c.31.32.47.64.47.94,0,.24-.08.43-.23.57-.15.14-.36.26-.61.36l-.4.15c-.41-.63-.86-1.08-1.36-1.35-.5-.27-1.1-.41-1.79-.41-.83,0-1.43.21-1.82.63-.39.42-.58.93-.58,1.53,0,.53.17.99.52,1.36.35.38.9.69,1.64.92l1.55.52c1.25.41,2.18.91,2.81,1.52.63.61.94,1.46.94,2.55,0,.78-.2,1.48-.6,2.08-.4.6-.98,1.07-1.74,1.41s-1.68.5-2.76.5c-.91,0-1.72-.11-2.43-.34-.71-.22-1.26-.51-1.66-.86s-.6-.71-.6-1.09c0-.25.09-.47.28-.66.19-.19.44-.35.75-.47.56.74,1.17,1.26,1.82,1.56.65.3,1.38.45,2.17.45.55,0,1.04-.07,1.48-.22s.79-.38,1.06-.71c.27-.33.4-.76.4-1.29,0-.73-.21-1.28-.64-1.66s-1.07-.71-1.92-.99Z"/>
    <path class="st1" d="M18.92,14.62v-5.8h-1.47c-.04-.11-.08-.22-.1-.33-.03-.1-.04-.22-.04-.35,0-.38.2-.57.61-.57h1.01l.52-2.29.46.04c.28.01.47.08.57.2.1.12.15.35.15.7v1.34h3.09c.04.11.07.22.09.33s.03.22.03.35c0,.38-.2.57-.59.57h-2.62v5.42c0,.78.1,1.33.29,1.65.2.31.52.47.97.47.27,0,.5-.06.71-.17.21-.11.4-.26.57-.44.18.04.34.14.48.28.14.15.21.32.21.51,0,.28-.21.55-.64.8-.43.25-.98.38-1.67.38-.91,0-1.58-.26-2-.78s-.63-1.29-.63-2.33Z"/>
    <path class="st1" d="M25.41,16.42h.55c.03-.57.04-1.17.05-1.77,0-.61.01-1.16.01-1.65v-3.19c0-.45-.06-.74-.17-.87-.11-.13-.34-.2-.67-.2h-.23c-.04-.13-.07-.24-.09-.35s-.03-.21-.03-.3c0-.34.2-.5.59-.5h2.02c.03.14.05.33.06.57.01.24.02.49.02.76.53-.55,1.09-.94,1.67-1.18.58-.24,1.13-.36,1.65-.36.27,0,.46.05.58.16s.18.28.18.54c0,.29-.05.56-.15.79-.1.23-.2.38-.29.45-.14.1-.33.16-.56.2-.23.04-.46.05-.68.05l-.29-.8c-.66.24-1.14.57-1.44,1.01-.3.43-.45,1.08-.45,1.95v1.28c0,.49,0,1.04.01,1.65,0,.61.02,1.2.03,1.77h1.28c.03.1.05.2.07.29s.03.2.03.29c0,.34-.19.5-.57.5h-3.63c-.04-.11-.07-.21-.09-.3-.02-.09-.03-.19-.03-.28,0-.34.2-.5.59-.5Z"/>
    <path class="st1" d="M40.72,17.3l-1.57.21c-.1-.14-.19-.31-.26-.51-.08-.2-.13-.39-.16-.56-.36.45-.79.77-1.27.98-.48.2-1.04.3-1.67.3-.87,0-1.59-.24-2.15-.73-.57-.49-.85-1.22-.85-2.18s.34-1.71,1.02-2.25c.68-.53,1.75-.8,3.22-.8h1.49v-.59c0-.7-.08-1.24-.23-1.61-.15-.37-.42-.63-.81-.78-.39-.15-.93-.22-1.63-.22h-.61l-.31,1.13c-.13.06-.28.1-.45.15-.17.04-.35.06-.51.06-.15,0-.3-.06-.45-.18-.15-.12-.27-.27-.36-.46-.09-.19-.14-.38-.14-.58,0-.17.06-.31.18-.43s.33-.24.62-.37c.36-.14.82-.26,1.38-.37.55-.1,1.14-.16,1.77-.16,1.15,0,1.98.24,2.49.71.51.48.77,1.32.77,2.54v4.77c0,.35.05.58.15.68.1.1.27.16.52.16h.4c.03.08.05.17.07.25s.03.17.03.27c0,.17-.05.29-.15.38-.1.08-.27.14-.53.17ZM38.51,14.15v-1.18h-1.74c-.84,0-1.42.15-1.73.45-.31.3-.47.7-.47,1.21,0,.56.15.99.44,1.29.29.3.72.45,1.28.45.76,0,1.32-.2,1.68-.6s.55-.94.55-1.63Z"/>
    <path class="st1" d="M44.62,20.83c.24-.08.46-.29.67-.61.21-.32.41-.72.61-1.19.2-.47.38-.96.57-1.48v-.03s0-.02-.02-.03c-.21-.03-.38-.07-.5-.14s-.24-.2-.35-.4c-.1-.2-.23-.52-.39-.96l-1.89-6.17c-.14-.43-.28-.72-.43-.87s-.39-.22-.72-.22h-.23c-.04-.13-.07-.24-.08-.35-.01-.1-.02-.21-.02-.3,0-.15.04-.28.13-.37.08-.09.23-.14.44-.14h2.25l.29,1.41c.06.34.16.79.31,1.35.15.57.33,1.19.54,1.87.2.68.42,1.35.64,2.01.22.66.43,1.24.61,1.74.55-1.64,1-3.07,1.37-4.28.36-1.22.62-2.2.76-2.94h-.82c-.04-.11-.07-.22-.09-.31-.02-.1-.03-.2-.03-.32,0-.21.07-.35.2-.42.13-.07.35-.1.64-.1h2.81c.04.11.07.22.09.31.02.1.03.2.03.31,0,.17-.04.3-.13.39-.08.09-.24.14-.46.14h-.52c-.48,1.41-.95,2.83-1.42,4.24-.47,1.41-.93,2.83-1.4,4.24-.32.91-.62,1.67-.88,2.29-.27.62-.53,1.12-.8,1.5-.27.38-.56.67-.88.86-.32.19-.7.3-1.13.35h-.39c-.13,0-.26,0-.37-.02-.45-.03-.79-.12-1.04-.28-.25-.16-.37-.36-.37-.6,0-.18.07-.36.2-.54.13-.18.28-.3.45-.39.15.11.34.21.55.3.21.09.42.15.63.18.1.01.2.01.29,0,.1-.01.2-.03.29-.04Z"/>
    <path class="st1" d="M66.44,17.51h-1.85c-.06-.14-.1-.31-.15-.5-.04-.2-.07-.38-.08-.55-.31.38-.71.68-1.2.91-.49.23-1.05.35-1.68.35-1.2,0-2.15-.4-2.85-1.19-.69-.79-1.04-1.99-1.04-3.6,0-1.32.2-2.38.59-3.2.39-.82.92-1.42,1.6-1.8s1.44-.57,2.29-.57c.46,0,.86.03,1.21.09.34.06.63.14.87.24v-2.58c0-.45-.06-.74-.17-.87-.11-.13-.34-.2-.67-.2h-.5c-.03-.13-.05-.24-.07-.35s-.03-.21-.03-.3c0-.34.19-.5.57-.5h2.65c0,.34,0,.74-.01,1.22,0,.48-.02.96-.03,1.45-.01.49-.02.94-.02,1.34v8.59c0,.39.05.64.15.76.1.11.28.17.55.17h.36c.04.1.07.2.09.29s.03.2.03.29c0,.34-.2.5-.59.5ZM64.15,13.73v-4.6c-.24-.14-.54-.26-.91-.36-.37-.1-.79-.15-1.25-.15-.77,0-1.39.28-1.86.85-.47.57-.7,1.55-.7,2.95,0,1.04.11,1.84.34,2.42.22.57.53.97.92,1.2.39.22.84.34,1.34.34.71,0,1.25-.23,1.6-.7.35-.47.52-1.12.52-1.94Z"/>
    <path class="st1" d="M68.37,12.79c0-1.23.2-2.25.59-3.04.39-.8.93-1.39,1.62-1.79.69-.39,1.46-.59,2.33-.59,1.41,0,2.47.41,3.18,1.24.71.83,1.06,2.06,1.06,3.7,0,1.23-.2,2.25-.59,3.04s-.93,1.39-1.61,1.79c-.68.39-1.46.59-2.34.59-1.41,0-2.47-.41-3.18-1.24s-1.06-2.06-1.06-3.7ZM70.2,12.31c0,1.53.22,2.6.65,3.22s1.09.93,1.97.93c.45,0,.86-.11,1.24-.34.38-.22.68-.6.91-1.14s.35-1.27.35-2.19c0-1.53-.22-2.6-.65-3.22-.43-.62-1.09-.93-1.97-.93-.45,0-.86.11-1.24.34-.38.22-.68.6-.91,1.13-.23.53-.35,1.27-.35,2.21Z"/>
    <path class="st1" d="M87.48,18.52c0,.59-.15,1.11-.46,1.56s-.73.84-1.26,1.17c-.53.32-1.13.57-1.8.74-.67.17-1.35.25-2.05.25-.85,0-1.54-.12-2.06-.36-.52-.24-.89-.55-1.12-.92s-.35-.78-.35-1.22.13-.84.39-1.22c.26-.38.66-.71,1.21-.99l.19-.1c-.28-.14-.5-.35-.67-.62s-.25-.61-.25-1,.1-.76.29-1.06c.2-.3.5-.54.9-.7-.46-.22-.86-.58-1.19-1.08-.33-.5-.49-1.14-.49-1.94s.17-1.43.5-1.97c.34-.55.79-.96,1.38-1.25.58-.29,1.24-.43,1.96-.43.27,0,.52.02.78.05s.49.09.71.16h3.47c.04.11.08.22.1.33.03.1.04.22.04.35,0,.38-.2.57-.61.57h-1.34c.42.55.63,1.23.63,2.06,0,1.06-.37,1.92-1.1,2.57-.73.65-1.78.98-3.14.98-.49,0-.84.08-1.06.24-.22.16-.33.38-.33.64,0,.31.09.53.28.66.19.13.47.2.85.2h2.62c.97,0,1.7.2,2.21.59.5.39.76.98.76,1.76ZM85.76,18.9c0-.39-.12-.69-.37-.88-.25-.2-.7-.29-1.35-.29h-2.69c-.41.18-.72.42-.96.7-.23.29-.35.61-.35.98,0,.49.17.88.51,1.18.34.29.91.44,1.69.44.7,0,1.31-.09,1.84-.27s.93-.43,1.23-.75c.29-.31.44-.68.44-1.1ZM84.65,10.98c0-.74-.17-1.33-.51-1.75-.34-.43-.89-.64-1.65-.64-.64,0-1.13.19-1.47.58-.34.39-.5.93-.5,1.65s.17,1.33.51,1.75c.34.43.89.64,1.65.64.64,0,1.13-.19,1.47-.58s.5-.93.5-1.65Z"/>
    <path class="st1" d="M89.37,11.42h5c.08.25.13.52.13.8,0,.21-.05.38-.14.5-.09.13-.26.19-.51.19h-5c-.08-.25-.13-.52-.13-.8,0-.21.05-.38.14-.5.09-.13.26-.19.51-.19Z"/>
    <path class="st1" d="M96.45,16.42h.55c.03-.57.04-1.17.05-1.77,0-.61.01-1.16.01-1.65v-3.19c0-.45-.06-.74-.17-.87-.11-.13-.34-.2-.67-.2h-.23c-.04-.13-.07-.24-.09-.35s-.03-.21-.03-.3c0-.34.2-.5.59-.5h2.02c.03.14.05.33.06.57.01.24.02.49.02.76.53-.55,1.09-.94,1.67-1.18.58-.24,1.13-.36,1.65-.36.27,0,.46.05.58.16s.18.28.18.54c0,.29-.05.56-.15.79-.1.23-.2.38-.29.45-.14.1-.33.16-.56.2-.23.04-.46.05-.68.05l-.29-.8c-.66.24-1.14.57-1.44,1.01-.3.43-.45,1.08-.45,1.95v1.28c0,.49,0,1.04.01,1.65,0,.61.02,1.2.03,1.77h1.28c.03.1.05.2.07.29s.03.2.03.29c0,.34-.19.5-.57.5h-3.63c-.04-.11-.07-.21-.09-.3-.02-.09-.03-.19-.03-.28,0-.34.2-.5.59-.5Z"/>
    <path class="st1" d="M110.62,12.81h-5.27c.04.87.19,1.56.43,2.09.24.52.58.91,1.01,1.14.43.24.93.36,1.5.36.62,0,1.13-.12,1.53-.36.41-.24.78-.57,1.11-1.01.24.08.43.2.59.34.15.14.23.33.23.57,0,.28-.16.56-.49.83-.33.27-.77.5-1.32.68s-1.17.27-1.86.27c-1.54,0-2.68-.43-3.42-1.28-.74-.85-1.11-2.07-1.11-3.65,0-1.85.41-3.21,1.23-4.09.82-.88,1.89-1.32,3.2-1.32.91,0,1.65.18,2.21.54.56.36.97.85,1.24,1.47.27.62.4,1.34.4,2.15,0,.35-.04.62-.12.8-.08.18-.2.31-.38.38-.18.07-.41.1-.7.1ZM105.37,11.59h4.68v-.25c0-.81-.18-1.47-.55-1.96-.36-.5-.92-.75-1.66-.75s-1.28.23-1.71.68c-.43.46-.68,1.21-.77,2.28Z"/>
    <path class="st1" d="M113.9,16.42h.55c.03-.5.04-1.06.05-1.66,0-.6.01-1.18.01-1.74v-7.9c0-.45-.06-.74-.18-.87-.12-.13-.34-.2-.66-.2h-.23c-.04-.13-.07-.24-.09-.35s-.03-.21-.03-.3c0-.34.2-.5.59-.5h2.37c0,.52-.01,1.15-.03,1.89-.02.74-.03,1.45-.03,2.12v6.09c0,.49,0,1.04.01,1.65,0,.61.02,1.2.03,1.77h1.01c.03.1.05.2.07.29s.03.2.03.29c0,.34-.19.5-.57.5h-3.36c-.04-.11-.07-.21-.09-.3-.02-.09-.03-.19-.03-.28,0-.34.2-.5.59-.5Z"/>
    <path class="st1" d="M126.67,17.3l-1.57.21c-.1-.14-.19-.31-.26-.51-.08-.2-.13-.39-.16-.56-.36.45-.79.77-1.27.98-.48.2-1.04.3-1.67.3-.87,0-1.59-.24-2.15-.73-.57-.49-.85-1.22-.85-2.18s.34-1.71,1.02-2.25c.68-.53,1.75-.8,3.22-.8h1.49v-.59c0-.7-.08-1.24-.23-1.61-.15-.37-.42-.63-.81-.78-.39-.15-.93-.22-1.63-.22h-.61l-.31,1.13c-.13.06-.28.1-.45.15-.17.04-.35.06-.51.06-.15,0-.3-.06-.45-.18-.15-.12-.27-.27-.36-.46-.09-.19-.14-.38-.14-.58,0-.17.06-.31.18-.43s.33-.24.62-.37c.36-.14.82-.26,1.38-.37.55-.1,1.14-.16,1.77-.16,1.15,0,1.98.24,2.49.71.51.48.77,1.32.77,2.54v4.77c0,.35.05.58.15.68.1.1.27.16.52.16h.4c.03.08.05.17.07.25s.03.17.03.27c0,.17-.05.29-.15.38-.1.08-.27.14-.53.17ZM124.46,14.15v-1.18h-1.74c-.84,0-1.42.15-1.73.45-.31.3-.47.7-.47,1.21,0,.56.15.99.44,1.29.29.3.72.45,1.28.45.76,0,1.32-.2,1.68-.6s.55-.94.55-1.63Z"/>
    <path class="st1" d="M129.65,14.62v-5.8h-1.47c-.04-.11-.08-.22-.1-.33-.03-.1-.04-.22-.04-.35,0-.38.2-.57.61-.57h1.01l.52-2.29.46.04c.28.01.47.08.57.2.1.12.15.35.15.7v1.34h3.09c.04.11.07.22.09.33s.03.22.03.35c0,.38-.2.57-.59.57h-2.62v5.42c0,.78.1,1.33.29,1.65.2.31.52.47.97.47.27,0,.5-.06.71-.17.21-.11.4-.26.57-.44.18.04.34.14.48.28.14.15.21.32.21.51,0,.28-.21.55-.64.8-.43.25-.98.38-1.67.38-.91,0-1.58-.26-2-.78s-.63-1.29-.63-2.33Z"/>
    <path class="st1" d="M142.77,12.81h-5.27c.04.87.19,1.56.43,2.09.24.52.58.91,1.01,1.14.43.24.93.36,1.5.36.62,0,1.13-.12,1.53-.36.41-.24.78-.57,1.11-1.01.24.08.43.2.59.34.15.14.23.33.23.57,0,.28-.16.56-.49.83-.33.27-.77.5-1.32.68s-1.17.27-1.86.27c-1.54,0-2.68-.43-3.42-1.28-.74-.85-1.11-2.07-1.11-3.65,0-1.85.41-3.21,1.23-4.09.82-.88,1.89-1.32,3.2-1.32.91,0,1.65.18,2.21.54.56.36.97.85,1.24,1.47.27.62.4,1.34.4,2.15,0,.35-.04.62-.12.8-.08.18-.2.31-.38.38-.18.07-.41.1-.7.1ZM137.52,11.59h4.68v-.25c0-.81-.18-1.47-.55-1.96-.36-.5-.92-.75-1.66-.75s-1.28.23-1.71.68c-.43.46-.68,1.21-.77,2.28Z"/>
    <path class="st1" d="M154.55,17.51h-1.85c-.06-.14-.1-.31-.15-.5-.04-.2-.07-.38-.08-.55-.31.38-.71.68-1.2.91-.49.23-1.05.35-1.68.35-1.2,0-2.15-.4-2.85-1.19-.69-.79-1.04-1.99-1.04-3.6,0-1.32.2-2.38.59-3.2.39-.82.92-1.42,1.6-1.8s1.44-.57,2.29-.57c.46,0,.86.03,1.21.09.34.06.63.14.87.24v-2.58c0-.45-.06-.74-.17-.87-.11-.13-.34-.2-.67-.2h-.5c-.03-.13-.05-.24-.07-.35s-.03-.21-.03-.3c0-.34.19-.5.57-.5h2.65c0,.34,0,.74-.01,1.22,0,.48-.02.96-.03,1.45-.01.49-.02.94-.02,1.34v8.59c0,.39.05.64.15.76.1.11.28.17.55.17h.36c.04.1.07.2.09.29s.03.2.03.29c0,.34-.2.5-.59.5ZM152.27,13.73v-4.6c-.24-.14-.54-.26-.91-.36-.37-.1-.79-.15-1.25-.15-.77,0-1.39.28-1.86.85-.47.57-.7,1.55-.7,2.95,0,1.04.11,1.84.34,2.42.22.57.53.97.92,1.2.39.22.84.34,1.34.34.71,0,1.25-.23,1.6-.7.35-.47.52-1.12.52-1.94Z"/>
    <path class="st1" d="M167.8,10.21l-.17-.23c-.27-.39-.56-.71-.89-.94-.33-.24-.77-.36-1.31-.36-.46,0-.88.12-1.26.35-.38.23-.68.61-.9,1.12-.22.52-.34,1.23-.34,2.12,0,.99.12,1.79.36,2.39.24.6.57,1.04,1,1.3.43.27.92.4,1.48.4s.99-.11,1.38-.33c.38-.22.74-.54,1.06-.98.22.06.41.16.57.3.15.15.23.33.23.56,0,.28-.15.56-.44.83s-.7.5-1.21.69c-.51.19-1.09.28-1.73.28-1.47,0-2.59-.42-3.36-1.25-.77-.83-1.16-2.08-1.16-3.73,0-1.22.2-2.23.6-3.02s.94-1.39,1.63-1.77c.69-.38,1.46-.58,2.33-.58.73,0,1.34.1,1.84.29.5.2.88.44,1.13.74.26.29.39.58.39.86,0,.41-.31.69-.92.86l-.29.08Z"/>
    <path class="st1" d="M170.47,12.79c0-1.23.2-2.25.59-3.04.39-.8.93-1.39,1.62-1.79.69-.39,1.46-.59,2.33-.59,1.41,0,2.47.41,3.18,1.24.71.83,1.06,2.06,1.06,3.7,0,1.23-.2,2.25-.59,3.04s-.93,1.39-1.61,1.79c-.68.39-1.46.59-2.34.59-1.41,0-2.47-.41-3.18-1.24s-1.06-2.06-1.06-3.7ZM172.3,12.31c0,1.53.22,2.6.65,3.22s1.09.93,1.97.93c.45,0,.86-.11,1.24-.34.38-.22.68-.6.91-1.14s.35-1.27.35-2.19c0-1.53-.22-2.6-.65-3.22-.43-.62-1.09-.93-1.97-.93-.45,0-.86.11-1.24.34-.38.22-.68.6-.91,1.13-.23.53-.35,1.27-.35,2.21Z"/>
    <path class="st1" d="M181.33,16.42h.55c.03-.57.04-1.17.05-1.77,0-.61.01-1.16.01-1.65v-3.19c0-.45-.06-.74-.17-.87-.11-.13-.34-.2-.67-.2h-.23c-.04-.13-.07-.24-.09-.35s-.03-.21-.03-.3c0-.34.2-.5.59-.5h2.02c.03.14.05.31.06.52.01.21.02.41.02.59.46-.43.96-.76,1.49-.99.53-.22,1.1-.34,1.7-.34s1.16.12,1.59.36c.43.24.75.6.96,1.07.46-.49.96-.85,1.48-1.08.52-.23,1.11-.35,1.75-.35.98,0,1.71.26,2.19.79s.72,1.38.72,2.57v4.62c0,.31.02.54.06.69.04.15.11.26.21.3.1.05.24.07.42.07h.36c.06.1.09.2.1.29.01.1.02.2.02.29,0,.34-.2.5-.59.5h-2.35c.01-.35.02-.76.03-1.23,0-.47.01-.96.02-1.46,0-.5.01-.97.01-1.41v-1.57c0-1.13-.15-1.94-.45-2.4-.3-.47-.81-.7-1.52-.7s-1.27.23-1.63.68c-.36.46-.54,1.14-.54,2.05v1.53c0,.49,0,1.04.01,1.65,0,.61.02,1.2.05,1.77h.88c.04.1.07.2.09.29s.03.2.03.29c0,.34-.2.5-.59.5h-3.11c-.04-.11-.07-.21-.09-.3-.02-.09-.03-.19-.03-.28,0-.34.2-.5.59-.5h.4c.03-.56.05-1.14.05-1.73,0-.59.01-1.13.01-1.61v-1.22c0-1.13-.15-1.94-.45-2.42-.3-.48-.8-.71-1.5-.71-.74,0-1.29.23-1.65.68-.36.46-.54,1.14-.54,2.05v1.53c0,.49,0,1.04.01,1.65,0,.61.02,1.2.03,1.77h.84c.03.1.05.2.07.29s.03.2.03.29c0,.34-.19.5-.57.5h-3.19c-.04-.11-.07-.21-.09-.3-.02-.09-.03-.19-.03-.28,0-.34.2-.5.59-.5Z"/>
    <path class="st1" d="M198.23,20.94h.55c.03-.53.04-1.09.05-1.67,0-.58.01-1.1.01-1.54v-7.92c0-.45-.06-.74-.17-.87-.11-.13-.34-.2-.67-.2h-.23c-.04-.13-.07-.24-.09-.35s-.03-.21-.03-.3c0-.34.2-.5.59-.5h2c.04.14.07.31.07.51,0,.2.02.39.03.56.34-.39.75-.7,1.23-.93s1.03-.35,1.65-.35c.8,0,1.49.17,2.07.51.58.34,1.03.86,1.34,1.56.31.7.47,1.59.47,2.67,0,1.3-.2,2.37-.59,3.19-.39.83-.92,1.44-1.6,1.83-.67.39-1.43.59-2.27.59-.48,0-.88-.05-1.22-.14-.34-.09-.63-.2-.88-.33v2.05c0,.57.01,1.11.04,1.63h1.28c.03.1.05.2.07.29s.03.2.03.29c0,.34-.19.5-.57.5h-3.63c-.04-.11-.07-.21-.09-.3-.02-.09-.03-.19-.03-.28,0-.34.2-.5.59-.5ZM200.54,11.49v4.39c.24.17.54.31.9.42.36.11.78.17,1.26.17s.93-.12,1.31-.36c.38-.24.69-.63.91-1.19.22-.55.34-1.31.34-2.28,0-1.04-.11-1.84-.34-2.42-.22-.57-.53-.98-.91-1.21-.39-.23-.84-.35-1.35-.35-.73,0-1.26.25-1.61.75-.34.5-.51,1.19-.51,2.07Z"/>
    <path class="st1" d="M209.05,16.42h.55c.03-.5.04-1.06.05-1.66,0-.6.01-1.18.01-1.74v-7.9c0-.45-.06-.74-.18-.87-.12-.13-.34-.2-.66-.2h-.23c-.04-.13-.07-.24-.09-.35s-.03-.21-.03-.3c0-.34.2-.5.59-.5h2.37c0,.52-.01,1.15-.03,1.89-.02.74-.03,1.45-.03,2.12v6.09c0,.49,0,1.04.01,1.65,0,.61.02,1.2.03,1.77h1.01c.03.1.05.2.07.29s.03.2.03.29c0,.34-.19.5-.57.5h-3.36c-.04-.11-.07-.21-.09-.3-.02-.09-.03-.19-.03-.28,0-.34.2-.5.59-.5Z"/>
    <path class="st1" d="M221.82,17.3l-1.57.21c-.1-.14-.19-.31-.26-.51-.08-.2-.13-.39-.16-.56-.36.45-.79.77-1.27.98-.48.2-1.04.3-1.67.3-.87,0-1.59-.24-2.15-.73-.57-.49-.85-1.22-.85-2.18s.34-1.71,1.02-2.25c.68-.53,1.75-.8,3.22-.8h1.49v-.59c0-.7-.08-1.24-.23-1.61-.15-.37-.42-.63-.81-.78-.39-.15-.93-.22-1.63-.22h-.61l-.31,1.13c-.13.06-.28.1-.45.15-.17.04-.35.06-.51.06-.15,0-.3-.06-.45-.18-.15-.12-.27-.27-.36-.46-.09-.19-.14-.38-.14-.58,0-.17.06-.31.18-.43s.33-.24.62-.37c.36-.14.82-.26,1.38-.37.55-.1,1.14-.16,1.77-.16,1.15,0,1.98.24,2.49.71.51.48.77,1.32.77,2.54v4.77c0,.35.05.58.15.68.1.1.27.16.52.16h.4c.03.08.05.17.07.25s.03.17.03.27c0,.17-.05.29-.15.38-.1.08-.27.14-.53.17ZM219.61,14.15v-1.18h-1.74c-.84,0-1.42.15-1.73.45-.31.3-.47.7-.47,1.21,0,.56.15.99.44,1.29.29.3.72.45,1.28.45.76,0,1.32-.2,1.68-.6s.55-.94.55-1.63Z"/>
    <path class="st1" d="M224.25,16.42h.55c.03-.57.04-1.17.05-1.77,0-.61.01-1.16.01-1.65v-3.19c0-.45-.06-.74-.17-.87-.11-.13-.34-.2-.67-.2h-.23c-.04-.13-.07-.24-.09-.35s-.03-.21-.03-.3c0-.34.2-.5.59-.5h2.37c0,.52-.01,1.13-.03,1.83-.02.7-.03,1.39-.03,2.06v1.53c0,.49,0,1.04.01,1.65,0,.61.02,1.2.03,1.77h1.01c.03.1.05.2.07.29s.03.2.03.29c0,.34-.19.5-.57.5h-3.36c-.04-.11-.07-.21-.09-.3-.02-.09-.03-.19-.03-.28,0-.34.2-.5.59-.5ZM225.53,5.54c-.49,0-.83-.09-1.01-.26-.18-.17-.27-.44-.27-.81,0-.34.1-.6.3-.79.2-.19.53-.28.98-.28.48,0,.81.09,1,.26.19.18.28.44.28.81,0,.34-.1.6-.3.79-.2.19-.53.28-.98.28Z"/>
    <path class="st1" d="M229.54,16.42h.55c.03-.57.04-1.17.05-1.77,0-.61.01-1.16.01-1.65v-3.19c0-.45-.06-.74-.17-.87-.11-.13-.34-.2-.67-.2h-.23c-.04-.13-.07-.24-.09-.35s-.03-.21-.03-.3c0-.34.2-.5.59-.5h2.02c.03.14.05.31.06.52.01.21.02.41.02.59.46-.43.96-.76,1.49-.99.53-.22,1.1-.34,1.7-.34.99,0,1.75.26,2.28.79s.79,1.38.79,2.57v4.62c0,.31.02.54.06.69.04.15.11.26.21.3.1.05.24.07.42.07h.36c.04.1.07.2.08.29.01.1.02.2.02.29,0,.34-.19.5-.57.5h-2.35c0-.35,0-.76.02-1.23.01-.47.02-.96.03-1.46,0-.5.01-.97.01-1.41v-1.57c0-.76-.07-1.36-.21-1.82-.14-.46-.37-.78-.68-.99-.31-.2-.73-.3-1.25-.3-.76,0-1.31.23-1.67.68-.36.46-.54,1.14-.54,2.05v1.53c0,.49,0,1.04.01,1.65,0,.61.02,1.2.03,1.77h1.01c.03.1.05.2.07.29s.03.2.03.29c0,.34-.19.5-.57.5h-3.36c-.04-.11-.07-.21-.09-.3-.02-.09-.03-.19-.03-.28,0-.34.2-.5.59-.5Z"/>
    <path class="st1" d="M241.41,14.62v-5.8h-1.47c-.04-.11-.08-.22-.1-.33-.03-.1-.04-.22-.04-.35,0-.38.2-.57.61-.57h1.01l.52-2.29.46.04c.28.01.47.08.57.2.1.12.15.35.15.7v1.34h3.09c.04.11.07.22.09.33s.03.22.03.35c0,.38-.2.57-.59.57h-2.62v5.42c0,.78.1,1.33.29,1.65.2.31.52.47.97.47.27,0,.5-.06.71-.17.21-.11.4-.26.57-.44.18.04.34.14.48.28.14.15.21.32.21.51,0,.28-.21.55-.64.8-.43.25-.98.38-1.67.38-.91,0-1.58-.26-2-.78s-.63-1.29-.63-2.33Z"/>
    <path class="st1" d="M254.78,14.62c0,.9-.34,1.64-1.01,2.23-.67.59-1.63.88-2.88.88-.78,0-1.46-.1-2.04-.3-.57-.2-1.02-.45-1.32-.73-.31-.29-.46-.57-.46-.85,0-.24.09-.44.26-.61.17-.17.38-.29.62-.38.32.42.72.79,1.19,1.12.47.33,1.07.49,1.82.49.7,0,1.23-.13,1.59-.39.36-.26.54-.61.54-1.06s-.18-.82-.55-1.06c-.36-.24-.88-.46-1.53-.64l-.9-.25c-.92-.25-1.61-.6-2.06-1.05-.45-.45-.67-1.03-.67-1.74,0-.57.15-1.08.44-1.51.29-.43.71-.77,1.25-1.02s1.19-.37,1.94-.37c.71,0,1.32.09,1.82.28.5.19.88.42,1.14.69.27.27.4.54.4.81,0,.22-.08.41-.24.56-.16.15-.37.25-.62.3l-.25.06-.13-.19c-.27-.36-.6-.66-.99-.9-.39-.24-.87-.36-1.43-.36-.5,0-.91.12-1.21.36-.3.24-.45.56-.45.97s.14.71.41.96c.27.25.72.44,1.33.6l.88.25c1.11.28,1.9.65,2.38,1.1.48.46.72,1.04.72,1.75Z"/>
    <path class="st1" d="M261.69,14.62v-5.8h-1.47c-.04-.11-.08-.22-.1-.33-.03-.1-.04-.22-.04-.35,0-.38.2-.57.61-.57h1.01l.52-2.29.46.04c.28.01.47.08.57.2.1.12.15.35.15.7v1.34h3.09c.04.11.07.22.09.33s.03.22.03.35c0,.38-.2.57-.59.57h-2.62v5.42c0,.78.1,1.33.29,1.65.2.31.52.47.97.47.27,0,.5-.06.71-.17.21-.11.4-.26.57-.44.18.04.34.14.48.28.14.15.21.32.21.51,0,.28-.21.55-.64.8-.43.25-.98.38-1.67.38-.91,0-1.58-.26-2-.78s-.63-1.29-.63-2.33Z"/>
    <path class="st1" d="M267.74,12.79c0-1.23.2-2.25.59-3.04.39-.8.93-1.39,1.62-1.79.69-.39,1.46-.59,2.33-.59,1.41,0,2.47.41,3.18,1.24.71.83,1.06,2.06,1.06,3.7,0,1.23-.2,2.25-.59,3.04s-.93,1.39-1.61,1.79c-.68.39-1.46.59-2.34.59-1.41,0-2.47-.41-3.18-1.24s-1.06-2.06-1.06-3.7ZM269.57,12.31c0,1.53.22,2.6.65,3.22s1.09.93,1.97.93c.45,0,.86-.11,1.24-.34.38-.22.68-.6.91-1.14s.35-1.27.35-2.19c0-1.53-.22-2.6-.65-3.22-.43-.62-1.09-.93-1.97-.93-.45,0-.86.11-1.24.34-.38.22-.68.6-.91,1.13-.23.53-.35,1.27-.35,2.21Z"/>
    <path class="st1" d="M283.76,14.62v-5.8h-1.47c-.04-.11-.08-.22-.1-.33-.03-.1-.04-.22-.04-.35,0-.38.2-.57.61-.57h1.01l.52-2.29.46.04c.28.01.47.08.57.2.1.12.15.35.15.7v1.34h3.09c.04.11.07.22.09.33s.03.22.03.35c0,.38-.2.57-.59.57h-2.62v5.42c0,.78.1,1.33.29,1.65.2.31.52.47.97.47.27,0,.5-.06.71-.17.21-.11.4-.26.57-.44.18.04.34.14.48.28.14.15.21.32.21.51,0,.28-.21.55-.64.8-.43.25-.98.38-1.67.38-.91,0-1.58-.26-2-.78s-.63-1.29-.63-2.33Z"/>
    <path class="st1" d="M290.23,16.42h.55c.03-.5.04-1.06.05-1.66,0-.6.01-1.18.01-1.74v-7.9c0-.45-.06-.74-.18-.87-.12-.13-.34-.2-.66-.2h-.23c-.04-.13-.07-.24-.09-.35s-.03-.21-.03-.3c0-.34.2-.5.59-.5h2.37c0,.52-.01,1.15-.03,1.89-.02.74-.03,1.45-.03,2.12v1.62c.41-.38.86-.67,1.38-.86.51-.2,1.05-.29,1.61-.29.99,0,1.75.26,2.28.79s.79,1.38.79,2.57v4.62c0,.31.02.54.06.69.04.15.11.26.21.3.1.05.24.07.42.07h.36c.03.1.05.2.07.29s.03.2.03.29c0,.34-.19.5-.57.5h-2.35c0-.35,0-.76.01-1.23,0-.47.02-.96.03-1.46.01-.5.02-.97.02-1.41v-1.57c0-.76-.07-1.36-.21-1.82-.14-.46-.37-.78-.68-.99-.31-.2-.73-.3-1.25-.3-.74,0-1.29.22-1.66.65-.36.43-.55,1.09-.55,1.97v3.29c0,.61.01,1.2.04,1.77h.99c.04.1.07.2.09.29s.03.2.03.29c0,.34-.19.5-.57.5h-3.36c-.04-.11-.07-.21-.09-.3-.02-.09-.03-.19-.03-.28,0-.34.2-.5.59-.5Z"/>
    <path class="st1" d="M308.19,12.81h-5.27c.04.87.19,1.56.43,2.09.24.52.58.91,1.01,1.14.43.24.93.36,1.5.36.62,0,1.13-.12,1.53-.36.41-.24.78-.57,1.11-1.01.24.08.43.2.59.34.15.14.23.33.23.57,0,.28-.16.56-.49.83-.33.27-.77.5-1.32.68s-1.17.27-1.86.27c-1.54,0-2.68-.43-3.42-1.28-.74-.85-1.11-2.07-1.11-3.65,0-1.85.41-3.21,1.23-4.09.82-.88,1.89-1.32,3.2-1.32.91,0,1.65.18,2.21.54.56.36.97.85,1.24,1.47.27.62.4,1.34.4,2.15,0,.35-.04.62-.12.8-.08.18-.2.31-.38.38-.18.07-.41.1-.7.1ZM302.94,11.59h4.68v-.25c0-.81-.18-1.47-.55-1.96-.36-.5-.92-.75-1.66-.75s-1.28.23-1.71.68c-.43.46-.68,1.21-.77,2.28Z"/>
    <path class="st1" d="M315.64,16.42h.61c.14-.42.28-.83.42-1.23.14-.4.28-.83.43-1.29.15-.46.32-.98.51-1.55l2.54-7.73c.1-.28.2-.5.31-.67s.26-.29.44-.36c.18-.07.41-.1.69-.1h1.15l2.75,8.4c.25.76.47,1.41.65,1.95.18.55.35,1.03.49,1.44.15.41.29.79.43,1.14h.97c.08.22.13.42.13.59,0,.15-.04.28-.13.37-.08.09-.22.14-.42.14h-3.59c-.08-.22-.13-.42-.13-.59,0-.34.18-.5.55-.5h.46c-.1-.43-.22-.92-.38-1.45-.15-.53-.32-1.11-.5-1.72h-5.12c-.18.63-.35,1.21-.49,1.74-.15.53-.27,1.01-.37,1.43h1.01c.08.22.13.42.13.59,0,.34-.18.5-.55.5h-3.44c-.07-.22-.11-.42-.11-.59,0-.15.04-.28.12-.37.08-.09.22-.14.43-.14ZM319.29,11.97h4.37c-.35-1.12-.72-2.26-1.1-3.43-.39-1.17-.75-2.22-1.08-3.16-.34.94-.7,1.99-1.08,3.16s-.75,2.31-1.1,3.43Z"/>
    <path class="st1" d="M329.6,16.42h.55c.03-.57.04-1.17.05-1.77,0-.61.01-1.16.01-1.65v-3.19c0-.45-.06-.74-.17-.87-.11-.13-.34-.2-.67-.2h-.23c-.04-.13-.07-.24-.09-.35-.02-.1-.03-.21-.03-.3,0-.34.2-.5.59-.5h2.02c.03.14.05.31.06.52s.02.41.02.59c.46-.43.96-.76,1.49-.99.53-.22,1.1-.34,1.7-.34.99,0,1.75.26,2.28.79.53.52.79,1.38.79,2.57v4.62c0,.31.02.54.06.69.04.15.11.26.21.3s.24.07.42.07h.36c.04.1.07.2.08.29s.02.2.02.29c0,.34-.19.5-.57.5h-2.35c0-.35,0-.76.02-1.23.01-.47.02-.96.03-1.46s.01-.97.01-1.41v-1.57c0-.76-.07-1.36-.21-1.82-.14-.46-.37-.78-.68-.99-.31-.2-.73-.3-1.25-.3-.76,0-1.31.23-1.67.68-.36.46-.54,1.14-.54,2.05v1.53c0,.49,0,1.04.01,1.65,0,.61.02,1.2.03,1.77h1.01c.03.1.05.2.07.29.02.1.03.2.03.29,0,.34-.19.5-.57.5h-3.36c-.04-.11-.07-.21-.09-.3-.02-.09-.03-.19-.03-.28,0-.34.2-.5.59-.5Z"/>
    <path class="st1" d="M340.92,16.42h.55c.03-.57.05-1.17.05-1.77,0-.61.01-1.16.01-1.65v-3.19c0-.45-.06-.74-.17-.87-.11-.13-.34-.2-.67-.2h-.23c-.04-.13-.07-.24-.09-.35-.02-.1-.03-.21-.03-.3,0-.34.2-.5.59-.5h2.37c0,.52-.01,1.13-.03,1.83-.02.7-.03,1.39-.03,2.06v1.53c0,.49,0,1.04,0,1.65,0,.61.02,1.2.03,1.77h1.01c.03.1.05.2.07.29.02.1.03.2.03.29,0,.34-.19.5-.57.5h-3.36c-.04-.11-.07-.21-.09-.3-.02-.09-.03-.19-.03-.28,0-.34.2-.5.59-.5ZM342.2,5.54c-.49,0-.83-.09-1.01-.26-.18-.17-.27-.44-.27-.81,0-.34.1-.6.3-.79s.53-.28.98-.28c.48,0,.81.09,1,.26.19.18.28.44.28.81,0,.34-.1.6-.3.79s-.53.28-.98.28Z"/>
    <path class="st1" d="M346.21,16.42h.55c.03-.57.05-1.17.05-1.77,0-.61.01-1.16.01-1.65v-3.19c0-.45-.06-.74-.17-.87-.11-.13-.34-.2-.67-.2h-.23c-.04-.13-.07-.24-.09-.35-.02-.1-.03-.21-.03-.3,0-.34.2-.5.59-.5h2.02c.03.14.05.31.06.52s.02.41.02.59c.46-.43.96-.76,1.49-.99.53-.22,1.1-.34,1.7-.34s1.16.12,1.59.36c.43.24.75.6.96,1.07.46-.49.96-.85,1.48-1.08.53-.23,1.11-.35,1.75-.35.98,0,1.71.26,2.19.79s.72,1.38.72,2.57v4.62c0,.31.02.54.06.69.04.15.11.26.21.3s.24.07.42.07h.36c.06.1.09.2.11.29.01.1.02.2.02.29,0,.34-.2.5-.59.5h-2.35c.01-.35.02-.76.03-1.23,0-.47.01-.96.02-1.46s.01-.97.01-1.41v-1.57c0-1.13-.15-1.94-.45-2.4-.3-.47-.81-.7-1.52-.7s-1.27.23-1.63.68c-.36.46-.54,1.14-.54,2.05v1.53c0,.49,0,1.04.01,1.65,0,.61.02,1.2.05,1.77h.88c.04.1.07.2.09.29.02.1.03.2.03.29,0,.34-.2.5-.59.5h-3.11c-.04-.11-.07-.21-.09-.3-.02-.09-.03-.19-.03-.28,0-.34.2-.5.59-.5h.4c.03-.56.05-1.14.05-1.73,0-.59.01-1.13.01-1.61v-1.22c0-1.13-.15-1.94-.45-2.42-.3-.48-.8-.71-1.5-.71-.74,0-1.29.23-1.65.68-.36.46-.54,1.14-.54,2.05v1.53c0,.49,0,1.04,0,1.65,0,.61.02,1.2.03,1.77h.84c.03.1.05.2.07.29.02.1.03.2.03.29,0,.34-.19.5-.57.5h-3.19c-.04-.11-.07-.21-.09-.3-.02-.09-.03-.19-.03-.28,0-.34.2-.5.59-.5Z"/>
    <path class="st1" d="M370.68,17.3l-1.58.21c-.1-.14-.19-.31-.26-.51-.08-.2-.13-.39-.16-.56-.36.45-.79.77-1.27.98-.48.2-1.04.3-1.67.3-.87,0-1.59-.24-2.15-.73-.57-.49-.85-1.22-.85-2.18s.34-1.71,1.02-2.25c.68-.53,1.75-.8,3.22-.8h1.49v-.59c0-.7-.08-1.24-.23-1.61-.15-.37-.42-.63-.81-.78-.39-.15-.93-.22-1.63-.22h-.61l-.32,1.13c-.13.06-.28.1-.45.15-.18.04-.35.06-.51.06-.15,0-.3-.06-.45-.18-.15-.12-.27-.27-.36-.46s-.14-.38-.14-.58c0-.17.06-.31.18-.43.12-.12.33-.24.62-.37.36-.14.82-.26,1.38-.37.55-.1,1.14-.16,1.77-.16,1.15,0,1.98.24,2.49.71.51.48.77,1.32.77,2.54v4.77c0,.35.05.58.15.68.1.1.27.16.52.16h.4c.03.08.05.17.07.25.02.08.03.17.03.27,0,.17-.05.29-.15.38-.1.08-.27.14-.53.17ZM368.47,14.15v-1.18h-1.74c-.84,0-1.42.15-1.73.45-.31.3-.47.7-.47,1.21,0,.56.15.99.44,1.29.29.3.72.45,1.28.45.76,0,1.32-.2,1.68-.6s.55-.94.55-1.63Z"/>
    <path class="st1" d="M373.01,16.42h.55c.03-.5.04-1.06.05-1.66,0-.6,0-1.18,0-1.74v-7.9c0-.45-.06-.74-.18-.87-.12-.13-.34-.2-.66-.2h-.23c-.04-.13-.07-.24-.09-.35-.02-.1-.03-.21-.03-.3,0-.34.2-.5.59-.5h2.37c0,.52-.01,1.15-.03,1.89-.02.74-.03,1.45-.03,2.12v6.09c0,.49,0,1.04.01,1.65,0,.61.02,1.2.03,1.77h1.01c.03.1.05.2.07.29.02.1.03.2.03.29,0,.34-.19.5-.57.5h-3.36c-.04-.11-.07-.21-.09-.3-.02-.09-.03-.19-.03-.28,0-.34.2-.5.59-.5Z"/>
    <path class="st1" d="M385.97,17.51l-1.89-8.4c-.17-.77-.32-1.43-.45-1.97s-.26-1.02-.37-1.43c-.11-.41-.22-.78-.34-1.13h-.92c-.08-.22-.13-.42-.13-.59,0-.15.04-.28.13-.37.08-.09.22-.14.42-.14h3.63c.08.22.13.42.13.59,0,.34-.18.5-.55.5h-.59c.11.69.25,1.48.43,2.39.18.91.37,1.87.58,2.89s.43,2.02.65,3c.22.99.44,1.91.65,2.76.2-.7.41-1.47.63-2.31.22-.84.45-1.71.68-2.61.23-.9.45-1.8.66-2.68.21-.88.4-1.71.57-2.49s.31-1.46.42-2.05h1.45c.38,0,.66.07.84.21s.32.42.4.84c.15.71.34,1.53.57,2.44.22.91.46,1.87.71,2.87s.51,2,.78,2.99c.27.99.52,1.93.76,2.79.22-.85.45-1.78.67-2.77.22-.99.44-2,.64-3s.39-1.97.57-2.88c.17-.91.33-1.71.45-2.39h-1.03c-.07-.22-.1-.42-.1-.59,0-.34.18-.5.55-.5h3.34c.08.22.13.42.13.59,0,.15-.04.28-.13.37-.08.09-.22.14-.42.14h-.63c-.11.42-.23.87-.35,1.34s-.23.98-.35,1.5c-.11.52-.23,1.08-.36,1.67l-1.68,7.46c-.08.36-.21.62-.37.76-.16.14-.41.21-.75.21h-1.53l-3.02-11.91-2.81,10.94c-.08.38-.2.63-.34.77-.14.13-.39.2-.76.2h-1.58Z"/>
    <path class="st1" d="M408.29,12.81h-5.27c.04.87.19,1.56.43,2.09.24.52.58.91,1.01,1.14.43.24.93.36,1.5.36.62,0,1.13-.12,1.53-.36.41-.24.78-.57,1.11-1.01.24.08.43.2.59.34.15.14.23.33.23.57,0,.28-.17.56-.49.83s-.77.5-1.32.68c-.55.18-1.17.27-1.86.27-1.54,0-2.68-.43-3.42-1.28s-1.11-2.07-1.11-3.65c0-1.85.41-3.21,1.23-4.09.82-.88,1.89-1.32,3.2-1.32.91,0,1.64.18,2.21.54.56.36.97.85,1.24,1.47.27.62.4,1.34.4,2.15,0,.35-.04.62-.12.8-.08.18-.2.31-.38.38-.18.07-.41.1-.7.1ZM403.04,11.59h4.68v-.25c0-.81-.18-1.47-.55-1.96-.36-.5-.92-.75-1.66-.75s-1.28.23-1.71.68c-.43.46-.68,1.21-.77,2.28Z"/>
    <path class="st1" d="M411.57,16.42h.55c.03-.5.04-1.06.05-1.66,0-.6,0-1.18,0-1.74v-7.9c0-.45-.06-.74-.18-.87-.12-.13-.34-.2-.66-.2h-.23c-.04-.13-.07-.24-.09-.35-.02-.1-.03-.21-.03-.3,0-.34.2-.5.59-.5h2.37c0,.52-.01,1.15-.03,1.89-.02.74-.03,1.45-.03,2.12v6.09c0,.49,0,1.04.01,1.65,0,.61.02,1.2.03,1.77h1.01c.03.1.05.2.07.29.02.1.03.2.03.29,0,.34-.19.5-.57.5h-3.36c-.04-.11-.07-.21-.09-.3-.02-.09-.03-.19-.03-.28,0-.34.2-.5.59-.5Z"/>
    <path class="st1" d="M416.99,16.42h.55c.03-.48.04-1,.05-1.58,0-.57,0-1.11,0-1.6v-4.43h-1.47c-.04-.11-.08-.22-.1-.33-.03-.1-.04-.22-.04-.35,0-.38.2-.57.61-.57h1.01c0-1.09.09-2,.27-2.73.18-.73.51-1.27.99-1.63.48-.36,1.15-.54,2.02-.54.66,0,1.13.09,1.42.27.29.18.43.41.43.69,0,.18-.05.34-.16.48-.1.14-.24.26-.41.36-.28-.15-.56-.27-.85-.36s-.58-.13-.87-.13c-.45,0-.75.14-.9.42-.15.28-.23.78-.23,1.49v1.66h2.58c.04.11.07.22.09.33.02.1.03.22.03.35,0,.38-.2.57-.59.57h-2.12v4.54c0,.42,0,.91.01,1.47,0,.56.02,1.09.03,1.6h1.28c.03.1.05.2.07.29.02.1.03.2.03.29,0,.34-.19.5-.57.5h-3.63c-.04-.11-.07-.21-.09-.3-.02-.09-.03-.19-.03-.28,0-.34.2-.5.59-.5Z"/>
    <path class="st1" d="M430.97,17.3l-1.58.21c-.1-.14-.19-.31-.26-.51-.08-.2-.13-.39-.16-.56-.36.45-.79.77-1.27.98-.48.2-1.04.3-1.67.3-.87,0-1.59-.24-2.15-.73-.57-.49-.85-1.22-.85-2.18s.34-1.71,1.02-2.25c.68-.53,1.75-.8,3.22-.8h1.49v-.59c0-.7-.08-1.24-.23-1.61-.15-.37-.42-.63-.81-.78-.39-.15-.93-.22-1.63-.22h-.61l-.32,1.13c-.13.06-.28.1-.45.15-.18.04-.35.06-.51.06-.15,0-.3-.06-.45-.18-.15-.12-.27-.27-.36-.46s-.14-.38-.14-.58c0-.17.06-.31.18-.43.12-.12.33-.24.62-.37.36-.14.82-.26,1.38-.37.55-.1,1.14-.16,1.77-.16,1.15,0,1.98.24,2.49.71.51.48.77,1.32.77,2.54v4.77c0,.35.05.58.15.68.1.1.27.16.52.16h.4c.03.08.05.17.07.25.02.08.03.17.03.27,0,.17-.05.29-.15.38-.1.08-.27.14-.53.17ZM428.77,14.15v-1.18h-1.74c-.84,0-1.42.15-1.73.45-.31.3-.47.7-.47,1.21,0,.56.15.99.44,1.29.29.3.72.45,1.28.45.76,0,1.32-.2,1.68-.6s.55-.94.55-1.63Z"/>
    <path class="st1" d="M433.41,16.42h.55c.03-.57.05-1.17.05-1.77,0-.61.01-1.16.01-1.65v-3.19c0-.45-.06-.74-.17-.87-.11-.13-.34-.2-.67-.2h-.23c-.04-.13-.07-.24-.09-.35-.02-.1-.03-.21-.03-.3,0-.34.2-.5.59-.5h2.02c.03.14.05.33.06.57.01.24.02.49.02.76.53-.55,1.09-.94,1.67-1.18.58-.24,1.13-.36,1.65-.36.27,0,.46.05.58.16.12.1.18.28.18.54,0,.29-.05.56-.15.79-.1.23-.2.38-.29.45-.14.1-.33.16-.56.2-.23.04-.46.05-.68.05l-.29-.8c-.66.24-1.14.57-1.44,1.01-.3.43-.45,1.08-.45,1.95v1.28c0,.49,0,1.04,0,1.65,0,.61.02,1.2.03,1.77h1.28c.03.1.05.2.07.29.02.1.03.2.03.29,0,.34-.19.5-.57.5h-3.63c-.04-.11-.07-.21-.09-.3-.02-.09-.03-.19-.03-.28,0-.34.2-.5.59-.5Z"/>
    <path class="st1" d="M447.58,12.81h-5.27c.04.87.19,1.56.43,2.09.24.52.58.91,1.01,1.14.43.24.93.36,1.5.36.62,0,1.13-.12,1.53-.36.41-.24.78-.57,1.11-1.01.24.08.43.2.59.34.15.14.23.33.23.57,0,.28-.17.56-.49.83s-.77.5-1.32.68c-.55.18-1.17.27-1.86.27-1.54,0-2.68-.43-3.42-1.28s-1.11-2.07-1.11-3.65c0-1.85.41-3.21,1.23-4.09.82-.88,1.89-1.32,3.2-1.32.91,0,1.64.18,2.21.54.56.36.97.85,1.24,1.47.27.62.4,1.34.4,2.15,0,.35-.04.62-.12.8-.08.18-.2.31-.38.38-.18.07-.41.1-.7.1ZM442.33,11.59h4.68v-.25c0-.81-.18-1.47-.55-1.96-.36-.5-.92-.75-1.66-.75s-1.28.23-1.71.68c-.43.46-.68,1.21-.77,2.28Z"/>
    <path class="st1" d="M7.83,41.62h.63c.01-.62.02-1.22.03-1.82,0-.59.01-1.16.01-1.69v-4.83c0-.53,0-1.1-.01-1.69,0-.59-.02-1.2-.03-1.82h-1.05c-.08-.22-.13-.42-.13-.59,0-.34.18-.5.55-.5h4.51c1.72,0,2.99.28,3.79.84.81.56,1.21,1.44,1.21,2.65,0,.71-.17,1.35-.51,1.91-.34.56-.91.98-1.71,1.26.98.2,1.7.55,2.16,1.07s.69,1.23.69,2.14c0,1.39-.47,2.43-1.4,3.12s-2.26,1.04-3.98,1.04h-5.19c-.08-.22-.13-.42-.13-.59,0-.34.18-.5.55-.5ZM10.35,34.84h1.81c1.05,0,1.85-.18,2.39-.55.55-.36.82-1.01.82-1.93,0-.71-.24-1.28-.73-1.69-.49-.41-1.36-.62-2.62-.62h-1.62c-.03.48-.04.96-.04,1.45v3.34ZM10.39,41.35h2.42c1.08,0,1.87-.21,2.38-.63.51-.42.77-1.09.77-2.02,0-.87-.27-1.51-.81-1.92-.54-.41-1.36-.62-2.47-.62h-2.33v2.99c0,.37,0,.75.01,1.12,0,.38.02.73.03,1.07Z"/>
    <path class="st1" d="M19.72,37.99c0-1.23.2-2.25.59-3.04.39-.8.93-1.39,1.62-1.79.69-.39,1.46-.59,2.33-.59,1.41,0,2.47.41,3.18,1.24.71.83,1.06,2.06,1.06,3.7,0,1.23-.2,2.25-.59,3.04s-.93,1.39-1.61,1.79c-.68.39-1.46.59-2.34.59-1.41,0-2.47-.41-3.18-1.24s-1.06-2.06-1.06-3.7ZM21.54,37.51c0,1.53.22,2.6.65,3.22s1.09.93,1.97.93c.45,0,.86-.11,1.24-.34.38-.22.68-.6.91-1.14s.35-1.27.35-2.19c0-1.53-.22-2.6-.65-3.22-.43-.62-1.09-.93-1.97-.93-.45,0-.86.11-1.24.34-.38.22-.68.6-.91,1.13-.23.53-.35,1.27-.35,2.21Z"/>
    <path class="st1" d="M38.07,42.5l-1.57.21c-.1-.14-.19-.31-.26-.51-.08-.2-.13-.39-.16-.56-.36.45-.79.77-1.27.98-.48.2-1.04.3-1.67.3-.87,0-1.59-.24-2.15-.73-.57-.49-.85-1.22-.85-2.18s.34-1.71,1.02-2.25c.68-.53,1.75-.8,3.22-.8h1.49v-.59c0-.7-.08-1.24-.23-1.61-.15-.37-.42-.63-.81-.78-.39-.15-.93-.22-1.63-.22h-.61l-.31,1.13c-.13.06-.28.1-.45.15-.17.04-.35.06-.51.06-.15,0-.3-.06-.45-.18-.15-.12-.27-.27-.36-.46-.09-.19-.14-.38-.14-.58,0-.17.06-.31.18-.43s.33-.24.62-.37c.36-.14.82-.26,1.38-.37.55-.1,1.14-.16,1.77-.16,1.15,0,1.98.24,2.49.71.51.48.77,1.32.77,2.54v4.77c0,.35.05.58.15.68.1.1.27.16.52.16h.4c.03.08.05.17.07.25s.03.17.03.27c0,.17-.05.29-.15.38-.1.08-.27.14-.53.17ZM35.87,39.35v-1.18h-1.74c-.84,0-1.42.15-1.73.45-.31.3-.47.7-.47,1.21,0,.56.15.99.44,1.29.29.3.72.45,1.28.45.76,0,1.32-.2,1.68-.6s.55-.94.55-1.63Z"/>
    <path class="st1" d="M40.51,41.62h.55c.03-.57.04-1.17.05-1.77,0-.61.01-1.16.01-1.65v-3.19c0-.45-.06-.74-.17-.87-.11-.13-.34-.2-.67-.2h-.23c-.04-.13-.07-.24-.09-.35s-.03-.21-.03-.3c0-.34.2-.5.59-.5h2.02c.03.14.05.33.06.57.01.24.02.49.02.76.53-.55,1.09-.94,1.67-1.18.58-.24,1.13-.36,1.65-.36.27,0,.46.05.58.16s.18.28.18.54c0,.29-.05.56-.15.79-.1.23-.2.38-.29.45-.14.1-.33.16-.56.2-.23.04-.46.05-.68.05l-.29-.8c-.66.24-1.14.57-1.44,1.01-.3.43-.45,1.08-.45,1.95v1.28c0,.49,0,1.04.01,1.65,0,.61.02,1.2.03,1.77h1.28c.03.1.05.2.07.29s.03.2.03.29c0,.34-.19.5-.57.5h-3.63c-.04-.11-.07-.21-.09-.3-.02-.09-.03-.19-.03-.28,0-.34.2-.5.59-.5Z"/>
    <path class="st1" d="M56.47,42.71h-1.85c-.06-.14-.1-.31-.15-.5-.04-.2-.07-.38-.08-.55-.31.38-.71.68-1.2.91-.49.23-1.05.35-1.68.35-1.2,0-2.15-.4-2.85-1.19-.69-.79-1.04-1.99-1.04-3.6,0-1.32.2-2.38.59-3.2.39-.82.92-1.42,1.6-1.8s1.44-.57,2.29-.57c.46,0,.86.03,1.21.09.34.06.63.14.87.24v-2.58c0-.45-.06-.74-.17-.87-.11-.13-.34-.2-.67-.2h-.5c-.03-.13-.05-.24-.07-.35s-.03-.21-.03-.3c0-.34.19-.5.57-.5h2.65c0,.34,0,.74-.01,1.22,0,.48-.02.96-.03,1.45-.01.49-.02.94-.02,1.34v8.59c0,.39.05.64.15.76.1.11.28.17.55.17h.36c.04.1.07.2.09.29s.03.2.03.29c0,.34-.2.5-.59.5ZM54.18,38.93v-4.6c-.24-.14-.54-.26-.91-.36-.37-.1-.79-.15-1.25-.15-.77,0-1.39.28-1.86.85-.47.57-.7,1.55-.7,2.95,0,1.04.11,1.84.34,2.42.22.57.53.97.92,1.2.39.22.84.34,1.34.34.71,0,1.25-.23,1.6-.7.35-.47.52-1.12.52-1.94Z"/>
    <path class="st1" d="M63.02,37.99c0-1.23.2-2.25.59-3.04.39-.8.93-1.39,1.62-1.79.69-.39,1.46-.59,2.33-.59,1.41,0,2.47.41,3.18,1.24.71.83,1.06,2.06,1.06,3.7,0,1.23-.2,2.25-.59,3.04s-.93,1.39-1.61,1.79c-.68.39-1.46.59-2.34.59-1.41,0-2.47-.41-3.18-1.24s-1.06-2.06-1.06-3.7ZM64.84,37.51c0,1.53.22,2.6.65,3.22s1.09.93,1.97.93c.45,0,.86-.11,1.24-.34.38-.22.68-.6.91-1.14s.35-1.27.35-2.19c0-1.53-.22-2.6-.65-3.22-.43-.62-1.09-.93-1.97-.93-.45,0-.86.11-1.24.34-.38.22-.68.6-.91,1.13-.23.53-.35,1.27-.35,2.21Z"/>
    <path class="st1" d="M74.02,41.62h.55c.03-.48.04-1,.05-1.58,0-.57.01-1.11.01-1.6v-4.43h-1.47c-.04-.11-.08-.22-.1-.33-.03-.1-.04-.22-.04-.35,0-.38.2-.57.61-.57h1.01c0-1.09.09-2,.27-2.73.18-.73.51-1.27.99-1.63s1.15-.54,2.02-.54c.66,0,1.13.09,1.42.27.29.18.43.41.43.69,0,.18-.05.34-.16.48-.1.14-.24.26-.41.36-.28-.15-.56-.27-.85-.36-.29-.08-.58-.13-.87-.13-.45,0-.75.14-.9.42-.15.28-.23.78-.23,1.49v1.66h2.58c.04.11.07.22.09.33s.03.22.03.35c0,.38-.2.57-.59.57h-2.12v4.54c0,.42,0,.91.01,1.47,0,.56.02,1.09.03,1.6h1.28c.03.1.05.2.07.29s.03.2.03.29c0,.34-.19.5-.57.5h-3.63c-.04-.11-.07-.21-.09-.3-.02-.09-.03-.19-.03-.28,0-.34.2-.5.59-.5Z"/>
    <path class="st1" d="M85.51,41.62h.63c.01-.62.02-1.22.03-1.82,0-.59.01-1.16.01-1.69v-4.83c0-.53,0-1.1-.01-1.69,0-.59-.02-1.2-.03-1.82h-1.05c-.08-.22-.13-.42-.13-.59,0-.34.18-.5.55-.5h3.63c.07.22.1.42.1.59,0,.34-.18.5-.55.5h-.61c-.03.62-.05,1.22-.05,1.82,0,.6-.01,1.16-.01,1.69v4.83c0,.53,0,1.1.01,1.69,0,.6.02,1.2.05,1.82h1.05c.07.22.1.42.1.59,0,.34-.18.5-.55.5h-3.61c-.08-.22-.13-.42-.13-.59,0-.34.18-.5.55-.5Z"/>
    <path class="st1" d="M91.6,41.62h.55c.03-.57.04-1.17.05-1.77,0-.61.01-1.16.01-1.65v-3.19c0-.45-.06-.74-.17-.87-.11-.13-.34-.2-.67-.2h-.23c-.04-.13-.07-.24-.09-.35s-.03-.21-.03-.3c0-.34.2-.5.59-.5h2.02c.03.14.05.31.06.52.01.21.02.41.02.59.46-.43.96-.76,1.49-.99.53-.22,1.1-.34,1.7-.34.99,0,1.75.26,2.28.79s.79,1.38.79,2.57v4.62c0,.31.02.54.06.69.04.15.11.26.21.3.1.05.24.07.42.07h.36c.04.1.07.2.08.29.01.1.02.2.02.29,0,.34-.19.5-.57.5h-2.35c0-.35,0-.76.02-1.23.01-.47.02-.96.03-1.46,0-.5.01-.97.01-1.41v-1.57c0-.76-.07-1.36-.21-1.82-.14-.46-.37-.78-.68-.99-.31-.2-.73-.3-1.25-.3-.76,0-1.31.23-1.67.68-.36.46-.54,1.14-.54,2.05v1.53c0,.49,0,1.04.01,1.65,0,.61.02,1.2.03,1.77h1.01c.03.1.05.2.07.29s.03.2.03.29c0,.34-.19.5-.57.5h-3.36c-.04-.11-.07-.21-.09-.3-.02-.09-.03-.19-.03-.28,0-.34.2-.5.59-.5Z"/>
    <path class="st1" d="M111.32,42.71h-1.85c-.06-.14-.1-.31-.15-.5-.04-.2-.07-.38-.08-.55-.31.38-.71.68-1.2.91-.49.23-1.05.35-1.68.35-1.2,0-2.15-.4-2.85-1.19-.69-.79-1.04-1.99-1.04-3.6,0-1.32.2-2.38.59-3.2.39-.82.92-1.42,1.6-1.8s1.44-.57,2.29-.57c.46,0,.86.03,1.21.09.34.06.63.14.87.24v-2.58c0-.45-.06-.74-.17-.87-.11-.13-.34-.2-.67-.2h-.5c-.03-.13-.05-.24-.07-.35s-.03-.21-.03-.3c0-.34.19-.5.57-.5h2.65c0,.34,0,.74-.01,1.22,0,.48-.02.96-.03,1.45-.01.49-.02.94-.02,1.34v8.59c0,.39.05.64.15.76.1.11.28.17.55.17h.36c.04.1.07.2.09.29s.03.2.03.29c0,.34-.2.5-.59.5ZM109.03,38.93v-4.6c-.24-.14-.54-.26-.91-.36-.37-.1-.79-.15-1.25-.15-.77,0-1.39.28-1.86.85-.47.57-.7,1.55-.7,2.95,0,1.04.11,1.84.34,2.42.22.57.53.97.92,1.2.39.22.84.34,1.34.34.71,0,1.25-.23,1.6-.7.35-.47.52-1.12.52-1.94Z"/>
    <path class="st1" d="M113.69,41.62h.55c.03-.57.04-1.17.05-1.77,0-.61.01-1.16.01-1.65v-3.19c0-.45-.06-.74-.17-.87-.11-.13-.34-.2-.67-.2h-.23c-.04-.13-.07-.24-.09-.35s-.03-.21-.03-.3c0-.34.2-.5.59-.5h2.37c0,.52-.01,1.13-.03,1.83-.02.7-.03,1.39-.03,2.06v1.53c0,.49,0,1.04.01,1.65,0,.61.02,1.2.03,1.77h1.01c.03.1.05.2.07.29s.03.2.03.29c0,.34-.19.5-.57.5h-3.36c-.04-.11-.07-.21-.09-.3-.02-.09-.03-.19-.03-.28,0-.34.2-.5.59-.5ZM114.97,30.74c-.49,0-.83-.09-1.01-.26-.18-.17-.27-.44-.27-.81,0-.34.1-.6.3-.79.2-.19.53-.28.98-.28.48,0,.81.09,1,.26.19.18.28.44.28.81,0,.34-.1.6-.3.79-.2.19-.53.28-.98.28Z"/>
    <path class="st1" d="M126.48,42.5l-1.57.21c-.1-.14-.19-.31-.26-.51-.08-.2-.13-.39-.16-.56-.36.45-.79.77-1.27.98-.48.2-1.04.3-1.67.3-.87,0-1.59-.24-2.15-.73-.57-.49-.85-1.22-.85-2.18s.34-1.71,1.02-2.25c.68-.53,1.75-.8,3.22-.8h1.49v-.59c0-.7-.08-1.24-.23-1.61-.15-.37-.42-.63-.81-.78-.39-.15-.93-.22-1.63-.22h-.61l-.31,1.13c-.13.06-.28.1-.45.15-.17.04-.35.06-.51.06-.15,0-.3-.06-.45-.18-.15-.12-.27-.27-.36-.46-.09-.19-.14-.38-.14-.58,0-.17.06-.31.18-.43s.33-.24.62-.37c.36-.14.82-.26,1.38-.37.55-.1,1.14-.16,1.77-.16,1.15,0,1.98.24,2.49.71.51.48.77,1.32.77,2.54v4.77c0,.35.05.58.15.68.1.1.27.16.52.16h.4c.03.08.05.17.07.25s.03.17.03.27c0,.17-.05.29-.15.38-.1.08-.27.14-.53.17ZM124.27,39.35v-1.18h-1.74c-.84,0-1.42.15-1.73.45-.31.3-.47.7-.47,1.21,0,.56.15.99.44,1.29.29.3.72.45,1.28.45.76,0,1.32-.2,1.68-.6s.55-.94.55-1.63Z"/>
    <path class="st1" d="M136.05,42.71l-2.04-7.69c-.13-.45-.27-.74-.42-.88-.15-.14-.4-.21-.74-.21h-.23c-.04-.13-.07-.24-.09-.35s-.03-.21-.03-.3c0-.15.04-.28.13-.37.08-.09.24-.14.46-.14h2.23l.29,1.41c.07.34.16.78.27,1.33.11.55.25,1.16.4,1.82.15.66.31,1.31.48,1.96s.34,1.24.5,1.77c.17-.5.35-1.12.54-1.86s.38-1.51.57-2.32.36-1.58.52-2.3c.16-.72.29-1.33.39-1.82h1.11c.29,0,.52.06.69.18.17.12.29.34.38.66.11.46.24,1,.38,1.63.14.62.29,1.28.45,1.97.16.69.32,1.37.48,2.04.16.67.33,1.27.49,1.82.15-.49.31-1.05.48-1.67.17-.62.33-1.27.48-1.93.15-.67.3-1.31.44-1.92.14-.62.25-1.15.34-1.62h-.84c-.04-.11-.07-.22-.09-.31-.02-.1-.03-.2-.03-.32,0-.15.04-.27.11-.34s.17-.12.3-.15c.13-.03.3-.04.49-.04h2.73c.03.11.05.22.07.31.02.1.03.2.03.31,0,.17-.04.3-.13.39-.08.09-.23.14-.44.14h-.57l-1.99,7.08c-.13.46-.24.82-.35,1.06-.1.25-.23.41-.37.5-.14.09-.33.14-.57.14h-1.3c-.04-.14-.11-.42-.21-.83-.1-.41-.22-.91-.37-1.49s-.3-1.19-.46-1.83c-.16-.64-.32-1.26-.47-1.87-.15-.61-.29-1.14-.4-1.61l-1.49,5.92c-.11.48-.22.84-.31,1.08-.1.25-.22.41-.36.49-.14.08-.34.13-.59.13h-1.37Z"/>
    <path class="st1" d="M155.73,38.01h-5.27c.04.87.19,1.56.43,2.09.24.52.58.91,1.01,1.14.43.24.93.36,1.5.36.62,0,1.13-.12,1.53-.36.41-.24.78-.57,1.11-1.01.24.08.43.2.59.34.15.14.23.33.23.57,0,.28-.16.56-.49.83-.33.27-.77.5-1.32.68s-1.17.27-1.86.27c-1.54,0-2.68-.43-3.42-1.28-.74-.85-1.11-2.07-1.11-3.65,0-1.85.41-3.21,1.23-4.09.82-.88,1.89-1.32,3.2-1.32.91,0,1.65.18,2.21.54.56.36.97.85,1.24,1.47.27.62.4,1.34.4,2.15,0,.35-.04.62-.12.8-.08.18-.2.31-.38.38-.18.07-.41.1-.7.1ZM150.48,36.79h4.68v-.25c0-.81-.18-1.47-.55-1.96-.36-.5-.92-.75-1.66-.75s-1.28.23-1.71.68c-.43.46-.68,1.21-.77,2.28Z"/>
    <path class="st1" d="M159.11,41.62h.55c.03-.57.04-1.17.05-1.77,0-.61.01-1.16.01-1.65v-3.19c0-.45-.06-.74-.17-.87-.11-.13-.34-.2-.67-.2h-.23c-.04-.13-.07-.24-.09-.35s-.03-.21-.03-.3c0-.34.2-.5.59-.5h2.02c.03.14.05.33.06.57.01.24.02.49.02.76.53-.55,1.09-.94,1.67-1.18.58-.24,1.13-.36,1.65-.36.27,0,.46.05.58.16s.18.28.18.54c0,.29-.05.56-.15.79-.1.23-.2.38-.29.45-.14.1-.33.16-.56.2-.23.04-.46.05-.68.05l-.29-.8c-.66.24-1.14.57-1.44,1.01-.3.43-.45,1.08-.45,1.95v1.28c0,.49,0,1.04.01,1.65,0,.61.02,1.2.03,1.77h1.28c.03.1.05.2.07.29s.03.2.03.29c0,.34-.19.5-.57.5h-3.63c-.04-.11-.07-.21-.09-.3-.02-.09-.03-.19-.03-.28,0-.34.2-.5.59-.5Z"/>
    <path class="st1" d="M173.29,38.01h-5.27c.04.87.19,1.56.43,2.09.24.52.58.91,1.01,1.14.43.24.93.36,1.5.36.62,0,1.13-.12,1.53-.36.41-.24.78-.57,1.11-1.01.24.08.43.2.59.34.15.14.23.33.23.57,0,.28-.16.56-.49.83-.33.27-.77.5-1.32.68s-1.17.27-1.86.27c-1.54,0-2.68-.43-3.42-1.28-.74-.85-1.11-2.07-1.11-3.65,0-1.85.41-3.21,1.23-4.09.82-.88,1.89-1.32,3.2-1.32.91,0,1.65.18,2.21.54.56.36.97.85,1.24,1.47.27.62.4,1.34.4,2.15,0,.35-.04.62-.12.8-.08.18-.2.31-.38.38-.18.07-.41.1-.7.1ZM168.04,36.79h4.68v-.25c0-.81-.18-1.47-.55-1.96-.36-.5-.92-.75-1.66-.75s-1.28.23-1.71.68c-.43.46-.68,1.21-.77,2.28Z"/>
    <path class="st5" d="M180.99,41.62h1.7c.03-.6.05-1.2.05-1.81,0-.6.01-1.16.01-1.66v-6.32c0-.45-.06-.75-.18-.89-.12-.15-.34-.22-.66-.22h-1.24c-.03-.11-.06-.22-.08-.34-.03-.11-.04-.22-.04-.31,0-.17.05-.3.15-.4.1-.1.27-.15.52-.15h3.36c0,.32,0,.71-.02,1.17-.01.46-.02.93-.03,1.42,0,.49-.01.94-.01,1.34v4.7c0,.5,0,1.06.01,1.66,0,.6.02,1.2.03,1.81h1.99c.08.21.13.41.13.59,0,.34-.18.5-.55.5h-5.59c-.03-.11-.05-.21-.07-.3-.02-.09-.03-.19-.03-.28,0-.34.18-.5.55-.5Z"/>
    <path class="st5" d="M188.34,41.62h1.7c.03-.6.05-1.2.05-1.81,0-.6.01-1.16.01-1.66v-6.32c0-.45-.06-.75-.18-.89-.12-.15-.34-.22-.66-.22h-1.24c-.03-.11-.06-.22-.08-.34-.03-.11-.04-.22-.04-.31,0-.17.05-.3.15-.4.1-.1.27-.15.52-.15h3.36c0,.32,0,.71-.02,1.17-.01.46-.02.93-.03,1.42,0,.49-.01.94-.01,1.34v4.7c0,.5,0,1.06.01,1.66,0,.6.02,1.2.03,1.81h1.99c.08.21.13.41.13.59,0,.34-.18.5-.55.5h-5.59c-.03-.11-.05-.21-.07-.3-.02-.09-.03-.19-.03-.28,0-.34.18-.5.55-.5Z"/>
    <path class="st5" d="M198.19,38.14l1.91-1.93-2.37-2.35c.06-.11.12-.22.2-.31.08-.1.16-.2.26-.32.18-.18.34-.27.47-.27s.29.09.47.27l1.97,1.97,2.33-2.33c.11.06.21.12.3.19.09.07.19.15.28.25.17.15.25.3.26.43,0,.13-.09.3-.28.49l-1.93,1.93,2.37,2.35c-.06.1-.12.2-.19.3-.07.1-.16.21-.27.33-.18.18-.34.27-.47.27s-.29-.09-.47-.27l-1.97-1.95-2.31,2.31c-.1-.07-.2-.14-.29-.2s-.2-.14-.31-.24c-.15-.17-.23-.32-.23-.45s.09-.29.27-.47Z"/>
    <path class="st5" d="M213.33,41.62h.55c.03-.5.04-1.06.05-1.66,0-.6.01-1.18.01-1.74v-7.9c0-.45-.06-.74-.18-.87-.12-.13-.34-.2-.66-.2h-.23c-.04-.13-.07-.24-.09-.35s-.03-.21-.03-.3c0-.34.2-.5.59-.5h2.37c0,.52-.01,1.15-.03,1.89-.02.74-.03,1.45-.03,2.12v1.62c.41-.38.86-.67,1.38-.86.51-.2,1.05-.29,1.61-.29.99,0,1.75.26,2.28.79s.79,1.38.79,2.57v4.62c0,.31.02.54.06.69.04.15.11.26.21.3.1.05.24.07.42.07h.36c.03.1.05.2.07.29s.03.2.03.29c0,.34-.19.5-.57.5h-2.35c0-.35,0-.76.01-1.23,0-.47.02-.96.03-1.46.01-.5.02-.97.02-1.41v-1.57c0-.76-.07-1.36-.21-1.82-.14-.46-.37-.78-.68-.99-.31-.2-.73-.3-1.25-.3-.74,0-1.29.22-1.66.65-.36.43-.55,1.09-.55,1.97v3.29c0,.61.01,1.2.04,1.77h.99c.04.1.07.2.09.29s.03.2.03.29c0,.34-.19.5-.57.5h-3.36c-.04-.11-.07-.21-.09-.3-.02-.09-.03-.19-.03-.28,0-.34.2-.5.59-.5Z"/>
    <path class="st5" d="M224.65,41.62h.55c.03-.57.04-1.17.05-1.77,0-.61.01-1.16.01-1.65v-3.19c0-.45-.06-.74-.17-.87-.11-.13-.34-.2-.67-.2h-.23c-.04-.13-.07-.24-.09-.35s-.03-.21-.03-.3c0-.34.2-.5.59-.5h2.37c0,.52-.01,1.13-.03,1.83-.02.7-.03,1.39-.03,2.06v1.53c0,.49,0,1.04.01,1.65,0,.61.02,1.2.03,1.77h1.01c.03.1.05.2.07.29s.03.2.03.29c0,.34-.19.5-.57.5h-3.36c-.04-.11-.07-.21-.09-.3-.02-.09-.03-.19-.03-.28,0-.34.2-.5.59-.5ZM225.93,30.74c-.49,0-.83-.09-1.01-.26-.18-.17-.27-.44-.27-.81,0-.34.1-.6.3-.79.2-.19.53-.28.98-.28.48,0,.81.09,1,.26.19.18.28.44.28.81,0,.34-.1.6-.3.79-.2.19-.53.28-.98.28Z"/>
    <path class="st5" d="M238.2,43.72c0,.59-.15,1.11-.46,1.56s-.73.84-1.26,1.17c-.53.32-1.13.57-1.8.74-.67.17-1.35.25-2.05.25-.85,0-1.54-.12-2.06-.36-.52-.24-.89-.55-1.12-.92s-.35-.78-.35-1.22.13-.84.39-1.22c.26-.38.66-.71,1.21-.99l.19-.1c-.28-.14-.5-.35-.67-.62s-.25-.61-.25-1,.1-.76.29-1.06c.2-.3.5-.54.9-.7-.46-.22-.86-.58-1.19-1.08-.33-.5-.49-1.14-.49-1.94s.17-1.43.5-1.97c.34-.55.79-.96,1.38-1.25.58-.29,1.24-.43,1.96-.43.27,0,.52.02.78.05s.49.09.71.16h3.47c.04.11.08.22.1.33.03.1.04.22.04.35,0,.38-.2.57-.61.57h-1.34c.42.55.63,1.23.63,2.06,0,1.06-.37,1.92-1.1,2.57-.73.65-1.78.98-3.14.98-.49,0-.84.08-1.06.24-.22.16-.33.38-.33.64,0,.31.09.53.28.66.19.13.47.2.85.2h2.62c.97,0,1.7.2,2.21.59.5.39.76.98.76,1.76ZM236.47,44.1c0-.39-.12-.69-.37-.88-.25-.2-.7-.29-1.35-.29h-2.69c-.41.18-.72.42-.96.7-.23.29-.35.61-.35.98,0,.49.17.88.51,1.18.34.29.91.44,1.69.44.7,0,1.31-.09,1.84-.27s.93-.43,1.23-.75c.29-.31.44-.68.44-1.1ZM235.36,36.18c0-.74-.17-1.33-.51-1.75-.34-.43-.89-.64-1.65-.64-.64,0-1.13.19-1.47.58-.34.39-.5.93-.5,1.65s.17,1.33.51,1.75c.34.43.89.64,1.65.64.64,0,1.13-.19,1.47-.58s.5-.93.5-1.65Z"/>
    <path class="st5" d="M239.85,41.62h.55c.03-.5.04-1.06.05-1.66,0-.6.01-1.18.01-1.74v-7.9c0-.45-.06-.74-.18-.87-.12-.13-.34-.2-.66-.2h-.23c-.04-.13-.07-.24-.09-.35s-.03-.21-.03-.3c0-.34.2-.5.59-.5h2.37c0,.52-.01,1.15-.03,1.89-.02.74-.03,1.45-.03,2.12v1.62c.41-.38.86-.67,1.38-.86.51-.2,1.05-.29,1.61-.29.99,0,1.75.26,2.28.79s.79,1.38.79,2.57v4.62c0,.31.02.54.06.69.04.15.11.26.21.3.1.05.24.07.42.07h.36c.03.1.05.2.07.29s.03.2.03.29c0,.34-.19.5-.57.5h-2.35c0-.35,0-.76.01-1.23,0-.47.02-.96.03-1.46.01-.5.02-.97.02-1.41v-1.57c0-.76-.07-1.36-.21-1.82-.14-.46-.37-.78-.68-.99-.31-.2-.73-.3-1.25-.3-.74,0-1.29.22-1.66.65-.36.43-.55,1.09-.55,1.97v3.29c0,.61.01,1.2.04,1.77h.99c.04.1.07.2.09.29s.03.2.03.29c0,.34-.19.5-.57.5h-3.36c-.04-.11-.07-.21-.09-.3-.02-.09-.03-.19-.03-.28,0-.34.2-.5.59-.5Z"/>
    <path class="st5" d="M257.81,38.01h-5.27c.04.87.19,1.56.43,2.09.24.52.58.91,1.01,1.14.43.24.93.36,1.5.36.62,0,1.13-.12,1.53-.36.41-.24.78-.57,1.11-1.01.24.08.43.2.59.34.15.14.23.33.23.57,0,.28-.16.56-.49.83-.33.27-.77.5-1.32.68s-1.17.27-1.86.27c-1.54,0-2.68-.43-3.42-1.28-.74-.85-1.11-2.07-1.11-3.65,0-1.85.41-3.21,1.23-4.09.82-.88,1.89-1.32,3.2-1.32.91,0,1.65.18,2.21.54.56.36.97.85,1.24,1.47.27.62.4,1.34.4,2.15,0,.35-.04.62-.12.8-.08.18-.2.31-.38.38-.18.07-.41.1-.7.1ZM252.56,36.79h4.68v-.25c0-.81-.18-1.47-.55-1.96-.36-.5-.92-.75-1.66-.75s-1.28.23-1.71.68c-.43.46-.68,1.21-.77,2.28Z"/>
    <path class="st5" d="M261.19,41.62h.55c.03-.57.04-1.17.05-1.77,0-.61.01-1.16.01-1.65v-3.19c0-.45-.06-.74-.17-.87-.11-.13-.34-.2-.67-.2h-.23c-.04-.13-.07-.24-.09-.35s-.03-.21-.03-.3c0-.34.2-.5.59-.5h2.02c.03.14.05.33.06.57.01.24.02.49.02.76.53-.55,1.09-.94,1.67-1.18.58-.24,1.13-.36,1.65-.36.27,0,.46.05.58.16s.18.28.18.54c0,.29-.05.56-.15.79-.1.23-.2.38-.29.45-.14.1-.33.16-.56.2-.23.04-.46.05-.68.05l-.29-.8c-.66.24-1.14.57-1.44,1.01-.3.43-.45,1.08-.45,1.95v1.28c0,.49,0,1.04.01,1.65,0,.61.02,1.2.03,1.77h1.28c.03.1.05.2.07.29s.03.2.03.29c0,.34-.19.5-.57.5h-3.63c-.04-.11-.07-.21-.09-.3-.02-.09-.03-.19-.03-.28,0-.34.2-.5.59-.5Z"/>
    <path class="st1" d="M273.62,41.62h.55c.03-.57.04-1.17.05-1.77,0-.61.01-1.16.01-1.65v-3.19c0-.45-.06-.74-.17-.87-.11-.13-.34-.2-.67-.2h-.23c-.04-.13-.07-.24-.09-.35s-.03-.21-.03-.3c0-.34.2-.5.59-.5h2.37c0,.52-.01,1.13-.03,1.83-.02.7-.03,1.39-.03,2.06v1.53c0,.49,0,1.04.01,1.65,0,.61.02,1.2.03,1.77h1.01c.03.1.05.2.07.29s.03.2.03.29c0,.34-.19.5-.57.5h-3.36c-.04-.11-.07-.21-.09-.3-.02-.09-.03-.19-.03-.28,0-.34.2-.5.59-.5ZM274.9,30.74c-.49,0-.83-.09-1.01-.26-.18-.17-.27-.44-.27-.81,0-.34.1-.6.3-.79.2-.19.53-.28.98-.28.48,0,.81.09,1,.26.19.18.28.44.28.81,0,.34-.1.6-.3.79-.2.19-.53.28-.98.28Z"/>
    <path class="st1" d="M278.91,41.62h.55c.03-.57.04-1.17.05-1.77,0-.61.01-1.16.01-1.65v-3.19c0-.45-.06-.74-.17-.87-.11-.13-.34-.2-.67-.2h-.23c-.04-.13-.07-.24-.09-.35s-.03-.21-.03-.3c0-.34.2-.5.59-.5h2.02c.03.14.05.31.06.52.01.21.02.41.02.59.46-.43.96-.76,1.49-.99.53-.22,1.1-.34,1.7-.34.99,0,1.75.26,2.28.79s.79,1.38.79,2.57v4.62c0,.31.02.54.06.69.04.15.11.26.21.3.1.05.24.07.42.07h.36c.04.1.07.2.08.29.01.1.02.2.02.29,0,.34-.19.5-.57.5h-2.35c0-.35,0-.76.02-1.23.01-.47.02-.96.03-1.46,0-.5.01-.97.01-1.41v-1.57c0-.76-.07-1.36-.21-1.82-.14-.46-.37-.78-.68-.99-.31-.2-.73-.3-1.25-.3-.76,0-1.31.23-1.67.68-.36.46-.54,1.14-.54,2.05v1.53c0,.49,0,1.04.01,1.65,0,.61.02,1.2.03,1.77h1.01c.03.1.05.2.07.29s.03.2.03.29c0,.34-.19.5-.57.5h-3.36c-.04-.11-.07-.21-.09-.3-.02-.09-.03-.19-.03-.28,0-.34.2-.5.59-.5Z"/>
    <path class="st1" d="M294.54,42.71v-.63c0-.77.08-1.45.25-2.04.17-.59.44-1.12.82-1.6.38-.48.87-.92,1.49-1.34l1.55-1.05c.62-.41,1.09-.77,1.43-1.09.34-.32.57-.65.71-.98.14-.33.21-.71.21-1.14,0-.71-.25-1.27-.76-1.66-.5-.39-1.31-.59-2.42-.59h-1.16l-.25,1.09c-.13.06-.29.11-.5.17-.21.06-.39.08-.55.08-.11,0-.24-.07-.38-.21-.14-.14-.26-.31-.35-.51-.09-.2-.14-.38-.14-.54,0-.22.1-.41.3-.55.2-.14.51-.28.91-.42.42-.14.84-.24,1.27-.31.43-.07.89-.1,1.4-.1,1.55,0,2.69.31,3.42.92.73.62,1.09,1.46,1.09,2.52,0,.67-.11,1.25-.33,1.72-.22.48-.55.92-1.01,1.33-.46.41-1.04.86-1.75,1.35l-1.66,1.15c-.46.32-.82.65-1.07.99s-.42.68-.51,1.04c-.09.36-.14.74-.14,1.14h2.86c.53,0,1.05-.02,1.55-.06.5-.04,1.03-.11,1.57-.21l.36-.06c.07.14.13.3.17.47.04.18.06.35.06.54,0,.17-.06.3-.17.41-.11.1-.26.16-.44.16h-7.88Z"/>
    <path class="st1" d="M315.45,35.68c0,1.76-.21,3.18-.64,4.24s-1.03,1.83-1.8,2.3c-.77.47-1.68.7-2.73.7-1.72,0-2.97-.54-3.74-1.63-.77-1.08-1.15-2.66-1.15-4.74,0-1.78.21-3.2.64-4.25s1.03-1.82,1.8-2.29,1.68-.7,2.73-.7c1.72,0,2.97.54,3.74,1.62.77,1.08,1.16,2.66,1.16,4.75ZM307.3,35.97c0,1.43.13,2.55.4,3.36s.64,1.39,1.11,1.73c.48.34,1.04.51,1.68.51s1.23-.16,1.68-.48c.45-.32.79-.87,1.02-1.64s.35-1.83.35-3.19c0-1.43-.13-2.55-.39-3.37-.26-.82-.63-1.4-1.1-1.73-.48-.34-1.04-.5-1.7-.5s-1.24.16-1.69.48c-.46.32-.79.87-1.02,1.64-.22.77-.34,1.83-.34,3.19Z"/>
    <path class="st1" d="M317.68,42.71v-.63c0-.77.08-1.45.25-2.04.17-.59.44-1.12.82-1.6.38-.48.88-.92,1.49-1.34l1.55-1.05c.62-.41,1.09-.77,1.43-1.09.34-.32.57-.65.71-.98.14-.33.21-.71.21-1.14,0-.71-.25-1.27-.76-1.66-.5-.39-1.31-.59-2.42-.59h-1.16l-.25,1.09c-.13.06-.29.11-.5.17-.21.06-.39.08-.55.08-.11,0-.24-.07-.38-.21-.14-.14-.26-.31-.35-.51-.09-.2-.14-.38-.14-.54,0-.22.1-.41.3-.55.2-.14.51-.28.91-.42.42-.14.84-.24,1.27-.31.43-.07.89-.1,1.4-.1,1.55,0,2.7.31,3.42.92.73.62,1.09,1.46,1.09,2.52,0,.67-.11,1.25-.33,1.72s-.55.92-1.01,1.33-1.04.86-1.75,1.35l-1.66,1.15c-.46.32-.82.65-1.07.99s-.42.68-.51,1.04c-.09.36-.14.74-.14,1.14h2.86c.53,0,1.05-.02,1.55-.06.5-.04,1.03-.11,1.58-.21l.36-.06c.07.14.13.3.17.47.04.18.06.35.06.54,0,.17-.06.3-.17.41s-.26.16-.44.16h-7.88Z"/>
    <path class="st1" d="M328.58,36.2v-6.03c0-.25.04-.42.14-.51.09-.09.26-.14.49-.14h6.57c.2,0,.35.05.47.14.12.09.18.23.18.41s-.02.36-.07.54c-.05.18-.11.34-.18.49l-.34-.06c-.55-.11-1.08-.19-1.6-.22-.52-.03-1.08-.05-1.7-.05h-2.39v3.82c.17-.06.38-.1.62-.15.24-.04.49-.08.75-.1.25-.03.47-.04.65-.04,1.5,0,2.63.34,3.39,1.03.76.69,1.14,1.7,1.14,3.04,0,.87-.2,1.65-.59,2.34-.39.69-.96,1.24-1.69,1.63-.73.39-1.61.59-2.63.59-.66,0-1.29-.08-1.88-.23s-1.08-.36-1.46-.62c-.38-.26-.57-.54-.57-.83,0-.21.09-.4.26-.57.17-.17.4-.3.66-.4.43.45.92.78,1.45.99.53.21,1.11.32,1.74.32.84,0,1.51-.26,2.03-.77.51-.51.77-1.29.77-2.34,0-.91-.26-1.61-.78-2.09s-1.34-.72-2.48-.72c-.64,0-1.21.05-1.69.16-.48.1-.91.23-1.27.39Z"/>
    <path class="st1" d="M344.05,39.82v-5.8h-1.47c-.04-.11-.08-.22-.1-.33-.03-.1-.04-.22-.04-.35,0-.38.2-.57.61-.57h1.01l.53-2.29.46.04c.28.01.47.08.57.2.1.12.15.35.15.7v1.34h3.09c.04.11.07.22.09.33.02.1.03.22.03.35,0,.38-.2.57-.59.57h-2.62v5.42c0,.78.1,1.33.29,1.65s.52.47.97.47c.27,0,.5-.06.71-.17.21-.11.4-.26.57-.44.18.04.34.14.48.28.14.15.21.32.21.51,0,.28-.21.55-.64.8-.43.25-.98.38-1.67.38-.91,0-1.57-.26-2-.78-.42-.52-.63-1.29-.63-2.33Z"/>
    <path class="st1" d="M350.52,41.62h.55c.03-.5.04-1.06.05-1.66,0-.6,0-1.18,0-1.74v-7.9c0-.45-.06-.74-.18-.87-.12-.13-.34-.2-.66-.2h-.23c-.04-.13-.07-.24-.09-.35-.02-.1-.03-.21-.03-.3,0-.34.2-.5.59-.5h2.37c0,.52-.01,1.15-.03,1.89-.02.74-.03,1.45-.03,2.12v1.62c.41-.38.86-.67,1.38-.86.51-.2,1.05-.29,1.61-.29.99,0,1.75.26,2.28.79s.79,1.38.79,2.57v4.62c0,.31.02.54.06.69.04.15.11.26.21.3.1.05.24.07.42.07h.36c.03.1.05.2.07.29.02.1.03.2.03.29,0,.34-.19.5-.57.5h-2.35c0-.35,0-.76.01-1.23,0-.47.02-.96.03-1.46s.02-.97.02-1.41v-1.57c0-.76-.07-1.36-.21-1.82-.14-.46-.37-.78-.68-.99-.32-.2-.73-.3-1.25-.3-.74,0-1.29.22-1.66.65-.36.43-.55,1.09-.55,1.97v3.29c0,.61.01,1.2.04,1.77h.99c.04.1.07.2.09.29.02.1.03.2.03.29,0,.34-.19.5-.57.5h-3.36c-.04-.11-.07-.21-.09-.3-.02-.09-.03-.19-.03-.28,0-.34.2-.5.59-.5Z"/>
    <path class="st1" d="M369.34,42.5l-1.58.21c-.1-.14-.19-.31-.26-.51-.08-.2-.13-.39-.16-.56-.36.45-.79.77-1.27.98-.48.2-1.04.3-1.67.3-.87,0-1.59-.24-2.15-.73-.57-.49-.85-1.22-.85-2.18s.34-1.71,1.02-2.25c.68-.53,1.75-.8,3.22-.8h1.49v-.59c0-.7-.08-1.24-.23-1.61-.15-.37-.42-.63-.81-.78-.39-.15-.93-.22-1.63-.22h-.61l-.32,1.13c-.13.06-.28.1-.45.15-.18.04-.35.06-.51.06-.15,0-.3-.06-.45-.18-.15-.12-.27-.27-.36-.46s-.14-.38-.14-.58c0-.17.06-.31.18-.43.12-.12.33-.24.62-.37.36-.14.82-.26,1.38-.37.55-.1,1.14-.16,1.77-.16,1.15,0,1.98.24,2.49.71.51.48.77,1.32.77,2.54v4.77c0,.35.05.58.15.68.1.1.27.16.52.16h.4c.03.08.05.17.07.25.02.08.03.17.03.27,0,.17-.05.29-.15.38-.1.08-.27.14-.53.17ZM367.13,39.35v-1.18h-1.74c-.84,0-1.42.15-1.73.45-.31.3-.47.7-.47,1.21,0,.56.15.99.44,1.29.29.3.72.45,1.28.45.76,0,1.32-.2,1.68-.6s.55-.94.55-1.63Z"/>
    <path class="st1" d="M371.77,41.62h.55c.03-.57.05-1.17.05-1.77,0-.61.01-1.16.01-1.65v-3.19c0-.45-.06-.74-.17-.87-.11-.13-.34-.2-.67-.2h-.23c-.04-.13-.07-.24-.09-.35-.02-.1-.03-.21-.03-.3,0-.34.2-.5.59-.5h2.02c.03.14.05.31.06.52s.02.41.02.59c.46-.43.96-.76,1.49-.99.53-.22,1.1-.34,1.7-.34.99,0,1.75.26,2.28.79.53.52.79,1.38.79,2.57v4.62c0,.31.02.54.06.69.04.15.11.26.21.3s.24.07.42.07h.36c.04.1.07.2.08.29s.02.2.02.29c0,.34-.19.5-.57.5h-2.35c0-.35,0-.76.02-1.23.01-.47.02-.96.03-1.46s.01-.97.01-1.41v-1.57c0-.76-.07-1.36-.21-1.82-.14-.46-.37-.78-.68-.99-.31-.2-.73-.3-1.25-.3-.76,0-1.31.23-1.67.68-.36.46-.54,1.14-.54,2.05v1.53c0,.49,0,1.04,0,1.65,0,.61.02,1.2.03,1.77h1.01c.03.1.05.2.07.29.02.1.03.2.03.29,0,.34-.19.5-.57.5h-3.36c-.04-.11-.07-.21-.09-.3-.02-.09-.03-.19-.03-.28,0-.34.2-.5.59-.5Z"/>
    <path class="st1" d="M387.71,41.62h.55c.03-.57.05-1.17.05-1.77,0-.61.01-1.16.01-1.65v-3.19c0-.45-.06-.74-.17-.87-.11-.13-.34-.2-.67-.2h-.23c-.04-.13-.07-.24-.09-.35-.02-.1-.03-.21-.03-.3,0-.34.2-.5.59-.5h2.37c0,.52-.01,1.13-.03,1.83-.02.7-.03,1.39-.03,2.06v1.53c0,.49,0,1.04,0,1.65,0,.61.02,1.2.03,1.77h1.01c.03.1.05.2.07.29.02.1.03.2.03.29,0,.34-.19.5-.57.5h-3.36c-.04-.11-.07-.21-.09-.3-.02-.09-.03-.19-.03-.28,0-.34.2-.5.59-.5ZM388.99,30.74c-.49,0-.83-.09-1.01-.26-.18-.17-.27-.44-.27-.81,0-.34.1-.6.3-.79s.53-.28.98-.28c.48,0,.81.09,1,.26.19.18.28.44.28.81,0,.34-.1.6-.3.79s-.53.28-.98.28Z"/>
    <path class="st1" d="M393,41.62h.55c.03-.57.05-1.17.05-1.77,0-.61.01-1.16.01-1.65v-3.19c0-.45-.06-.74-.17-.87-.11-.13-.34-.2-.67-.2h-.23c-.04-.13-.07-.24-.09-.35-.02-.1-.03-.21-.03-.3,0-.34.2-.5.59-.5h2.02c.03.14.05.31.06.52s.02.41.02.59c.46-.43.96-.76,1.49-.99.53-.22,1.1-.34,1.7-.34.99,0,1.75.26,2.28.79.53.52.79,1.38.79,2.57v4.62c0,.31.02.54.06.69.04.15.11.26.21.3s.24.07.42.07h.36c.04.1.07.2.08.29s.02.2.02.29c0,.34-.19.5-.57.5h-2.35c0-.35,0-.76.02-1.23.01-.47.02-.96.03-1.46s.01-.97.01-1.41v-1.57c0-.76-.07-1.36-.21-1.82-.14-.46-.37-.78-.68-.99-.31-.2-.73-.3-1.25-.3-.76,0-1.31.23-1.67.68-.36.46-.54,1.14-.54,2.05v1.53c0,.49,0,1.04,0,1.65,0,.61.02,1.2.03,1.77h1.01c.03.1.05.2.07.29.02.1.03.2.03.29,0,.34-.19.5-.57.5h-3.36c-.04-.11-.07-.21-.09-.3-.02-.09-.03-.19-.03-.28,0-.34.2-.5.59-.5Z"/>
    <path class="st1" d="M408.63,42.71v-.63c0-.77.08-1.45.25-2.04s.44-1.12.82-1.6c.38-.48.88-.92,1.49-1.34l1.55-1.05c.62-.41,1.09-.77,1.43-1.09.34-.32.57-.65.71-.98.14-.33.21-.71.21-1.14,0-.71-.25-1.27-.76-1.66s-1.31-.59-2.42-.59h-1.16l-.25,1.09c-.13.06-.29.11-.5.17-.21.06-.39.08-.55.08-.11,0-.24-.07-.38-.21-.14-.14-.26-.31-.35-.51-.09-.2-.14-.38-.14-.54,0-.22.1-.41.3-.55.2-.14.51-.28.91-.42.42-.14.84-.24,1.27-.31.43-.07.89-.1,1.4-.1,1.55,0,2.7.31,3.42.92.73.62,1.09,1.46,1.09,2.52,0,.67-.11,1.25-.33,1.72-.22.48-.55.92-1.01,1.33s-1.04.86-1.75,1.35l-1.66,1.15c-.46.32-.82.65-1.07.99s-.42.68-.51,1.04c-.09.36-.14.74-.14,1.14h2.86c.53,0,1.05-.02,1.55-.06.5-.04,1.03-.11,1.58-.21l.36-.06c.07.14.13.3.17.47.04.18.06.35.06.54,0,.17-.06.3-.17.41s-.26.16-.44.16h-7.88Z"/>
    <path class="st1" d="M429.54,35.68c0,1.76-.21,3.18-.64,4.24-.43,1.06-1.03,1.83-1.8,2.3-.77.47-1.68.7-2.73.7-1.72,0-2.97-.54-3.74-1.63-.77-1.08-1.16-2.66-1.16-4.74,0-1.78.21-3.2.64-4.25s1.03-1.82,1.8-2.29c.77-.47,1.68-.7,2.73-.7,1.72,0,2.97.54,3.74,1.62.77,1.08,1.16,2.66,1.16,4.75ZM421.4,35.97c0,1.43.13,2.55.4,3.36.27.81.64,1.39,1.11,1.73.48.34,1.04.51,1.68.51s1.23-.16,1.68-.48c.45-.32.79-.87,1.02-1.64s.35-1.83.35-3.19c0-1.43-.13-2.55-.39-3.37-.26-.82-.63-1.4-1.1-1.73-.48-.34-1.04-.5-1.7-.5s-1.24.16-1.69.48c-.46.32-.79.87-1.02,1.64-.22.77-.34,1.83-.34,3.19Z"/>
    <path class="st1" d="M431.77,42.71v-.63c0-.77.08-1.45.25-2.04s.44-1.12.82-1.6c.38-.48.88-.92,1.49-1.34l1.55-1.05c.62-.41,1.09-.77,1.43-1.09.34-.32.57-.65.71-.98.14-.33.21-.71.21-1.14,0-.71-.25-1.27-.76-1.66s-1.31-.59-2.42-.59h-1.16l-.25,1.09c-.13.06-.29.11-.5.17-.21.06-.39.08-.55.08-.11,0-.24-.07-.38-.21-.14-.14-.26-.31-.35-.51-.09-.2-.14-.38-.14-.54,0-.22.1-.41.3-.55.2-.14.51-.28.91-.42.42-.14.84-.24,1.27-.31.43-.07.89-.1,1.4-.1,1.55,0,2.7.31,3.42.92.73.62,1.09,1.46,1.09,2.52,0,.67-.11,1.25-.33,1.72-.22.48-.55.92-1.01,1.33s-1.04.86-1.75,1.35l-1.66,1.15c-.46.32-.82.65-1.07.99s-.42.68-.51,1.04c-.09.36-.14.74-.14,1.14h2.86c.53,0,1.05-.02,1.55-.06.5-.04,1.03-.11,1.58-.21l.36-.06c.07.14.13.3.17.47.04.18.06.35.06.54,0,.17-.06.3-.17.41s-.26.16-.44.16h-7.88Z"/>
    <path class="st1" d="M445.67,36.69h-1.36c-.04-.08-.08-.2-.11-.34s-.04-.27-.04-.38c0-.34.19-.5.57-.5h1.3c.78,0,1.37-.21,1.76-.64.39-.43.59-1.05.59-1.86,0-.77-.24-1.36-.72-1.76-.48-.41-1.24-.61-2.28-.61h-1.11l-.27,1.09c-.13.06-.29.11-.48.17-.2.06-.37.08-.52.08-.13,0-.25-.07-.38-.21-.13-.14-.23-.31-.33-.51-.09-.2-.14-.39-.14-.56,0-.15.05-.29.16-.4.1-.11.3-.22.58-.34.27-.11.57-.21.9-.3.34-.09.7-.16,1.09-.22.39-.06.8-.08,1.24-.08.95,0,1.74.14,2.36.43s1.08.68,1.39,1.19c.3.5.45,1.08.45,1.74,0,.81-.19,1.51-.56,2.09-.37.58-.93.98-1.69,1.21.88.15,1.53.49,1.95,1.02.42.53.63,1.18.63,1.96,0,.7-.17,1.35-.51,1.95-.34.6-.87,1.09-1.59,1.46-.71.37-1.63.56-2.75.56-.67,0-1.32-.08-1.93-.24-.62-.16-1.12-.37-1.5-.63-.38-.26-.58-.54-.58-.83,0-.22.09-.43.26-.61.17-.18.4-.32.66-.42.45.46.96.81,1.52,1.04.57.23,1.17.35,1.8.35.88,0,1.55-.22,2.02-.66s.69-1.05.69-1.84-.23-1.36-.69-1.77c-.46-.41-1.25-.62-2.37-.62Z"/>
  </g>
  <text class="st3" transform="translate(7.59 62.26)"><tspan x="0" y="0">Annual complaints submitted to the Animal Welfare Board of India and classified as stray </tspan><tspan x="0" y="14.4">dog-related.</tspan></text>
  <g>
    <path class="st1" d="M242.94,414.87c2.47-2.4,4.03-3.97,4.03-5.33,0-.94-.52-1.54-1.47-1.54-.69,0-1.26.45-1.74.99l-.9-.89c.81-.88,1.63-1.38,2.85-1.38,1.7,0,2.82,1.08,2.82,2.73s-1.47,3.22-3.24,5.07c.47-.04,1.06-.09,1.5-.09h2.18v1.37h-6.02v-.94Z"/>
    <path class="st1" d="M250.15,411.32c0-3.01,1.18-4.59,3.03-4.59s3.03,1.59,3.03,4.59-1.18,4.66-3.03,4.66-3.03-1.65-3.03-4.66ZM254.66,411.32c0-2.52-.62-3.32-1.48-3.32s-1.48.8-1.48,3.32.62,3.4,1.48,3.4,1.48-.87,1.48-3.4Z"/>
    <path class="st1" d="M257.31,414.87c2.47-2.4,4.03-3.97,4.03-5.33,0-.94-.52-1.54-1.47-1.54-.69,0-1.26.45-1.74.99l-.9-.89c.81-.88,1.63-1.38,2.85-1.38,1.7,0,2.82,1.08,2.82,2.73s-1.47,3.22-3.24,5.07c.47-.04,1.06-.09,1.5-.09h2.18v1.37h-6.02v-.94Z"/>
    <path class="st1" d="M268.14,410.25c0-.52.04-1.34.07-1.85h-.06c-.22.46-.48.91-.73,1.38l-1.62,2.49h4.96v1.25h-6.56v-1.1l3.53-5.53h1.91v8.92h-1.51v-5.56Z"/>
  </g>
  <g>
    <path class="st1" d="M378.57,414.87c2.47-2.4,4.03-3.97,4.03-5.33,0-.94-.52-1.54-1.47-1.54-.69,0-1.26.45-1.74.99l-.9-.89c.81-.88,1.63-1.38,2.85-1.38,1.7,0,2.82,1.08,2.82,2.73s-1.47,3.22-3.24,5.07c.47-.04,1.06-.09,1.5-.09h2.18v1.37h-6.02v-.94Z"/>
    <path class="st1" d="M385.78,411.32c0-3.01,1.18-4.59,3.03-4.59s3.03,1.59,3.03,4.59-1.18,4.66-3.03,4.66-3.03-1.65-3.03-4.66ZM390.29,411.32c0-2.52-.62-3.32-1.49-3.32s-1.48.8-1.48,3.32.62,3.4,1.48,3.4,1.49-.87,1.49-3.4Z"/>
    <path class="st1" d="M392.94,414.87c2.47-2.4,4.03-3.97,4.03-5.33,0-.94-.52-1.54-1.47-1.54-.69,0-1.26.45-1.74.99l-.9-.89c.81-.88,1.63-1.38,2.85-1.38,1.7,0,2.82,1.08,2.82,2.73s-1.47,3.22-3.24,5.07c.47-.04,1.06-.09,1.5-.09h2.18v1.37h-6.02v-.94Z"/>
    <path class="st1" d="M399.91,414.74l.75-1.03c.53.51,1.18.95,2.08.95,1,0,1.72-.63,1.72-1.71s-.66-1.66-1.64-1.66c-.57,0-.89.15-1.42.5l-.77-.49.27-4.4h4.76v1.37h-3.36l-.19,2.15c.38-.19.72-.29,1.18-.29,1.53,0,2.8.87,2.8,2.78s-1.49,3.07-3.14,3.07c-1.45,0-2.38-.58-3.04-1.24Z"/>
  </g>
  <text class="st4" transform="translate(16.35 441.22)"><tspan x="0" y="0">Source: Animal Welfare Board of India; analysis and AI-assisted classification by the author </tspan><tspan x="0" y="13.2">Note: Includes complaints submitted between March 2023 and December 2025.</tspan></text>
  <g>
    <path class="st7" d="M122.09,367.5c2.3-2.29,3.6-3.67,3.6-4.91,0-.87-.47-1.49-1.45-1.49-.64,0-1.19.41-1.63.92l-.57-.56c.64-.7,1.33-1.16,2.32-1.16,1.41,0,2.3.89,2.3,2.25,0,1.44-1.32,2.86-3.12,4.76.41-.03.89-.07,1.29-.07h2.21v.85h-4.94v-.58Z"/>
    <path class="st7" d="M131.91,361.28h-3.81v-.85h4.93v.6c-1.81,2.32-2.19,4.06-2.31,7.04h-1.02c.13-2.88.7-4.7,2.21-6.8Z"/>
  </g>
  <g>
    <path class="st7" d="M243.91,279.03h1.75v-5.63h-1.39v-.63c.7-.12,1.2-.31,1.63-.56h.75v6.83h1.58v.82h-4.32v-.82Z"/>
    <path class="st7" d="M249.41,279.26c2.3-2.29,3.6-3.67,3.6-4.91,0-.87-.47-1.49-1.45-1.49-.64,0-1.19.41-1.63.92l-.57-.56c.64-.7,1.33-1.16,2.32-1.16,1.41,0,2.3.89,2.3,2.25,0,1.44-1.32,2.86-3.12,4.76.41-.03.89-.07,1.29-.07h2.21v.85h-4.94v-.58Z"/>
    <path class="st7" d="M255.37,279.26c2.3-2.29,3.6-3.67,3.6-4.91,0-.87-.47-1.49-1.45-1.49-.64,0-1.19.41-1.63.92l-.57-.56c.64-.7,1.33-1.16,2.32-1.16,1.41,0,2.3.89,2.3,2.25,0,1.44-1.32,2.86-3.12,4.76.41-.03.89-.07,1.29-.07h2.21v.85h-4.94v-.58Z"/>
  </g>
  <g>
    <path class="st7" d="M379.46,109.47l.5-.64c.46.48,1.06.9,1.95.9s1.59-.54,1.59-1.4c0-.91-.63-1.52-2.44-1.52v-.76c1.62,0,2.17-.62,2.17-1.42,0-.74-.51-1.21-1.32-1.21-.64,0-1.18.32-1.63.78l-.53-.63c.59-.55,1.29-.95,2.2-.95,1.33,0,2.29.71,2.29,1.94,0,.92-.56,1.51-1.39,1.82v.05c.92.22,1.66.89,1.66,1.94,0,1.36-1.12,2.19-2.53,2.19-1.23,0-2-.51-2.51-1.08Z"/>
    <path class="st7" d="M385.64,106.56c0-2.56.92-3.94,2.45-3.94s2.45,1.38,2.45,3.94-.92,4-2.45,4-2.45-1.43-2.45-4ZM389.58,106.56c0-2.24-.61-3.15-1.49-3.15s-1.49.9-1.49,3.15.6,3.2,1.49,3.2,1.49-.96,1.49-3.2Z"/>
    <path class="st7" d="M394.72,105.28c0-.4.03-1.06.06-1.47h-.05c-.19.36-.41.7-.62,1.08l-1.79,2.61h4.38v.79h-5.41v-.65l3.27-4.89h1.1v7.65h-.93v-5.13Z"/>
  </g>
</svg>